<?xml version="1.0" encoding="UTF-8"?>
<!-- Generator: visioncortex VTracer 0.6.3 -->
<svg version="1.1" xmlns="http://www.w3.org/2000/svg" width="1280" height="1280">
<path d="M0 0 C0.89 0.7 1.77 1.4 2.69 2.12 C3.64 2.83 4.59 3.53 5.56 4.25 C12.95 10.59 17.68 17.79 20.23 27.11 C21.25 30.99 21.25 30.99 23.69 34.12 C26.25 34.44 26.25 34.44 29.3 34.39 C30.49 34.4 31.69 34.41 32.91 34.42 C34.23 34.42 35.55 34.42 36.9 34.42 C38.3 34.42 39.69 34.43 41.09 34.44 C44.88 34.45 48.67 34.46 52.47 34.46 C55.63 34.46 58.79 34.47 61.96 34.48 C69.42 34.49 76.88 34.5 84.34 34.5 C92.05 34.49 99.75 34.52 107.46 34.55 C114.07 34.57 120.67 34.58 127.28 34.58 C131.23 34.58 135.18 34.59 139.13 34.61 C142.85 34.63 146.56 34.63 150.28 34.61 C152.29 34.61 154.31 34.63 156.32 34.64 C158.12 34.63 158.12 34.63 159.95 34.62 C160.99 34.62 162.03 34.62 163.11 34.62 C165.81 34.36 165.81 34.36 167.5 32.25 C168.87 29.79 169.5 27.56 170.12 24.81 C172.04 17.36 174.93 12.37 180.69 7.12 C181.35 6.47 182.01 5.82 182.69 5.14 C187.68 0.38 191.94 -2.38 198.69 -3.88 C199.46 -4.05 200.22 -4.22 201.01 -4.39 C213.53 -6.65 228.82 -6.33 240 0 C240.89 0.7 241.77 1.4 242.69 2.12 C243.64 2.83 244.59 3.53 245.56 4.25 C252.95 10.59 257.68 17.79 260.23 27.11 C261.25 30.99 261.25 30.99 263.69 34.12 C265.86 34.44 265.86 34.44 268.39 34.41 C269.37 34.43 270.35 34.44 271.35 34.45 C272.42 34.46 273.49 34.46 274.59 34.47 C275.7 34.48 276.8 34.5 277.94 34.51 C281.5 34.56 285.06 34.59 288.62 34.62 C340.36 35.09 340.36 35.09 351.31 43.56 C353.69 46.12 353.69 46.12 354.98 48.62 C357.12 51.76 358.84 52.39 362.38 53.69 C363.44 54.11 364.51 54.52 365.61 54.95 C366.63 55.34 367.64 55.73 368.69 56.12 C375.44 58.73 378.4 61.66 381.69 68.12 C382.08 69.01 382.47 69.9 382.88 70.81 C384.96 73.48 386.58 74.15 389.62 75.56 C396.8 78.96 398.46 83.45 401.12 90.69 C402.95 95.61 404.51 98.78 408.69 102.12 C416.9 109.14 418.98 119.81 419.98 130.17 C420.63 138.89 420.83 147.55 420.82 156.3 C420.82 157.77 420.83 159.25 420.83 160.73 C420.83 164.75 420.83 168.77 420.83 172.79 C420.83 177.15 420.84 181.5 420.84 185.85 C420.85 194.36 420.85 202.88 420.85 211.39 C420.86 218.32 420.86 225.24 420.86 232.17 C420.87 251.85 420.87 271.52 420.87 291.2 C420.87 292.79 420.87 292.79 420.87 294.41 C420.87 296 420.87 296 420.87 297.62 C420.87 314.79 420.88 331.96 420.9 349.13 C420.91 366.8 420.92 384.47 420.92 402.14 C420.92 412.04 420.92 421.94 420.93 431.85 C420.94 440.28 420.94 448.72 420.93 457.15 C420.93 461.44 420.93 465.74 420.94 470.03 C421.05 527.32 421.05 527.32 409.36 539.54 C408.1 540.73 406.81 541.88 405.5 543 C402.51 546.5 401.29 550.85 399.69 555.12 C397.48 560.59 394.45 563.78 389.69 567.12 C388.66 567.56 387.62 567.99 386.56 568.44 C383.4 570.3 382.87 571.26 381.25 574.44 C377.67 581.4 373.41 584.69 366.06 587.31 C365.16 587.59 364.26 587.88 363.34 588.17 C358.56 589.89 355.53 592.01 352.5 596.06 C345.93 603.81 335.45 605.45 325.75 606.42 C315.97 607.17 306.24 607.27 296.43 607.26 C294.62 607.26 292.81 607.26 291 607.27 C286.05 607.27 281.1 607.27 276.16 607.27 C270.81 607.27 265.46 607.28 260.11 607.28 C249.65 607.29 239.18 607.29 228.71 607.29 C220.2 607.29 211.69 607.29 203.18 607.3 C179.01 607.31 154.85 607.31 130.68 607.31 C129.38 607.31 128.08 607.31 126.74 607.31 C125.44 607.31 124.14 607.31 122.79 607.31 C101.69 607.31 80.58 607.32 59.48 607.33 C37.78 607.35 16.08 607.35 -5.63 607.35 C-17.8 607.35 -29.97 607.36 -42.14 607.37 C-52.5 607.38 -62.87 607.38 -73.23 607.37 C-78.51 607.37 -83.79 607.37 -89.07 607.38 C-93.92 607.38 -98.77 607.38 -103.61 607.37 C-105.35 607.37 -107.09 607.37 -108.83 607.38 C-150.97 607.51 -150.97 607.51 -163.31 597.12 C-164.18 595.64 -164.18 595.64 -165.06 594.12 C-168.63 589.36 -173.86 588.16 -179.31 586.12 C-186.06 583.53 -189.03 580.59 -192.31 574.12 C-192.7 573.24 -193.1 572.35 -193.5 571.44 C-195.59 568.77 -197.2 568.1 -200.25 566.69 C-207.42 563.29 -209.09 558.8 -211.75 551.56 C-213.58 546.64 -215.13 543.47 -219.31 540.12 C-229.64 531.06 -230.23 517.89 -231.11 504.97 C-231.44 498.62 -231.45 492.27 -231.45 485.92 C-231.45 484.43 -231.45 482.95 -231.45 481.47 C-231.46 477.44 -231.46 473.4 -231.46 469.37 C-231.46 465.01 -231.46 460.64 -231.47 456.28 C-231.48 447.74 -231.48 439.2 -231.48 430.67 C-231.48 423.72 -231.48 416.77 -231.49 409.83 C-231.49 390.1 -231.5 370.36 -231.5 350.63 C-231.5 349.57 -231.5 348.51 -231.5 347.41 C-231.5 346.35 -231.5 345.29 -231.5 344.19 C-231.5 326.97 -231.51 309.76 -231.52 292.54 C-231.54 274.82 -231.54 257.1 -231.54 239.38 C-231.54 229.45 -231.54 219.52 -231.55 209.59 C-231.56 201.13 -231.57 192.67 -231.56 184.21 C-231.56 179.91 -231.56 175.6 -231.56 171.3 C-231.67 114.23 -231.67 114.23 -220.88 102.43 C-219.31 101.12 -219.31 101.12 -217.25 100.2 C-214.76 98.82 -214.31 97.62 -213.25 95 C-212.92 94.2 -212.59 93.4 -212.25 92.57 C-211.4 90.35 -210.6 88.12 -209.81 85.88 C-208.16 81.49 -206.52 78.12 -202.04 76.1 C-200.75 75.55 -200.75 75.55 -199.44 75 C-193.85 72.43 -192.26 69.03 -189.64 63.64 C-186.22 57.16 -178.74 55.66 -172.24 53.37 C-168.18 51.64 -166.74 49.69 -164.12 46.19 C-157.51 38.32 -146.25 36.8 -136.51 35.85 C-128.92 35.24 -121.39 34.98 -113.77 34.95 C-111.46 34.93 -109.15 34.9 -106.83 34.88 C-103.24 34.84 -99.64 34.81 -96.04 34.8 C-92.54 34.78 -89.03 34.74 -85.52 34.7 C-83.9 34.7 -83.9 34.7 -82.25 34.71 C-81.25 34.69 -80.25 34.67 -79.22 34.66 C-77.9 34.65 -77.9 34.65 -76.56 34.64 C-74.16 34.31 -74.16 34.31 -72.56 32.25 C-71.12 29.79 -70.51 27.59 -69.88 24.81 C-67.96 17.36 -65.07 12.37 -59.31 7.12 C-58.32 6.14 -58.32 6.14 -57.31 5.14 C-52.32 0.38 -48.06 -2.38 -41.31 -3.88 C-40.16 -4.13 -40.16 -4.13 -38.99 -4.39 C-26.47 -6.65 -11.18 -6.33 0 0 Z M-39.31 212.12 C-40.01 213.55 -40.67 214.99 -41.31 216.44 C-44.03 221.57 -47.62 223.38 -52.79 225.74 C-55.72 227.35 -56.84 228.11 -58.31 231.12 C-58.79 234.44 -58.82 237.71 -58.81 241.06 C-58.84 241.96 -58.87 242.85 -58.9 243.77 C-58.91 248.26 -58.83 250.44 -56.07 254.11 C-53.66 255.87 -51.45 257.25 -48.75 258.5 C-44 261 -42.62 263.34 -40.31 268.12 C-39.01 270.98 -39.01 270.98 -36.31 273.12 C-32.62 273.86 -29.01 273.78 -25.25 273.69 C-23.74 273.7 -23.74 273.7 -22.2 273.72 C-18.22 273.72 -18.22 273.72 -14.31 273.12 C-12.08 270.69 -10.83 268.21 -9.56 265.19 C-6.4 258.7 -0.62 256.13 5.69 253.12 C8.12 250.69 6.97 244.51 7 241.25 C7.04 239.72 7.04 239.72 7.09 238.16 C7.1 236.69 7.1 236.69 7.11 235.2 C7.13 234.3 7.14 233.4 7.16 232.47 C6.9 229.97 6.9 229.97 4.78 228.37 C2.81 227.2 0.87 226.26 -1.25 225.38 C-7.74 222.21 -10.31 216.44 -13.31 210.12 C-15.73 207.7 -21.94 208.89 -25.19 208.88 C-26.21 208.85 -27.23 208.83 -28.28 208.81 C-29.26 208.81 -30.23 208.8 -31.24 208.8 C-32.59 208.78 -32.59 208.78 -33.97 208.77 C-36.77 209.2 -37.6 209.91 -39.31 212.12 Z M80.69 212.12 C79.99 213.55 79.33 214.99 78.69 216.44 C75.97 221.57 72.38 223.38 67.21 225.74 C64.28 227.35 63.16 228.11 61.69 231.12 C61.21 234.44 61.18 237.71 61.19 241.06 C61.16 241.96 61.13 242.85 61.1 243.77 C61.09 248.26 61.17 250.44 63.93 254.11 C66.34 255.87 68.55 257.25 71.25 258.5 C76 261 77.38 263.34 79.69 268.12 C80.99 270.98 80.99 270.98 83.69 273.12 C87.38 273.86 90.99 273.78 94.75 273.69 C96.26 273.7 96.26 273.7 97.8 273.72 C101.78 273.72 101.78 273.72 105.69 273.12 C107.92 270.69 109.17 268.21 110.44 265.19 C113.6 258.7 119.38 256.13 125.69 253.12 C128.12 250.69 126.97 244.51 127 241.25 C127.04 239.72 127.04 239.72 127.09 238.16 C127.1 236.69 127.1 236.69 127.11 235.2 C127.13 234.3 127.14 233.4 127.16 232.47 C126.9 229.97 126.9 229.97 124.78 228.37 C122.81 227.2 120.87 226.26 118.75 225.38 C112.26 222.21 109.69 216.44 106.69 210.12 C104.27 207.7 98.06 208.89 94.81 208.88 C93.79 208.85 92.77 208.83 91.72 208.81 C90.74 208.81 89.77 208.8 88.76 208.8 C87.41 208.78 87.41 208.78 86.03 208.77 C83.23 209.2 82.4 209.91 80.69 212.12 Z M200.69 212.12 C199.99 213.55 199.33 214.99 198.69 216.44 C195.97 221.57 192.38 223.38 187.21 225.74 C184.28 227.35 183.16 228.11 181.69 231.12 C181.21 234.44 181.18 237.71 181.19 241.06 C181.16 241.96 181.13 242.85 181.1 243.77 C181.09 248.26 181.17 250.44 183.93 254.11 C186.34 255.87 188.55 257.25 191.25 258.5 C196 261 197.38 263.34 199.69 268.12 C200.99 270.98 200.99 270.98 203.69 273.12 C207.38 273.86 210.99 273.78 214.75 273.69 C216.26 273.7 216.26 273.7 217.8 273.72 C221.78 273.72 221.78 273.72 225.69 273.12 C227.92 270.69 229.17 268.21 230.44 265.19 C233.6 258.7 239.38 256.13 245.69 253.12 C248.12 250.69 246.97 244.51 247 241.25 C247.04 239.72 247.04 239.72 247.09 238.16 C247.1 236.69 247.1 236.69 247.11 235.2 C247.13 234.3 247.14 233.4 247.16 232.47 C246.9 229.97 246.9 229.97 244.78 228.37 C242.81 227.2 240.87 226.26 238.75 225.38 C232.26 222.21 229.69 216.44 226.69 210.12 C224.27 207.7 218.06 208.89 214.81 208.88 C213.79 208.85 212.77 208.83 211.72 208.81 C210.74 208.81 209.77 208.8 208.76 208.8 C207.41 208.78 207.41 208.78 206.03 208.77 C203.23 209.2 202.4 209.91 200.69 212.12 Z M-39.31 372.12 C-40.01 373.55 -40.67 374.99 -41.31 376.44 C-44.03 381.57 -47.62 383.38 -52.79 385.74 C-55.72 387.35 -56.84 388.11 -58.31 391.12 C-58.79 394.44 -58.82 397.71 -58.81 401.06 C-58.84 401.96 -58.87 402.85 -58.9 403.77 C-58.91 408.26 -58.83 410.44 -56.07 414.11 C-53.66 415.87 -51.45 417.25 -48.75 418.5 C-44 421 -42.62 423.34 -40.31 428.12 C-39.01 430.98 -39.01 430.98 -36.31 433.12 C-32.62 433.86 -29.01 433.78 -25.25 433.69 C-23.74 433.7 -23.74 433.7 -22.2 433.72 C-18.22 433.72 -18.22 433.72 -14.31 433.12 C-12.08 430.69 -10.83 428.21 -9.56 425.19 C-6.4 418.7 -0.62 416.13 5.69 413.12 C8.12 410.69 6.97 404.51 7 401.25 C7.04 399.72 7.04 399.72 7.09 398.16 C7.1 396.69 7.1 396.69 7.11 395.2 C7.13 394.3 7.14 393.4 7.16 392.47 C6.9 389.97 6.9 389.97 4.78 388.37 C2.81 387.2 0.87 386.26 -1.25 385.38 C-7.74 382.21 -10.31 376.44 -13.31 370.12 C-15.73 367.7 -21.94 368.89 -25.19 368.88 C-26.21 368.85 -27.23 368.83 -28.28 368.81 C-29.26 368.81 -30.23 368.8 -31.24 368.8 C-32.59 368.78 -32.59 368.78 -33.97 368.77 C-36.77 369.2 -37.6 369.91 -39.31 372.12 Z M80.69 372.12 C79.99 373.55 79.33 374.99 78.69 376.44 C75.97 381.57 72.38 383.38 67.21 385.74 C64.28 387.35 63.16 388.11 61.69 391.12 C61.21 394.44 61.18 397.71 61.19 401.06 C61.16 401.96 61.13 402.85 61.1 403.77 C61.09 408.26 61.17 410.44 63.93 414.11 C66.34 415.87 68.55 417.25 71.25 418.5 C76 421 77.38 423.34 79.69 428.12 C80.99 430.98 80.99 430.98 83.69 433.12 C87.38 433.86 90.99 433.78 94.75 433.69 C96.26 433.7 96.26 433.7 97.8 433.72 C101.78 433.72 101.78 433.72 105.69 433.12 C107.92 430.69 109.17 428.21 110.44 425.19 C113.6 418.7 119.38 416.13 125.69 413.12 C128.12 410.69 126.97 404.51 127 401.25 C127.04 399.72 127.04 399.72 127.09 398.16 C127.1 396.69 127.1 396.69 127.11 395.2 C127.13 394.3 127.14 393.4 127.16 392.47 C126.9 389.97 126.9 389.97 124.78 388.37 C122.81 387.2 120.87 386.26 118.75 385.38 C112.26 382.21 109.69 376.44 106.69 370.12 C104.27 367.7 98.06 368.89 94.81 368.88 C93.79 368.85 92.77 368.83 91.72 368.81 C90.74 368.81 89.77 368.8 88.76 368.8 C87.41 368.78 87.41 368.78 86.03 368.77 C83.23 369.2 82.4 369.91 80.69 372.12 Z M200.69 372.12 C199.99 373.55 199.33 374.99 198.69 376.44 C195.97 381.57 192.38 383.38 187.21 385.74 C184.28 387.35 183.16 388.11 181.69 391.12 C181.21 394.44 181.18 397.71 181.19 401.06 C181.16 401.96 181.13 402.85 181.1 403.77 C181.09 408.26 181.17 410.44 183.93 414.11 C186.34 415.87 188.55 417.25 191.25 418.5 C196 421 197.38 423.34 199.69 428.12 C200.99 430.98 200.99 430.98 203.69 433.12 C207.38 433.86 210.99 433.78 214.75 433.69 C216.26 433.7 216.26 433.7 217.8 433.72 C221.78 433.72 221.78 433.72 225.69 433.12 C227.92 430.69 229.17 428.21 230.44 425.19 C233.6 418.7 239.38 416.13 245.69 413.12 C248.12 410.69 246.97 404.51 247 401.25 C247.04 399.72 247.04 399.72 247.09 398.16 C247.1 396.69 247.1 396.69 247.11 395.2 C247.13 394.3 247.14 393.4 247.16 392.47 C246.9 389.97 246.9 389.97 244.78 388.37 C242.81 387.2 240.87 386.26 238.75 385.38 C232.26 382.21 229.69 376.44 226.69 370.12 C224.27 367.7 218.06 368.89 214.81 368.88 C213.79 368.85 212.77 368.83 211.72 368.81 C210.74 368.81 209.77 368.8 208.76 368.8 C207.41 368.78 207.41 368.78 206.03 368.77 C203.23 369.2 202.4 369.91 200.69 372.12 Z " fill="#000000" transform="translate(305.3125,598.875)"/>
<path d="M0 0 C1.87 -0 3.73 -0.01 5.6 -0.01 C10.68 -0.02 15.75 -0.01 20.83 -0.01 C26.32 -0 31.82 -0.01 37.31 -0.02 C48.06 -0.02 58.8 -0.02 69.55 -0.02 C78.28 -0.01 87.02 -0.01 95.76 -0.01 C97 -0.01 98.25 -0.01 99.54 -0.01 C102.07 -0.02 104.6 -0.02 107.13 -0.02 C130.17 -0.02 153.22 -0.02 176.26 -0.01 C197.25 0 218.25 0 239.24 -0.01 C262.88 -0.02 286.51 -0.02 310.15 -0.02 C312.67 -0.01 315.19 -0.01 317.72 -0.01 C318.96 -0.01 320.2 -0.01 321.48 -0.01 C330.2 -0.01 338.92 -0.01 347.64 -0.02 C358.27 -0.02 368.91 -0.02 379.55 -0.01 C384.97 -0.01 390.39 -0 395.81 -0.01 C400.78 -0.02 405.75 -0.01 410.73 -0 C412.52 -0 414.3 -0 416.09 -0.01 C425.13 -0.03 434.05 0.23 443.05 1.16 C443.82 1.24 444.6 1.31 445.39 1.4 C454.68 2.45 464.21 4.14 470.8 11.25 C471.23 12.08 471.66 12.9 472.1 13.75 C474.24 16.89 475.96 17.52 479.49 18.82 C480.56 19.23 481.63 19.65 482.73 20.08 C483.74 20.47 484.76 20.86 485.8 21.25 C492.55 23.86 495.52 26.78 498.8 33.25 C499.39 34.58 499.39 34.58 499.99 35.94 C502.08 38.61 503.69 39.28 506.74 40.69 C513.92 44.09 515.58 48.58 518.24 55.82 C520.07 60.74 521.62 63.91 525.8 67.25 C533.98 74.24 536.08 84.84 537.09 95.15 C537.67 103.27 537.92 111.37 538.05 119.52 C538.07 120.6 538.08 121.69 538.1 122.81 C538.17 127.34 538.23 131.88 538.28 136.41 C538.32 139.76 538.37 143.11 538.42 146.45 C538.44 147.99 538.44 147.99 538.45 149.56 C538.48 150.99 538.48 150.99 538.5 152.45 C538.51 153.28 538.52 154.12 538.53 154.98 C538.83 157.5 539.43 159.12 540.8 161.25 C543.17 162.03 543.17 162.03 545.93 162.25 C554.94 163.63 561.58 167.53 567.8 174.25 C567.8 174.91 567.8 175.57 567.8 176.25 C568.68 176.52 569.56 176.78 570.46 177.05 C573.74 178.23 576.32 179.62 579.24 181.5 C580.13 182.07 581.01 182.63 581.92 183.21 C582.87 183.88 583.82 184.56 584.8 185.25 C585.36 185.65 585.92 186.04 586.5 186.44 C592.87 191.33 595.68 197.97 599.18 205.02 C602.15 210.79 605.21 215.15 610.03 219.52 C619.58 228.9 617.87 246.76 618.02 259.11 C618.37 301.64 618.37 301.64 610.8 312.25 C609.55 313.48 608.27 314.69 606.97 315.86 C602.43 320.32 599.92 325.17 597.24 330.88 C592.58 340.81 587.49 345.87 578.18 351.44 C577.09 352.1 576.01 352.75 574.89 353.42 C572.95 354.57 571.01 355.72 569.05 356.84 C566.64 358.24 566.64 358.24 564.43 360.63 C558.24 366.82 552.45 369.56 543.8 371.25 C542.81 371.25 541.82 371.25 540.8 371.25 C539.07 374.27 538.55 376.43 538.55 379.89 C538.54 381.3 538.54 381.3 538.53 382.73 C538.54 383.76 538.54 384.78 538.55 385.84 C538.54 387.48 538.54 387.48 538.54 389.16 C538.53 392.86 538.53 396.57 538.54 400.27 C538.54 402.94 538.53 405.61 538.53 408.28 C538.52 414.1 538.51 419.92 538.51 425.74 C538.52 434.4 538.51 443.06 538.5 451.71 C538.48 466.28 538.47 480.85 538.47 495.41 C538.46 515.32 538.44 535.23 538.42 555.13 C538.41 564.41 538.4 573.68 538.39 582.96 C538.39 583.89 538.39 584.81 538.39 585.77 C538.37 607.88 538.35 630 538.34 652.11 C538.33 653.08 538.33 654.05 538.33 655.04 C538.32 669.76 538.31 684.48 538.3 699.19 C538.29 714.85 538.28 730.52 538.27 746.18 C538.27 747.14 538.27 748.11 538.27 749.1 C538.25 771.14 538.24 793.18 538.22 815.23 C538.21 816.15 538.21 817.08 538.21 818.04 C538.2 827.3 538.19 836.56 538.18 845.82 C538.16 865.7 538.14 885.58 538.14 905.45 C538.13 919.95 538.12 934.46 538.11 948.96 C538.1 957.56 538.09 966.17 538.09 974.77 C538.09 980.54 538.09 986.3 538.08 992.06 C538.07 995.34 538.07 998.61 538.07 1001.88 C538.14 1052.48 538.14 1052.48 526.47 1064.67 C525.22 1065.86 523.93 1067.01 522.62 1068.13 C519.63 1071.63 518.41 1075.98 516.8 1080.25 C514.6 1085.72 511.56 1088.9 506.8 1092.25 C505.77 1092.69 504.74 1093.12 503.68 1093.57 C500.51 1095.43 499.99 1096.39 498.37 1099.57 C494.78 1106.53 490.52 1109.82 483.18 1112.44 C482.28 1112.72 481.38 1113.01 480.45 1113.3 C475.68 1115.02 472.64 1117.14 469.62 1121.19 C463.07 1128.92 452.68 1130.53 443.02 1131.55 C431.75 1132.44 420.49 1132.41 409.18 1132.42 C406.92 1132.42 404.66 1132.42 402.4 1132.43 C396.3 1132.44 390.2 1132.45 384.1 1132.45 C380.28 1132.46 376.47 1132.46 372.65 1132.47 C362.06 1132.48 351.46 1132.49 340.87 1132.49 C340.19 1132.49 339.52 1132.49 338.82 1132.49 C338.14 1132.49 337.47 1132.49 336.77 1132.49 C335.4 1132.49 334.03 1132.49 332.66 1132.49 C331.98 1132.49 331.3 1132.49 330.6 1132.49 C319.56 1132.5 308.53 1132.52 297.5 1132.54 C286.14 1132.56 274.78 1132.58 263.42 1132.58 C257.05 1132.58 250.68 1132.58 244.32 1132.6 C238.34 1132.62 232.35 1132.62 226.37 1132.61 C224.18 1132.61 221.99 1132.62 219.8 1132.63 C193.27 1132.74 193.27 1132.74 183.8 1125.25 C182.85 1124.55 181.91 1123.85 180.93 1123.13 C172.68 1116.05 167.65 1107.94 165.8 1097.25 C164.87 1083.25 164.66 1069.23 172.8 1057.25 C174.99 1054.82 174.99 1054.82 177.8 1052.25 C178.46 1051.6 179.13 1050.95 179.81 1050.27 C184.8 1045.51 189.05 1042.74 195.8 1041.25 C196.5 1041.08 197.2 1040.91 197.92 1040.73 C201.64 1040.11 205.31 1040.11 209.07 1040.11 C209.9 1040.11 210.73 1040.1 211.59 1040.1 C214.36 1040.09 217.14 1040.08 219.92 1040.08 C221.91 1040.07 223.91 1040.07 225.9 1040.06 C230.19 1040.05 234.48 1040.03 238.78 1040.02 C245.58 1040.01 252.38 1039.98 259.18 1039.96 C278.53 1039.89 297.87 1039.83 317.21 1039.78 C327.89 1039.75 338.57 1039.71 349.26 1039.67 C356 1039.64 362.75 1039.63 369.5 1039.61 C373.72 1039.61 377.94 1039.59 382.16 1039.57 C384.1 1039.56 386.04 1039.56 387.98 1039.56 C397.13 1039.55 406.26 1039.41 415.37 1038.56 C416.07 1038.51 416.78 1038.46 417.5 1038.41 C421.13 1038.01 422.56 1037.54 424.97 1034.73 C426.42 1032 426.42 1032 427.56 1029.02 C429.52 1024.67 432.76 1022.57 436.8 1020.25 C438.31 1019.69 438.31 1019.69 439.85 1019.11 C443.07 1017.52 443.07 1017.52 443.82 1014.23 C443.93 1012.94 444.05 1011.64 444.16 1010.31 C444.23 1009.58 444.29 1008.84 444.36 1008.07 C445.24 996.85 445.09 985.56 445.06 974.31 C445.06 970.8 445.07 967.29 445.07 963.78 C445.08 957.65 445.08 951.51 445.08 945.37 C445.07 936.25 445.08 927.12 445.09 918 C445.1 902.64 445.11 887.29 445.11 871.93 C445.11 850.96 445.12 830 445.14 809.03 C445.15 799.25 445.16 789.47 445.17 779.69 C445.17 778.23 445.17 778.23 445.17 776.73 C445.19 753.46 445.2 730.18 445.22 706.91 C445.22 705.39 445.22 705.39 445.22 703.83 C445.23 680.07 445.24 656.31 445.25 632.56 C445.25 624.31 445.26 616.06 445.26 607.81 C445.26 606.8 445.26 605.78 445.26 604.73 C445.27 581.48 445.28 558.24 445.3 534.99 C445.3 534.02 445.3 533.04 445.3 532.03 C445.31 522.28 445.32 512.53 445.33 502.77 C445.34 497.98 445.34 493.18 445.34 488.38 C445.35 486.96 445.35 486.96 445.35 485.52 C445.36 470.32 445.36 455.13 445.36 439.93 C445.36 424.67 445.37 409.41 445.39 394.14 C445.4 385.08 445.4 376.01 445.39 366.94 C445.39 360.89 445.39 354.83 445.41 348.77 C445.42 345.32 445.42 341.87 445.41 338.42 C445.4 334.7 445.41 330.98 445.42 327.26 C445.42 326.19 445.41 325.13 445.4 324.03 C445.49 313.23 447.62 303.03 454.99 294.82 C455.92 293.97 456.85 293.13 457.8 292.25 C458.46 291.6 459.13 290.95 459.81 290.27 C464.8 285.51 469.05 282.74 475.8 281.25 C476.95 281 476.95 281 478.12 280.74 C480.75 280.26 483.2 280.1 485.87 280.04 C486.82 280.02 487.78 279.99 488.76 279.96 C490.27 279.92 490.27 279.92 491.8 279.88 C500.58 279.58 508.33 278.66 516.8 276.25 C516.8 269.65 516.8 263.05 516.8 256.25 C506.19 253.34 496.64 252.83 485.7 252.87 C483.92 252.87 482.13 252.86 480.34 252.85 C476.52 252.84 472.7 252.84 468.87 252.84 C462.82 252.85 456.77 252.83 450.72 252.81 C436.78 252.77 422.84 252.76 408.9 252.75 C396.12 252.74 383.33 252.72 370.54 252.68 C364.53 252.66 358.52 252.66 352.52 252.67 C348.77 252.67 345.03 252.66 341.28 252.64 C339.55 252.64 337.83 252.64 336.1 252.65 C313.26 252.73 313.26 252.73 303.8 245.25 C302.85 244.55 301.91 243.85 300.93 243.13 C292.68 236.05 287.65 227.94 285.8 217.25 C284.87 203.25 284.66 189.23 292.8 177.25 C294.99 174.82 294.99 174.82 297.8 172.25 C298.46 171.6 299.13 170.95 299.81 170.27 C304.8 165.51 309.05 162.74 315.8 161.25 C316.57 161.08 317.33 160.91 318.11 160.73 C320.8 160.26 323.25 160.12 325.98 160.12 C327.51 160.11 327.51 160.11 329.07 160.1 C330.18 160.1 331.29 160.1 332.43 160.1 C333.61 160.09 334.78 160.09 335.99 160.08 C339.21 160.07 342.43 160.06 345.65 160.05 C349.01 160.04 352.38 160.02 355.75 160 C367.22 159.94 378.69 159.89 390.16 159.85 C396.49 159.83 402.83 159.81 409.17 159.76 C412.52 159.74 415.88 159.73 419.23 159.73 C422.97 159.72 426.7 159.7 430.43 159.67 C432.1 159.67 432.1 159.67 433.81 159.68 C435.33 159.66 435.33 159.66 436.88 159.65 C438.21 159.64 438.21 159.64 439.56 159.64 C442.27 159.17 443.17 158.43 444.8 156.25 C445.25 153.92 445.25 153.92 445.17 151.31 C445.17 149.83 445.17 149.83 445.17 148.32 C445.15 147.27 445.13 146.21 445.12 145.13 C445.1 144.05 445.08 142.98 445.07 141.87 C445.02 139.7 444.97 137.52 444.9 135.34 C444.84 133.41 444.79 131.49 444.77 129.56 C444.69 124.55 444.46 120.01 442.8 115.25 C440.18 112.94 437.81 111.79 434.57 110.5 C429.32 108.14 426.64 103.44 424.64 98.21 C423.08 95.02 423.08 95.02 419.97 94.24 C404.9 92.86 389.78 92.97 374.66 92.99 C370.44 93 366.21 92.99 361.99 92.98 C353.74 92.98 345.48 92.98 337.23 92.98 C330.52 92.99 323.81 92.99 317.09 92.99 C316.13 92.99 315.18 92.99 314.19 92.99 C312.24 92.98 310.29 92.98 308.34 92.98 C290.12 92.98 271.89 92.98 253.66 93 C238.05 93 222.44 93 206.83 92.99 C188.67 92.98 170.5 92.98 152.34 92.98 C150.39 92.99 148.45 92.99 146.51 92.99 C145.08 92.99 145.08 92.99 143.62 92.99 C136.92 92.99 130.23 92.99 123.53 92.98 C115.36 92.98 107.19 92.98 99.01 92.99 C94.85 92.99 90.69 93 86.53 92.99 C63.29 91.72 63.29 91.72 40.8 95.25 C38.13 98.41 36.39 101.39 34.57 105.11 C31.95 109.78 28.58 111.25 23.8 113.25 C20.48 114.97 20.48 114.97 20.08 118.44 C19.92 119.83 19.77 121.21 19.63 122.59 C19.55 123.35 19.47 124.1 19.39 124.88 C18.5 134.18 18.52 143.49 18.53 152.83 C18.53 154.83 18.52 156.84 18.52 158.84 C18.51 163.12 18.5 167.4 18.5 171.68 C18.5 178.46 18.48 185.23 18.46 192.01 C18.41 208.82 18.38 225.64 18.36 242.46 C18.34 255.56 18.32 268.66 18.27 281.76 C18.25 288.49 18.24 295.22 18.25 301.94 C18.24 306.13 18.23 310.32 18.21 314.51 C18.21 316.44 18.21 318.38 18.21 320.31 C18.25 338.25 15.91 349.58 2.95 362.62 C-1.6 367.02 -5.96 369.8 -12.2 371.25 C-13.25 371.51 -13.25 371.51 -14.32 371.78 C-18.04 372.39 -21.71 372.4 -25.47 372.4 C-26.3 372.4 -27.12 372.41 -27.98 372.41 C-30.76 372.42 -33.53 372.42 -36.31 372.43 C-38.31 372.43 -40.3 372.44 -42.29 372.45 C-46.58 372.46 -50.88 372.47 -55.17 372.48 C-61.97 372.5 -68.77 372.52 -75.58 372.55 C-94.92 372.62 -114.26 372.68 -133.6 372.73 C-144.28 372.76 -154.97 372.79 -165.65 372.84 C-172.4 372.86 -179.14 372.88 -185.89 372.89 C-190.11 372.9 -194.33 372.92 -198.55 372.94 C-200.49 372.95 -202.43 372.95 -204.38 372.95 C-213.5 372.96 -222.61 373.09 -231.71 373.88 C-232.4 373.92 -233.09 373.96 -233.81 374 C-237.86 374.43 -239.11 375.15 -241.81 378.28 C-243.09 380.51 -244.29 382.79 -245.43 385.11 C-248.05 389.78 -251.42 391.25 -256.2 393.25 C-259.5 394.96 -259.5 394.96 -259.91 398.36 C-260.08 399.72 -260.22 401.09 -260.36 402.45 C-260.44 403.2 -260.52 403.94 -260.6 404.71 C-261.67 415.81 -261.58 426.99 -261.65 438.13 C-261.79 456.98 -263.39 468.87 -277.05 482.62 C-287.55 492.77 -299.93 492.62 -313.77 492.47 C-322.34 492.24 -329.37 490.65 -336.2 485.25 C-337.15 484.55 -338.09 483.85 -339.07 483.13 C-347.31 476.06 -352.37 467.93 -354.2 457.25 C-354.28 455.56 -354.33 453.87 -354.33 452.18 C-354.33 451.18 -354.34 450.18 -354.34 449.15 C-354.34 448.07 -354.34 446.98 -354.34 445.86 C-354.35 444.71 -354.35 443.56 -354.35 442.37 C-354.36 438.56 -354.36 434.74 -354.36 430.93 C-354.37 428.94 -354.37 426.95 -354.37 424.96 C-354.38 418.7 -354.38 412.43 -354.38 406.17 C-354.38 399.75 -354.39 393.33 -354.41 386.91 C-354.42 381.38 -354.43 375.84 -354.43 370.3 C-354.42 367 -354.43 363.71 -354.44 360.41 C-354.56 315.09 -354.56 315.09 -345.76 304.25 C-343.2 302.25 -343.2 302.25 -340.68 301.07 C-337.24 298.56 -336.99 296.27 -335.95 292.19 C-333.74 284.52 -330.05 279.73 -324.2 274.25 C-321.09 271.22 -318.37 268.22 -315.76 264.75 C-313.7 262.05 -311.74 259.69 -309.07 257.57 C-305.97 255.07 -303.71 252.34 -301.2 249.25 C-299.55 247.57 -297.88 245.9 -296.2 244.25 C-295.03 243.09 -293.86 241.92 -292.7 240.75 C-292.1 240.16 -291.5 239.56 -290.89 238.95 C-289.46 237.52 -288.05 236.08 -286.63 234.63 C-284.2 232.25 -284.2 232.25 -281.32 229.94 C-278.1 227.32 -275.54 224.26 -272.86 221.1 C-270.84 218.86 -268.56 217.12 -266.2 215.25 C-264.51 213.27 -262.84 211.27 -261.2 209.25 C-259.55 207.57 -257.88 205.9 -256.2 204.25 C-255.03 203.09 -253.86 201.92 -252.7 200.75 C-251.8 199.86 -251.8 199.86 -250.89 198.95 C-249.46 197.52 -248.05 196.08 -246.63 194.63 C-244.2 192.25 -244.2 192.25 -241.32 189.94 C-238.1 187.32 -235.54 184.26 -232.86 181.1 C-230.84 178.86 -228.56 177.12 -226.2 175.25 C-224.51 173.27 -222.84 171.27 -221.2 169.25 C-218.03 165.91 -214.64 162.87 -211.2 159.82 C-207.47 156.49 -204.3 153.15 -201.2 149.25 C-198.03 145.91 -194.64 142.87 -191.2 139.82 C-187.47 136.49 -184.3 133.15 -181.2 129.25 C-178.03 125.91 -174.64 122.87 -171.2 119.82 C-167.47 116.49 -164.3 113.15 -161.2 109.25 C-159.55 107.57 -157.88 105.9 -156.2 104.25 C-155.03 103.09 -153.86 101.92 -152.7 100.75 C-151.8 99.86 -151.8 99.86 -150.89 98.95 C-149.46 97.52 -148.05 96.08 -146.63 94.63 C-144.2 92.25 -144.2 92.25 -141.32 89.94 C-138.1 87.32 -135.54 84.26 -132.86 81.1 C-130.84 78.86 -128.56 77.12 -126.2 75.25 C-124.51 73.27 -122.84 71.27 -121.2 69.25 C-119.55 67.57 -117.88 65.9 -116.2 64.25 C-115.03 63.09 -113.86 61.92 -112.7 60.75 C-112.1 60.16 -111.5 59.56 -110.88 58.95 C-109.48 57.54 -108.09 56.12 -106.7 54.69 C-104.76 52.81 -102.83 51.1 -100.76 49.38 C-98.3 47.31 -96.23 45.19 -94.2 42.69 C-91.71 39.67 -89.07 37.6 -85.84 35.42 C-82.64 33.15 -80.04 30.14 -77.34 27.3 C-71.28 21.34 -65.36 19.26 -57.2 17.25 C-56.21 16.92 -55.22 16.59 -54.2 16.25 C-53.89 14.92 -53.89 14.92 -53.57 13.57 C-51.54 8.66 -47.81 6.66 -43.2 4.25 C-38.53 2.47 -33.96 1.67 -29.02 1.14 C-28.23 1.06 -27.45 0.98 -26.64 0.89 C-17.76 0.01 -8.91 -0.02 0 0 Z " fill="#000000" transform="translate(588.1963958740234,73.74603271484375)"/>
</svg>
