<?xml version="1.0" encoding="UTF-8"?>
<!-- Generator: visioncortex VTracer 0.6.3 -->
<svg version="1.1" xmlns="http://www.w3.org/2000/svg" width="1280" height="1280">
<path d="M0 0 C1.8 -0.02 3.61 -0.06 5.41 -0.1 C19.3 -0.46 28.98 1.06 39.92 10.41 C41.59 12.61 43.12 14.77 44.61 17.09 C45.04 17.75 45.46 18.4 45.9 19.08 C54.29 32.06 61.61 45.29 67.92 59.41 C68.34 60.34 68.76 61.27 69.2 62.23 C69.85 63.67 70.49 65.13 71.13 66.58 C71.87 68.29 72.64 69.97 73.42 71.66 C75.2 75.84 76.44 80.18 77.75 84.53 C78.61 87.41 79.52 90.27 80.44 93.12 C85.39 108.41 85.39 108.41 86.5 114.96 C86.81 116.77 87.19 118.56 87.59 120.35 C90.77 134.58 92.92 149.82 92.92 164.41 C93.99 164.78 93.99 164.78 95.09 165.17 C98.17 166.51 100.55 168.15 103.23 170.16 C104.18 170.86 105.14 171.57 106.12 172.3 C107.04 173 107.97 173.69 108.92 174.41 C109.74 175 110.57 175.59 111.41 176.19 C112.14 176.72 112.86 177.24 113.61 177.78 C114.25 178.24 114.9 178.7 115.56 179.18 C116.01 179.58 116.46 179.99 116.92 180.41 C116.92 181.07 116.92 181.73 116.92 182.41 C117.51 182.67 118.1 182.93 118.71 183.2 C121.04 184.47 122.52 185.81 124.36 187.72 C124.97 188.34 125.57 188.97 126.2 189.61 C127.05 190.5 127.05 190.5 127.92 191.41 C128.75 192.23 129.57 193.06 130.42 193.91 C131.25 194.73 132.07 195.56 132.92 196.41 C133.54 197 134.15 197.59 134.78 198.2 C135.43 198.82 136.07 199.45 136.73 200.09 C137.34 200.67 137.94 201.26 138.57 201.85 C139.92 203.41 139.92 203.41 139.92 205.41 C140.58 205.41 141.24 205.41 141.92 205.41 C143.33 206.95 143.33 206.95 144.98 209.16 C145.61 209.96 146.23 210.77 146.88 211.6 C148.32 213.58 149.69 215.61 151 217.67 C154.75 223.78 154.75 223.78 160.69 227.24 C166.05 227.32 170.84 226.01 175.92 224.41 C196.11 220.44 216.7 219.12 237.23 218.97 C238.39 218.95 238.39 218.95 239.57 218.93 C248.04 218.82 255.46 218.86 262.92 223.41 C263.93 223.96 264.94 224.52 265.98 225.09 C273.85 231.29 279.28 238.53 282.05 248.16 C282.91 252.08 282.91 252.08 284.92 255.41 C290.5 274.16 290.76 298.52 281.96 316.28 C280.38 319.51 279.14 322.88 277.85 326.24 C276.92 328.41 276.92 328.41 274.92 331.41 C274.26 331.41 273.6 331.41 272.92 331.41 C272.67 332 272.42 332.6 272.17 333.21 C270.74 335.73 269.33 336.86 266.98 338.53 C266.29 339.03 265.6 339.53 264.89 340.04 C257.12 345.43 249.26 345.78 240.05 346.41 C227.59 346.88 227.59 346.88 215.83 350.47 C213.92 351.41 213.92 351.41 210.92 351.41 C211.4 353.86 211.88 356.32 212.36 358.78 C212.49 359.48 212.63 360.18 212.77 360.9 C213.5 364.76 213.5 364.76 214.92 368.41 C215.1 370.24 215.24 372.07 215.36 373.91 C215.65 377.79 216.07 381.48 216.92 385.28 C218.08 390.56 218.38 395.82 218.68 401.21 C218.84 404.29 218.84 404.29 219.43 406.79 C219.92 409.42 220.04 411.81 220.02 414.49 C220.02 415.42 220.01 416.35 220.01 417.31 C220 418.27 219.99 419.23 219.98 420.22 C219.98 421.2 219.97 422.18 219.97 423.18 C219.96 425.59 219.94 428 219.92 430.41 C225.25 426.04 230.13 421.26 234.98 416.38 C235.61 415.74 236.24 415.1 236.89 414.45 C239.54 411.77 242.18 409.09 244.82 406.41 C246.76 404.44 248.71 402.47 250.66 400.5 C251.56 399.58 251.56 399.58 252.48 398.65 C253.92 397.19 255.42 395.79 256.92 394.41 C257.58 394.41 258.24 394.41 258.92 394.41 C258.92 393.75 258.92 393.09 258.92 392.41 C267.53 386.38 277.25 385.34 287.56 386.84 C305.39 391.09 322.72 402.07 332.92 417.41 C332.92 418.07 332.92 418.73 332.92 419.41 C333.58 419.41 334.24 419.41 334.92 419.41 C350.41 449.93 350.41 449.93 345.92 465.72 C345.59 466.6 345.26 467.49 344.92 468.41 C344.26 468.41 343.6 468.41 342.92 468.41 C342.59 470.06 342.26 471.71 341.92 473.41 C341.26 473.41 340.6 473.41 339.92 473.41 C339.65 473.98 339.38 474.56 339.11 475.16 C337.89 477.46 336.62 479.43 334.92 481.41 C334.26 481.41 333.6 481.41 332.92 481.41 C332.92 482.07 332.92 482.73 332.92 483.41 C331.55 485.03 331.55 485.03 329.92 486.41 C329.26 486.41 328.6 486.41 327.92 486.41 C327.92 487.07 327.92 487.73 327.92 488.41 C326.55 490.03 326.55 490.03 324.92 491.41 C324.26 491.41 323.6 491.41 322.92 491.41 C322.92 492.07 322.92 492.73 322.92 493.41 C321.55 495.03 321.55 495.03 319.92 496.41 C319.26 496.41 318.6 496.41 317.92 496.41 C317.92 497.07 317.92 497.73 317.92 498.41 C316.55 500.03 316.55 500.03 314.92 501.41 C314.26 501.41 313.6 501.41 312.92 501.41 C312.92 502.07 312.92 502.73 312.92 503.41 C311.55 505.03 311.55 505.03 309.92 506.41 C309.26 506.41 308.6 506.41 307.92 506.41 C308.58 509.05 309.24 511.69 309.92 514.41 C310.54 514.4 311.15 514.39 311.79 514.38 C318.25 514.29 324.7 514.23 331.16 514.19 C333.57 514.17 335.97 514.14 338.38 514.1 C341.85 514.05 345.32 514.03 348.79 514.01 C350.38 513.98 350.38 513.98 352.01 513.95 C360.8 513.95 367.19 516.5 374.92 520.41 C374.92 521.07 374.92 521.73 374.92 522.41 C375.56 522.67 376.2 522.94 376.86 523.22 C378.92 524.41 378.92 524.41 379.92 527.41 C380.58 527.41 381.24 527.41 381.92 527.41 C390.93 543.65 390.93 543.65 392.92 551.41 C393.27 552.55 393.61 553.7 393.96 554.88 C398.79 574.47 394.67 595.41 384.74 612.6 C378.95 621.54 372.6 627.43 362.1 629.98 C358.77 630.63 355.53 630.63 352.14 630.6 C351.09 630.6 351.09 630.6 350.02 630.59 C347.82 630.58 345.62 630.56 343.42 630.53 C341.92 630.52 340.41 630.51 338.91 630.5 C335.24 630.48 331.58 630.45 327.92 630.41 C327.92 631.07 327.92 631.73 327.92 632.41 C328.58 632.41 329.24 632.41 329.92 632.41 C329.92 633.07 329.92 633.73 329.92 634.41 C330.91 634.74 331.9 635.07 332.92 635.41 C332.92 636.07 332.92 636.73 332.92 637.41 C333.58 637.41 334.24 637.41 334.92 637.41 C334.92 638.07 334.92 638.73 334.92 639.41 C335.91 639.74 336.9 640.07 337.92 640.41 C337.92 641.07 337.92 641.73 337.92 642.41 C338.58 642.41 339.24 642.41 339.92 642.41 C339.92 643.07 339.92 643.73 339.92 644.41 C340.91 644.74 341.9 645.07 342.92 645.41 C342.92 646.07 342.92 646.73 342.92 647.41 C343.58 647.41 344.24 647.41 344.92 647.41 C344.92 648.07 344.92 648.73 344.92 649.41 C345.91 649.74 346.9 650.07 347.92 650.41 C347.92 651.07 347.92 651.73 347.92 652.41 C348.58 652.41 349.24 652.41 349.92 652.41 C351.87 654.52 351.87 654.52 354.05 657.28 C354.77 658.18 355.5 659.09 356.24 660.02 C357.92 662.41 357.92 662.41 357.92 664.41 C358.58 664.41 359.24 664.41 359.92 664.41 C362.92 667.87 362.92 667.87 362.92 670.41 C363.58 670.41 364.24 670.41 364.92 670.41 C367.92 674.79 367.92 674.79 367.92 677.41 C368.58 677.41 369.24 677.41 369.92 677.41 C372.92 681.79 372.92 681.79 372.92 684.41 C373.58 684.41 374.24 684.41 374.92 684.41 C374.92 685.4 374.92 686.39 374.92 687.41 C375.58 687.41 376.24 687.41 376.92 687.41 C378.23 689.16 378.23 689.16 379.71 691.6 C380.24 692.48 380.77 693.36 381.31 694.27 C381.86 695.2 382.42 696.13 382.98 697.09 C383.82 698.46 383.82 698.46 384.67 699.86 C385.46 701.19 385.46 701.19 386.27 702.54 C386.75 703.35 387.24 704.17 387.74 705 C388.96 707.49 389.51 709.68 389.92 712.41 C390.58 712.41 391.24 712.41 391.92 712.41 C392.36 713.29 392.79 714.17 393.24 715.08 C396.09 720.84 398.97 726.55 402.11 732.16 C404.39 736.28 406.19 740.43 407.87 744.83 C409.03 747.66 410.38 750.32 411.8 753.03 C415.49 760.25 418.19 767.79 420.92 775.41 C423.53 775.1 426.13 774.78 428.73 774.47 C429.84 774.34 429.84 774.34 430.97 774.2 C434.09 773.82 436.93 773.4 439.92 772.41 C452.17 770.62 464.63 770.22 476.98 770.22 C478.63 770.22 478.63 770.22 480.31 770.22 C485.31 770.25 490 770.49 494.92 771.41 C498.61 771.7 502.3 771.84 506 772.01 C511.72 772.3 511.72 772.3 513.92 773.41 C515.77 773.7 517.63 773.97 519.48 774.22 C537.56 776.94 554.58 782.52 571.61 789.03 C572.34 789.31 573.07 789.58 573.82 789.87 C577.2 791.19 580.37 792.6 583.5 794.43 C586.9 796.39 590.32 797.87 593.92 799.41 C607.66 806.63 621.24 814.95 633.14 824.94 C634.87 826.47 634.87 826.47 636.92 827.41 C636.92 828.07 636.92 828.73 636.92 829.41 C637.85 829.87 637.85 829.87 638.8 830.34 C640.17 831.03 641.55 831.72 642.92 832.41 C642.92 833.07 642.92 833.73 642.92 834.41 C643.5 834.66 644.08 834.91 644.68 835.17 C647.2 836.56 648.86 838.14 650.86 840.22 C651.56 840.94 652.26 841.65 652.98 842.39 C653.62 843.06 654.26 843.72 654.92 844.41 C656.16 845.64 656.16 845.64 657.42 846.91 C658.66 848.14 658.66 848.14 659.92 849.41 C660.55 850.02 661.18 850.64 661.83 851.28 C665.76 855.16 669.57 859.01 672.92 863.41 C672.92 864.07 672.92 864.73 672.92 865.41 C673.58 865.41 674.24 865.41 674.92 865.41 C676.14 866.79 676.14 866.79 677.5 868.74 C678.24 869.8 678.24 869.8 679.01 870.89 C679.54 871.66 680.06 872.43 680.61 873.22 C681.15 873.99 681.69 874.77 682.25 875.57 C686.3 881.42 690.2 887.34 693.92 893.41 C694.41 894.17 694.89 894.94 695.39 895.73 C701.82 906.09 707.13 917.2 711.92 928.41 C712.42 929.48 712.91 930.55 713.42 931.66 C715.73 937.07 717.24 942.78 718.92 948.41 C719.63 950.7 720.34 952.99 721.05 955.28 C721.67 957.32 722.3 959.36 722.92 961.41 C723.29 962.6 723.66 963.8 724.05 965.03 C726.51 974.53 728.64 983.06 724.25 992.22 C721.77 996.3 718.59 999.63 713.91 1000.99 C711.98 1001.28 711.98 1001.28 708.92 1001.41 C709.58 1002.4 710.24 1003.39 710.92 1004.41 C711.17 1006.38 711.17 1006.38 711.16 1008.65 C711.17 1009.5 711.17 1010.35 711.17 1011.22 C711.17 1012.14 711.16 1013.06 711.15 1014 C711.15 1015.41 711.15 1015.41 711.15 1016.86 C711.15 1018.85 711.14 1020.84 711.13 1022.84 C711.11 1025.89 711.11 1028.95 711.11 1032 C711.1 1033.94 711.1 1035.88 711.09 1037.81 C711.09 1038.73 711.09 1039.64 711.09 1040.59 C711.08 1041.44 711.07 1042.29 711.07 1043.16 C711.06 1044.29 711.06 1044.29 711.05 1045.43 C710.92 1047.41 710.92 1047.41 709.92 1050.41 C710.44 1050.49 710.95 1050.57 711.48 1050.66 C717.31 1052.45 721.62 1055.27 724.92 1060.41 C726.85 1064.84 727.2 1068.59 726.92 1073.41 C726.59 1074.07 726.26 1074.73 725.92 1075.41 C725.74 1076.8 725.6 1078.19 725.48 1079.59 C724.97 1084.57 723.87 1089.14 721.94 1093.76 C720.9 1096.46 720.24 1099.08 719.61 1101.9 C717.95 1108.69 715.53 1115.02 712.86 1121.47 C712.37 1122.65 711.89 1123.83 711.39 1125.04 C705.5 1139.09 698.46 1152.17 690.42 1165.09 C689.9 1165.93 689.39 1166.76 688.85 1167.62 C688.37 1168.38 687.89 1169.14 687.39 1169.92 C686.96 1170.59 686.53 1171.27 686.09 1171.96 C685.7 1172.44 685.32 1172.91 684.92 1173.41 C684.26 1173.41 683.6 1173.41 682.92 1173.41 C682.46 1174.58 682.46 1174.58 681.98 1175.78 C680.92 1178.41 680.92 1178.41 679.92 1180.41 C679.26 1180.41 678.6 1180.41 677.92 1180.41 C677.61 1181.02 677.3 1181.64 676.98 1182.28 C676.3 1183.66 675.61 1185.03 674.92 1186.41 C674.26 1186.41 673.6 1186.41 672.92 1186.41 C672.52 1187.26 672.52 1187.26 672.11 1188.14 C670.88 1190.48 669.5 1192.53 667.92 1194.66 C667.41 1195.36 666.89 1196.07 666.36 1196.8 C665.88 1197.33 665.41 1197.86 664.92 1198.41 C664.26 1198.41 663.6 1198.41 662.92 1198.41 C662.59 1199.4 662.26 1200.39 661.92 1201.41 C661.26 1201.41 660.6 1201.41 659.92 1201.41 C659.92 1202.07 659.92 1202.73 659.92 1203.41 C659.26 1203.41 658.6 1203.41 657.92 1203.41 C657.59 1204.4 657.26 1205.39 656.92 1206.41 C656.26 1206.41 655.6 1206.41 654.92 1206.41 C654.92 1207.07 654.92 1207.73 654.92 1208.41 C654.26 1208.41 653.6 1208.41 652.92 1208.41 C652.59 1209.4 652.26 1210.39 651.92 1211.41 C651.26 1211.41 650.6 1211.41 649.92 1211.41 C649.92 1212.07 649.92 1212.73 649.92 1213.41 C647.46 1215.95 644.65 1218.15 641.92 1220.41 C641.03 1221.14 640.15 1221.88 639.23 1222.64 C632.19 1228.41 632.19 1228.41 629.92 1228.41 C629.92 1229.07 629.92 1229.73 629.92 1230.41 C627.8 1231.92 627.8 1231.92 624.92 1233.66 C621.45 1235.79 618.12 1237.94 614.92 1240.47 C610.24 1244.05 605.13 1246.68 599.92 1249.41 C598.55 1250.14 597.19 1250.87 595.82 1251.61 C585.03 1257.41 574.4 1262.75 562.7 1266.5 C560.36 1267.26 558.08 1268.08 555.8 1268.97 C548.92 1271.58 542.21 1273.4 534.92 1274.41 C534.16 1274.71 533.39 1275.02 532.61 1275.34 C525.79 1278.04 518.43 1278.65 511.17 1279.16 C508.89 1279.28 508.89 1279.28 506.92 1280.41 C504.93 1280.5 502.94 1280.53 500.94 1280.53 C499.06 1280.54 499.06 1280.54 497.14 1280.54 C495.77 1280.54 494.39 1280.54 493.01 1280.54 C491.61 1280.54 490.21 1280.54 488.8 1280.54 C485.85 1280.54 482.91 1280.54 479.96 1280.54 C476.18 1280.53 472.4 1280.53 468.62 1280.54 C465.72 1280.54 462.82 1280.54 459.92 1280.54 C458.53 1280.54 457.13 1280.54 455.74 1280.54 C453.79 1280.54 451.85 1280.54 449.9 1280.53 C448.24 1280.53 448.24 1280.53 446.54 1280.53 C443.92 1280.41 443.92 1280.41 441.92 1279.41 C440.27 1279.23 438.62 1279.09 436.96 1278.98 C431.26 1278.5 425.85 1277.47 420.3 1276.16 C418.88 1275.82 418.88 1275.82 417.43 1275.49 C394.96 1270.16 394.96 1270.16 385.01 1265.36 C382.57 1264.25 380.09 1263.4 377.55 1262.53 C372.43 1260.74 367.95 1258.29 363.33 1255.48 C361.02 1254.2 361.02 1254.2 358.75 1254.7 C358.14 1254.93 357.54 1255.17 356.92 1255.41 C355.59 1255.74 354.25 1256.07 352.92 1256.41 C352.92 1257.07 352.92 1257.73 352.92 1258.41 C351.93 1258.41 350.94 1258.41 349.92 1258.41 C349.92 1259.07 349.92 1259.73 349.92 1260.41 C343.57 1265.11 336.17 1268.36 328.92 1271.41 C327.92 1271.83 326.93 1272.25 325.9 1272.69 C310.61 1278.88 296.95 1281.05 280.57 1280.87 C277.66 1280.84 274.75 1280.85 271.84 1280.86 C262.11 1280.85 253.25 1280.46 243.92 1277.41 C242.75 1277.1 241.58 1276.8 240.37 1276.49 C239.46 1276.26 238.55 1276.02 237.61 1275.78 C233.39 1274.72 229.23 1274 224.92 1273.41 C221.62 1272.54 218.4 1271.57 215.18 1270.43 C211.61 1269.31 208.09 1268.59 204.42 1267.91 C200.83 1267.23 197.39 1266.56 193.93 1265.41 C189.21 1263.84 184.36 1263.09 179.48 1262.19 C176.41 1261.51 173.81 1260.6 170.92 1259.41 C168.94 1259.15 166.96 1258.9 164.97 1258.68 C160.86 1258.13 156.98 1256.77 153.07 1255.42 C150.09 1254.46 147.18 1253.77 144.11 1253.16 C136.02 1251.47 128 1249.52 119.98 1247.56 C114.35 1246.2 108.73 1244.92 103.04 1243.84 C98.99 1243.01 95.08 1241.82 91.19 1240.44 C87.62 1239.31 84.1 1238.59 80.42 1237.91 C75.75 1237.03 71.41 1235.92 66.92 1234.41 C64.59 1233.88 62.26 1233.38 59.92 1232.91 C56.51 1232.22 53.25 1231.51 49.95 1230.41 C46.47 1229.26 43.02 1228.58 39.42 1227.91 C34.76 1227.03 30.4 1225.94 25.92 1224.41 C24.43 1224.07 22.93 1223.75 21.42 1223.47 C14.82 1222.03 10.42 1219.52 5.92 1214.41 C3.96 1211.23 3.7 1208.87 3.8 1205.16 C3.81 1204.26 3.83 1203.37 3.85 1202.45 C3.87 1201.78 3.9 1201.1 3.92 1200.41 C3.26 1200.41 2.6 1200.41 1.92 1200.41 C1.92 1199.42 1.92 1198.43 1.92 1197.41 C0 1197.47 -1.92 1197.54 -3.84 1197.6 C-6.08 1197.41 -6.08 1197.41 -8.34 1196.49 C-12.51 1194.84 -16.88 1194.28 -21.28 1193.55 C-24.91 1192.92 -27.84 1192.1 -31.08 1190.41 C-32.98 1189.97 -34.9 1189.6 -36.83 1189.28 C-37.81 1189.11 -38.8 1188.94 -39.81 1188.77 C-40.56 1188.65 -41.31 1188.53 -42.08 1188.41 C-42.53 1189.23 -42.99 1190.06 -43.45 1190.91 C-43.99 1191.73 -44.53 1192.56 -45.08 1193.41 C-45.74 1193.41 -46.4 1193.41 -47.08 1193.41 C-47.41 1194.4 -47.74 1195.39 -48.08 1196.41 C-48.74 1196.41 -49.4 1196.41 -50.08 1196.41 C-50.08 1197.07 -50.08 1197.73 -50.08 1198.41 C-55.75 1202.19 -61.42 1202.16 -68.08 1201.41 C-70.9 1200.63 -73.52 1199.65 -76.22 1198.55 C-79.34 1197.3 -82.48 1196.35 -85.7 1195.41 C-90.27 1194.03 -94.53 1192.43 -98.83 1190.4 C-100.95 1189.46 -103.04 1188.73 -105.24 1188.03 C-110.17 1186.42 -114.93 1184.49 -119.7 1182.47 C-120.91 1181.97 -120.91 1181.97 -122.15 1181.45 C-127.02 1179.4 -131.53 1177.09 -136.08 1174.41 C-137.73 1173.7 -139.39 1173.02 -141.08 1172.41 C-142.89 1174.21 -142.21 1176.98 -142.22 1179.42 C-142.23 1180.71 -142.23 1182 -142.24 1183.32 C-142.24 1184.02 -142.25 1184.71 -142.25 1185.43 C-142.25 1187.6 -142.27 1189.78 -142.29 1191.95 C-142.34 1198.14 -142.39 1204.32 -142.4 1210.51 C-142.41 1214.29 -142.44 1218.07 -142.49 1221.85 C-142.5 1223.29 -142.5 1224.72 -142.5 1226.16 C-142.49 1238.53 -144.29 1247.35 -152.95 1256.44 C-156.08 1259.33 -159.32 1261.43 -163.08 1263.41 C-163.84 1263.82 -164.6 1264.24 -165.38 1264.67 C-170.85 1267.56 -176.38 1269.64 -182.27 1271.5 C-184.6 1272.25 -186.86 1273.07 -189.14 1273.97 C-196.99 1276.95 -204.74 1278.61 -213.08 1279.41 C-213.74 1279.74 -214.4 1280.07 -215.08 1280.41 C-216.67 1280.5 -218.27 1280.53 -219.86 1280.53 C-221.36 1280.54 -221.36 1280.54 -222.88 1280.54 C-223.95 1280.54 -225.03 1280.54 -226.14 1280.54 C-227.24 1280.54 -228.35 1280.54 -229.48 1280.54 C-231.82 1280.54 -234.15 1280.54 -236.48 1280.54 C-240.06 1280.53 -243.65 1280.54 -247.23 1280.54 C-249.49 1280.54 -251.75 1280.54 -254.02 1280.54 C-255.63 1280.54 -255.63 1280.54 -257.28 1280.54 C-258.27 1280.54 -259.27 1280.54 -260.29 1280.53 C-261.17 1280.53 -262.05 1280.53 -262.95 1280.53 C-265.08 1280.41 -265.08 1280.41 -267.08 1279.41 C-268.43 1279.23 -269.78 1279.1 -271.14 1278.99 C-275.95 1278.49 -280.44 1277.42 -285.08 1276.09 C-285.87 1275.87 -286.66 1275.65 -287.47 1275.42 C-292.18 1274.05 -296.66 1272.52 -301.07 1270.37 C-303.39 1269.26 -305.75 1268.33 -308.14 1267.41 C-319.57 1262.83 -328.13 1257.59 -334.08 1246.41 C-334.6 1245.49 -334.6 1245.49 -335.12 1244.55 C-336.76 1240.87 -336.42 1237.12 -336.39 1233.16 C-336.39 1232.27 -336.39 1231.39 -336.39 1230.48 C-336.26 1222.13 -335.87 1211.99 -332.08 1204.41 C-331.9 1202.91 -331.76 1201.41 -331.64 1199.91 C-331.04 1193.37 -329.79 1187.09 -328.11 1180.75 C-326.88 1175.88 -326.23 1170.95 -325.58 1165.97 C-324.8 1160.04 -323.86 1154.24 -322.51 1148.41 C-321.95 1145.79 -321.7 1143.2 -321.52 1140.53 C-321.31 1137.52 -321.04 1135.28 -320.08 1132.41 C-319.88 1131.03 -319.72 1129.66 -319.58 1128.28 C-319.5 1127.49 -319.41 1126.7 -319.33 1125.89 C-319.25 1125.07 -319.16 1124.25 -319.08 1123.41 C-318.92 1121.78 -318.75 1120.15 -318.58 1118.53 C-318.51 1117.81 -318.43 1117.09 -318.36 1116.35 C-318.08 1114.41 -318.08 1114.41 -317.08 1111.41 C-316.88 1108.95 -316.71 1106.49 -316.58 1104.03 C-316.19 1096.93 -316.19 1096.93 -315.59 1094.04 C-315.05 1091.23 -314.79 1088.51 -314.58 1085.66 C-314.5 1084.57 -314.41 1083.49 -314.33 1082.37 C-314.25 1081.25 -314.16 1080.12 -314.08 1078.97 C-313.91 1076.74 -313.75 1074.51 -313.58 1072.28 C-313.51 1071.3 -313.43 1070.32 -313.36 1069.3 C-313.08 1066.41 -313.08 1066.41 -312.56 1063.38 C-311.78 1058.53 -311.89 1053.69 -311.89 1048.78 C-311.88 1047.74 -311.87 1046.71 -311.85 1045.64 C-311.85 1044.64 -311.85 1043.64 -311.85 1042.62 C-311.84 1041.71 -311.84 1040.81 -311.84 1039.88 C-312.09 1037.27 -312.76 1035.64 -314.08 1033.41 C-314.74 1033.41 -315.4 1033.41 -316.08 1033.41 C-317.52 1031.67 -318.89 1029.87 -320.2 1028.03 C-320.93 1027.03 -321.65 1026.03 -322.4 1025.01 C-324.08 1022.41 -324.08 1022.41 -324.08 1020.41 C-324.74 1020.41 -325.4 1020.41 -326.08 1020.41 C-329.08 1016.02 -329.08 1016.02 -329.08 1013.41 C-329.74 1013.41 -330.4 1013.41 -331.08 1013.41 C-332.37 1011.73 -332.37 1011.73 -333.7 1009.53 C-334.15 1008.81 -334.6 1008.09 -335.06 1007.35 C-336.08 1005.41 -336.08 1005.41 -336.08 1003.41 C-336.74 1003.41 -337.4 1003.41 -338.08 1003.41 C-339.77 1001.14 -339.77 1001.14 -341.64 998.16 C-342.26 997.18 -342.88 996.21 -343.52 995.2 C-344.84 992.84 -345.62 991.04 -346.08 988.41 C-346.74 988.41 -347.4 988.41 -348.08 988.41 C-348.37 987.87 -348.66 987.34 -348.96 986.79 C-351.7 981.82 -354.54 976.93 -357.47 972.07 C-374.14 944.38 -374.14 944.38 -373.08 935.41 C-371.37 930.35 -369.41 925.73 -365.08 922.41 C-364.42 922.41 -363.76 922.41 -363.08 922.41 C-364.58 916.94 -366.1 912.25 -369.08 907.41 C-369.87 905.24 -370.57 903.05 -371.27 900.85 C-372.37 897.52 -373.7 894.3 -375.03 891.05 C-376.82 886.54 -378.45 881.97 -380.08 877.41 C-381.13 877.38 -381.13 877.38 -382.2 877.36 C-389.89 876.98 -395.32 875.52 -400.61 869.73 C-404.13 865.11 -405.77 860.6 -406.58 854.84 C-407.04 851.64 -407.88 849.38 -409.08 846.41 C-409.52 844.76 -409.93 843.11 -410.3 841.46 C-410.51 840.52 -410.72 839.59 -410.93 838.63 C-411.15 837.67 -411.36 836.71 -411.58 835.72 C-411.79 834.77 -412 833.83 -412.22 832.86 C-415.11 820 -417.75 807.16 -418.64 793.98 C-418.72 792.74 -418.81 791.51 -418.89 790.23 C-418.95 789.3 -419.02 788.37 -419.08 787.41 C-419.91 787.41 -420.75 787.41 -421.61 787.42 C-429.49 787.46 -437.38 787.49 -445.26 787.51 C-449.32 787.52 -453.37 787.53 -457.42 787.56 C-461.34 787.58 -465.26 787.59 -469.17 787.59 C-470.66 787.6 -472.15 787.61 -473.64 787.62 C-483.82 787.69 -492.29 787.66 -501.08 781.91 C-502.03 781.3 -502.98 780.69 -503.95 780.06 C-504.66 779.51 -505.36 778.97 -506.08 778.41 C-506.08 777.75 -506.08 777.09 -506.08 776.41 C-506.74 776.41 -507.4 776.41 -508.08 776.41 C-522.37 757.84 -524.9 731.67 -522.27 709.16 C-521.5 703.28 -520.34 697.89 -518.08 692.41 C-517.71 691.44 -517.33 690.47 -516.95 689.48 C-514.52 683.36 -511.9 677.78 -508.08 672.41 C-507.42 672.41 -506.76 672.41 -506.08 672.41 C-505.77 671.54 -505.77 671.54 -505.45 670.66 C-502.68 666.11 -497.04 663.27 -491.99 661.79 C-482.43 659.9 -472.78 659.98 -463.08 659.84 C-446.12 660.75 -446.12 660.75 -430.08 657.41 C-428.54 657.18 -427 657 -425.45 656.84 C-424.64 656.76 -423.82 656.67 -422.98 656.59 C-422.35 656.53 -421.72 656.47 -421.08 656.41 C-421.41 654.76 -421.74 653.11 -422.08 651.41 C-422.74 651.41 -423.4 651.41 -424.08 651.41 C-425.7 650.03 -425.7 650.03 -427.08 648.41 C-427.08 647.75 -427.08 647.09 -427.08 646.41 C-427.74 646.41 -428.4 646.41 -429.08 646.41 C-430.7 645.03 -430.7 645.03 -432.08 643.41 C-432.08 642.75 -432.08 642.09 -432.08 641.41 C-432.74 641.41 -433.4 641.41 -434.08 641.41 C-435.7 640.03 -435.7 640.03 -437.08 638.41 C-437.08 637.75 -437.08 637.09 -437.08 636.41 C-437.74 636.41 -438.4 636.41 -439.08 636.41 C-440.7 635.03 -440.7 635.03 -442.08 633.41 C-442.08 632.75 -442.08 632.09 -442.08 631.41 C-442.74 631.41 -443.4 631.41 -444.08 631.41 C-444.08 630.75 -444.08 630.09 -444.08 629.41 C-445.07 629.08 -446.06 628.75 -447.08 628.41 C-447.08 627.75 -447.08 627.09 -447.08 626.41 C-447.74 626.41 -448.4 626.41 -449.08 626.41 C-449.08 625.75 -449.08 625.09 -449.08 624.41 C-450.07 624.08 -451.06 623.75 -452.08 623.41 C-452.08 622.75 -452.08 622.09 -452.08 621.41 C-452.74 621.41 -453.4 621.41 -454.08 621.41 C-454.08 620.75 -454.08 620.09 -454.08 619.41 C-455.07 619.08 -456.06 618.75 -457.08 618.41 C-457.08 617.75 -457.08 617.09 -457.08 616.41 C-457.74 616.41 -458.4 616.41 -459.08 616.41 C-459.08 615.75 -459.08 615.09 -459.08 614.41 C-460.07 614.08 -461.06 613.75 -462.08 613.41 C-462.08 612.75 -462.08 612.09 -462.08 611.41 C-462.74 611.41 -463.4 611.41 -464.08 611.41 C-464.08 610.75 -464.08 610.09 -464.08 609.41 C-465.07 609.08 -466.06 608.75 -467.08 608.41 C-467.08 607.75 -467.08 607.09 -467.08 606.41 C-467.74 606.41 -468.4 606.41 -469.08 606.41 C-469.08 605.75 -469.08 605.09 -469.08 604.41 C-470.07 604.08 -471.06 603.75 -472.08 603.41 C-472.08 602.75 -472.08 602.09 -472.08 601.41 C-472.74 601.41 -473.4 601.41 -474.08 601.41 C-474.08 600.75 -474.08 600.09 -474.08 599.41 C-475.07 599.08 -476.06 598.75 -477.08 598.41 C-477.08 597.75 -477.08 597.09 -477.08 596.41 C-477.74 596.41 -478.4 596.41 -479.08 596.41 C-479.08 595.75 -479.08 595.09 -479.08 594.41 C-480.07 594.08 -481.06 593.75 -482.08 593.41 C-482.08 592.75 -482.08 592.09 -482.08 591.41 C-482.74 591.41 -483.4 591.41 -484.08 591.41 C-484.08 590.75 -484.08 590.09 -484.08 589.41 C-484.74 589.41 -485.4 589.41 -486.08 589.41 C-493.32 582.17 -496.56 573.86 -496.64 563.72 C-496.56 558.34 -496.14 553.81 -493.21 549.21 C-491.88 547.08 -491.12 544.95 -490.27 542.59 C-487.97 536.71 -484.65 531.59 -481.08 526.41 C-480.55 525.64 -480.03 524.87 -479.49 524.08 C-478.79 523.25 -478.79 523.25 -478.08 522.41 C-477.42 522.41 -476.76 522.41 -476.08 522.41 C-475.68 521.54 -475.68 521.54 -475.27 520.66 C-474.05 518.35 -472.78 516.38 -471.08 514.41 C-470.42 514.41 -469.76 514.41 -469.08 514.41 C-469.08 513.75 -469.08 513.09 -469.08 512.41 C-467.16 510.73 -465.24 509.18 -463.2 507.66 C-462.61 507.21 -462.02 506.76 -461.41 506.3 C-454.15 500.86 -446.4 496.06 -438.08 492.41 C-437.23 492.03 -437.23 492.03 -436.37 491.64 C-431.22 489.5 -426.7 488.89 -421.14 488.97 C-420.35 488.98 -419.55 488.99 -418.74 489 C-402.98 489.48 -394.13 501.19 -383.72 511.8 C-383.15 512.38 -382.58 512.96 -381.99 513.56 C-381.47 514.09 -380.96 514.61 -380.43 515.15 C-379.08 516.52 -379.08 516.52 -377.08 517.41 C-377.08 518.07 -377.08 518.73 -377.08 519.41 C-375.43 519.74 -373.78 520.07 -372.08 520.41 C-371.76 519.92 -371.43 519.44 -371.1 518.94 C-369.64 516.75 -368.17 514.58 -366.7 512.41 C-366.2 511.64 -365.69 510.88 -365.16 510.09 C-364.67 509.37 -364.19 508.65 -363.68 507.91 C-363.23 507.23 -362.78 506.56 -362.32 505.87 C-361.7 505.15 -361.7 505.15 -361.08 504.41 C-360.42 504.41 -359.76 504.41 -359.08 504.41 C-358.81 503.83 -358.54 503.26 -358.27 502.67 C-357.04 500.33 -355.65 498.28 -354.08 496.16 C-353.31 495.1 -353.31 495.1 -352.52 494.01 C-352.04 493.48 -351.57 492.95 -351.08 492.41 C-350.42 492.41 -349.76 492.41 -349.08 492.41 C-348.75 491.42 -348.42 490.43 -348.08 489.41 C-347.42 489.41 -346.76 489.41 -346.08 489.41 C-346.08 488.75 -346.08 488.09 -346.08 487.41 C-345.42 487.41 -344.76 487.41 -344.08 487.41 C-343.75 486.42 -343.42 485.43 -343.08 484.41 C-342.42 484.41 -341.76 484.41 -341.08 484.41 C-341.08 483.75 -341.08 483.09 -341.08 482.41 C-340.42 482.41 -339.76 482.41 -339.08 482.41 C-338.75 481.42 -338.42 480.43 -338.08 479.41 C-337.42 479.41 -336.76 479.41 -336.08 479.41 C-336.08 478.75 -336.08 478.09 -336.08 477.41 C-330.6 472.41 -330.6 472.41 -328.08 472.41 C-328.08 471.75 -328.08 471.09 -328.08 470.41 C-326.7 469.22 -326.7 469.22 -324.8 467.91 C-323.78 467.19 -323.78 467.19 -322.75 466.47 C-321.3 465.47 -319.86 464.47 -318.41 463.48 C-317.4 462.76 -317.4 462.76 -316.36 462.03 C-315.73 461.6 -315.1 461.17 -314.46 460.72 C-314 460.29 -313.55 459.85 -313.08 459.41 C-313.08 447.27 -320.67 432.91 -327.29 423.13 C-329.08 420.41 -329.08 420.41 -329.08 418.41 C-329.74 418.41 -330.4 418.41 -331.08 418.41 C-332.52 416.8 -332.52 416.8 -334.08 414.66 C-334.59 413.96 -335.11 413.26 -335.64 412.55 C-336.98 410.55 -338.06 408.57 -339.08 406.41 C-339.74 406.41 -340.4 406.41 -341.08 406.41 C-342.7 405.03 -342.7 405.03 -344.08 403.41 C-344.08 402.75 -344.08 402.09 -344.08 401.41 C-344.62 401.16 -345.17 400.91 -345.73 400.66 C-348.6 399.13 -351.09 397.28 -353.7 395.34 C-357.25 392.65 -357.25 392.65 -361.08 390.41 C-361.08 389.75 -361.08 389.09 -361.08 388.41 C-362.07 388.41 -363.06 388.41 -364.08 388.41 C-364.08 387.75 -364.08 387.09 -364.08 386.41 C-364.65 386.29 -365.22 386.18 -365.81 386.06 C-368.29 385.34 -370.14 384.33 -372.33 382.97 C-373.04 382.54 -373.74 382.1 -374.47 381.66 C-375 381.25 -375.53 380.83 -376.08 380.41 C-376.08 379.75 -376.08 379.09 -376.08 378.41 C-376.66 378.29 -377.24 378.18 -377.83 378.06 C-380.28 377.35 -381.92 376.36 -384.02 374.93 C-384.76 374.43 -385.51 373.92 -386.27 373.4 C-387.05 372.87 -387.84 372.33 -388.64 371.78 C-390.26 370.68 -391.88 369.59 -393.5 368.49 C-394.68 367.7 -394.68 367.7 -395.88 366.89 C-401.1 363.37 -406.38 359.91 -411.87 356.85 C-412.6 356.37 -413.33 355.9 -414.08 355.41 C-414.08 354.75 -414.08 354.09 -414.08 353.41 C-414.68 353.28 -415.28 353.16 -415.89 353.03 C-418.08 352.41 -418.08 352.41 -421.08 350.41 C-421.08 349.75 -421.08 349.09 -421.08 348.41 C-421.74 348.41 -422.4 348.41 -423.08 348.41 C-424.52 346.61 -424.52 346.61 -426.08 344.22 C-426.59 343.44 -427.11 342.66 -427.64 341.86 C-431.37 335.49 -431.43 330.08 -431.39 322.84 C-431.38 321.22 -431.38 321.22 -431.38 319.56 C-431.27 312.13 -430.73 305.41 -428.08 298.41 C-427.7 297.4 -427.33 296.39 -426.94 295.35 C-424.46 289.09 -421.51 283.19 -418.08 277.41 C-417.42 277.41 -416.76 277.41 -416.08 277.41 C-415.85 276.7 -415.63 276 -415.4 275.28 C-413.79 271.78 -411.56 269.24 -408.95 266.47 C-408.47 265.94 -407.98 265.42 -407.47 264.87 C-403.73 260.93 -399.83 257.12 -395.08 254.41 C-394.42 254.41 -393.76 254.41 -393.08 254.41 C-393.08 253.75 -393.08 253.09 -393.08 252.41 C-382.03 245.94 -371.4 241.55 -358.27 244.09 C-350.6 246.2 -343.24 250.42 -337.08 255.41 C-337.08 256.07 -337.08 256.73 -337.08 257.41 C-336.51 257.52 -335.93 257.63 -335.34 257.74 C-332.83 258.48 -331.02 259.54 -328.83 260.97 C-328.12 261.42 -327.42 261.88 -326.69 262.35 C-326.16 262.7 -325.63 263.05 -325.08 263.41 C-326.01 254.12 -327.47 245.01 -329.52 235.91 C-330.8 229.99 -331.88 224.07 -332.83 218.09 C-332.97 217.27 -333.11 216.45 -333.25 215.6 C-335.24 202.67 -331.71 191.73 -324.45 180.99 C-323.99 180.46 -323.54 179.94 -323.08 179.41 C-322.42 179.41 -321.76 179.41 -321.08 179.41 C-321.08 178.75 -321.08 178.09 -321.08 177.41 C-320.42 177.41 -319.76 177.41 -319.08 177.41 C-319.08 176.75 -319.08 176.09 -319.08 175.41 C-308.77 166.32 -294.16 163.22 -281.08 160.41 C-279.51 160.02 -279.51 160.02 -277.9 159.63 C-266.25 157.07 -254.8 156.95 -242.91 157.01 C-239.52 157.03 -236.13 157.01 -232.74 156.99 C-221.12 156.98 -210.35 157.46 -199.08 160.41 C-197.54 160.75 -196 161.09 -194.47 161.43 C-187.93 163.04 -181.57 164.73 -175.38 167.41 C-173.78 168.1 -172.16 168.74 -170.53 169.33 C-160.01 173.19 -152.44 179.7 -146.33 189.09 C-144.33 194.38 -143.23 199.88 -142.08 205.41 C-138.56 202.86 -138.56 202.86 -136.08 199.41 C-135.42 199.41 -134.76 199.41 -134.08 199.41 C-133.81 198.77 -133.54 198.13 -133.27 197.47 C-132.08 195.41 -132.08 195.41 -129.08 194.41 C-128.75 193.75 -128.42 193.09 -128.08 192.41 C-127.08 190.41 -127.08 190.41 -124.08 189.41 C-123.75 188.42 -123.42 187.43 -123.08 186.41 C-122.42 186.41 -121.76 186.41 -121.08 186.41 C-121.08 185.75 -121.08 185.09 -121.08 184.41 C-115.6 179.41 -115.6 179.41 -113.08 179.41 C-113.08 178.75 -113.08 178.09 -113.08 177.41 C-111.02 175.71 -111.02 175.71 -108.2 173.72 C-107.19 173 -106.17 172.28 -105.13 171.54 C-104.12 170.84 -103.11 170.13 -102.08 169.41 C-101.3 168.83 -100.52 168.26 -99.72 167.67 C-89.77 160.45 -78.89 153.39 -67.28 149.2 C-64.9 148.34 -62.63 147.33 -60.33 146.28 C-56.97 144.76 -53.61 143.49 -50.08 142.41 C-51.53 132.7 -53.6 120.63 -59.08 112.41 C-59.08 111.09 -59.08 109.77 -59.08 108.41 C-59.74 108.41 -60.4 108.41 -61.08 108.41 C-61.47 107.42 -61.86 106.43 -62.27 105.41 C-63.82 101.72 -65.85 98.51 -68.09 95.2 C-69.08 93.41 -69.08 93.41 -69.08 90.41 C-69.74 90.41 -70.4 90.41 -71.08 90.41 C-72.7 88.17 -72.7 88.17 -74.52 85.22 C-75.11 84.25 -75.71 83.29 -76.32 82.3 C-77.19 80.87 -77.19 80.87 -78.08 79.41 C-78.62 78.52 -79.17 77.64 -79.73 76.73 C-83.99 69.39 -84.23 60.39 -82.65 52.17 C-78.2 38.85 -67.45 27.22 -56.08 19.41 C-55.42 19.41 -54.76 19.41 -54.08 19.41 C-54.08 18.75 -54.08 18.09 -54.08 17.41 C-46.36 11.77 -37.99 7.78 -29.08 4.41 C-27.79 3.86 -27.79 3.86 -26.47 3.31 C-23.39 2.15 -20.33 1.84 -17.08 1.41 C-14.21 -1.46 -4.04 0.04 0 0 Z M-44.08 1185.41 C-44.08 1186.07 -44.08 1186.73 -44.08 1187.41 C-43.42 1187.08 -42.76 1186.75 -42.08 1186.41 C-42.74 1186.08 -43.4 1185.75 -44.08 1185.41 Z " fill="#000002" transform="translate(538.078857421875,-0.405029296875)"/>
<path d="M0 0 C26.07 -0.44 51.2 5.08 75.18 15.15 C76.28 15.61 76.28 15.61 77.39 16.08 C79.23 17.12 79.23 17.12 81.23 20.12 C81.49 22.01 81.49 22.01 81.49 24.16 C81.5 24.96 81.5 25.76 81.51 26.58 C81.45 31.1 81.36 35.61 81.23 40.12 C81.21 40.97 81.2 41.82 81.18 42.69 C80.88 55.85 80.88 55.85 77.43 60.6 C74.82 62.72 72.11 64.38 69.23 66.12 C67.31 67.52 65.44 68.97 63.57 70.43 C60.17 73.05 56.7 75.59 53.23 78.12 C52.65 78.55 52.07 78.97 51.48 79.41 C25.94 98.01 -3.94 109.92 -34.77 116.12 C-35.49 116.27 -36.21 116.42 -36.96 116.58 C-48.39 118.95 -59.84 119.73 -71.5 120.21 C-79.87 120.65 -87.9 121.54 -94.27 127.43 C-97.91 133.95 -98.44 139.93 -96.77 147.12 C-93.96 152.1 -89.3 154.99 -83.87 156.73 C-41.67 164.57 19.05 144.05 53.98 120.96 C54.5 120.6 55.02 120.24 55.56 119.87 C58.51 117.93 60.74 117.45 64.23 117.12 C62.38 123.89 60.06 130.13 56.98 136.43 C56.58 137.26 56.18 138.09 55.77 138.94 C44.89 161.29 31.29 181.14 15.54 200.31 C10.05 207.01 4.93 213.85 0.23 221.12 C-0.25 221.86 -0.73 222.6 -1.23 223.36 C-20.96 253.98 -34.73 286.17 -44.77 321.12 C-45.01 321.92 -45.24 322.71 -45.48 323.53 C-52.31 347.05 -54.87 372.62 -55.02 397.06 C-55.04 398.58 -55.04 398.58 -55.05 400.13 C-55.03 406.09 -54.91 411.33 -51.15 416.25 C-45.28 420.88 -40.27 422.95 -32.77 422.12 C-27.07 420.38 -24.06 418.1 -20.77 413.12 C-18.55 406.28 -18.46 399.71 -18.34 392.56 C-17.52 364.45 -12.16 337.54 -3.34 310.87 C-3 309.85 -3 309.85 -2.66 308.81 C0.62 298.89 4.64 289.51 9.23 280.12 C9.8 278.92 9.8 278.92 10.39 277.7 C20.71 256.29 33 237.24 48.13 218.89 C55.68 209.73 62.61 200.28 69.1 190.34 C72.67 184.94 72.67 184.94 74.23 183.12 C74.89 183.12 75.55 183.12 76.23 183.12 C92.24 218.6 96.75 257.49 84.85 295.04 C83.01 301.02 81.85 307.39 84.6 313.31 C87.4 318.34 91.91 320.39 97.23 322.12 C102.78 323.15 107.32 321.81 112.23 319.12 C117.16 315.08 118.64 311.18 120.29 305.25 C120.54 304.38 120.79 303.51 121.05 302.62 C124.93 288.59 127.77 273.69 128.23 259.12 C128.28 257.86 128.33 256.59 128.38 255.29 C129.4 218.22 119.27 179.97 98.64 149.09 C98.18 148.39 97.73 147.68 97.25 146.95 C96.84 146.33 96.42 145.71 96 145.07 C94.45 141.14 96.48 137.16 97.86 133.38 C98.19 132.47 98.52 131.56 98.85 130.62 C99.2 129.65 99.55 128.68 99.91 127.68 C103.94 116.3 107.33 104.84 110.23 93.12 C110.42 92.36 110.61 91.6 110.8 90.81 C114.64 75.16 116.32 59.1 118.23 43.12 C122.75 43.89 125.16 45.27 128.85 48.06 C136.58 53.76 144.56 59.06 152.56 64.37 C153.14 64.76 153.73 65.15 154.33 65.55 C155.57 66.37 156.81 67.19 158.04 68.01 C162.59 71.03 167.12 74.06 171.65 77.1 C175.14 79.45 178.64 81.79 182.13 84.13 C183.84 85.28 185.56 86.43 187.27 87.58 C196.07 93.51 204.79 99.24 214.23 104.12 C216.04 105.14 217.85 106.16 219.66 107.18 C225.37 110.29 231.25 112.8 237.29 115.18 C238.38 115.62 239.47 116.05 240.59 116.49 C249.66 120.02 258.74 122.95 268.23 125.12 C269.51 125.41 270.79 125.71 272.11 126.01 C289.5 129.6 307.15 130.22 324.85 130.73 C349.61 131.51 349.61 131.51 353.23 135.12 C353.48 137.88 353.48 137.88 353.49 141.48 C353.49 142.14 353.49 142.79 353.5 143.47 C353.51 145.7 353.51 147.92 353.5 150.14 C353.51 151.73 353.51 153.32 353.52 154.91 C353.53 159.25 353.53 163.59 353.53 167.92 C353.53 171.56 353.53 175.19 353.54 178.83 C353.55 187.44 353.55 196.05 353.54 204.66 C353.54 213.47 353.55 222.29 353.57 231.1 C353.59 238.7 353.59 246.31 353.59 253.91 C353.59 258.43 353.59 262.96 353.6 267.48 C353.69 295.89 352.49 323.63 345.85 351.42 C345.19 354.12 345.19 354.12 344.82 356.87 C344.29 359.69 343.73 361.68 342.23 364.12 C338.48 366.58 334.48 367.8 330.23 369.12 C327.99 369.91 325.76 370.71 323.53 371.52 C321.2 372.32 318.87 373.13 316.54 373.93 C294.44 381.75 274.12 391.69 256.23 407.12 C255.12 408.03 254.01 408.95 252.91 409.86 C223.56 434.17 194.98 474.42 190.99 513.45 C190.8 519.63 191.39 523.2 195.23 528.12 C200.95 532.47 206.18 533.49 213.23 533.12 C217.31 531.95 220.22 530.13 223.23 527.12 C226.49 521.06 228.52 514.47 230.6 507.93 C238.71 483.25 251.13 463.06 269.41 444.62 C270.07 443.96 270.72 443.3 271.39 442.62 C275.73 438.36 280.28 434.66 285.23 431.12 C286.76 430 286.76 430 288.32 428.85 C299.03 421.26 310.27 414.05 323.23 411.12 C323.56 411.78 323.89 412.44 324.23 413.12 C323.15 415.61 322.01 418.01 320.79 420.43 C306.67 449.55 297.62 481.27 291.98 513.06 C291.83 513.91 291.67 514.76 291.52 515.63 C288.92 531.12 287.91 546.37 287.93 562.04 C287.92 563.89 287.92 565.73 287.91 567.57 C287.91 571.39 287.91 575.22 287.91 579.04 C287.92 583.93 287.9 588.82 287.88 593.7 C287.86 597.49 287.86 601.28 287.86 605.07 C287.86 606.87 287.86 608.68 287.85 610.48 C287.84 612.99 287.84 615.5 287.85 618.01 C287.85 618.75 287.84 619.49 287.83 620.24 C287.88 624.94 288.78 628.12 291.23 632.12 C295.45 636.14 300.38 637.86 306.13 638.19 C312.2 638 315.98 635.28 320.23 631.12 C322.81 626.8 323.6 623.62 323.63 618.61 C323.65 616.69 323.65 616.69 323.67 614.74 C323.67 613.35 323.67 611.96 323.67 610.57 C323.68 609.12 323.69 607.67 323.71 606.21 C323.74 602.38 323.76 598.54 323.78 594.7 C323.81 587.91 323.85 581.12 323.92 574.32 C323.92 573.59 323.93 572.85 323.94 572.09 C324.45 523.74 333.68 474.88 356.04 431.62 C370.28 403.9 378.59 373.85 384.99 343.5 C385.25 342.32 385.5 341.14 385.77 339.92 C386 338.83 386.23 337.75 386.47 336.63 C386.84 335.39 386.84 335.39 387.23 334.12 C387.89 333.79 388.55 333.46 389.23 333.12 C389.52 334 389.52 334 389.82 334.89 C391.98 341.11 394.48 347.12 397.16 353.12 C397.52 353.91 397.87 354.69 398.23 355.5 C399.67 358.71 401.13 361.91 402.64 365.09 C411.03 382.68 414.65 401.37 418.21 420.39 C421.14 435.82 425.03 450.92 431.44 465.3 C433.44 472.47 429.76 479.9 427.48 486.68 C414.53 526.06 409.74 571.21 418.23 612.12 C418.53 613.61 418.53 613.61 418.84 615.13 C428.27 659.68 447.72 701.14 478.23 735.12 C478.71 735.67 479.19 736.21 479.69 736.77 C485.2 742.98 490.82 748.83 497.23 754.12 C498.88 755.5 500.52 756.89 502.17 758.28 C503.3 759.23 504.44 760.18 505.57 761.13 C508.97 763.98 512.14 766.94 515.23 770.12 C506.15 780.5 488.39 782.37 475.37 783.44 C467.73 783.68 460.58 782.82 453.1 781.43 C452.14 781.25 451.18 781.08 450.2 780.89 C440.69 779.09 431.32 776.85 421.95 774.49 C417.75 773.44 413.56 772.4 409.36 771.36 C407.12 770.81 404.88 770.25 402.64 769.7 C389.53 766.44 376.41 763.28 363.29 760.12 C360.84 759.53 358.39 758.94 355.95 758.35 C344.11 755.49 332.26 752.65 320.42 749.81 C316.06 748.77 311.71 747.73 307.35 746.68 C306.3 746.43 305.25 746.18 304.17 745.92 C292.59 743.15 281.02 740.35 269.48 737.43 C265.06 736.33 260.64 735.22 256.23 734.12 C255.48 733.93 254.73 733.75 253.96 733.55 C248.83 732.27 243.7 731 238.56 729.75 C236.86 729.34 235.16 728.92 233.46 728.49 C231.09 727.9 228.71 727.32 226.34 726.75 C225.64 726.57 224.93 726.39 224.21 726.2 C218.59 724.88 213.46 724.85 208.02 726.99 C201.87 730.85 199.85 733.49 197.23 740.12 C196.57 740.12 195.91 740.12 195.23 740.12 C195.23 739.46 195.23 738.8 195.23 738.12 C193.31 738.19 191.39 738.25 189.46 738.32 C187.23 738.12 187.23 738.12 184.96 737.21 C180.79 735.55 176.42 735 172.02 734.27 C168.4 733.63 165.47 732.82 162.23 731.12 C160.32 730.69 158.4 730.32 156.48 730 C155 729.74 155 729.74 153.49 729.49 C152.74 729.37 152 729.25 151.23 729.12 C150.77 729.95 150.32 730.77 149.85 731.62 C149.32 732.45 148.78 733.27 148.23 734.12 C147.57 734.12 146.91 734.12 146.23 734.12 C145.9 735.11 145.57 736.1 145.23 737.12 C144.57 737.12 143.91 737.12 143.23 737.12 C143.23 737.78 143.23 738.44 143.23 739.12 C137.56 742.9 131.88 742.87 125.23 742.12 C122.41 741.34 119.79 740.37 117.08 739.26 C113.96 738.02 110.82 737.06 107.6 736.12 C103.04 734.75 98.78 733.14 94.47 731.11 C92.35 730.18 90.27 729.44 88.06 728.75 C83.13 727.13 78.38 725.2 73.6 723.18 C72.79 722.85 71.99 722.51 71.16 722.17 C66.29 720.12 61.78 717.8 57.23 715.12 C55.57 714.42 53.91 713.73 52.23 713.12 C50.42 714.93 51.09 717.7 51.08 720.13 C51.08 721.42 51.07 722.71 51.06 724.04 C51.06 724.73 51.06 725.43 51.06 726.14 C51.05 728.32 51.04 730.49 51.02 732.67 C50.96 738.85 50.92 745.04 50.9 751.22 C50.89 755 50.86 758.79 50.82 762.57 C50.81 764 50.8 765.44 50.8 766.87 C50.82 779.25 49.02 788.07 40.36 797.16 C37.23 800.04 33.99 802.14 30.23 804.12 C29.47 804.54 28.71 804.96 27.92 805.39 C22.46 808.28 16.92 810.35 11.04 812.22 C8.7 812.97 6.44 813.79 4.16 814.68 C-3.69 817.66 -11.44 819.33 -19.77 820.12 C-20.43 820.45 -21.09 820.78 -21.77 821.12 C-23.37 821.22 -24.96 821.25 -26.56 821.25 C-27.55 821.25 -28.55 821.26 -29.57 821.26 C-30.65 821.26 -31.73 821.26 -32.84 821.25 C-33.94 821.25 -35.04 821.26 -36.18 821.26 C-38.51 821.26 -40.84 821.26 -43.18 821.25 C-46.76 821.25 -50.34 821.25 -53.92 821.26 C-56.18 821.26 -58.45 821.26 -60.71 821.25 C-61.79 821.26 -62.87 821.26 -63.97 821.26 C-64.97 821.26 -65.96 821.25 -66.99 821.25 C-67.87 821.25 -68.74 821.25 -69.65 821.25 C-71.77 821.12 -71.77 821.12 -73.77 820.12 C-75.12 819.95 -76.48 819.82 -77.84 819.7 C-82.65 819.21 -87.13 818.14 -91.77 816.81 C-92.56 816.59 -93.35 816.36 -94.16 816.13 C-98.87 814.77 -103.36 813.24 -107.77 811.09 C-110.08 809.97 -112.44 809.05 -114.84 808.12 C-126.27 803.55 -134.83 798.3 -140.77 787.12 C-141.29 786.2 -141.29 786.2 -141.82 785.27 C-143.46 781.59 -143.11 777.84 -143.09 773.87 C-143.08 772.99 -143.08 772.11 -143.08 771.2 C-142.95 762.85 -142.56 752.7 -138.77 745.12 C-138.59 743.62 -138.45 742.12 -138.34 740.62 C-137.73 734.09 -136.49 727.8 -134.8 721.47 C-133.57 716.59 -132.93 711.66 -132.27 706.68 C-131.49 700.75 -130.56 694.95 -129.2 689.12 C-128.64 686.51 -128.39 683.91 -128.21 681.25 C-128 678.24 -127.73 676 -126.77 673.12 C-126.58 671.75 -126.41 670.37 -126.27 669 C-126.19 668.21 -126.11 667.42 -126.02 666.61 C-125.94 665.79 -125.86 664.97 -125.77 664.12 C-125.61 662.5 -125.44 660.87 -125.27 659.25 C-125.2 658.53 -125.13 657.81 -125.05 657.07 C-124.77 655.12 -124.77 655.12 -123.77 652.12 C-123.57 649.67 -123.41 647.21 -123.27 644.75 C-122.88 637.65 -122.88 637.65 -122.29 634.75 C-121.74 631.95 -121.48 629.22 -121.27 626.38 C-121.19 625.29 -121.11 624.21 -121.02 623.09 C-120.94 621.96 -120.86 620.84 -120.77 619.68 C-120.61 617.46 -120.44 615.23 -120.27 613 C-120.2 612.02 -120.13 611.03 -120.05 610.02 C-119.77 607.12 -119.77 607.12 -119.25 604.1 C-118.47 599.24 -118.59 594.4 -118.59 589.5 C-118.57 588.46 -118.56 587.42 -118.55 586.36 C-118.55 585.36 -118.54 584.36 -118.54 583.33 C-118.54 582.43 -118.53 581.52 -118.53 580.59 C-118.79 577.99 -119.46 576.36 -120.77 574.12 C-121.43 574.12 -122.09 574.12 -122.77 574.12 C-124.22 572.39 -125.58 570.58 -126.9 568.75 C-127.62 567.75 -128.35 566.75 -129.09 565.72 C-130.77 563.12 -130.77 563.12 -130.77 561.12 C-131.43 561.12 -132.09 561.12 -132.77 561.12 C-135.77 556.74 -135.77 556.74 -135.77 554.12 C-136.43 554.12 -137.09 554.12 -137.77 554.12 C-139.06 552.44 -139.06 552.44 -140.4 550.25 C-140.84 549.53 -141.29 548.81 -141.75 548.07 C-142.77 546.12 -142.77 546.12 -142.77 544.12 C-143.43 544.12 -144.09 544.12 -144.77 544.12 C-146.46 541.86 -146.46 541.86 -148.34 538.87 C-148.96 537.9 -149.58 536.92 -150.21 535.92 C-151.53 533.55 -152.31 531.76 -152.77 529.12 C-153.43 529.12 -154.09 529.12 -154.77 529.12 C-155.06 528.59 -155.36 528.05 -155.66 527.5 C-158.39 522.53 -161.24 517.65 -164.17 512.79 C-180.83 485.1 -180.83 485.1 -179.77 476.12 C-178.06 471.07 -176.11 466.44 -171.77 463.12 C-171.11 463.12 -170.45 463.12 -169.77 463.12 C-171.27 457.65 -172.79 452.97 -175.77 448.12 C-176.57 445.96 -177.26 443.77 -177.96 441.57 C-178.79 439.08 -179.72 436.67 -180.71 434.25 C-181.04 433.42 -181.37 432.59 -181.71 431.74 C-182.46 429.89 -183.23 428.05 -184.02 426.22 C-184.42 425.26 -184.81 424.3 -185.21 423.31 C-185.77 422 -185.77 422 -186.33 420.66 C-186.77 418.12 -186.77 418.12 -185.52 415.38 C-183.77 413.12 -183.77 413.12 -181.34 411.81 C-177.53 409.3 -176.2 406.37 -174.77 402.12 C-173.67 394.26 -175.85 386.88 -177.91 379.35 C-201.1 293.83 -197.94 188.79 -154.77 96.12 C-154.25 95.12 -153.73 94.13 -153.19 93.1 C-137.55 63.52 -112.64 37.54 -82.77 22.12 C-81.73 21.54 -80.69 20.96 -79.61 20.36 C-55.17 7.07 -27.63 0.89 0 0 Z M149.23 726.12 C149.23 726.78 149.23 727.44 149.23 728.12 C149.89 727.79 150.55 727.46 151.23 727.12 C150.57 726.79 149.91 726.46 149.23 726.12 Z " fill="#F97D7A" transform="translate(344.7734375,458.87890625)"/>
<path d="M0 0 C13.34 11.78 26.27 24.26 36.5 38.88 C37.63 40.44 37.63 40.44 38.78 42.03 C55.93 66.19 67.13 91.93 74.1 120.71 C76.74 131.86 76.74 131.86 84.46 139.79 C87.35 141.33 90.33 142.25 93.48 143.1 C95.86 144.01 96.9 144.9 98.5 146.88 C98.87 148.85 98.87 148.85 98.86 151.12 C98.86 152.39 98.86 152.39 98.87 153.69 C98.85 155.07 98.85 155.07 98.83 156.47 C98.83 157.41 98.82 158.35 98.82 159.33 C98.82 161.32 98.8 163.31 98.78 165.31 C98.75 168.36 98.74 171.42 98.73 174.47 C98.73 176.41 98.71 178.35 98.7 180.28 C98.7 181.2 98.69 182.11 98.69 183.06 C98.68 184.33 98.68 184.33 98.66 185.63 C98.65 186.76 98.65 186.76 98.64 187.9 C98.5 189.88 98.5 189.88 97.5 192.88 C94.73 193.65 94.73 193.65 91.25 194.25 C85.87 195.4 82.7 196.13 79.5 200.88 C76.36 206.97 74.59 213.01 73.19 219.69 C67.72 243.75 58.26 267.95 43.5 287.88 C42.73 288.98 41.97 290.09 41.21 291.2 C27.81 310.65 11.55 327.9 -7.5 341.88 C-8.1 342.32 -8.69 342.76 -9.31 343.21 C-20.19 351.24 -31.32 357.99 -43.5 363.88 C-44.43 364.35 -45.35 364.82 -46.31 365.3 C-95.75 389.6 -155.48 390.77 -207.27 373.77 C-228.18 366.52 -247.98 356.43 -265.5 342.88 C-266.61 342.04 -267.72 341.2 -268.82 340.36 C-277.16 333.98 -284.92 327.13 -292.5 319.88 C-293.25 319.17 -294 318.46 -294.77 317.73 C-314.61 298.51 -330.08 273.77 -339.5 247.88 C-340.16 246.29 -340.83 244.71 -341.5 243.12 C-359.99 196.75 -358.48 143.6 -342.5 96.88 C-342.12 95.71 -341.74 94.55 -341.36 93.35 C-338.23 84.06 -334.05 75.52 -329.5 66.88 C-328.98 65.87 -328.47 64.87 -327.93 63.84 C-302.69 16.03 -256.88 -21.73 -205.44 -38.1 C-192.99 -41.88 -180.41 -45.3 -167.5 -47.12 C-166.85 -47.22 -166.2 -47.31 -165.52 -47.4 C-106.95 -54.49 -45.09 -38.73 0 0 Z " fill="#6DA9EF" transform="translate(1150.5,857.125)"/>
<path d="M0 0 C0.65 0.28 1.29 0.57 1.96 0.86 C19.74 8.78 34.22 20.43 48 34 C49.04 35.01 50.09 36.01 51.13 37.02 C64.74 50.21 64.74 50.21 67 57 C60.41 59.82 53.79 62.47 47.06 64.94 C39.86 67.6 32.93 70.69 26 74 C24.59 74.64 23.19 75.28 21.78 75.92 C-10.49 89.31 -10.49 89.31 -34 113 C-35.82 118.68 -35.19 123.71 -32.48 128.98 C-29.16 133.52 -24.83 135.35 -19.46 136.58 C-11.44 137.29 -5.76 133.53 0.76 129.4 C15.97 119.87 31.56 111.22 48 104 C48.78 103.66 49.55 103.32 50.35 102.96 C82.46 89.03 116.38 80.61 151 76 C151.87 75.88 152.73 75.76 153.63 75.64 C163.06 74.38 172.48 73.76 182 73.56 C182.95 73.53 183.9 73.49 184.88 73.46 C187.35 73.44 189.58 73.49 192 74 C197.54 79.8 198.16 91.28 198.38 99 C198.15 106.86 197.6 117.02 192 123 C189.76 123.65 189.76 123.65 187.12 123.87 C186.15 123.97 185.17 124.06 184.17 124.16 C183.12 124.25 182.08 124.34 181 124.44 C149.04 127.83 120.89 140.56 97 162 C96.11 162.77 95.21 163.55 94.29 164.34 C88.38 169.51 83.11 175.05 78 181 C77.23 181.88 76.46 182.76 75.67 183.67 C64.93 196.23 55.36 209.74 47 224 C46.4 225 45.79 226.01 45.17 227.04 C38.66 237.99 33.42 249.06 29 261 C28.29 262.8 28.29 262.8 27.57 264.64 C19.68 284.72 15.25 305.5 10.93 326.57 C10.77 327.33 10.62 328.1 10.45 328.88 C9.6 333.04 8.76 337.21 7.94 341.37 C7.59 343.12 7.23 344.87 6.88 346.62 C6.72 347.44 6.56 348.27 6.4 349.12 C6 351.09 5.51 353.05 5 355 C4.34 355.33 3.68 355.66 3 356 C0.6 355.03 -1.64 353.99 -3.94 352.81 C-4.64 352.45 -5.35 352.09 -6.08 351.73 C-20.18 344.41 -33.23 335.25 -46.28 326.24 C-51.01 322.98 -55.78 319.8 -60.56 316.62 C-65.99 313.02 -71.37 309.38 -76.68 305.62 C-79.24 303.83 -81.84 302.1 -84.44 300.38 C-89.76 296.84 -95.04 293.24 -100.31 289.62 C-108.5 284.01 -116.73 278.48 -125 273 C-126.81 271.79 -128.63 270.58 -130.44 269.38 C-131.14 268.91 -131.84 268.44 -132.56 267.96 C-133.03 267.64 -133.51 267.33 -134 267 C-131.32 262.03 -128.41 257.85 -124.69 253.62 C-123.7 252.48 -122.71 251.33 -121.72 250.18 C-121.01 249.36 -121.01 249.36 -120.29 248.52 C-118.1 245.94 -116.05 243.24 -113.99 240.55 C-111.3 237.1 -108.52 233.71 -105.75 230.31 C-101.57 225.19 -97.44 220.03 -93.38 214.81 C-85.93 205.27 -78.17 196.04 -69.78 187.32 C-66.18 182.63 -65.49 177.78 -66 172 C-67.24 168.36 -67.24 168.36 -69 165 C-69.37 164.09 -69.74 163.19 -70.12 162.25 C-73.07 158.72 -76.56 157.8 -81 157 C-87.76 156.61 -92.87 158.68 -98 163 C-104.88 169.84 -110.94 177.44 -117 185 C-117.95 186.18 -118.9 187.36 -119.84 188.54 C-124.75 194.64 -129.61 200.77 -134.44 206.94 C-139.03 212.81 -143.72 218.6 -148.44 224.38 C-151.25 227.83 -154.03 231.29 -156.75 234.81 C-159.4 238.24 -162.09 241.63 -164.81 245 C-165.94 246.39 -165.94 246.39 -167.08 247.81 C-169 250 -169 250 -171 251 C-173.32 250.49 -173.32 250.49 -176.19 249.6 C-177.22 249.29 -178.24 248.97 -179.3 248.65 C-180.38 248.31 -181.45 247.97 -182.56 247.62 C-183.64 247.3 -184.72 246.96 -185.83 246.62 C-193.86 244.14 -193.86 244.14 -195 243 C-195.11 241.08 -195.14 239.16 -195.15 237.23 C-195.15 235.98 -195.16 234.73 -195.17 233.43 C-195.17 232.03 -195.17 230.63 -195.18 229.23 C-195.18 227.76 -195.19 226.29 -195.2 224.83 C-195.21 220.83 -195.22 216.84 -195.23 212.84 C-195.24 210.34 -195.24 207.85 -195.25 205.35 C-195.27 197.54 -195.28 189.73 -195.29 181.92 C-195.3 172.9 -195.33 163.89 -195.37 154.87 C-195.4 147.91 -195.41 140.94 -195.42 133.97 C-195.42 129.81 -195.43 125.65 -195.45 121.49 C-195.48 117.57 -195.48 113.65 -195.47 109.73 C-195.47 108.3 -195.48 106.86 -195.49 105.43 C-195.61 92.13 -195.61 92.13 -191 86 C-190.45 85.11 -189.89 84.22 -189.32 83.3 C-188.16 81.49 -187 79.68 -185.84 77.88 C-184.67 76.04 -183.51 74.2 -182.38 72.34 C-174.66 59.77 -165.18 48.63 -155 38 C-154.52 37.5 -154.05 36.99 -153.56 36.48 C-146.27 28.8 -138.55 22.23 -130 16 C-129.18 15.37 -128.36 14.75 -127.52 14.11 C-91.64 -12.52 -40.63 -18.05 0 0 Z " fill="#8AB7FC" transform="translate(589,183)"/>
<path d="M0 0 C1.24 -0.01 1.24 -0.01 2.51 -0.01 C5.22 -0.02 7.93 -0.01 10.64 -0.01 C12.53 -0.01 14.43 -0.01 16.33 -0.01 C20.3 -0.02 24.26 -0.01 28.23 -0 C33.3 0.01 38.37 0 43.44 -0.01 C47.36 -0.02 51.27 -0.01 55.19 -0.01 C57.06 -0.01 58.93 -0.01 60.8 -0.01 C63.41 -0.02 66.03 -0.01 68.65 0 C69.41 -0 70.17 -0.01 70.96 -0.01 C77.69 0.04 85.02 0.81 90.32 5.26 C94.66 11.73 96.42 16.91 96.53 24.68 C96.55 25.98 96.57 27.28 96.59 28.62 C96.61 30.04 96.62 31.45 96.64 32.87 C96.66 34.32 96.68 35.77 96.7 37.22 C96.76 41.04 96.81 44.85 96.86 48.66 C96.91 52.56 96.96 56.45 97.02 60.35 C97.13 67.99 97.23 75.62 97.32 83.26 C98.14 83.26 98.96 83.27 99.81 83.27 C107.56 83.31 115.31 83.36 123.07 83.44 C127.05 83.48 131.03 83.51 135.02 83.53 C138.87 83.55 142.72 83.58 146.57 83.63 C148.04 83.64 149.5 83.65 150.96 83.65 C159 83.66 166.38 83.72 173.32 88.26 C175.26 90.29 175.26 90.29 176.32 92.32 C176.7 92.99 177.07 93.66 177.45 94.36 C179.58 98.99 179.49 103.3 179.5 108.3 C179.51 109.23 179.51 110.15 179.52 111.11 C179.54 114.17 179.55 117.24 179.56 120.31 C179.57 121.35 179.57 122.4 179.57 123.48 C179.6 129.03 179.61 134.57 179.62 140.12 C179.63 145.84 179.66 151.56 179.7 157.29 C179.73 161.69 179.74 166.1 179.74 170.5 C179.75 172.61 179.76 174.72 179.78 176.83 C179.8 179.79 179.8 182.74 179.79 185.7 C179.81 187 179.81 187 179.83 188.33 C179.78 194.13 178.66 197.48 175.32 202.26 C170.1 207.22 165.54 208.51 158.42 208.49 C157.41 208.49 157.41 208.49 156.38 208.49 C154.17 208.49 151.96 208.47 149.74 208.45 C148.2 208.45 146.66 208.45 145.12 208.45 C141.08 208.44 137.04 208.42 133 208.4 C128.87 208.38 124.74 208.37 120.61 208.36 C112.51 208.34 104.42 208.3 96.32 208.26 C96.32 209.13 96.32 210.01 96.31 210.91 C96.28 219.16 96.22 227.41 96.14 235.67 C96.1 239.91 96.07 244.15 96.05 248.4 C96.04 252.49 96 256.59 95.96 260.69 C95.94 262.25 95.93 263.81 95.93 265.37 C95.93 267.56 95.9 269.75 95.87 271.95 C95.86 273.19 95.85 274.44 95.84 275.72 C95.12 280.67 93.17 284.41 89.58 288 C88.74 288.56 88.74 288.56 87.89 289.13 C87.05 289.72 87.05 289.72 86.2 290.31 C81.37 292.75 76.02 292.41 70.73 292.42 C69.88 292.42 69.02 292.43 68.14 292.43 C65.32 292.45 62.5 292.46 59.68 292.46 C57.72 292.47 55.75 292.47 53.78 292.48 C49.66 292.49 45.54 292.5 41.42 292.5 C36.15 292.5 30.88 292.53 25.62 292.56 C21.55 292.58 17.49 292.58 13.43 292.58 C11.49 292.59 9.55 292.59 7.61 292.61 C4.88 292.62 2.16 292.62 -0.56 292.62 C-1.36 292.62 -2.15 292.63 -2.96 292.64 C-10.36 292.59 -17.57 290.96 -23.18 285.88 C-23.83 285.32 -24.48 284.75 -25.14 284.17 C-28.25 280.29 -27.81 275.34 -27.87 270.56 C-27.88 269.58 -27.88 269.58 -27.89 268.58 C-27.91 267.17 -27.92 265.76 -27.94 264.35 C-27.96 262.13 -27.98 259.9 -28.01 257.67 C-28.08 252.15 -28.14 246.62 -28.2 241.09 C-28.25 236.41 -28.31 231.73 -28.37 227.06 C-28.39 224.86 -28.42 222.66 -28.44 220.46 C-28.45 219.12 -28.47 217.78 -28.49 216.44 C-28.5 215.27 -28.51 214.1 -28.52 212.89 C-28.38 210.33 -28.38 210.33 -29.68 209.26 C-31.71 209.16 -33.76 209.13 -35.8 209.13 C-37.11 209.13 -38.42 209.13 -39.77 209.12 C-40.48 209.12 -41.19 209.12 -41.91 209.12 C-44.89 209.12 -47.86 209.1 -50.83 209.08 C-56.36 209.04 -61.89 209.01 -67.43 209.01 C-71.27 209.01 -75.12 208.99 -78.96 208.95 C-80.43 208.94 -81.89 208.93 -83.35 208.94 C-91.78 208.98 -98.81 208.69 -105.68 203.26 C-111.28 197.51 -111.97 192.08 -111.97 184.4 C-111.97 183.52 -111.98 182.64 -111.99 181.73 C-112.01 178.82 -112.01 175.91 -112.01 173 C-112.02 170.97 -112.02 168.93 -112.03 166.9 C-112.04 162.64 -112.05 158.38 -112.05 154.12 C-112.05 148.68 -112.07 143.25 -112.11 137.81 C-112.13 133.61 -112.13 129.41 -112.13 125.21 C-112.14 123.21 -112.14 121.21 -112.16 119.2 C-112.32 97.01 -112.32 97.01 -106.37 89.64 C-99 82.58 -87.87 83.99 -78.46 84.06 C-76.99 84.07 -75.52 84.07 -74.05 84.07 C-70.21 84.08 -66.37 84.1 -62.53 84.12 C-58.6 84.14 -54.67 84.15 -50.75 84.16 C-43.06 84.18 -35.37 84.22 -27.68 84.26 C-27.68 83.43 -27.69 82.59 -27.7 81.74 C-27.78 73.87 -27.84 66 -27.88 58.13 C-27.9 54.08 -27.93 50.04 -27.98 45.99 C-28.02 42.08 -28.04 38.17 -28.06 34.26 C-28.06 32.78 -28.08 31.29 -28.1 29.8 C-28.32 13.97 -28.32 13.97 -23.68 7.26 C-17.1 0.8 -8.84 -0.05 0 0 Z " fill="#000002" transform="translate(978.67578125,878.7412109375)"/>
<path d="M0 0 C0.66 0 1.32 0 2 0 C2 0.66 2 1.32 2 2 C2.99 1.67 3.98 1.34 5 1 C11.49 0.46 17.39 0.37 23 4 C26.8 8.51 29.34 13.64 31.94 18.89 C47.24 49.44 67.74 78.96 91 104 C92.17 105.35 93.34 106.7 94.5 108.06 C97.77 111.82 101.28 115.3 104.83 118.79 C106.74 120.74 108.5 122.72 110.25 124.81 C114.83 130.15 120.11 134.76 125.32 139.47 C126.93 140.94 128.53 142.41 130.12 143.9 C164.72 176.09 208.97 207.28 253.45 224 C256 225 258.48 226.12 260.97 227.26 C274.67 233.48 289.03 238.62 303.4 243.05 C304.47 243.38 305.53 243.71 306.63 244.05 C307.58 244.33 308.53 244.61 309.5 244.9 C313.73 246.76 315.85 250.04 318 254 C318.56 254.94 318.56 254.94 319.14 255.89 C320.25 258.61 320.19 260.82 320.12 263.75 C320.11 264.73 320.09 265.72 320.07 266.73 C320.05 267.48 320.02 268.23 320 269 C320.66 269.33 321.32 269.66 322 270 C320.62 272.5 320.62 272.5 319 275 C318.34 275 317.68 275 317 275 C316.67 275.99 316.34 276.98 316 278 C315.34 278 314.68 278 314 278 C314 278.66 314 279.32 314 280 C308.33 283.78 302.66 283.75 296 283 C293.18 282.22 290.56 281.25 287.86 280.14 C284.74 278.89 281.6 277.94 278.38 277 C273.81 275.62 269.55 274.02 265.25 271.99 C263.13 271.06 261.04 270.32 258.84 269.62 C253.91 268.01 249.15 266.08 244.38 264.06 C243.57 263.73 242.76 263.39 241.93 263.05 C237.06 261 232.55 258.68 228 256 C226.35 255.3 224.69 254.61 223 254 C221.19 255.81 221.87 258.58 221.86 261.01 C221.85 262.3 221.84 263.59 221.84 264.92 C221.84 265.61 221.83 266.31 221.83 267.02 C221.82 269.2 221.81 271.37 221.79 273.55 C221.74 279.73 221.69 285.92 221.67 292.1 C221.66 295.88 221.63 299.66 221.59 303.45 C221.58 304.88 221.58 306.32 221.58 307.75 C221.59 320.12 219.79 328.95 211.13 338.04 C208 340.92 204.76 343.02 201 345 C200.24 345.42 199.48 345.84 198.7 346.27 C193.23 349.16 187.69 351.23 181.81 353.1 C179.48 353.85 177.21 354.66 174.94 355.56 C167.09 358.54 159.34 360.21 151 361 C150.34 361.33 149.68 361.66 149 362 C147.41 362.1 145.81 362.13 144.21 362.13 C143.22 362.13 142.23 362.14 141.2 362.14 C140.12 362.14 139.05 362.13 137.94 362.13 C136.84 362.13 135.73 362.13 134.6 362.14 C132.26 362.14 129.93 362.13 127.6 362.13 C124.01 362.13 120.43 362.13 116.85 362.14 C114.59 362.14 112.33 362.13 110.06 362.13 C108.45 362.14 108.45 362.14 106.8 362.14 C105.8 362.14 104.81 362.13 103.79 362.13 C102.91 362.13 102.03 362.13 101.13 362.13 C99 362 99 362 97 361 C95.65 360.83 94.29 360.69 92.94 360.58 C88.13 360.09 83.64 359.02 79 357.69 C78.21 357.46 77.42 357.24 76.61 357.01 C71.9 355.65 67.42 354.12 63 351.96 C60.69 350.85 58.33 349.93 55.94 349 C44.51 344.42 35.95 339.18 30 328 C29.66 327.39 29.31 326.78 28.96 326.14 C27.32 322.47 27.66 318.72 27.69 314.75 C27.69 313.87 27.69 312.99 27.69 312.08 C27.82 303.72 28.21 293.58 32 286 C32.18 284.5 32.32 283 32.44 281.5 C33.04 274.97 34.29 268.68 35.97 262.35 C37.2 257.47 37.85 252.54 38.5 247.56 C39.28 241.63 40.21 235.83 41.57 230 C42.13 227.39 42.38 224.79 42.56 222.12 C42.77 219.12 43.04 216.88 44 214 C44.2 212.63 44.36 211.25 44.5 209.88 C44.58 209.09 44.66 208.3 44.75 207.48 C44.83 206.66 44.91 205.84 45 205 C45.16 203.37 45.33 201.75 45.5 200.12 C45.57 199.41 45.64 198.69 45.72 197.95 C46 196 46 196 47 193 C47.2 190.54 47.36 188.09 47.5 185.62 C47.89 178.53 47.89 178.53 48.49 175.63 C49.03 172.83 49.29 170.1 49.5 167.25 C49.58 166.17 49.66 165.08 49.75 163.97 C49.83 162.84 49.91 161.72 50 160.56 C50.16 158.33 50.33 156.11 50.5 153.88 C50.61 152.4 50.61 152.4 50.72 150.9 C51 148 51 148 51.52 144.97 C52.3 140.12 52.18 135.28 52.19 130.38 C52.21 128.82 52.21 128.82 52.22 127.23 C52.23 126.24 52.23 125.24 52.23 124.21 C52.23 123.31 52.24 122.4 52.24 121.47 C51.99 118.87 51.32 117.24 50 115 C49.34 115 48.68 115 48 115 C46.55 113.26 45.19 111.46 43.88 109.62 C43.15 108.63 42.43 107.63 41.68 106.6 C40 104 40 104 40 102 C39.34 102 38.68 102 38 102 C35 97.62 35 97.62 35 95 C34.34 95 33.68 95 33 95 C31.71 93.32 31.71 93.32 30.38 91.12 C29.93 90.41 29.48 89.69 29.02 88.95 C28 87 28 87 28 85 C27.34 85 26.68 85 26 85 C24.31 82.73 24.31 82.73 22.44 79.75 C21.82 78.78 21.2 77.8 20.56 76.8 C19.24 74.43 18.46 72.64 18 70 C17.34 70 16.68 70 16 70 C15.71 69.47 15.42 68.93 15.12 68.38 C12.38 63.41 9.54 58.53 6.61 53.67 C-10.06 25.98 -10.06 25.98 -9 17 C-7.29 11.95 -5.33 7.32 -1 4 C-0.34 4 0.32 4 1 4 C0.67 2.68 0.34 1.36 0 0 Z " fill="#000002" transform="translate(174,918)"/>
<path d="M0 0 C0 0.66 0 1.32 0 2 C-0.99 2 -1.98 2 -3 2 C-2.57 3.86 -2.57 3.86 -2.12 5.75 C3.13 29.7 3.61 52.86 1.27 77.18 C1.08 79.12 0.91 81.06 0.75 83 C0.62 84.45 0.62 84.45 0.5 85.93 C0.42 86.8 0.35 87.66 0.28 88.56 C-0.13 92.16 -1.02 95.51 -2 99 C-2.93 102.51 -3.64 106.07 -4.38 109.62 C-6.65 120.15 -9.52 128.67 -15 138 C-17.33 138.04 -19.67 138.04 -22 138 C-23.8 136.2 -23.14 133.47 -23.16 131.05 C-23.17 129.13 -23.17 129.13 -23.19 127.18 C-23.19 126.5 -23.2 125.81 -23.2 125.1 C-23.21 122.95 -23.23 120.8 -23.25 118.65 C-23.31 112.54 -23.37 106.43 -23.4 100.32 C-23.42 96.58 -23.46 92.85 -23.5 89.11 C-23.52 87.69 -23.52 86.27 -23.53 84.85 C-23.55 74.46 -24.23 66.37 -31 58 C-36.93 54.72 -43.82 54.85 -50.43 54.84 C-51.26 54.83 -52.08 54.83 -52.93 54.82 C-55.65 54.81 -58.37 54.8 -61.08 54.8 C-62.98 54.79 -64.88 54.79 -66.78 54.78 C-70.75 54.77 -74.73 54.76 -78.7 54.76 C-83.78 54.75 -88.86 54.73 -93.93 54.7 C-97.85 54.68 -101.77 54.68 -105.69 54.68 C-107.56 54.67 -109.43 54.67 -111.3 54.65 C-113.93 54.64 -116.55 54.64 -119.18 54.64 C-120.32 54.63 -120.32 54.63 -121.49 54.62 C-129.26 54.68 -137.09 56.79 -143 62 C-146.88 69.53 -146.48 77.39 -146.51 85.66 C-146.53 87.17 -146.55 88.68 -146.57 90.2 C-146.61 94.15 -146.64 98.11 -146.67 102.07 C-146.7 106.12 -146.75 110.17 -146.79 114.22 C-146.88 122.15 -146.94 130.07 -147 138 C-147.81 138.01 -148.61 138.01 -149.45 138.02 C-157.08 138.08 -164.71 138.15 -172.35 138.24 C-176.27 138.28 -180.2 138.32 -184.12 138.35 C-187.92 138.37 -191.71 138.41 -195.5 138.46 C-196.94 138.48 -198.38 138.49 -199.83 138.5 C-213.14 138.52 -213.14 138.52 -224.88 144.19 C-229.62 150.46 -230.45 156.62 -230.4 164.23 C-230.41 165.56 -230.41 165.56 -230.42 166.91 C-230.44 169.82 -230.44 172.72 -230.43 175.62 C-230.44 177.66 -230.44 179.69 -230.45 181.72 C-230.46 185.97 -230.46 190.22 -230.45 194.47 C-230.43 199.9 -230.45 205.34 -230.48 210.77 C-230.5 214.96 -230.5 219.16 -230.5 223.35 C-230.5 225.35 -230.5 227.36 -230.51 229.36 C-230.53 232.17 -230.52 234.97 -230.5 237.77 C-230.51 238.59 -230.52 239.41 -230.53 240.26 C-230.45 246.67 -228.78 252.19 -224.18 256.84 C-223.61 257.2 -223.03 257.56 -222.44 257.94 C-221.86 258.32 -221.28 258.7 -220.68 259.09 C-216.93 261.12 -213.73 261.14 -209.54 261.17 C-208.89 261.18 -208.24 261.19 -207.57 261.19 C-206.16 261.21 -204.75 261.22 -203.34 261.23 C-201.1 261.25 -198.87 261.27 -196.64 261.29 C-190.3 261.37 -183.96 261.43 -177.61 261.48 C-173.73 261.51 -169.85 261.55 -165.97 261.6 C-164.49 261.61 -163.01 261.63 -161.53 261.63 C-159.46 261.65 -157.4 261.67 -155.33 261.7 C-154.15 261.71 -152.98 261.72 -151.76 261.73 C-149 262 -149 262 -147 264 C-146.25 266.75 -146.25 266.75 -147 270 C-153.01 275.27 -160.38 277.25 -168 279 C-171.46 279.98 -174.92 280.98 -178.38 282 C-189.88 285.17 -189.88 285.17 -196 285 C-196.54 285.14 -197.09 285.28 -197.64 285.43 C-209.57 288.32 -222.26 288.19 -234.44 288.19 C-236.32 288.19 -236.32 288.19 -238.24 288.19 C-247.88 288.13 -257.51 287.82 -267 286 C-268.98 285.64 -270.96 285.29 -272.94 284.94 C-273.92 284.76 -274.89 284.58 -275.9 284.4 C-279.3 283.96 -282.58 283.94 -286 284 C-303.97 232.34 -307.91 181.38 -290 129 C-289.62 127.84 -289.24 126.67 -288.86 125.47 C-285.73 116.19 -281.55 107.65 -277 99 C-276.48 98 -275.97 97 -275.43 95.96 C-250.19 48.16 -204.38 10.39 -152.94 -5.97 C-140.49 -9.76 -127.91 -13.18 -115 -15 C-114.35 -15.09 -113.7 -15.18 -113.02 -15.28 C-75.14 -19.86 -35.08 -15.14 0 0 Z " fill="#8AB7FC" transform="translate(1098,825)"/>
<path d="M0 0 C0.65 0.28 1.29 0.57 1.96 0.86 C19.74 8.78 34.22 20.43 48 34 C49.04 35.01 50.09 36.01 51.13 37.02 C64.74 50.21 64.74 50.21 67 57 C60.41 59.82 53.79 62.47 47.06 64.94 C39.86 67.6 32.93 70.69 26 74 C24.59 74.64 23.19 75.28 21.78 75.92 C-10.5 89.31 -10.5 89.31 -34 113 C-35.92 119.35 -34.69 124.09 -32 130 C-33.77 131.48 -35.54 132.96 -37.31 134.44 C-38.13 135.12 -38.13 135.12 -38.96 135.81 C-42.45 138.72 -45.96 141.59 -49.5 144.44 C-54.16 148.23 -58.59 152.23 -62.94 156.37 C-65.47 158.75 -67.77 160.67 -71 162 C-71.35 161.55 -71.7 161.09 -72.06 160.62 C-75.96 157.36 -80.49 156.76 -85.44 157.06 C-99.67 159.25 -108.66 174.58 -117 185 C-117.95 186.18 -118.9 187.36 -119.84 188.54 C-124.75 194.64 -129.61 200.77 -134.44 206.94 C-139.03 212.81 -143.72 218.6 -148.44 224.38 C-151.25 227.83 -154.03 231.29 -156.75 234.81 C-159.4 238.24 -162.09 241.63 -164.81 245 C-165.94 246.39 -165.94 246.39 -167.08 247.81 C-169 250 -169 250 -171 251 C-173.32 250.49 -173.32 250.49 -176.19 249.6 C-177.22 249.29 -178.24 248.97 -179.3 248.65 C-180.38 248.31 -181.45 247.97 -182.56 247.62 C-183.64 247.3 -184.72 246.96 -185.83 246.62 C-193.86 244.14 -193.86 244.14 -195 243 C-195.11 241.08 -195.14 239.16 -195.15 237.23 C-195.15 235.98 -195.16 234.73 -195.17 233.43 C-195.17 232.03 -195.17 230.63 -195.18 229.23 C-195.18 227.76 -195.19 226.29 -195.2 224.83 C-195.21 220.83 -195.22 216.84 -195.23 212.84 C-195.24 210.34 -195.24 207.85 -195.25 205.35 C-195.27 197.54 -195.28 189.73 -195.29 181.92 C-195.3 172.9 -195.33 163.89 -195.37 154.87 C-195.4 147.91 -195.41 140.94 -195.42 133.97 C-195.42 129.81 -195.43 125.65 -195.45 121.49 C-195.48 117.57 -195.48 113.65 -195.47 109.73 C-195.47 108.3 -195.48 106.86 -195.49 105.43 C-195.61 92.13 -195.61 92.13 -191 86 C-190.45 85.11 -189.89 84.22 -189.32 83.3 C-188.16 81.49 -187 79.68 -185.84 77.88 C-184.67 76.04 -183.51 74.2 -182.38 72.34 C-174.66 59.77 -165.18 48.63 -155 38 C-154.52 37.5 -154.05 36.99 -153.56 36.48 C-146.27 28.8 -138.55 22.23 -130 16 C-129.18 15.37 -128.36 14.75 -127.52 14.11 C-91.64 -12.52 -40.63 -18.05 0 0 Z " fill="#F97E7B" transform="translate(589,183)"/>
<path d="M0 0 C0.66 0.2 1.32 0.4 2 0.6 C5.4 1.69 7.7 2.65 9.94 5.44 C10.23 8.34 10.33 11.02 10.3 13.92 C10.31 15.23 10.31 15.23 10.31 16.57 C10.32 19.52 10.31 22.46 10.29 25.41 C10.29 27.51 10.3 29.62 10.3 31.73 C10.31 37.46 10.29 43.19 10.27 48.92 C10.26 54.91 10.26 60.89 10.26 66.88 C10.26 76.93 10.24 86.99 10.22 97.04 C10.19 109.96 10.18 122.88 10.18 135.8 C10.17 146.89 10.16 157.98 10.14 169.07 C10.14 172.64 10.14 176.22 10.13 179.79 C10.13 185.4 10.12 191 10.11 196.61 C10.1 198.67 10.1 200.74 10.1 202.8 C10.1 205.6 10.09 208.41 10.08 211.21 C10.08 212.04 10.08 212.87 10.08 213.72 C10.05 219.32 10.05 219.32 8.94 220.44 C7.23 220.55 5.52 220.59 3.81 220.61 C-24.35 221.15 -50.52 226.14 -77.07 235.46 C-79.73 236.33 -82.3 236.96 -85.06 237.44 C-87.49 232.85 -89.5 228.33 -91.25 223.44 C-97.3 207.48 -107.18 192.29 -118.88 179.89 C-120.06 178.44 -120.06 178.44 -120.06 176.44 C-120.93 176.07 -120.93 176.07 -121.81 175.69 C-124.39 174.25 -126.12 172.65 -128.06 170.44 C-128.06 169.78 -128.06 169.12 -128.06 168.44 C-128.64 168.17 -129.22 167.89 -129.82 167.61 C-132.05 166.44 -133.98 165.14 -136 163.64 C-136.75 163.1 -137.49 162.56 -138.25 162 C-139.04 161.42 -139.82 160.84 -140.62 160.25 C-146.35 156.08 -152.08 152.03 -158.1 148.3 C-164.47 144.29 -170.69 140.04 -176.95 135.85 C-178.81 134.61 -180.67 133.37 -182.54 132.13 C-188.78 127.99 -194.95 123.77 -201.06 119.44 C-200.43 106.7 -195.05 96.16 -185.91 87.36 C-179.42 81.57 -179.42 81.57 -175.28 81.17 C-171.43 81.49 -169.69 82.56 -166.52 84.74 C-165.46 85.46 -164.4 86.18 -163.3 86.93 C-162.16 87.72 -161.02 88.52 -159.88 89.31 C-158.69 90.12 -157.5 90.93 -156.31 91.74 C-153.82 93.43 -151.34 95.13 -148.86 96.84 C-143.31 100.65 -137.72 104.4 -132.13 108.14 C-130.41 109.29 -128.7 110.44 -127 111.6 C-114.62 120.21 -114.62 120.21 -100.06 121.44 C-95.21 119.64 -91.73 117.11 -88.97 112.69 C-85.08 103.04 -88.89 89 -90.5 79 C-90.76 77.33 -91.02 75.66 -91.28 73.99 C-93.85 57.85 -96.96 41.81 -100.17 25.79 C-100.36 24.82 -100.55 23.84 -100.75 22.84 C-101.11 21.03 -101.47 19.21 -101.84 17.4 C-102.78 12.65 -103.25 8.28 -103.06 3.44 C-98.14 0.72 -93.29 -0.76 -87.88 -2.12 C-87.03 -2.34 -86.18 -2.56 -85.3 -2.78 C-56.72 -9.98 -28.15 -8.49 0 0 Z " fill="#8AB7FC" transform="translate(346.0625,201.5625)"/>
<path d="M0 0 C1.44 0.15 2.88 0.3 4.32 0.45 C5.52 0.57 5.52 0.57 6.74 0.7 C9.53 1.07 11.93 1.85 14.54 2.9 C15.52 3.29 16.5 3.68 17.51 4.08 C18.54 4.51 19.57 4.94 20.62 5.38 C22.26 6.05 22.26 6.05 23.93 6.73 C97.79 37.41 148.76 96.57 179.02 169.66 C179.89 171.75 180.79 173.82 181.71 175.89 C182.18 176.96 182.64 178.03 183.12 179.12 C183.52 180.01 183.91 180.9 184.32 181.82 C185 184 185 184 184 187 C182.24 188.07 182.24 188.07 179.95 189.05 C179.11 189.42 178.27 189.78 177.41 190.16 C176.51 190.54 175.61 190.92 174.69 191.31 C172.84 192.12 171 192.93 169.15 193.74 C168.26 194.13 167.37 194.52 166.44 194.92 C144.6 204.53 124.26 218.59 107 235 C105.63 236.19 104.26 237.38 102.88 238.56 C91.09 248.86 81.74 260.91 72.34 273.34 C71.81 274.04 71.27 274.75 70.72 275.47 C70.01 276.42 70.01 276.42 69.28 277.39 C68 279 68 279 66 281 C63.41 273.91 62.04 266.99 60.81 259.56 C56.23 233.72 47.3 209.18 35.39 185.81 C33.34 181.78 31.63 177.69 29.99 173.48 C28.34 169.34 26.48 165.3 24.62 161.25 C21.96 155.38 19.33 149.5 16.81 143.56 C14.95 139.17 13.01 134.82 11 130.5 C7.85 123.73 4.89 116.89 2 110 C1.65 109.32 1.3 108.64 0.93 107.94 C-0.45 103.57 -0.26 99.36 -0.23 94.79 C-0.23 93.77 -0.23 92.74 -0.23 91.69 C-0.23 88.31 -0.21 84.92 -0.2 81.54 C-0.19 79.2 -0.19 76.85 -0.19 74.5 C-0.18 68.33 -0.16 62.16 -0.14 55.98 C-0.12 49.68 -0.11 43.38 -0.1 37.08 C-0.08 24.72 -0.04 12.36 0 0 Z " fill="#FA7E7B" transform="translate(736,602)"/>
<path d="M0 0 C6.51 -0.03 13.03 -0.04 19.54 -0.05 C21.76 -0.06 23.98 -0.07 26.2 -0.08 C29.38 -0.09 32.56 -0.09 35.74 -0.1 C36.74 -0.1 37.73 -0.11 38.76 -0.11 C39.68 -0.11 40.6 -0.11 41.55 -0.11 C42.36 -0.12 43.18 -0.12 44.01 -0.12 C46 0 46 0 48 1 C48.01 1.83 48.01 2.66 48.02 3.52 C48.08 11.39 48.15 19.26 48.24 27.13 C48.28 31.18 48.32 35.22 48.35 39.27 C48.37 43.18 48.41 47.09 48.46 51 C48.48 52.48 48.49 53.97 48.5 55.46 C48.53 63.43 48.7 70.61 52 78 C54.22 79.52 54.22 79.52 57 80 C57.9 80.5 58.8 81 59.73 81.51 C65.78 84.13 72.58 83.46 79.05 83.48 C80.52 83.49 81.98 83.51 83.45 83.52 C87.28 83.57 91.12 83.59 94.96 83.61 C101.12 83.65 107.28 83.71 113.44 83.77 C115.59 83.79 117.74 83.8 119.89 83.81 C121.19 83.82 122.49 83.83 123.83 83.84 C124.97 83.85 126.12 83.86 127.3 83.86 C130 84 130 84 132 85 C132 100.51 132 116.02 132 132 C125.04 132.04 125.04 132.04 117.95 132.08 C114.99 132.1 112.03 132.13 109.08 132.16 C104.39 132.21 99.71 132.25 95.03 132.27 C91.25 132.29 87.47 132.32 83.69 132.37 C82.25 132.38 80.82 132.39 79.39 132.39 C69.86 132.4 59.79 132.56 52.44 139.38 C49.62 144.53 48.75 149.08 48.68 154.92 C48.67 155.59 48.66 156.25 48.65 156.94 C48.62 159.11 48.6 161.29 48.59 163.46 C48.57 164.98 48.55 166.49 48.53 168.01 C48.48 171.98 48.44 175.96 48.4 179.93 C48.35 184.71 48.29 189.49 48.23 194.27 C48.14 201.51 48.07 208.76 48 216 C32.49 216 16.98 216 1 216 C-0.29 213.41 -0.15 211.5 -0.19 208.61 C-0.21 207.48 -0.22 206.35 -0.24 205.19 C-0.25 203.96 -0.27 202.73 -0.28 201.47 C-0.3 200.21 -0.32 198.95 -0.34 197.65 C-0.4 193.6 -0.45 189.55 -0.5 185.5 C-0.55 181.48 -0.6 177.46 -0.66 173.44 C-0.7 170.93 -0.73 168.43 -0.76 165.92 C-0.61 150.53 -0.61 150.53 -7 137 C-12.66 133.14 -18.86 132.89 -25.56 132.79 C-26.84 132.77 -28.12 132.75 -29.44 132.73 C-30.82 132.72 -32.2 132.7 -33.59 132.68 C-35.01 132.66 -36.44 132.64 -37.86 132.62 C-41.6 132.57 -45.34 132.52 -49.08 132.47 C-52.9 132.42 -56.72 132.36 -60.54 132.31 C-68.03 132.2 -75.51 132.1 -83 132 C-84.19 129.63 -84.12 128.2 -84.11 125.55 C-84.11 124.63 -84.11 123.71 -84.11 122.76 C-84.11 121.76 -84.1 120.77 -84.1 119.74 C-84.1 118.72 -84.09 117.71 -84.09 116.66 C-84.09 113.4 -84.08 110.14 -84.06 106.88 C-84.06 104.67 -84.05 102.46 -84.05 100.25 C-84.04 94.84 -84.02 89.42 -84 84 C-83.15 84 -82.31 83.99 -81.43 83.99 C-73.43 83.95 -65.43 83.89 -57.43 83.82 C-53.31 83.78 -49.2 83.74 -45.08 83.73 C-41.11 83.71 -37.13 83.68 -33.16 83.63 C-31.65 83.62 -30.14 83.61 -28.62 83.61 C-17.23 83.61 -17.23 83.61 -7 79 C1.29 70.28 -0.86 55.81 -0.94 44.55 C-0.94 43.33 -0.95 42.11 -0.95 40.85 C-0.96 37.01 -0.98 33.16 -1 29.31 C-1.03 24.2 -1.05 19.1 -1.06 13.99 C-1.07 12.23 -1.07 12.23 -1.09 10.43 C-1.09 9.35 -1.09 8.27 -1.1 7.16 C-1.1 6.21 -1.11 5.26 -1.11 4.28 C-1 2 -1 2 0 0 Z " fill="#ECF3F4" transform="translate(989,917)"/>
<path d="M0 0 C31.53 -0.96 60.47 10.64 83.58 31.75 C105.19 52.2 120.76 80.73 121.79 110.89 C121.83 113.99 121.83 117.08 121.82 120.18 C121.82 121.23 121.82 122.28 121.83 123.36 C121.82 128.72 121.63 133.84 120.69 139.12 C116.41 137.05 112.33 134.92 108.32 132.37 C101.57 128.25 94.31 125.27 87.06 122.16 C85.44 121.45 83.83 120.71 82.24 119.95 C74.28 116.19 66.09 113.36 57.75 110.62 C57.03 110.38 56.3 110.14 55.55 109.89 C44.05 106.08 32.54 102.67 20.69 100.12 C19.48 99.84 18.27 99.56 17.02 99.27 C-3.56 94.89 -25.07 93.84 -46.07 93.5 C-62.9 93.16 -62.9 93.16 -69.31 91.12 C-70.81 88.91 -71.33 87.59 -71.2 84.91 C-71.04 84.11 -70.87 83.31 -70.7 82.48 C-70.51 81.57 -70.33 80.65 -70.14 79.71 C-69.93 78.72 -69.71 77.73 -69.49 76.71 C-69.28 75.68 -69.07 74.64 -68.85 73.58 C-68.39 71.38 -67.93 69.18 -67.46 66.98 C-66.76 63.69 -66.08 60.39 -65.4 57.1 C-64.09 50.76 -62.72 44.44 -61.31 38.12 C-61.09 37.13 -60.87 36.15 -60.64 35.13 C-60.02 32.36 -59.37 29.6 -58.72 26.84 C-58.53 26.02 -58.35 25.21 -58.16 24.37 C-57.03 19.75 -55.75 16.58 -52.31 13.12 C-49.8 11.75 -47.51 10.65 -44.87 9.62 C-44.14 9.32 -43.4 9.03 -42.64 8.73 C-28.86 3.44 -14.69 0.75 0 0 Z " fill="#FA6263" transform="translate(701.30859375,458.8828125)"/>
<path d="M0 0 C3.39 1.6 5.48 3.33 8.06 6.06 C12.22 10.32 16.62 14.05 21.27 17.76 C23.83 19.86 26.26 22.05 28.69 24.31 C34.76 29.84 41.34 34.64 47.95 39.49 C49.92 40.94 51.88 42.4 53.84 43.86 C65.18 52.3 76.85 60.18 88.93 67.53 C91 69 91 69 93 72 C93.18 74.57 93.25 77.03 93.23 79.59 C93.23 80.36 93.23 81.13 93.23 81.93 C93.23 84.48 93.21 87.03 93.2 89.57 C93.19 91.34 93.19 93.11 93.19 94.87 C93.18 99.53 93.16 104.18 93.14 108.83 C93.12 113.57 93.11 118.32 93.1 123.06 C93.08 132.38 93.04 141.69 93 151 C91.12 151.96 89.24 152.91 87.36 153.86 C86.31 154.39 85.27 154.93 84.19 155.47 C74.24 160.24 63.8 162.25 53 164 C52.21 164.13 51.42 164.27 50.61 164.41 C27.56 167.67 -0.85 164.13 -21 152 C-21.33 151.67 -21.66 151.34 -22 151 C-21.82 143.13 -20.3 135.34 -18.89 127.62 C-18.46 125.23 -18.04 122.83 -17.61 120.44 C-17.28 118.59 -17.28 118.59 -16.94 116.7 C-11.16 84.54 -6.12 52.44 -2.46 19.98 C-1.7 13.31 -0.85 6.66 0 0 Z " fill="#8BB8FC" transform="translate(263,1077)"/>
<path d="M0 0 C5.21 0.51 9.04 3.16 13.38 5.88 C14.17 6.37 14.96 6.86 15.78 7.37 C28.75 15.51 40.58 24.82 52 35 C52.55 35.49 53.1 35.97 53.66 36.47 C88.46 67.39 113.32 107.91 131.02 150.66 C131.89 152.75 132.79 154.82 133.71 156.89 C134.18 157.96 134.64 159.03 135.12 160.12 C135.52 161.01 135.91 161.9 136.32 162.82 C137 165 137 165 136 168 C134.24 169.07 134.24 169.07 131.95 170.05 C131.11 170.42 130.27 170.78 129.41 171.16 C128.51 171.54 127.61 171.92 126.69 172.31 C124.84 173.12 123 173.93 121.15 174.74 C120.26 175.13 119.37 175.52 118.44 175.92 C98.39 184.74 78.35 197.49 62.53 212.71 C61 214 61 214 59 214 C56.96 206 56.08 197.9 55.11 189.71 C47.83 128.66 31.35 68.8 4.79 13.26 C4.31 12.25 3.83 11.23 3.34 10.19 C2.91 9.31 2.48 8.42 2.04 7.51 C1 5 0.43 2.67 0 0 Z " fill="#FB6364" transform="translate(784,621)"/>
<path d="M0 0 C1.89 0.14 3.79 0.28 5.68 0.43 C6.73 0.51 7.79 0.59 8.88 0.68 C13.34 1.14 17.56 2.17 21.88 3.38 C22.68 3.58 23.48 3.79 24.3 4.01 C29.71 5.47 34.95 6.95 39 11 C39.2 13.82 39.26 16.54 39.25 19.36 C39.25 20.23 39.25 21.11 39.25 22.01 C39.26 24.96 39.25 27.91 39.24 30.86 C39.24 32.96 39.25 35.07 39.25 37.18 C39.25 42.91 39.25 48.65 39.24 54.38 C39.23 60.37 39.23 66.36 39.23 72.35 C39.23 82.41 39.22 92.47 39.21 102.53 C39.19 114.17 39.18 125.82 39.19 137.47 C39.19 148.65 39.18 159.83 39.17 171.02 C39.17 175.79 39.17 180.55 39.17 185.32 C39.17 190.93 39.16 196.54 39.15 202.15 C39.15 204.22 39.15 206.28 39.15 208.35 C39.15 211.16 39.14 213.96 39.13 216.77 C39.14 217.6 39.14 218.43 39.14 219.28 C39.11 224.89 39.11 224.89 38 226 C36.29 226.11 34.58 226.16 32.88 226.18 C4.71 226.72 -21.45 231.71 -48 241.02 C-50.67 241.89 -53.24 242.52 -56 243 C-58.5 238.28 -60.58 233.58 -62.44 228.56 C-64.28 223.63 -66.41 219.18 -69.18 214.71 C-69.45 214.14 -69.72 213.58 -70 213 C-69.5 212.01 -69.5 212.01 -69 211 C-68.34 211.33 -67.68 211.66 -67 212 C-64.81 211.35 -62.64 210.61 -60.5 209.81 C-59.87 209.58 -59.25 209.35 -58.6 209.12 C-54.87 207.74 -51.18 206.27 -47.5 204.75 C-43.99 203.32 -40.78 202.5 -37 202 C-31.02 200.68 -25.99 198.08 -20.57 195.24 C-18 194 -18 194 -16 194 C-16 193.34 -16 192.68 -16 192 C-14.89 191.41 -14.89 191.41 -13.75 190.81 C-10.07 188.39 -8.99 185.9 -7 182 C-6.34 182 -5.68 182 -5 182 C-0.84 170.47 0.43 159.76 0.34 147.58 C0.34 145.97 0.34 144.35 0.34 142.73 C0.34 138.38 0.33 134.02 0.3 129.67 C0.29 125.1 0.28 120.54 0.28 115.97 C0.27 107.35 0.25 98.72 0.22 90.09 C0.18 80.26 0.17 70.44 0.15 60.61 C0.12 40.41 0.07 20.2 0 0 Z " fill="#6DAAF0" transform="translate(317,196)"/>
<path d="M0 0 C3.42 1.14 3.55 1.48 5.13 4.51 C5.52 5.24 5.91 5.97 6.31 6.73 C6.72 7.52 7.14 8.31 7.56 9.12 C14.03 21.15 21.36 32.41 30 43 C30.66 43.84 31.33 44.67 32.01 45.53 C40.21 55.76 48.86 65.65 59 74 C60.65 75.38 62.3 76.77 63.94 78.15 C65.07 79.11 66.21 80.06 67.35 81.01 C70.74 83.85 73.91 86.82 77 90 C67.92 100.38 50.16 102.25 37.14 103.32 C29.55 103.56 22.44 102.72 15 101.34 C14.05 101.16 13.1 100.99 12.12 100.81 C0.87 98.68 -10.21 95.91 -21.31 93.12 C-23.47 92.59 -25.63 92.05 -27.8 91.52 C-30.98 90.73 -34.16 89.94 -37.34 89.15 C-46.35 86.9 -55.38 84.73 -64.43 82.61 C-65.73 82.3 -65.73 82.3 -67.06 81.99 C-67.78 81.82 -68.51 81.65 -69.26 81.47 C-71 81 -71 81 -73 80 C-71.61 76.59 -70.37 75.33 -67.07 73.74 C-66.28 73.35 -65.49 72.95 -64.68 72.55 C-63.41 71.94 -63.41 71.94 -62.12 71.31 C-54.03 67.22 -46.97 62.85 -40 57 C-39.13 56.27 -38.26 55.54 -37.37 54.79 C-19.62 39.32 -9.61 21.15 0 0 Z " fill="#FA6364" transform="translate(783,1139)"/>
<path d="M0 0 C1.26 0.31 2.52 0.62 3.81 0.94 C16.38 3.69 29.57 3.5 42.38 4.05 C58.16 4.73 73.4 6.56 88.94 9.5 C90.09 9.71 91.24 9.93 92.43 10.14 C98.35 11.25 104.18 12.47 110 14 C110.98 14.23 111.97 14.47 112.98 14.71 C119.2 16.2 125.24 18.01 131.29 20.08 C134.5 21.17 137.73 22.11 141 23 C141 23.66 141 24.32 141 25 C142.65 25 144.3 25 146 25 C146 25.66 146 26.32 146 27 C147.65 27 149.3 27 151 27 C151 27.66 151 28.32 151 29 C151.96 28.88 151.96 28.88 152.94 28.75 C157.4 29.11 161.01 31.05 165 33 C165 33.66 165 34.32 165 35 C165.83 35.1 166.66 35.2 167.51 35.31 C171.56 36.11 175.05 37.41 178.81 39.06 C179.49 39.32 180.17 39.59 180.87 39.86 C182.83 40.72 182.83 40.72 186 43 C186.81 46.02 187.03 47.95 187 51 C187.03 52.38 187.03 52.38 187.07 53.78 C187.13 56.88 187.14 59.97 187.12 63.06 C187.13 64.11 187.13 65.16 187.14 66.24 C187.13 71.6 186.94 76.72 186 82 C181.72 79.94 177.64 77.8 173.62 75.25 C166.88 71.13 159.61 68.16 152.37 65.04 C150.75 64.33 149.14 63.59 147.54 62.83 C139.59 59.07 131.4 56.25 123.06 53.5 C122.34 53.26 121.61 53.02 120.86 52.77 C109.36 48.97 97.85 45.55 86 43 C84.79 42.72 83.58 42.44 82.33 42.15 C61.74 37.78 40.24 36.72 19.24 36.38 C2.41 36.04 2.41 36.04 -4 34 C-5.43 32.36 -5.43 32.36 -6 30 C-5.68 26.79 -5.68 26.79 -4.88 23.05 C-4.75 22.39 -4.61 21.73 -4.47 21.05 C-4.03 18.94 -3.58 16.85 -3.12 14.75 C-2.83 13.32 -2.53 11.9 -2.23 10.47 C-1.5 6.98 -0.76 3.49 0 0 Z " fill="#EB5755" transform="translate(636,516)"/>
<path d="M0 0 C3.43 1.47 5.51 3.36 8.06 6.06 C12.22 10.32 16.62 14.05 21.27 17.76 C23.83 19.86 26.26 22.05 28.69 24.31 C34.76 29.84 41.34 34.64 47.95 39.49 C49.92 40.94 51.88 42.4 53.84 43.86 C65.18 52.3 76.85 60.18 88.93 67.53 C91 69 91 69 93 72 C93.18 74.57 93.25 77.03 93.23 79.59 C93.23 80.36 93.23 81.13 93.23 81.93 C93.23 84.48 93.21 87.03 93.2 89.57 C93.19 91.34 93.19 93.11 93.19 94.87 C93.18 99.53 93.16 104.18 93.14 108.83 C93.12 113.57 93.11 118.32 93.1 123.06 C93.08 132.38 93.04 141.69 93 151 C91.13 151.96 89.26 152.91 87.38 153.86 C86.34 154.39 85.3 154.92 84.22 155.47 C74.82 159.94 64.46 163.08 54 163 C54.01 161.99 54.01 161.99 54.03 160.97 C54.12 153.93 54.18 146.89 54.22 139.84 C54.24 137.22 54.27 134.6 54.3 131.98 C54.94 112.07 54.94 112.07 50 93 C49.71 92.31 49.41 91.62 49.11 90.91 C46.17 84.73 42.53 79.97 37 76 C35.7 74.67 35.7 74.67 34.38 73.31 C32.23 70.99 32.23 70.99 30 70 C27.12 68.56 25.26 66.26 23 64 C22.18 63.51 21.35 63.01 20.5 62.5 C17.52 60.71 15.45 58.45 13 56 C11.35 54.98 9.68 53.97 8 53 C6.98 52.02 5.98 51.02 5 50 C4.34 49.67 3.68 49.34 3 49 C3 48.34 3 47.68 3 47 C0.69 46.67 -1.62 46.34 -4 46 C-5.26 41.71 -4.75 37.82 -4.26 33.44 C-4.17 32.61 -4.08 31.78 -3.99 30.93 C-3.8 29.18 -3.61 27.43 -3.42 25.68 C-3.13 23.01 -2.84 20.34 -2.56 17.66 C-2.38 15.96 -2.19 14.26 -2.01 12.56 C-1.92 11.76 -1.84 10.97 -1.75 10.14 C-1.36 6.69 -0.9 3.36 0 0 Z " fill="#6DAAF0" transform="translate(263,1077)"/>
<path d="M0 0 C3.35 3.25 5.19 6.94 7.11 11.13 C8.55 14.16 10.33 17 12.06 19.88 C26.15 44.51 40.78 78.12 40 107 C39.38 106.83 38.75 106.66 38.11 106.48 C20.9 101.78 4.86 98.87 -13 98.34 C-14.01 98.31 -15.01 98.28 -16.05 98.25 C-16.95 98.22 -17.86 98.2 -18.79 98.17 C-21 98 -21 98 -23 97 C-23.79 94.25 -24.47 91.53 -25.12 88.75 C-30.63 66.84 -39.76 45.48 -52.95 27.06 C-54 25 -54 25 -53.91 22.99 C-49.57 13.49 -37.99 7.36 -28.74 3.71 C-19.55 0.57 -9.67 -2.23 0 0 Z " fill="#EB5755" transform="translate(549,37)"/>
<path d="M0 0 C3.44 1.15 4.38 2.66 6.58 5.42 C8.89 7.99 11.75 9.72 14.69 11.5 C15.3 11.88 15.91 12.26 16.53 12.66 C21.06 15.48 25.66 18.19 30.3 20.81 C30.86 21.2 31.42 21.59 32 22 C32 22.66 32 23.32 32 24 C32.99 24 33.98 24 35 24 C35 24.66 35 25.32 35 26 C35.99 26 36.98 26 38 26 C38 26.66 38 27.32 38 28 C38.59 28.28 39.17 28.56 39.78 28.85 C41.82 29.91 43.67 31.05 45.57 32.35 C46.22 32.79 46.87 33.23 47.54 33.68 C48.89 34.61 50.25 35.53 51.6 36.46 C52.25 36.89 52.9 37.33 53.57 37.79 C54.45 38.39 54.45 38.39 55.35 39 C57.15 40.17 57.15 40.17 60 41 C60 41.66 60 42.32 60 43 C60.99 43 61.98 43 63 43 C63 43.66 63 44.32 63 45 C64.08 45.38 64.08 45.38 65.17 45.76 C68.25 47.11 70.58 48.77 73.25 50.81 C77.97 54.33 82.77 57.31 88 60 C88 60.66 88 61.32 88 62 C88.99 62 89.98 62 91 62 C91 62.66 91 63.32 91 64 C91.99 64 92.98 64 94 64 C94 64.66 94 65.32 94 66 C94.99 66 95.98 66 97 66 C97 66.66 97 67.32 97 68 C97.99 68 98.98 68 100 68 C100 68.66 100 69.32 100 70 C101.98 70.66 103.96 71.32 106 72 C106 72.66 106 73.32 106 74 C106.99 74 107.98 74 109 74 C109 74.66 109 75.32 109 76 C110.65 76.33 112.3 76.66 114 77 C114 77.66 114 78.32 114 79 C117.3 79.66 120.6 80.32 124 81 C123.41 89.04 122.23 96.74 120.56 104.62 C120.35 105.71 120.13 106.8 119.9 107.92 C119.69 108.95 119.48 109.98 119.25 111.04 C118.96 112.43 118.96 112.43 118.67 113.86 C118.34 114.92 118.34 114.92 118 116 C117.01 116.5 117.01 116.5 116 117 C113.6 116.03 111.36 114.99 109.06 113.81 C108.36 113.45 107.65 113.09 106.92 112.73 C92.82 105.41 79.77 96.25 66.72 87.24 C61.99 83.98 57.22 80.8 52.44 77.62 C47.01 74.02 41.63 70.38 36.32 66.62 C33.76 64.83 31.16 63.1 28.56 61.38 C23.24 57.84 17.96 54.24 12.69 50.62 C4.5 45.01 -3.73 39.48 -12 34 C-13.81 32.79 -15.63 31.58 -17.44 30.38 C-18.14 29.91 -18.84 29.44 -19.56 28.96 C-20.03 28.64 -20.51 28.33 -21 28 C-18.31 23 -15.38 18.81 -11.62 14.56 C-7.54 9.84 -3.67 5.06 0 0 Z " fill="#6DAAF0" transform="translate(476,422)"/>
<path d="M0 0 C1.41 5.39 1.05 10.88 0.91 16.39 C0.89 17.38 0.87 18.37 0.85 19.39 C0.8 21.47 0.75 23.55 0.7 25.62 C0.62 28.82 0.56 32.01 0.49 35.21 C0.45 37.23 0.4 39.25 0.35 41.27 C0.33 42.23 0.31 43.19 0.29 44.18 C0.27 45.06 0.25 45.94 0.22 46.85 C0.2 47.63 0.18 48.41 0.16 49.21 C0 51 0 51 -1 52 C-2.7 52.1 -4.41 52.14 -6.11 52.15 C-7.21 52.15 -8.3 52.16 -9.42 52.16 C-11.2 52.17 -11.2 52.17 -13.02 52.17 C-14.24 52.17 -15.45 52.17 -16.7 52.18 C-19.27 52.18 -21.84 52.19 -24.41 52.19 C-28.35 52.19 -32.29 52.21 -36.23 52.22 C-38.73 52.23 -41.22 52.23 -43.71 52.23 C-44.9 52.24 -46.08 52.24 -47.3 52.25 C-48.95 52.25 -48.95 52.25 -50.63 52.24 C-52.08 52.25 -52.08 52.25 -53.56 52.25 C-56 52 -56 52 -59 50 C-61.2 44.32 -62.45 38.05 -63 32 C-63.06 31.32 -63.13 30.65 -63.2 29.95 C-63.49 24.13 -62.5 18.72 -61.25 13.06 C-61.09 12.32 -60.94 11.57 -60.77 10.8 C-60.08 7.89 -59.49 5.53 -57.43 3.3 C-53.97 1.45 -50.66 1.56 -46.82 1.56 C-45.62 1.54 -45.62 1.54 -44.39 1.52 C-41.82 1.48 -39.26 1.46 -36.69 1.44 C-33.34 1.41 -29.99 1.36 -26.64 1.31 C-25.82 1.3 -25.01 1.28 -24.17 1.27 C-17.61 1.12 -11.26 0.37 -4.78 -0.68 C-2 -1 -2 -1 0 0 Z " fill="#EB5755" transform="translate(116,696)"/>
<path d="M0 0 C2.19 1.68 2.19 1.68 4.56 3.88 C5.88 5.09 5.88 5.09 7.21 6.33 C11 9.96 14.7 13.68 18.38 17.42 C21.28 20.28 24.33 22.86 27.54 25.37 C29.55 27.62 29.85 28.98 30 32 C29.29 34.5 28.51 36.78 27.56 39.19 C24.67 46.92 22.16 54.73 19.75 62.62 C19.41 63.74 19.07 64.85 18.72 66 C17.1 71.32 15.5 76.65 14 82 C7.39 77.39 1.71 72.06 -4 66.4 C-4.93 65.49 -5.85 64.58 -6.8 63.64 C-8.74 61.72 -10.67 59.8 -12.6 57.88 C-15.08 55.41 -17.57 52.97 -20.07 50.53 C-22.46 48.19 -24.82 45.82 -27.19 43.46 C-28.09 42.59 -28.99 41.72 -29.91 40.82 C-30.73 40 -31.55 39.17 -32.39 38.33 C-33.11 37.61 -33.83 36.89 -34.58 36.16 C-36 34 -36 34 -35.79 31.37 C-31.05 17.18 -19.03 7.35 -6.62 0 C-3.63 -1.14 -2.93 -1.11 0 0 Z " fill="#EB5755" transform="translate(117,529)"/>
<path d="M0 0 C2.41 1.84 2.98 2.93 3.69 5.93 C3.84 7.11 3.98 8.29 4.13 9.51 C4.3 10.82 4.46 12.13 4.64 13.48 C4.8 14.88 4.96 16.28 5.12 17.69 C5.3 19.1 5.47 20.52 5.65 21.93 C6.77 31.28 7.63 40.59 8 50 C7.2 50.01 6.39 50.03 5.56 50.04 C-10.49 50.37 -26.17 51.04 -42 54 C-39.57 48.11 -36.67 43.21 -33 38 C-32.44 37.18 -31.87 36.36 -31.29 35.51 C-22.17 22.54 -11.37 11 0 0 Z " fill="#F97D7A" transform="translate(711,372)"/>
<path d="M0 0 C10.8 4.2 17.86 12.42 23.33 22.36 C24.42 25.3 24.4 26.01 23.26 28.88 C21.22 31.26 21.22 31.26 18.57 33.86 C18.11 34.32 17.64 34.78 17.16 35.26 C15.68 36.72 14.19 38.18 12.7 39.63 C11.69 40.62 10.69 41.62 9.68 42.61 C7.22 45.04 4.74 47.46 2.26 49.88 C-1 47.98 -3.36 46.43 -5.67 43.44 C-10.53 37.65 -16.42 33 -22.22 28.19 C-23.8 26.82 -25.27 25.37 -26.74 23.88 C-23.43 20.42 -20.1 16.99 -16.76 13.57 C-15.62 12.4 -14.49 11.23 -13.37 10.06 C-11.75 8.37 -10.11 6.7 -8.47 5.03 C-7.73 4.24 -7.73 4.24 -6.96 3.42 C-3.39 -0.15 -3.39 -0.15 0 0 Z " fill="#FA7E7B" transform="translate(820.736328125,425.12109375)"/>
<path d="M0 0 C35.69 8.84 35.69 8.84 46 14 C45.57 18.9 43.1 21.67 39.94 25.19 C38.94 26.33 37.94 27.48 36.94 28.62 C36.44 29.19 35.94 29.75 35.43 30.34 C32.69 33.52 30.13 36.85 27.56 40.17 C26 42 26 42 24 43 C21.68 42.49 21.68 42.49 18.81 41.6 C17.27 41.13 17.27 41.13 15.7 40.65 C14.62 40.31 13.55 39.97 12.44 39.62 C11.36 39.3 10.28 38.97 9.17 38.62 C1.14 36.14 1.14 36.14 0 35 C-0.09 32.41 -0.12 29.84 -0.1 27.25 C-0.1 26.08 -0.1 26.08 -0.09 24.9 C-0.09 22.41 -0.08 19.92 -0.06 17.44 C-0.06 15.76 -0.05 14.07 -0.05 12.39 C-0.04 8.26 -0.02 4.13 0 0 Z " fill="#FA6263" transform="translate(394,391)"/>
<path d="M0 0 C1.87 -0.06 1.87 -0.06 3.77 -0.11 C4.97 -0.12 6.17 -0.14 7.4 -0.15 C8.5 -0.17 9.59 -0.19 10.72 -0.21 C13.62 0.38 13.62 0.38 15.94 2.69 C20.57 10.06 20.38 18.94 19.62 27.38 C18.74 31.26 17.76 34.98 15.62 38.38 C10.98 39.99 5.98 39.56 1.12 39.56 C0.17 39.57 -0.78 39.59 -1.75 39.6 C-2.67 39.6 -3.59 39.6 -4.53 39.61 C-5.78 39.61 -5.78 39.61 -7.06 39.62 C-9.38 39.38 -9.38 39.38 -13.38 37.38 C-14.03 25.5 -14.7 13.62 -15.38 1.38 C-10.91 -0.86 -4.9 0.06 0 0 Z " fill="#FA7E7B" transform="translate(874.375,551.625)"/>
<path d="M0 0 C8 -0.02 15.99 -0.04 23.99 -0.05 C27.71 -0.06 31.42 -0.06 35.13 -0.08 C38.72 -0.09 42.3 -0.09 45.89 -0.09 C47.26 -0.1 48.62 -0.1 49.99 -0.11 C51.91 -0.11 53.82 -0.11 55.74 -0.11 C56.83 -0.12 57.92 -0.12 59.04 -0.12 C61.81 -0.01 64.31 0.37 67 1 C64.27 3.73 62.73 3.27 58.9 3.32 C57.62 3.34 56.34 3.36 55.02 3.38 C53.61 3.39 52.21 3.4 50.8 3.41 C49.37 3.43 47.94 3.45 46.51 3.47 C42.74 3.52 38.97 3.56 35.19 3.6 C31.35 3.64 27.5 3.69 23.65 3.74 C16.1 3.84 8.55 3.92 1 4 C0.67 2.68 0.34 1.36 0 0 Z " fill="#8BB8FD" transform="translate(1075,1087)"/>
<path d="" fill="#000002" transform="translate(0,0)"/>
<path d="" fill="#000002" transform="translate(0,0)"/>
</svg>
