<?xml version="1.0" encoding="UTF-8"?>
<!-- Generator: visioncortex VTracer 0.6.3 -->
<svg version="1.1" xmlns="http://www.w3.org/2000/svg" width="1280" height="1280">
<path d="M0 0 C0.84 0 1.69 0 2.56 0.01 C3.85 0 3.85 0 5.17 0 C7 0 8.82 0 10.65 0.01 C13.45 0.01 16.26 0.01 19.06 0 C20.83 0 22.6 0 24.37 0.01 C25.22 0 26.06 0 26.93 0 C32.85 0.02 32.85 0.02 33.97 1.14 C34.96 1.24 35.95 1.35 36.97 1.45 C40.93 1.96 44.14 3.42 47.73 5.12 C50.16 6.28 50.16 6.28 53.65 7.33 C61.92 10.33 70.46 16.37 76.97 22.14 C76.97 22.8 76.97 23.46 76.97 24.14 C77.54 24.38 78.11 24.61 78.7 24.86 C81.45 26.41 83.13 28.26 85.22 30.64 C86.28 31.83 86.28 31.83 87.36 33.05 C88.97 35.14 88.97 35.14 88.97 37.14 C89.63 37.14 90.29 37.14 90.97 37.14 C96.65 43.79 100.2 52.31 103.97 60.14 C107.05 60.14 108.55 58.3 110.97 56.45 C127.14 44.54 145.5 39.72 165.4 39.83 C167.05 39.83 167.05 39.83 168.72 39.84 C176.58 39.95 183.47 40.68 190.97 43.14 C191.95 43.42 192.93 43.7 193.95 43.98 C201.85 46.35 208.84 50.02 215.97 54.14 C216.92 54.66 217.87 55.19 218.85 55.73 C219.55 56.19 220.25 56.66 220.97 57.14 C220.97 57.8 220.97 58.46 220.97 59.14 C221.58 59.45 222.2 59.76 222.84 60.08 C224.22 60.76 225.59 61.45 226.97 62.14 C226.97 62.8 226.97 63.46 226.97 64.14 C227.5 64.35 228.04 64.55 228.59 64.76 C231.89 66.67 234.56 69.19 236.97 72.14 C236.97 72.8 236.97 73.46 236.97 74.14 C237.63 74.14 238.29 74.14 238.97 74.14 C240.67 76.4 242.24 78.65 243.78 81.01 C244.23 81.69 244.67 82.38 245.14 83.08 C253.97 96.69 253.97 96.69 253.97 102.14 C254.93 101.48 255.9 100.81 256.9 100.13 C266.84 93.36 276.37 87.62 287.97 84.14 C289.06 83.77 290.15 83.4 291.28 83.01 C302.23 80.42 313.78 80.91 324.97 81.14 C326.47 81.16 326.47 81.16 328 81.19 C345.13 82.09 364.09 90.93 376.97 102.14 C376.97 102.8 376.97 103.46 376.97 104.14 C377.5 104.35 378.04 104.55 378.59 104.76 C381.89 106.67 384.56 109.19 386.97 112.14 C386.97 112.8 386.97 113.46 386.97 114.14 C387.63 114.14 388.29 114.14 388.97 114.14 C391.97 117.6 391.97 117.6 391.97 120.14 C392.63 120.14 393.29 120.14 393.97 120.14 C406.15 140.58 406.15 140.58 407.97 151.14 C411.73 150.59 414.04 149.64 417.09 147.39 C422.09 143.91 427.36 141.48 432.97 139.14 C433.81 138.78 434.64 138.43 435.51 138.06 C437.85 137.18 440.08 136.58 442.53 136.08 C445.63 135.44 445.63 135.44 448.7 134.63 C468.33 130.41 491.41 133.9 508.97 143.14 C509.9 143.61 510.84 144.08 511.8 144.56 C525.48 151.71 538.48 163.14 546.97 176.14 C546.97 177.13 546.97 178.12 546.97 179.14 C547.63 179.14 548.29 179.14 548.97 179.14 C550.26 181.85 551.55 184.55 552.84 187.26 C553.21 188.02 553.57 188.79 553.95 189.57 C554.48 190.69 554.48 190.69 555.02 191.83 C555.51 192.86 555.51 192.86 556 193.9 C562.47 208.96 562.41 224.45 562.4 240.53 C562.41 242.86 562.42 245.19 562.43 247.52 C562.46 253.81 562.47 260.1 562.47 266.39 C562.47 270.32 562.48 274.26 562.48 278.19 C562.51 291.22 562.52 304.25 562.52 317.29 C562.52 317.98 562.52 318.68 562.52 319.41 C562.52 320.11 562.52 320.81 562.52 321.53 C562.52 332.9 562.55 344.28 562.59 355.65 C562.63 367.36 562.66 379.07 562.65 390.78 C562.65 397.34 562.66 403.9 562.69 410.46 C562.72 416.63 562.72 422.79 562.7 428.96 C562.7 431.22 562.7 433.48 562.72 435.73 C562.88 456.31 562.88 456.31 557.62 463.49 C554.66 466.44 551.32 469.14 546.97 469.14 C546.64 469.8 546.31 470.46 545.97 471.14 C545.64 470.81 545.31 470.48 544.97 470.14 C545.08 476.8 545.21 483.45 545.34 490.11 C545.38 492.38 545.42 494.64 545.46 496.91 C545.52 500.16 545.58 503.41 545.65 506.66 C545.67 507.68 545.68 508.7 545.7 509.75 C545.72 510.69 545.74 511.63 545.76 512.6 C545.78 513.43 545.79 514.26 545.81 515.11 C545.84 517.21 545.84 517.21 546.97 519.14 C548.08 519.32 548.08 519.32 549.22 519.51 C553.42 520.47 555.71 522.46 558.28 525.9 C562.45 532.58 562.67 538.38 562.56 546.12 C562.56 547.37 562.56 548.62 562.56 549.91 C562.55 552.56 562.54 555.21 562.51 557.86 C562.46 561.81 562.47 565.75 562.47 569.7 C562.39 601.82 558.65 632.96 549.03 663.64 C548.78 664.45 548.52 665.27 548.27 666.11 C546.75 670.94 545 675.51 542.97 680.14 C542.31 681.95 541.66 683.76 541.03 685.58 C539.79 689.03 538.46 692.31 536.78 695.58 C535.39 698.3 534.6 700.24 533.97 703.14 C533.31 703.14 532.65 703.14 531.97 703.14 C531.83 704.39 531.83 704.39 531.7 705.66 C530.82 709.83 529.19 713.08 527.22 716.83 C526.49 718.24 525.76 719.66 525.04 721.07 C524.69 721.76 524.33 722.45 523.97 723.16 C519.74 731.38 519.74 731.38 516.97 740.14 C517.84 740.28 518.71 740.41 519.61 740.56 C528.74 742.14 537.33 744.84 545.97 748.14 C547.29 748.62 548.61 749.11 549.93 749.59 C562.68 754.25 562.68 754.25 567.9 757.04 C569.53 757.91 571.18 758.72 572.85 759.52 C587.38 766.51 601.11 774.88 614.22 784.26 C615 784.82 615.78 785.38 616.58 785.95 C617.29 786.47 618 786.99 618.73 787.52 C619.67 788.21 619.67 788.21 620.63 788.91 C621.29 789.52 621.29 789.52 621.97 790.14 C621.97 790.8 621.97 791.46 621.97 792.14 C622.71 792.41 623.45 792.68 624.22 792.95 C626.86 794.09 628.82 795.23 630.97 797.14 C630.97 797.8 630.97 798.46 630.97 799.14 C631.96 799.47 632.95 799.8 633.97 800.14 C633.97 800.8 633.97 801.46 633.97 802.14 C634.54 802.41 635.12 802.68 635.72 802.95 C638.02 804.17 639.99 805.44 641.97 807.14 C641.97 807.8 641.97 808.46 641.97 809.14 C642.63 809.14 643.29 809.14 643.97 809.14 C645.59 810.51 645.59 810.51 646.97 812.14 C646.97 812.8 646.97 813.46 646.97 814.14 C647.63 814.14 648.29 814.14 648.97 814.14 C650.59 815.78 650.59 815.78 652.4 817.95 C654.94 820.96 654.94 820.96 657.69 823.78 C658.97 825.14 658.97 825.14 658.97 827.14 C659.63 827.14 660.29 827.14 660.97 827.14 C662.47 828.82 662.47 828.82 664.09 831.01 C664.63 831.73 665.17 832.45 665.72 833.19 C666.97 835.14 666.97 835.14 666.97 837.14 C667.63 837.14 668.29 837.14 668.97 837.14 C670.17 838.51 670.17 838.51 671.51 840.44 C672 841.14 672.49 841.85 673 842.57 C673.53 843.34 674.05 844.1 674.59 844.89 C675.13 845.67 675.67 846.44 676.22 847.24 C677.31 848.81 678.39 850.38 679.47 851.95 C680.74 853.82 682.03 855.67 683.33 857.52 C687.26 863.25 690.58 869.06 693.6 875.32 C694.85 877.9 696.18 880.39 697.59 882.89 C701.65 890.11 705 897.41 707.97 905.14 C708.44 906.35 708.92 907.56 709.41 908.81 C712.55 916.88 715.13 924.91 717.2 933.32 C717.68 936.02 717.68 936.02 718.97 937.14 C719.3 938.53 719.58 939.92 719.84 941.33 C720.39 944.24 720.96 947.12 721.66 950 C730.61 987.64 729.58 1029.56 720.97 1067.14 C720.78 1068.03 720.59 1068.91 720.4 1069.83 C719.33 1074.92 717.94 1079.75 715.97 1084.58 C714.89 1087.21 714.89 1087.21 714.07 1090.31 C709.45 1106.36 703.37 1122.71 694.4 1136.85 C692.81 1139.4 691.38 1142 689.97 1144.64 C687.93 1148.4 685.86 1152.13 683.72 1155.83 C683.24 1156.66 682.76 1157.48 682.26 1158.34 C681.84 1158.93 681.41 1159.53 680.97 1160.14 C680.31 1160.14 679.65 1160.14 678.97 1160.14 C678.97 1161.13 678.97 1162.12 678.97 1163.14 C678.31 1163.14 677.65 1163.14 676.97 1163.14 C676.74 1163.72 676.51 1164.29 676.28 1164.89 C673.93 1168.91 670.19 1171.34 665.97 1173.14 C658.89 1174.17 654.03 1172.73 647.97 1169.14 C647.55 1170.01 647.55 1170.01 647.13 1170.91 C643.39 1178.08 637.6 1183.82 631.9 1189.45 C631.21 1190.15 630.52 1190.86 629.8 1191.58 C626.39 1194.98 623.25 1197.85 618.97 1200.14 C618.16 1200.97 618.16 1200.97 617.34 1201.83 C615.97 1203.14 615.97 1203.14 612.97 1203.14 C613.96 1203.47 614.95 1203.8 615.97 1204.14 C619.23 1208.97 619.84 1213.48 618.97 1219.14 C617.32 1223.91 614.95 1227.95 610.97 1231.14 C610.31 1231.14 609.65 1231.14 608.97 1231.14 C608.97 1231.8 608.97 1232.46 608.97 1233.14 C607.12 1234.51 607.12 1234.51 604.53 1236.08 C603.58 1236.66 602.63 1237.24 601.65 1237.84 C600.62 1238.45 599.59 1239.07 598.53 1239.7 C597.48 1240.33 596.43 1240.96 595.35 1241.61 C581.92 1249.63 568.61 1256.6 553.97 1262.14 C552.3 1262.82 550.63 1263.51 548.97 1264.2 C537.22 1268.87 525.26 1272.29 512.97 1275.14 C511.75 1275.43 510.52 1275.72 509.27 1276.02 C502.6 1277.54 496.13 1278.54 489.29 1278.93 C486.94 1279 486.94 1279 484.97 1280.14 C482.91 1280.24 480.86 1280.27 478.8 1280.27 C476.86 1280.27 476.86 1280.27 474.88 1280.28 C473.46 1280.28 472.04 1280.27 470.62 1280.27 C469.17 1280.27 467.72 1280.27 466.27 1280.27 C463.23 1280.28 460.19 1280.27 457.15 1280.27 C453.25 1280.26 449.35 1280.27 445.45 1280.27 C442.46 1280.28 439.46 1280.28 436.47 1280.27 C435.03 1280.27 433.59 1280.27 432.15 1280.28 C430.15 1280.28 428.14 1280.27 426.13 1280.27 C424.98 1280.27 423.84 1280.27 422.66 1280.27 C419.97 1280.14 419.97 1280.14 417.97 1279.14 C416.14 1278.96 414.3 1278.82 412.47 1278.7 C405.83 1278.19 399.41 1277.31 393.1 1275.16 C389.82 1274.09 386.59 1273.38 383.22 1272.7 C359.56 1267.73 359.56 1267.73 354.97 1263.14 C353.15 1263.04 351.32 1263.02 349.5 1263.02 C347.71 1263.01 347.71 1263.01 345.89 1263.01 C344.54 1263.01 343.2 1263.02 341.86 1263.02 C340.45 1263.02 339.04 1263.02 337.63 1263.02 C333.73 1263.01 329.83 1263.02 325.94 1263.02 C321.74 1263.03 317.55 1263.03 313.35 1263.02 C306.07 1263.02 298.8 1263.03 291.52 1263.03 C281 1263.04 270.49 1263.04 259.97 1263.05 C242.9 1263.05 225.84 1263.05 208.77 1263.06 C192.19 1263.07 175.61 1263.08 159.03 1263.08 C157.5 1263.08 157.5 1263.08 155.93 1263.08 C150.81 1263.09 145.69 1263.09 140.56 1263.09 C98.03 1263.1 55.5 1263.12 12.97 1263.14 C12.67 1264.23 12.38 1265.32 12.08 1266.44 C10.09 1273.07 7.01 1276.82 0.97 1280.14 C-1.89 1280.71 -4.63 1280.74 -7.53 1280.7 C-8.27 1280.73 -9 1280.75 -9.76 1280.77 C-13.82 1280.76 -16.35 1280.3 -19.57 1277.73 C-22.03 1275.14 -22.03 1275.14 -22.03 1273.14 C-22.69 1273.14 -23.35 1273.14 -24.03 1273.14 C-26.55 1268.73 -27.41 1265.57 -27.41 1260.51 C-27.41 1259.87 -27.42 1259.22 -27.42 1258.56 C-27.43 1256.4 -27.42 1254.25 -27.41 1252.09 C-27.42 1250.53 -27.42 1248.97 -27.43 1247.41 C-27.44 1243.12 -27.43 1238.83 -27.42 1234.54 C-27.42 1229.91 -27.43 1225.28 -27.43 1220.66 C-27.45 1212.63 -27.45 1204.61 -27.44 1196.59 C-27.44 1184.96 -27.45 1173.34 -27.47 1161.72 C-27.5 1142.83 -27.51 1123.95 -27.52 1105.06 C-27.52 1103.93 -27.52 1102.8 -27.52 1101.63 C-27.53 1093.61 -27.53 1085.6 -27.53 1077.58 C-27.54 1068.44 -27.54 1059.31 -27.55 1050.17 C-27.55 1049.05 -27.55 1047.93 -27.55 1046.77 C-27.56 1027.97 -27.58 1009.17 -27.6 990.37 C-27.62 978.79 -27.63 967.21 -27.62 955.63 C-27.62 947.68 -27.62 939.73 -27.64 931.77 C-27.65 927.2 -27.65 922.62 -27.64 918.04 C-27.59 894.32 -28.82 872.15 -35.03 849.14 C-35.54 846.99 -36.04 844.85 -36.53 842.7 C-37.63 838.33 -39.08 834.39 -41.01 830.32 C-42.05 828.1 -42.92 825.87 -43.78 823.58 C-52.51 801.64 -65.75 782.64 -80.15 764.11 C-80.62 763.51 -81.09 762.91 -81.58 762.28 C-82.82 760.69 -84.08 759.1 -85.34 757.51 C-87.03 755.14 -87.03 755.14 -87.03 753.14 C-87.69 753.14 -88.35 753.14 -89.03 753.14 C-90.81 750.9 -92.47 748.67 -94.1 746.33 C-94.79 745.36 -94.79 745.36 -95.49 744.38 C-97.45 741.6 -98.95 739.4 -100.03 736.14 C-100.69 736.14 -101.35 736.14 -102.03 736.14 C-102.03 735.15 -102.03 734.16 -102.03 733.14 C-102.69 733.14 -103.35 733.14 -104.03 733.14 C-105.54 731.46 -105.54 731.46 -107.16 729.26 C-107.7 728.54 -108.24 727.83 -108.79 727.08 C-110.03 725.14 -110.03 725.14 -110.03 723.14 C-110.69 723.14 -111.35 723.14 -112.03 723.14 C-113.48 721.4 -114.84 719.6 -116.16 717.76 C-116.88 716.77 -117.61 715.77 -118.35 714.74 C-120.03 712.14 -120.03 712.14 -120.03 710.14 C-120.69 710.14 -121.35 710.14 -122.03 710.14 C-125.03 705.75 -125.03 705.75 -125.03 703.14 C-125.69 703.14 -126.35 703.14 -127.03 703.14 C-128.46 701.44 -129.8 699.68 -131.1 697.89 C-131.91 696.78 -132.72 695.68 -133.53 694.57 C-133.94 694 -134.36 693.43 -134.79 692.85 C-136.72 690.2 -138.69 687.57 -140.66 684.95 C-141.76 683.48 -141.76 683.48 -142.88 681.98 C-145.47 678.57 -148.13 675.21 -150.82 671.88 C-152.03 670.14 -152.03 670.14 -152.03 668.14 C-152.69 668.14 -153.35 668.14 -154.03 668.14 C-157.03 663.75 -157.03 663.75 -157.03 661.14 C-157.69 661.14 -158.35 661.14 -159.03 661.14 C-160.73 658.87 -160.73 658.87 -162.6 655.89 C-163.22 654.91 -163.84 653.94 -164.48 652.94 C-165.79 650.57 -166.58 648.78 -167.03 646.14 C-167.69 646.14 -168.35 646.14 -169.03 646.14 C-174.93 635.99 -180.69 625.93 -184.94 614.96 C-185.76 612.85 -186.61 610.75 -187.48 608.67 C-190.95 600.29 -193.67 591.91 -196.03 583.14 C-197.05 579.65 -198.08 576.17 -199.1 572.69 C-204.44 552.33 -205.5 531.45 -205.43 510.51 C-205.43 508.25 -205.44 505.99 -205.44 503.74 C-205.45 499.06 -205.44 494.38 -205.42 489.71 C-205.41 483.72 -205.42 477.74 -205.44 471.76 C-205.45 467.12 -205.44 462.48 -205.44 457.84 C-205.43 455.64 -205.44 453.43 -205.44 451.22 C-205.45 448.15 -205.44 445.08 -205.42 442.01 C-205.43 441.11 -205.43 440.21 -205.44 439.28 C-205.39 433.81 -204.53 430.02 -202.03 425.14 C-201.37 425.14 -200.71 425.14 -200.03 425.14 C-199.7 424.15 -199.37 423.16 -199.03 422.14 C-194.68 419.29 -192.25 418.18 -187.03 417.14 C-187.03 401.3 -187.03 385.46 -187.03 369.14 C-189.34 368.81 -191.65 368.48 -194.03 368.14 C-196.53 366.74 -197.97 365.2 -200.03 363.14 C-200.03 362.48 -200.03 361.82 -200.03 361.14 C-200.69 361.14 -201.35 361.14 -202.03 361.14 C-204.78 355.65 -205.46 351.41 -205.41 345.32 C-205.41 344.46 -205.41 343.61 -205.42 342.73 C-205.43 339.92 -205.41 337.11 -205.4 334.3 C-205.4 332.34 -205.4 330.38 -205.4 328.41 C-205.4 324.3 -205.39 320.19 -205.37 316.08 C-205.35 310.83 -205.35 305.58 -205.35 300.33 C-205.36 296.27 -205.35 292.22 -205.34 288.16 C-205.34 286.23 -205.34 284.29 -205.34 282.36 C-205.34 279.65 -205.32 276.93 -205.31 274.22 C-205.31 273.43 -205.31 272.64 -205.32 271.83 C-205.27 267.1 -204.67 262.81 -203.5 258.22 C-203.01 256.04 -202.78 253.93 -202.6 251.7 C-202.08 246.61 -200.67 241.98 -199.03 237.14 C-198.66 236.03 -198.29 234.92 -197.9 233.78 C-195.33 226.37 -192.43 219.21 -189.03 212.14 C-188.37 212.14 -187.71 212.14 -187.03 212.14 C-186.93 211.58 -186.83 211.03 -186.73 210.46 C-185.26 205.55 -181.85 201.37 -179.03 197.14 C-178.39 196.17 -177.75 195.2 -177.08 194.2 C-173.53 188.96 -173.53 188.96 -172.03 187.14 C-171.37 187.14 -170.71 187.14 -170.03 187.14 C-169.7 186.15 -169.37 185.16 -169.03 184.14 C-168.37 184.14 -167.71 184.14 -167.03 184.14 C-166.83 183.6 -166.62 183.07 -166.41 182.51 C-164.5 179.22 -161.99 176.55 -159.03 174.14 C-158.37 174.14 -157.71 174.14 -157.03 174.14 C-157.03 173.48 -157.03 172.82 -157.03 172.14 C-156.37 172.14 -155.71 172.14 -155.03 172.14 C-155.03 171.48 -155.03 170.82 -155.03 170.14 C-153.57 168.81 -153.57 168.81 -151.52 167.31 C-150.77 166.76 -150.02 166.21 -149.24 165.64 C-148.43 165.07 -147.62 164.49 -146.78 163.89 C-145.96 163.3 -145.14 162.71 -144.3 162.1 C-138.11 157.73 -131.96 154.24 -125.03 151.14 C-123.7 150.44 -122.36 149.73 -121.03 149.01 C-116.69 146.82 -112.1 145.42 -107.48 143.97 C-105.11 143.37 -105.11 143.37 -104.03 142.14 C-98.95 140.89 -93.87 139.92 -88.71 139.07 C-87.64 138.9 -86.58 138.72 -85.48 138.54 C-84.67 138.41 -83.86 138.27 -83.03 138.14 C-83.03 137.09 -83.03 137.09 -83.02 136.02 C-82.96 129.39 -82.89 122.76 -82.8 116.13 C-82.75 112.72 -82.71 109.31 -82.69 105.9 C-82.66 101.97 -82.6 98.03 -82.55 94.1 C-82.54 92.89 -82.53 91.69 -82.53 90.45 C-82.34 79.78 -80.61 69.85 -76.03 60.14 C-75.47 58.6 -74.91 57.06 -74.35 55.51 C-71.76 48.98 -68.15 42.83 -64.03 37.14 C-63.37 37.14 -62.71 37.14 -62.03 37.14 C-61.77 36.56 -61.5 35.98 -61.22 35.39 C-60 33.08 -58.73 31.12 -57.03 29.14 C-56.37 29.14 -55.71 29.14 -55.03 29.14 C-54.77 28.5 -54.5 27.86 -54.22 27.2 C-53.03 25.14 -53.03 25.14 -50.03 24.14 C-50.03 23.48 -50.03 22.82 -50.03 22.14 C-46.57 19.14 -46.57 19.14 -44.03 19.14 C-44.03 18.48 -44.03 17.82 -44.03 17.14 C-36.32 11.5 -27.94 7.52 -19.03 4.14 C-18.17 3.78 -17.31 3.41 -16.42 3.04 C-13.35 1.88 -10.28 1.58 -7.03 1.14 C-5.16 -0.73 -2.49 0.01 0 0 Z M646.97 1166.14 C647.3 1166.8 647.63 1167.46 647.97 1168.14 C648.63 1167.81 649.29 1167.48 649.97 1167.14 C648.98 1166.81 647.99 1166.48 646.97 1166.14 Z M642.97 1171.14 C643.97 1173.14 643.97 1173.14 643.97 1173.14 Z M622.97 1192.14 C623.97 1194.14 623.97 1194.14 623.97 1194.14 Z M615.97 1197.14 C616.3 1198.13 616.63 1199.12 616.97 1200.14 C616.97 1199.48 616.97 1198.82 616.97 1198.14 C617.63 1197.81 618.29 1197.48 618.97 1197.14 C617.98 1197.14 616.99 1197.14 615.97 1197.14 Z M10.97 1259.14 C10.97 1260.13 10.97 1261.12 10.97 1262.14 C11.63 1261.81 12.29 1261.48 12.97 1261.14 C12.31 1260.48 11.65 1259.82 10.97 1259.14 Z M349.97 1260.14 C349.97 1260.47 349.97 1260.8 349.97 1261.14 C351.95 1261.14 353.93 1261.14 355.97 1261.14 C355.97 1260.81 355.97 1260.48 355.97 1260.14 C353.99 1260.14 352.01 1260.14 349.97 1260.14 Z " fill="#F9DDD0" transform="translate(379.0338134765625,-0.138946533203125)"/>
<path d="M0 0 C0.84 0 1.69 0 2.56 0.01 C3.85 0 3.85 0 5.17 0 C7 0 8.82 0 10.65 0.01 C13.45 0.01 16.26 0.01 19.06 0 C20.83 0 22.6 0 24.37 0.01 C25.22 0 26.06 0 26.93 0 C32.85 0.02 32.85 0.02 33.97 1.14 C34.96 1.24 35.95 1.35 36.97 1.45 C40.93 1.96 44.14 3.42 47.73 5.12 C50.16 6.28 50.16 6.28 53.65 7.33 C61.92 10.33 70.46 16.37 76.97 22.14 C76.97 22.8 76.97 23.46 76.97 24.14 C77.54 24.38 78.11 24.61 78.7 24.86 C81.45 26.41 83.13 28.26 85.22 30.64 C86.28 31.83 86.28 31.83 87.36 33.05 C88.97 35.14 88.97 35.14 88.97 37.14 C89.63 37.14 90.29 37.14 90.97 37.14 C96.65 43.79 100.2 52.31 103.97 60.14 C107.05 60.14 108.55 58.3 110.97 56.45 C127.14 44.54 145.5 39.72 165.4 39.83 C167.05 39.83 167.05 39.83 168.72 39.84 C176.58 39.95 183.47 40.68 190.97 43.14 C191.95 43.42 192.93 43.7 193.95 43.98 C201.85 46.35 208.84 50.02 215.97 54.14 C216.92 54.66 217.87 55.19 218.85 55.73 C219.55 56.19 220.25 56.66 220.97 57.14 C220.97 57.8 220.97 58.46 220.97 59.14 C221.58 59.45 222.2 59.76 222.84 60.08 C224.22 60.76 225.59 61.45 226.97 62.14 C226.97 62.8 226.97 63.46 226.97 64.14 C227.5 64.35 228.04 64.55 228.59 64.76 C231.89 66.67 234.56 69.19 236.97 72.14 C236.97 72.8 236.97 73.46 236.97 74.14 C237.63 74.14 238.29 74.14 238.97 74.14 C240.67 76.4 242.24 78.65 243.78 81.01 C244.23 81.69 244.67 82.38 245.14 83.08 C253.97 96.69 253.97 96.69 253.97 102.14 C254.93 101.48 255.9 100.81 256.9 100.13 C266.84 93.36 276.37 87.62 287.97 84.14 C289.06 83.77 290.15 83.4 291.28 83.01 C302.23 80.42 313.78 80.91 324.97 81.14 C326.47 81.16 326.47 81.16 328 81.19 C345.13 82.09 364.09 90.93 376.97 102.14 C376.97 102.8 376.97 103.46 376.97 104.14 C377.5 104.35 378.04 104.55 378.59 104.76 C381.89 106.67 384.56 109.19 386.97 112.14 C386.97 112.8 386.97 113.46 386.97 114.14 C387.63 114.14 388.29 114.14 388.97 114.14 C391.97 117.6 391.97 117.6 391.97 120.14 C392.63 120.14 393.29 120.14 393.97 120.14 C406.15 140.58 406.15 140.58 407.97 151.14 C411.73 150.59 414.04 149.64 417.09 147.39 C422.09 143.91 427.36 141.48 432.97 139.14 C433.81 138.78 434.64 138.43 435.51 138.06 C437.85 137.18 440.08 136.58 442.53 136.08 C445.63 135.44 445.63 135.44 448.7 134.63 C468.33 130.41 491.41 133.9 508.97 143.14 C509.9 143.61 510.84 144.08 511.8 144.56 C525.48 151.71 538.48 163.14 546.97 176.14 C546.97 177.13 546.97 178.12 546.97 179.14 C547.63 179.14 548.29 179.14 548.97 179.14 C550.26 181.85 551.55 184.55 552.84 187.26 C553.21 188.02 553.57 188.79 553.95 189.57 C554.48 190.69 554.48 190.69 555.02 191.83 C555.51 192.86 555.51 192.86 556 193.9 C562.47 208.96 562.41 224.45 562.4 240.53 C562.41 242.86 562.42 245.19 562.43 247.52 C562.46 253.81 562.47 260.1 562.47 266.39 C562.47 270.32 562.48 274.26 562.48 278.19 C562.51 291.22 562.52 304.25 562.52 317.29 C562.52 317.98 562.52 318.68 562.52 319.41 C562.52 320.11 562.52 320.81 562.52 321.53 C562.52 332.9 562.55 344.28 562.59 355.65 C562.63 367.36 562.66 379.07 562.65 390.78 C562.65 397.34 562.66 403.9 562.69 410.46 C562.72 416.63 562.72 422.79 562.7 428.96 C562.7 431.22 562.7 433.48 562.72 435.73 C562.88 456.31 562.88 456.31 557.62 463.49 C554.66 466.44 551.32 469.14 546.97 469.14 C546.64 469.8 546.31 470.46 545.97 471.14 C545.64 470.81 545.31 470.48 544.97 470.14 C545.08 476.8 545.21 483.45 545.34 490.11 C545.38 492.38 545.42 494.64 545.46 496.91 C545.52 500.16 545.58 503.41 545.65 506.66 C545.67 507.68 545.68 508.7 545.7 509.75 C545.72 510.69 545.74 511.63 545.76 512.6 C545.78 513.43 545.79 514.26 545.81 515.11 C545.84 517.21 545.84 517.21 546.97 519.14 C548.08 519.32 548.08 519.32 549.22 519.51 C553.42 520.47 555.71 522.46 558.28 525.9 C562.45 532.58 562.67 538.38 562.56 546.12 C562.56 547.37 562.56 548.62 562.56 549.91 C562.55 552.56 562.54 555.21 562.51 557.86 C562.46 561.81 562.47 565.75 562.47 569.7 C562.39 601.82 558.65 632.96 549.03 663.64 C548.78 664.45 548.52 665.27 548.27 666.11 C546.75 670.94 545 675.51 542.97 680.14 C542.31 681.95 541.66 683.76 541.03 685.58 C539.79 689.03 538.46 692.31 536.78 695.58 C535.39 698.3 534.6 700.24 533.97 703.14 C533.31 703.14 532.65 703.14 531.97 703.14 C531.83 704.39 531.83 704.39 531.7 705.66 C530.82 709.83 529.19 713.08 527.22 716.83 C526.49 718.24 525.76 719.66 525.04 721.07 C524.69 721.76 524.33 722.45 523.97 723.16 C519.74 731.38 519.74 731.38 516.97 740.14 C517.84 740.28 518.71 740.41 519.61 740.56 C528.74 742.14 537.33 744.84 545.97 748.14 C547.29 748.62 548.61 749.11 549.93 749.59 C562.68 754.25 562.68 754.25 567.9 757.04 C569.53 757.91 571.18 758.72 572.85 759.52 C587.38 766.51 601.11 774.88 614.22 784.26 C615 784.82 615.78 785.38 616.58 785.95 C617.29 786.47 618 786.99 618.73 787.52 C619.67 788.21 619.67 788.21 620.63 788.91 C621.29 789.52 621.29 789.52 621.97 790.14 C621.97 790.8 621.97 791.46 621.97 792.14 C622.71 792.41 623.45 792.68 624.22 792.95 C626.86 794.09 628.82 795.23 630.97 797.14 C630.97 797.8 630.97 798.46 630.97 799.14 C631.96 799.47 632.95 799.8 633.97 800.14 C633.97 800.8 633.97 801.46 633.97 802.14 C634.54 802.41 635.12 802.68 635.72 802.95 C638.02 804.17 639.99 805.44 641.97 807.14 C641.97 807.8 641.97 808.46 641.97 809.14 C642.63 809.14 643.29 809.14 643.97 809.14 C645.59 810.51 645.59 810.51 646.97 812.14 C646.97 812.8 646.97 813.46 646.97 814.14 C647.63 814.14 648.29 814.14 648.97 814.14 C650.59 815.78 650.59 815.78 652.4 817.95 C654.94 820.96 654.94 820.96 657.69 823.78 C658.97 825.14 658.97 825.14 658.97 827.14 C659.63 827.14 660.29 827.14 660.97 827.14 C662.47 828.82 662.47 828.82 664.09 831.01 C664.63 831.73 665.17 832.45 665.72 833.19 C666.97 835.14 666.97 835.14 666.97 837.14 C667.63 837.14 668.29 837.14 668.97 837.14 C670.17 838.51 670.17 838.51 671.51 840.44 C672 841.14 672.49 841.85 673 842.57 C673.53 843.34 674.05 844.1 674.59 844.89 C675.13 845.67 675.67 846.44 676.22 847.24 C677.31 848.81 678.39 850.38 679.47 851.95 C680.74 853.82 682.03 855.67 683.33 857.52 C687.26 863.25 690.58 869.06 693.6 875.32 C694.85 877.9 696.18 880.39 697.59 882.89 C701.65 890.11 705 897.41 707.97 905.14 C708.44 906.35 708.92 907.56 709.41 908.81 C712.55 916.88 715.13 924.91 717.2 933.32 C717.68 936.02 717.68 936.02 718.97 937.14 C719.3 938.53 719.58 939.92 719.84 941.33 C720.39 944.24 720.96 947.12 721.66 950 C730.61 987.64 729.58 1029.56 720.97 1067.14 C720.78 1068.03 720.59 1068.91 720.4 1069.83 C719.33 1074.92 717.94 1079.75 715.97 1084.58 C714.89 1087.21 714.89 1087.21 714.07 1090.31 C709.45 1106.36 703.37 1122.71 694.4 1136.85 C692.81 1139.4 691.38 1142 689.97 1144.64 C687.93 1148.4 685.86 1152.13 683.72 1155.83 C683.24 1156.66 682.76 1157.48 682.26 1158.34 C681.84 1158.93 681.41 1159.53 680.97 1160.14 C680.31 1160.14 679.65 1160.14 678.97 1160.14 C678.97 1161.13 678.97 1162.12 678.97 1163.14 C678.31 1163.14 677.65 1163.14 676.97 1163.14 C676.74 1163.72 676.51 1164.29 676.28 1164.89 C673.93 1168.91 670.19 1171.34 665.97 1173.14 C658.89 1174.17 654.03 1172.73 647.97 1169.14 C647.55 1170.01 647.55 1170.01 647.13 1170.91 C643.39 1178.08 637.6 1183.82 631.9 1189.45 C631.21 1190.15 630.52 1190.86 629.8 1191.58 C626.39 1194.98 623.25 1197.85 618.97 1200.14 C618.16 1200.97 618.16 1200.97 617.34 1201.83 C615.97 1203.14 615.97 1203.14 612.97 1203.14 C613.96 1203.47 614.95 1203.8 615.97 1204.14 C619.23 1208.97 619.84 1213.48 618.97 1219.14 C617.32 1223.91 614.95 1227.95 610.97 1231.14 C610.31 1231.14 609.65 1231.14 608.97 1231.14 C608.97 1231.8 608.97 1232.46 608.97 1233.14 C607.12 1234.51 607.12 1234.51 604.53 1236.08 C603.58 1236.66 602.63 1237.24 601.65 1237.84 C600.62 1238.45 599.59 1239.07 598.53 1239.7 C597.48 1240.33 596.43 1240.96 595.35 1241.61 C581.92 1249.63 568.61 1256.6 553.97 1262.14 C552.3 1262.82 550.63 1263.51 548.97 1264.2 C537.22 1268.87 525.26 1272.29 512.97 1275.14 C511.75 1275.43 510.52 1275.72 509.27 1276.02 C502.6 1277.54 496.13 1278.54 489.29 1278.93 C486.94 1279 486.94 1279 484.97 1280.14 C482.91 1280.24 480.86 1280.27 478.8 1280.27 C476.86 1280.27 476.86 1280.27 474.88 1280.28 C473.46 1280.28 472.04 1280.27 470.62 1280.27 C469.17 1280.27 467.72 1280.27 466.27 1280.27 C463.23 1280.28 460.19 1280.27 457.15 1280.27 C453.25 1280.26 449.35 1280.27 445.45 1280.27 C442.46 1280.28 439.46 1280.28 436.47 1280.27 C435.03 1280.27 433.59 1280.27 432.15 1280.28 C430.15 1280.28 428.14 1280.27 426.13 1280.27 C424.98 1280.27 423.84 1280.27 422.66 1280.27 C419.97 1280.14 419.97 1280.14 417.97 1279.14 C416.14 1278.96 414.3 1278.82 412.47 1278.7 C405.83 1278.19 399.41 1277.31 393.1 1275.16 C389.82 1274.09 386.59 1273.38 383.22 1272.7 C374.11 1270.79 364.19 1268.66 355.97 1264.14 C355.64 1263.15 355.31 1262.16 354.97 1261.14 C353.18 1260.51 353.18 1260.51 351 1260.26 C345.55 1259.21 341.22 1256.94 336.4 1254.26 C334.8 1253.39 333.19 1252.52 331.59 1251.65 C330.81 1251.22 330.03 1250.8 329.23 1250.36 C327.13 1249.23 325.02 1248.16 322.88 1247.1 C310.73 1241.09 299.49 1233.72 288.74 1225.49 C287 1224.16 285.25 1222.85 283.49 1221.54 C276.67 1216.4 270.25 1210.93 263.97 1205.14 C263.11 1204.39 262.25 1203.63 261.37 1202.86 C256.92 1198.94 252.74 1195.01 248.92 1190.47 C247.4 1188.66 245.86 1186.89 244.29 1185.12 C224.82 1163.11 207.77 1136.93 197.97 1109.14 C197.35 1107.51 196.73 1105.89 196.1 1104.26 C170.63 1037.26 171.84 961.93 200.97 896.14 C203.47 890.72 206.17 885.41 208.97 880.14 C209.77 878.61 209.77 878.61 210.6 877.05 C227.72 845.17 251.17 815.3 279.97 793.14 C280.74 792.49 281.52 791.85 282.33 791.18 C302.66 774.34 326.09 761.51 350.64 752.07 C352.87 751.18 355.03 750.18 357.2 749.15 C363.18 746.47 369.46 744.84 375.78 743.14 C376.42 742.96 377.07 742.79 377.73 742.61 C382.13 741.42 386.55 740.27 390.97 739.14 C391.87 738.91 392.78 738.67 393.72 738.43 C405.09 735.61 416.63 734.44 428.28 733.39 C429 733.32 429.71 733.26 430.45 733.19 C443.29 732.04 456.03 731.73 468.9 732.64 C469.6 732.69 470.29 732.73 471.01 732.78 C472.66 732.9 474.31 733.02 475.97 733.14 C476.26 732.39 476.55 731.64 476.85 730.87 C477.76 728.65 478.73 726.57 479.84 724.45 C481.35 721.48 482.64 718.5 483.84 715.39 C485.35 711.52 487.08 707.84 488.97 704.14 C491.19 699.78 493.1 695.43 494.85 690.87 C495.93 688.22 497.14 685.64 498.38 683.06 C508.34 662.36 514.07 640.51 518.97 618.14 C517.08 618.38 517.08 618.38 515.15 618.62 C492.61 621.1 473.64 618.35 453.97 607.14 C452.96 606.57 451.95 606 450.91 605.42 C438.88 598.2 430.24 588.94 422.97 577.14 C422.47 576.35 421.98 575.57 421.47 574.76 C411.32 556.65 409.71 532.51 414.65 512.64 C416.83 505.92 419.39 498.88 423.42 493.03 C424.95 490.57 425.67 489.04 425.97 486.14 C424.85 482.76 423.52 479.7 421.95 476.52 C411.89 456 411.47 431.01 416.97 409.14 C417.37 407.48 417.37 407.48 417.77 405.8 C424.62 380.71 442.73 359.97 464.97 347.14 C480.64 338.55 498.54 333.98 516.39 334.1 C517.63 334.1 518.87 334.11 520.14 334.11 C521.07 334.12 522.01 334.13 522.97 334.14 C522.91 319.76 522.83 305.38 522.73 291 C522.69 284.33 522.65 277.65 522.62 270.97 C522.59 264.52 522.55 258.07 522.5 251.62 C522.49 249.16 522.47 246.71 522.47 244.26 C522.4 221.5 520.38 203.62 503.64 186.73 C502.76 185.88 501.87 185.02 500.97 184.14 C500.33 183.51 499.7 182.88 499.04 182.23 C488.95 173.48 474.45 172.19 461.68 172.72 C455.39 173.17 449.77 174.7 443.97 177.14 C443.1 177.48 442.23 177.82 441.34 178.17 C428.18 183.95 419.35 194.81 414.15 207.89 C412.05 213.53 410.85 218.53 410.79 224.55 C410.77 226.14 410.77 226.14 410.75 227.76 C410.74 228.89 410.73 230.03 410.72 231.19 C410.69 233.61 410.65 236.02 410.62 238.43 C410.57 242.23 410.53 246.02 410.49 249.81 C410.45 253.48 410.4 257.15 410.35 260.82 C410.34 261.95 410.33 263.08 410.32 264.24 C410.19 272.71 409.62 279.21 403.67 285.63 C399.57 289.27 394.68 290.84 389.22 290.62 C383.52 289.4 377.62 286.45 374.2 281.68 C372.4 277.98 371.84 274.83 371.83 270.72 C371.82 269.84 371.82 268.96 371.81 268.06 C371.81 267.1 371.81 266.15 371.81 265.16 C371.8 263.64 371.8 263.64 371.79 262.09 C371.78 259.89 371.77 257.68 371.77 255.48 C371.76 251.99 371.74 248.49 371.71 245 C371.65 235.06 371.6 225.13 371.56 215.19 C371.54 209.11 371.51 203.03 371.46 196.95 C371.45 194.64 371.44 192.33 371.44 190.02 C371.56 168.19 371.56 168.19 363.97 148.01 C363.58 147.35 363.19 146.68 362.79 145.99 C356.24 135.22 347.78 127.75 335.97 123.14 C335.12 122.8 334.27 122.46 333.4 122.12 C318.38 117.11 301.89 119.79 287.84 126.2 C274.03 133.46 266.34 144.8 261.73 159.38 C260.42 164.12 259.84 168.42 259.81 173.35 C259.8 174.58 259.79 175.81 259.78 177.08 C259.77 177.73 259.77 178.39 259.77 179.06 C259.76 181.12 259.74 183.18 259.71 185.24 C259.65 191.1 259.6 196.96 259.56 202.82 C259.54 206.41 259.51 210 259.46 213.59 C259.44 215.61 259.44 217.63 259.43 219.64 C259.33 227.5 259.22 235.23 253.99 241.51 C252.96 242.32 252.96 242.32 251.9 243.14 C251.21 243.7 250.52 244.25 249.81 244.83 C245.21 248.1 240.43 247.86 234.97 247.14 C229.3 245.07 225.49 242.66 222.86 237.16 C220.61 231.91 220.41 227.23 220.47 221.58 C220.46 220.05 220.46 220.05 220.45 218.5 C220.44 216.31 220.44 214.12 220.45 211.92 C220.46 208.45 220.45 204.97 220.43 201.49 C220.41 195.35 220.4 189.22 220.4 183.08 C220.41 173.27 220.39 163.47 220.35 153.66 C220.34 150.25 220.35 146.84 220.36 143.43 C220.34 130.22 220.25 118.09 212.97 106.58 C212.58 105.95 212.19 105.32 211.79 104.68 C203.22 91.43 191.74 83.02 176.23 79.61 C160.78 77.39 146.33 79.84 132.97 88.14 C119.93 98.04 111.34 110.75 108.97 127.14 C108.72 132.01 108.69 136.86 108.69 141.74 C108.69 144.19 108.68 146.64 108.66 149.09 C108.62 156.06 108.59 163.02 108.59 169.99 C108.58 174.26 108.56 178.54 108.52 182.82 C108.51 184.44 108.51 186.06 108.51 187.68 C108.57 205.37 108.57 205.37 102.48 211.67 C97.59 216.02 93.28 216.61 86.96 216.55 C81.8 215.84 77.91 213.47 73.97 210.14 C70.86 205.43 69.84 200.96 69.83 195.39 C69.83 193.96 69.83 193.96 69.82 192.5 C69.82 191.46 69.82 190.42 69.82 189.35 C69.82 187.7 69.82 187.7 69.81 186.02 C69.81 183.63 69.8 181.24 69.8 178.85 C69.79 175.05 69.77 171.26 69.76 167.47 C69.7 156.68 69.66 145.89 69.64 135.11 C69.63 128.51 69.6 121.91 69.56 115.31 C69.55 112.81 69.54 110.3 69.54 107.79 C69.56 85.32 67.21 69.31 51.2 52.36 C40.74 41.95 26.73 37.85 12.12 37.82 C-3.22 38.12 -16.74 44.25 -27.75 54.74 C-38.01 65.52 -43.21 79.04 -43.16 93.89 C-43.16 94.66 -43.16 95.43 -43.16 96.23 C-43.17 98.82 -43.16 101.4 -43.16 103.99 C-43.16 105.85 -43.16 107.7 -43.17 109.56 C-43.17 113.56 -43.17 117.55 -43.17 121.55 C-43.17 127.87 -43.19 134.2 -43.2 140.52 C-43.2 141.59 -43.21 142.66 -43.21 143.76 C-43.21 145.95 -43.22 148.13 -43.23 150.31 C-43.26 165.04 -43.29 179.76 -43.28 194.48 C-43.28 204.42 -43.3 214.35 -43.34 224.29 C-43.35 229.54 -43.36 234.79 -43.35 240.05 C-43.34 244.99 -43.35 249.94 -43.38 254.88 C-43.39 256.69 -43.38 258.5 -43.37 260.31 C-43.27 278.35 -43.27 278.35 -49.03 286.14 C-53.09 290.2 -56.66 291.26 -62.28 291.45 C-67.33 291.4 -70.8 289.74 -75.03 287.14 C-75.8 286.75 -76.56 286.36 -77.35 285.95 C-82.43 280.49 -82.46 272.26 -82.37 265.21 C-82.38 263.79 -82.38 263.79 -82.38 262.34 C-82.37 259.24 -82.35 256.14 -82.33 253.04 C-82.32 250.88 -82.32 248.72 -82.31 246.56 C-82.3 240.89 -82.27 235.22 -82.24 229.56 C-82.21 223.76 -82.2 217.97 -82.18 212.18 C-82.15 200.83 -82.1 189.49 -82.03 178.14 C-83.29 178.29 -84.55 178.44 -85.84 178.6 C-86.55 178.68 -87.25 178.77 -87.98 178.85 C-103.14 180.97 -117.31 189.72 -129.03 199.14 C-130.29 200.15 -130.29 200.15 -131.58 201.19 C-150.09 216.94 -161.16 239.37 -165.03 263.14 C-165.21 264.18 -165.38 265.23 -165.56 266.31 C-166.07 270.41 -166.19 274.43 -166.19 278.55 C-166.2 279.36 -166.2 280.17 -166.21 281.01 C-166.22 282.75 -166.23 284.5 -166.23 286.25 C-166.24 289.02 -166.26 291.79 -166.29 294.56 C-166.35 302.44 -166.4 310.31 -166.44 318.18 C-166.46 323.01 -166.49 327.83 -166.54 332.66 C-166.55 334.49 -166.56 336.33 -166.56 338.16 C-166.57 340.73 -166.59 343.29 -166.62 345.86 C-166.61 346.61 -166.61 347.36 -166.61 348.14 C-166.7 353.87 -168.1 357.85 -171.8 362.22 C-176.62 366.55 -179.58 367.8 -186.03 368.14 C-186.36 368.8 -186.69 369.46 -187.03 370.14 C-192.1 368.42 -196.11 366.94 -200.03 363.14 C-200.03 362.48 -200.03 361.82 -200.03 361.14 C-200.69 361.14 -201.35 361.14 -202.03 361.14 C-204.78 355.65 -205.46 351.41 -205.41 345.32 C-205.41 344.46 -205.41 343.61 -205.42 342.73 C-205.43 339.92 -205.41 337.11 -205.4 334.3 C-205.4 332.34 -205.4 330.38 -205.4 328.41 C-205.4 324.3 -205.39 320.19 -205.37 316.08 C-205.35 310.83 -205.35 305.58 -205.35 300.33 C-205.36 296.27 -205.35 292.22 -205.34 288.16 C-205.34 286.23 -205.34 284.29 -205.34 282.36 C-205.34 279.65 -205.32 276.93 -205.31 274.22 C-205.31 273.43 -205.31 272.64 -205.32 271.83 C-205.27 267.1 -204.67 262.81 -203.5 258.22 C-203.01 256.04 -202.78 253.93 -202.6 251.7 C-202.08 246.61 -200.67 241.98 -199.03 237.14 C-198.66 236.03 -198.29 234.92 -197.9 233.78 C-195.33 226.37 -192.43 219.21 -189.03 212.14 C-188.37 212.14 -187.71 212.14 -187.03 212.14 C-186.93 211.58 -186.83 211.03 -186.73 210.46 C-185.26 205.55 -181.85 201.37 -179.03 197.14 C-178.39 196.17 -177.75 195.2 -177.08 194.2 C-173.53 188.96 -173.53 188.96 -172.03 187.14 C-171.37 187.14 -170.71 187.14 -170.03 187.14 C-169.7 186.15 -169.37 185.16 -169.03 184.14 C-168.37 184.14 -167.71 184.14 -167.03 184.14 C-166.83 183.6 -166.62 183.07 -166.41 182.51 C-164.5 179.22 -161.99 176.55 -159.03 174.14 C-158.37 174.14 -157.71 174.14 -157.03 174.14 C-157.03 173.48 -157.03 172.82 -157.03 172.14 C-156.37 172.14 -155.71 172.14 -155.03 172.14 C-155.03 171.48 -155.03 170.82 -155.03 170.14 C-153.57 168.81 -153.57 168.81 -151.52 167.31 C-150.77 166.76 -150.02 166.21 -149.24 165.64 C-148.43 165.07 -147.62 164.49 -146.78 163.89 C-145.96 163.3 -145.14 162.71 -144.3 162.1 C-138.11 157.73 -131.96 154.24 -125.03 151.14 C-123.7 150.44 -122.36 149.73 -121.03 149.01 C-116.69 146.82 -112.1 145.42 -107.48 143.97 C-105.11 143.37 -105.11 143.37 -104.03 142.14 C-98.95 140.89 -93.87 139.92 -88.71 139.07 C-87.64 138.9 -86.58 138.72 -85.48 138.54 C-84.67 138.41 -83.86 138.27 -83.03 138.14 C-83.03 137.09 -83.03 137.09 -83.02 136.02 C-82.96 129.39 -82.89 122.76 -82.8 116.13 C-82.75 112.72 -82.71 109.31 -82.69 105.9 C-82.66 101.97 -82.6 98.03 -82.55 94.1 C-82.54 92.89 -82.53 91.69 -82.53 90.45 C-82.34 79.78 -80.61 69.85 -76.03 60.14 C-75.47 58.6 -74.91 57.06 -74.35 55.51 C-71.76 48.98 -68.15 42.83 -64.03 37.14 C-63.37 37.14 -62.71 37.14 -62.03 37.14 C-61.77 36.56 -61.5 35.98 -61.22 35.39 C-60 33.08 -58.73 31.12 -57.03 29.14 C-56.37 29.14 -55.71 29.14 -55.03 29.14 C-54.77 28.5 -54.5 27.86 -54.22 27.2 C-53.03 25.14 -53.03 25.14 -50.03 24.14 C-50.03 23.48 -50.03 22.82 -50.03 22.14 C-46.57 19.14 -46.57 19.14 -44.03 19.14 C-44.03 18.48 -44.03 17.82 -44.03 17.14 C-36.32 11.5 -27.94 7.52 -19.03 4.14 C-18.17 3.78 -17.31 3.41 -16.42 3.04 C-13.35 1.88 -10.28 1.58 -7.03 1.14 C-5.16 -0.73 -2.49 0.01 0 0 Z M646.97 1166.14 C647.3 1166.8 647.63 1167.46 647.97 1168.14 C648.63 1167.81 649.29 1167.48 649.97 1167.14 C648.98 1166.81 647.99 1166.48 646.97 1166.14 Z M642.97 1171.14 C643.97 1173.14 643.97 1173.14 643.97 1173.14 Z M622.97 1192.14 C623.97 1194.14 623.97 1194.14 623.97 1194.14 Z M615.97 1197.14 C616.3 1198.13 616.63 1199.12 616.97 1200.14 C616.97 1199.48 616.97 1198.82 616.97 1198.14 C617.63 1197.81 618.29 1197.48 618.97 1197.14 C617.98 1197.14 616.99 1197.14 615.97 1197.14 Z " fill="#6DAAEF" transform="translate(379.0338134765625,-0.138946533203125)"/>
<path d="M0 0 C0.84 0 1.69 0 2.56 0.01 C3.85 0 3.85 0 5.17 0 C7 0 8.82 0 10.65 0.01 C13.45 0.01 16.26 0.01 19.06 0 C20.83 0 22.6 0 24.37 0.01 C25.22 0 26.06 0 26.93 0 C32.85 0.02 32.85 0.02 33.97 1.14 C34.96 1.24 35.95 1.35 36.97 1.45 C40.93 1.96 44.14 3.42 47.73 5.12 C50.16 6.28 50.16 6.28 53.65 7.33 C61.92 10.33 70.46 16.37 76.97 22.14 C76.97 22.8 76.97 23.46 76.97 24.14 C77.54 24.38 78.11 24.61 78.7 24.86 C81.45 26.41 83.13 28.26 85.22 30.64 C86.28 31.83 86.28 31.83 87.36 33.05 C88.97 35.14 88.97 35.14 88.97 37.14 C89.63 37.14 90.29 37.14 90.97 37.14 C96.65 43.79 100.2 52.31 103.97 60.14 C107.05 60.14 108.55 58.3 110.97 56.45 C127.14 44.54 145.5 39.72 165.4 39.83 C167.05 39.83 167.05 39.83 168.72 39.84 C176.58 39.95 183.47 40.68 190.97 43.14 C191.95 43.42 192.93 43.7 193.95 43.98 C201.85 46.35 208.84 50.02 215.97 54.14 C216.92 54.66 217.87 55.19 218.85 55.73 C219.55 56.19 220.25 56.66 220.97 57.14 C220.97 57.8 220.97 58.46 220.97 59.14 C221.58 59.45 222.2 59.76 222.84 60.08 C224.22 60.76 225.59 61.45 226.97 62.14 C226.97 62.8 226.97 63.46 226.97 64.14 C227.5 64.35 228.04 64.55 228.59 64.76 C231.89 66.67 234.56 69.19 236.97 72.14 C236.97 72.8 236.97 73.46 236.97 74.14 C237.63 74.14 238.29 74.14 238.97 74.14 C240.67 76.4 242.24 78.65 243.78 81.01 C244.23 81.69 244.67 82.38 245.14 83.08 C253.97 96.69 253.97 96.69 253.97 102.14 C254.93 101.48 255.9 100.81 256.9 100.13 C266.84 93.36 276.37 87.62 287.97 84.14 C289.06 83.77 290.15 83.4 291.28 83.01 C302.23 80.42 313.78 80.91 324.97 81.14 C326.47 81.16 326.47 81.16 328 81.19 C345.13 82.09 364.09 90.93 376.97 102.14 C376.97 102.8 376.97 103.46 376.97 104.14 C377.5 104.35 378.04 104.55 378.59 104.76 C381.89 106.67 384.56 109.19 386.97 112.14 C386.97 112.8 386.97 113.46 386.97 114.14 C387.63 114.14 388.29 114.14 388.97 114.14 C391.97 117.6 391.97 117.6 391.97 120.14 C392.63 120.14 393.29 120.14 393.97 120.14 C406.15 140.58 406.15 140.58 407.97 151.14 C411.73 150.59 414.04 149.64 417.09 147.39 C422.09 143.91 427.36 141.48 432.97 139.14 C433.81 138.78 434.64 138.43 435.51 138.06 C437.85 137.18 440.08 136.58 442.53 136.08 C445.63 135.44 445.63 135.44 448.7 134.63 C468.33 130.41 491.41 133.9 508.97 143.14 C509.9 143.61 510.84 144.08 511.8 144.56 C525.48 151.71 538.48 163.14 546.97 176.14 C546.97 177.13 546.97 178.12 546.97 179.14 C547.63 179.14 548.29 179.14 548.97 179.14 C550.26 181.85 551.55 184.55 552.84 187.26 C553.21 188.02 553.57 188.79 553.95 189.57 C554.48 190.69 554.48 190.69 555.02 191.83 C555.51 192.86 555.51 192.86 556 193.9 C562.47 208.96 562.41 224.45 562.4 240.53 C562.41 242.86 562.42 245.19 562.43 247.52 C562.46 253.81 562.47 260.1 562.47 266.39 C562.47 270.32 562.48 274.26 562.48 278.19 C562.51 291.22 562.52 304.25 562.52 317.29 C562.52 317.98 562.52 318.68 562.52 319.41 C562.52 320.11 562.52 320.81 562.52 321.53 C562.52 332.9 562.55 344.28 562.59 355.65 C562.63 367.36 562.66 379.07 562.65 390.78 C562.65 397.34 562.66 403.9 562.69 410.46 C562.72 416.63 562.72 422.79 562.7 428.96 C562.7 431.22 562.7 433.48 562.72 435.73 C562.88 456.31 562.88 456.31 557.62 463.49 C554.66 466.44 551.32 469.14 546.97 469.14 C546.64 469.8 546.31 470.46 545.97 471.14 C545.64 470.81 545.31 470.48 544.97 470.14 C545.08 476.8 545.21 483.45 545.34 490.11 C545.38 492.38 545.42 494.64 545.46 496.91 C545.52 500.16 545.58 503.41 545.65 506.66 C545.67 507.68 545.68 508.7 545.7 509.75 C545.72 510.69 545.74 511.63 545.76 512.6 C545.78 513.43 545.79 514.26 545.81 515.11 C545.84 517.21 545.84 517.21 546.97 519.14 C548.08 519.32 548.08 519.32 549.22 519.51 C553.42 520.47 555.71 522.46 558.28 525.9 C562.45 532.58 562.67 538.38 562.56 546.12 C562.56 547.37 562.56 548.62 562.56 549.91 C562.55 552.56 562.54 555.21 562.51 557.86 C562.46 561.81 562.47 565.75 562.47 569.7 C562.39 601.82 558.65 632.96 549.03 663.64 C548.78 664.45 548.52 665.27 548.27 666.11 C546.75 670.94 545 675.51 542.97 680.14 C542.31 681.95 541.66 683.76 541.03 685.58 C539.79 689.03 538.46 692.31 536.78 695.58 C535.39 698.3 534.6 700.24 533.97 703.14 C533.31 703.14 532.65 703.14 531.97 703.14 C531.83 704.39 531.83 704.39 531.7 705.66 C530.82 709.83 529.19 713.08 527.22 716.83 C526.49 718.24 525.76 719.66 525.04 721.07 C524.69 721.76 524.33 722.45 523.97 723.16 C519.74 731.38 519.74 731.38 516.97 740.14 C517.84 740.28 518.71 740.41 519.61 740.56 C528.74 742.14 537.33 744.84 545.97 748.14 C547.29 748.62 548.61 749.11 549.93 749.59 C562.68 754.25 562.68 754.25 567.9 757.04 C569.53 757.91 571.18 758.72 572.85 759.52 C587.38 766.51 601.11 774.88 614.22 784.26 C615 784.82 615.78 785.38 616.58 785.95 C617.29 786.47 618 786.99 618.73 787.52 C619.67 788.21 619.67 788.21 620.63 788.91 C621.29 789.52 621.29 789.52 621.97 790.14 C621.97 790.8 621.97 791.46 621.97 792.14 C622.71 792.41 623.45 792.68 624.22 792.95 C626.86 794.09 628.82 795.23 630.97 797.14 C630.97 797.8 630.97 798.46 630.97 799.14 C631.96 799.47 632.95 799.8 633.97 800.14 C633.97 800.8 633.97 801.46 633.97 802.14 C634.54 802.41 635.12 802.68 635.72 802.95 C638.02 804.17 639.99 805.44 641.97 807.14 C641.97 807.8 641.97 808.46 641.97 809.14 C642.63 809.14 643.29 809.14 643.97 809.14 C645.59 810.51 645.59 810.51 646.97 812.14 C646.97 812.8 646.97 813.46 646.97 814.14 C647.63 814.14 648.29 814.14 648.97 814.14 C650.59 815.78 650.59 815.78 652.4 817.95 C654.94 820.96 654.94 820.96 657.69 823.78 C658.97 825.14 658.97 825.14 658.97 827.14 C659.63 827.14 660.29 827.14 660.97 827.14 C662.47 828.82 662.47 828.82 664.09 831.01 C664.63 831.73 665.17 832.45 665.72 833.19 C666.97 835.14 666.97 835.14 666.97 837.14 C667.63 837.14 668.29 837.14 668.97 837.14 C670.17 838.51 670.17 838.51 671.51 840.44 C672 841.14 672.49 841.85 673 842.57 C673.53 843.34 674.05 844.1 674.59 844.89 C675.13 845.67 675.67 846.44 676.22 847.24 C677.31 848.81 678.39 850.38 679.47 851.95 C680.74 853.82 682.03 855.67 683.33 857.52 C687.26 863.25 690.58 869.06 693.6 875.32 C694.85 877.9 696.18 880.39 697.59 882.89 C701.65 890.11 705 897.41 707.97 905.14 C708.44 906.35 708.92 907.56 709.41 908.81 C712.55 916.88 715.13 924.91 717.2 933.32 C717.68 936.02 717.68 936.02 718.97 937.14 C719.3 938.53 719.58 939.92 719.84 941.33 C720.39 944.24 720.96 947.12 721.66 950 C730.61 987.64 729.58 1029.56 720.97 1067.14 C720.78 1068.03 720.59 1068.91 720.4 1069.83 C719.33 1074.92 717.94 1079.75 715.97 1084.58 C714.89 1087.21 714.89 1087.21 714.07 1090.31 C709.45 1106.36 703.37 1122.71 694.4 1136.85 C692.81 1139.4 691.38 1142 689.97 1144.64 C687.93 1148.4 685.86 1152.13 683.72 1155.83 C683.24 1156.66 682.76 1157.48 682.26 1158.34 C681.84 1158.93 681.41 1159.53 680.97 1160.14 C680.31 1160.14 679.65 1160.14 678.97 1160.14 C678.97 1161.13 678.97 1162.12 678.97 1163.14 C678.31 1163.14 677.65 1163.14 676.97 1163.14 C676.74 1163.72 676.51 1164.29 676.28 1164.89 C673.94 1168.9 670.19 1171.36 665.97 1173.14 C660.08 1173.89 654.96 1173.6 649.97 1170.14 C649.64 1169.15 649.31 1168.16 648.97 1167.14 C648.02 1166.69 648.02 1166.69 647.05 1166.23 C643.58 1164.41 642.88 1161.52 641.63 1157.96 C640.02 1151.08 641.79 1145.9 645.39 1139.98 C647.75 1136.26 650.23 1132.62 652.72 1128.99 C655.07 1125.5 657.05 1121.87 658.97 1118.14 C659.54 1117.05 660.12 1115.97 660.72 1114.85 C689.36 1060.29 694.58 995.67 676.59 936.89 C666.08 904.17 649.18 874.29 626.29 848.63 C625.09 847.28 623.9 845.9 622.72 844.52 C619.1 840.33 615.36 836.56 611.13 832.99 C609.6 831.68 608.11 830.33 606.65 828.94 C571.74 795.84 525.1 778.12 477.97 772.14 C477.16 772.04 476.36 771.93 475.54 771.83 C429.9 766.59 376.33 775.8 337.23 800.73 C334.81 802.24 332.32 803.52 329.78 804.83 C322.32 808.85 315.68 814 308.97 819.14 C308.06 819.83 307.15 820.53 306.21 821.24 C271.88 848.07 245.47 884.03 230.97 925.14 C230.73 925.78 230.5 926.41 230.26 927.07 C225.6 939.84 222.43 952.78 219.97 966.14 C219.8 967.03 219.63 967.92 219.46 968.84 C214.92 994.33 215.28 1021.72 219.97 1047.14 C220.13 1048.05 220.29 1048.97 220.45 1049.91 C225.39 1077.31 235.23 1104.46 249.97 1128.14 C250.33 1128.73 250.7 1129.33 251.08 1129.94 C260.48 1144.91 271.8 1158.36 283.97 1171.14 C284.69 1171.91 285.41 1172.69 286.16 1173.49 C291.98 1179.56 298.43 1184.67 305.11 1189.74 C306.33 1190.65 307.54 1191.58 308.74 1192.51 C359.67 1231.76 422.36 1246.83 485.81 1239.19 C496.73 1237.7 507.36 1235.1 517.97 1232.14 C518.69 1231.94 519.42 1231.73 520.17 1231.52 C523.8 1230.49 527.39 1229.37 530.97 1228.14 C531.64 1227.91 532.32 1227.68 533.02 1227.44 C535.03 1226.72 536.99 1225.94 538.97 1225.14 C540.03 1224.71 541.09 1224.28 542.18 1223.83 C553.4 1219.14 563.7 1213.38 574.02 1206.96 C576.29 1205.55 578.57 1204.2 580.9 1202.89 C584.04 1201.15 584.04 1201.15 587.15 1198.95 C592.35 1195.6 597.91 1195.47 603.97 1196.14 C606.89 1197.1 609.53 1198.24 611.97 1200.14 C612.3 1201.13 612.63 1202.12 612.97 1203.14 C613.96 1203.47 614.95 1203.8 615.97 1204.14 C619.23 1208.97 619.84 1213.48 618.97 1219.14 C617.32 1223.91 614.95 1227.95 610.97 1231.14 C610.31 1231.14 609.65 1231.14 608.97 1231.14 C608.97 1231.8 608.97 1232.46 608.97 1233.14 C607.12 1234.51 607.12 1234.51 604.53 1236.08 C603.58 1236.66 602.63 1237.24 601.65 1237.84 C600.62 1238.45 599.59 1239.07 598.53 1239.7 C597.48 1240.33 596.43 1240.96 595.35 1241.61 C581.92 1249.63 568.61 1256.6 553.97 1262.14 C552.3 1262.82 550.63 1263.51 548.97 1264.2 C537.22 1268.87 525.26 1272.29 512.97 1275.14 C511.75 1275.43 510.52 1275.72 509.27 1276.02 C502.6 1277.54 496.13 1278.54 489.29 1278.93 C486.94 1279 486.94 1279 484.97 1280.14 C482.91 1280.24 480.86 1280.27 478.8 1280.27 C476.86 1280.27 476.86 1280.27 474.88 1280.28 C473.46 1280.28 472.04 1280.27 470.62 1280.27 C469.17 1280.27 467.72 1280.27 466.27 1280.27 C463.23 1280.28 460.19 1280.27 457.15 1280.27 C453.25 1280.26 449.35 1280.27 445.45 1280.27 C442.46 1280.28 439.46 1280.28 436.47 1280.27 C435.03 1280.27 433.59 1280.27 432.15 1280.28 C430.15 1280.28 428.14 1280.27 426.13 1280.27 C424.98 1280.27 423.84 1280.27 422.66 1280.27 C419.97 1280.14 419.97 1280.14 417.97 1279.14 C416.14 1278.96 414.3 1278.82 412.47 1278.7 C405.83 1278.19 399.41 1277.31 393.1 1275.16 C389.82 1274.09 386.59 1273.38 383.22 1272.7 C374.11 1270.79 364.19 1268.66 355.97 1264.14 C355.64 1263.15 355.31 1262.16 354.97 1261.14 C353.18 1260.51 353.18 1260.51 351 1260.26 C345.55 1259.21 341.22 1256.94 336.4 1254.26 C334.8 1253.39 333.19 1252.52 331.59 1251.65 C330.81 1251.22 330.03 1250.8 329.23 1250.36 C327.13 1249.23 325.02 1248.16 322.88 1247.1 C310.73 1241.09 299.49 1233.72 288.74 1225.49 C287 1224.16 285.25 1222.85 283.49 1221.54 C276.67 1216.4 270.25 1210.93 263.97 1205.14 C263.11 1204.39 262.25 1203.63 261.37 1202.86 C256.92 1198.94 252.74 1195.01 248.92 1190.47 C247.4 1188.66 245.86 1186.89 244.29 1185.12 C224.82 1163.11 207.77 1136.93 197.97 1109.14 C197.35 1107.51 196.73 1105.89 196.1 1104.26 C170.63 1037.26 171.84 961.93 200.97 896.14 C203.47 890.72 206.17 885.41 208.97 880.14 C209.77 878.61 209.77 878.61 210.6 877.05 C227.72 845.17 251.17 815.3 279.97 793.14 C280.74 792.49 281.52 791.85 282.33 791.18 C302.66 774.34 326.09 761.51 350.64 752.07 C352.87 751.18 355.03 750.18 357.2 749.15 C363.18 746.47 369.46 744.84 375.78 743.14 C376.42 742.96 377.07 742.79 377.73 742.61 C382.13 741.42 386.55 740.27 390.97 739.14 C391.87 738.91 392.78 738.67 393.72 738.43 C405.09 735.61 416.63 734.44 428.28 733.39 C429 733.32 429.71 733.26 430.45 733.19 C443.29 732.04 456.03 731.73 468.9 732.64 C469.6 732.69 470.29 732.73 471.01 732.78 C472.66 732.9 474.31 733.02 475.97 733.14 C476.26 732.39 476.55 731.64 476.85 730.87 C477.76 728.65 478.73 726.57 479.84 724.45 C481.35 721.48 482.64 718.5 483.84 715.39 C485.35 711.52 487.08 707.84 488.97 704.14 C491.19 699.78 493.1 695.43 494.85 690.87 C495.93 688.22 497.14 685.64 498.38 683.06 C508.34 662.36 514.07 640.51 518.97 618.14 C517.08 618.38 517.08 618.38 515.15 618.62 C492.61 621.1 473.64 618.35 453.97 607.14 C452.96 606.57 451.95 606 450.91 605.42 C438.88 598.2 430.24 588.94 422.97 577.14 C422.47 576.35 421.98 575.57 421.47 574.76 C411.32 556.65 409.71 532.51 414.65 512.64 C416.83 505.92 419.39 498.88 423.42 493.03 C424.95 490.57 425.67 489.04 425.97 486.14 C424.85 482.76 423.52 479.7 421.95 476.52 C411.89 456 411.47 431.01 416.97 409.14 C417.37 407.48 417.37 407.48 417.77 405.8 C424.62 380.71 442.73 359.97 464.97 347.14 C480.64 338.55 498.54 333.98 516.39 334.1 C517.63 334.1 518.87 334.11 520.14 334.11 C521.07 334.12 522.01 334.13 522.97 334.14 C522.91 319.76 522.83 305.38 522.73 291 C522.69 284.33 522.65 277.65 522.62 270.97 C522.59 264.52 522.55 258.07 522.5 251.62 C522.49 249.16 522.47 246.71 522.47 244.26 C522.4 221.5 520.38 203.62 503.64 186.73 C502.76 185.88 501.87 185.02 500.97 184.14 C500.33 183.51 499.7 182.88 499.04 182.23 C488.95 173.48 474.45 172.19 461.68 172.72 C455.39 173.17 449.77 174.7 443.97 177.14 C443.1 177.48 442.23 177.82 441.34 178.17 C428.18 183.95 419.35 194.81 414.15 207.89 C412.05 213.53 410.85 218.53 410.79 224.55 C410.77 226.14 410.77 226.14 410.75 227.76 C410.74 228.89 410.73 230.03 410.72 231.19 C410.69 233.61 410.65 236.02 410.62 238.43 C410.57 242.23 410.53 246.02 410.49 249.81 C410.45 253.48 410.4 257.15 410.35 260.82 C410.34 261.95 410.33 263.08 410.32 264.24 C410.19 272.71 409.62 279.21 403.67 285.63 C399.57 289.27 394.68 290.84 389.22 290.62 C383.52 289.4 377.62 286.45 374.2 281.68 C372.4 277.98 371.84 274.83 371.83 270.72 C371.82 269.84 371.82 268.96 371.81 268.06 C371.81 267.1 371.81 266.15 371.81 265.16 C371.8 263.64 371.8 263.64 371.79 262.09 C371.78 259.89 371.77 257.68 371.77 255.48 C371.76 251.99 371.74 248.49 371.71 245 C371.65 235.06 371.6 225.13 371.56 215.19 C371.54 209.11 371.51 203.03 371.46 196.95 C371.45 194.64 371.44 192.33 371.44 190.02 C371.56 168.19 371.56 168.19 363.97 148.01 C363.58 147.35 363.19 146.68 362.79 145.99 C356.24 135.22 347.78 127.75 335.97 123.14 C335.12 122.8 334.27 122.46 333.4 122.12 C318.38 117.11 301.89 119.79 287.84 126.2 C274.03 133.46 266.34 144.8 261.73 159.38 C260.42 164.12 259.84 168.42 259.81 173.35 C259.8 174.58 259.79 175.81 259.78 177.08 C259.77 177.73 259.77 178.39 259.77 179.06 C259.76 181.12 259.74 183.18 259.71 185.24 C259.65 191.1 259.6 196.96 259.56 202.82 C259.54 206.41 259.51 210 259.46 213.59 C259.44 215.61 259.44 217.63 259.43 219.64 C259.33 227.5 259.22 235.23 253.99 241.51 C252.96 242.32 252.96 242.32 251.9 243.14 C251.21 243.7 250.52 244.25 249.81 244.83 C245.21 248.1 240.43 247.86 234.97 247.14 C229.3 245.07 225.49 242.66 222.86 237.16 C220.61 231.91 220.41 227.23 220.47 221.58 C220.46 220.05 220.46 220.05 220.45 218.5 C220.44 216.31 220.44 214.12 220.45 211.92 C220.46 208.45 220.45 204.97 220.43 201.49 C220.41 195.35 220.4 189.22 220.4 183.08 C220.41 173.27 220.39 163.47 220.35 153.66 C220.34 150.25 220.35 146.84 220.36 143.43 C220.34 130.22 220.25 118.09 212.97 106.58 C212.58 105.95 212.19 105.32 211.79 104.68 C203.22 91.43 191.74 83.02 176.23 79.61 C160.78 77.39 146.33 79.84 132.97 88.14 C119.93 98.04 111.34 110.75 108.97 127.14 C108.72 132.01 108.69 136.86 108.69 141.74 C108.69 144.19 108.68 146.64 108.66 149.09 C108.62 156.06 108.59 163.02 108.59 169.99 C108.58 174.26 108.56 178.54 108.52 182.82 C108.51 184.44 108.51 186.06 108.51 187.68 C108.57 205.37 108.57 205.37 102.48 211.67 C97.59 216.02 93.28 216.61 86.96 216.55 C81.8 215.84 77.91 213.47 73.97 210.14 C70.86 205.43 69.84 200.96 69.83 195.39 C69.83 193.96 69.83 193.96 69.82 192.5 C69.82 191.46 69.82 190.42 69.82 189.35 C69.82 187.7 69.82 187.7 69.81 186.02 C69.81 183.63 69.8 181.24 69.8 178.85 C69.79 175.05 69.77 171.26 69.76 167.47 C69.7 156.68 69.66 145.89 69.64 135.11 C69.63 128.51 69.6 121.91 69.56 115.31 C69.55 112.81 69.54 110.3 69.54 107.79 C69.56 85.32 67.21 69.31 51.2 52.36 C40.74 41.95 26.73 37.85 12.12 37.82 C-3.22 38.12 -16.74 44.25 -27.75 54.74 C-38.01 65.52 -43.21 79.04 -43.16 93.89 C-43.16 94.66 -43.16 95.43 -43.16 96.23 C-43.17 98.82 -43.16 101.4 -43.16 103.99 C-43.16 105.85 -43.16 107.7 -43.17 109.56 C-43.17 113.56 -43.17 117.55 -43.17 121.55 C-43.17 127.87 -43.19 134.2 -43.2 140.52 C-43.2 141.59 -43.21 142.66 -43.21 143.76 C-43.21 145.95 -43.22 148.13 -43.23 150.31 C-43.26 165.04 -43.29 179.76 -43.28 194.48 C-43.28 204.42 -43.3 214.35 -43.34 224.29 C-43.35 229.54 -43.36 234.79 -43.35 240.05 C-43.34 244.99 -43.35 249.94 -43.38 254.88 C-43.39 256.69 -43.38 258.5 -43.37 260.31 C-43.27 278.35 -43.27 278.35 -49.03 286.14 C-53.09 290.2 -56.66 291.26 -62.28 291.45 C-67.33 291.4 -70.8 289.74 -75.03 287.14 C-75.8 286.75 -76.56 286.36 -77.35 285.95 C-82.43 280.49 -82.46 272.26 -82.37 265.21 C-82.38 263.79 -82.38 263.79 -82.38 262.34 C-82.37 259.24 -82.35 256.14 -82.33 253.04 C-82.32 250.88 -82.32 248.72 -82.31 246.56 C-82.3 240.89 -82.27 235.22 -82.24 229.56 C-82.21 223.76 -82.2 217.97 -82.18 212.18 C-82.15 200.83 -82.1 189.49 -82.03 178.14 C-83.29 178.29 -84.55 178.44 -85.84 178.6 C-86.55 178.68 -87.25 178.77 -87.98 178.85 C-103.14 180.97 -117.31 189.72 -129.03 199.14 C-130.29 200.15 -130.29 200.15 -131.58 201.19 C-150.09 216.94 -161.16 239.37 -165.03 263.14 C-165.21 264.18 -165.38 265.23 -165.56 266.31 C-166.07 270.41 -166.19 274.43 -166.19 278.55 C-166.2 279.36 -166.2 280.17 -166.21 281.01 C-166.22 282.75 -166.23 284.5 -166.23 286.25 C-166.24 289.02 -166.26 291.79 -166.29 294.56 C-166.35 302.44 -166.4 310.31 -166.44 318.18 C-166.46 323.01 -166.49 327.83 -166.54 332.66 C-166.55 334.49 -166.56 336.33 -166.56 338.16 C-166.57 340.73 -166.59 343.29 -166.62 345.86 C-166.61 346.61 -166.61 347.36 -166.61 348.14 C-166.7 353.87 -168.1 357.85 -171.8 362.22 C-176.62 366.55 -179.58 367.8 -186.03 368.14 C-186.36 368.8 -186.69 369.46 -187.03 370.14 C-192.1 368.42 -196.11 366.94 -200.03 363.14 C-200.03 362.48 -200.03 361.82 -200.03 361.14 C-200.69 361.14 -201.35 361.14 -202.03 361.14 C-204.78 355.65 -205.46 351.41 -205.41 345.32 C-205.41 344.46 -205.41 343.61 -205.42 342.73 C-205.43 339.92 -205.41 337.11 -205.4 334.3 C-205.4 332.34 -205.4 330.38 -205.4 328.41 C-205.4 324.3 -205.39 320.19 -205.37 316.08 C-205.35 310.83 -205.35 305.58 -205.35 300.33 C-205.36 296.27 -205.35 292.22 -205.34 288.16 C-205.34 286.23 -205.34 284.29 -205.34 282.36 C-205.34 279.65 -205.32 276.93 -205.31 274.22 C-205.31 273.43 -205.31 272.64 -205.32 271.83 C-205.27 267.1 -204.67 262.81 -203.5 258.22 C-203.01 256.04 -202.78 253.93 -202.6 251.7 C-202.08 246.61 -200.67 241.98 -199.03 237.14 C-198.66 236.03 -198.29 234.92 -197.9 233.78 C-195.33 226.37 -192.43 219.21 -189.03 212.14 C-188.37 212.14 -187.71 212.14 -187.03 212.14 C-186.93 211.58 -186.83 211.03 -186.73 210.46 C-185.26 205.55 -181.85 201.37 -179.03 197.14 C-178.39 196.17 -177.75 195.2 -177.08 194.2 C-173.53 188.96 -173.53 188.96 -172.03 187.14 C-171.37 187.14 -170.71 187.14 -170.03 187.14 C-169.7 186.15 -169.37 185.16 -169.03 184.14 C-168.37 184.14 -167.71 184.14 -167.03 184.14 C-166.83 183.6 -166.62 183.07 -166.41 182.51 C-164.5 179.22 -161.99 176.55 -159.03 174.14 C-158.37 174.14 -157.71 174.14 -157.03 174.14 C-157.03 173.48 -157.03 172.82 -157.03 172.14 C-156.37 172.14 -155.71 172.14 -155.03 172.14 C-155.03 171.48 -155.03 170.82 -155.03 170.14 C-153.57 168.81 -153.57 168.81 -151.52 167.31 C-150.77 166.76 -150.02 166.21 -149.24 165.64 C-148.43 165.07 -147.62 164.49 -146.78 163.89 C-145.96 163.3 -145.14 162.71 -144.3 162.1 C-138.11 157.73 -131.96 154.24 -125.03 151.14 C-123.7 150.44 -122.36 149.73 -121.03 149.01 C-116.69 146.82 -112.1 145.42 -107.48 143.97 C-105.11 143.37 -105.11 143.37 -104.03 142.14 C-98.95 140.89 -93.87 139.92 -88.71 139.07 C-87.64 138.9 -86.58 138.72 -85.48 138.54 C-84.67 138.41 -83.86 138.27 -83.03 138.14 C-83.03 137.09 -83.03 137.09 -83.02 136.02 C-82.96 129.39 -82.89 122.76 -82.8 116.13 C-82.75 112.72 -82.71 109.31 -82.69 105.9 C-82.66 101.97 -82.6 98.03 -82.55 94.1 C-82.54 92.89 -82.53 91.69 -82.53 90.45 C-82.34 79.78 -80.61 69.85 -76.03 60.14 C-75.47 58.6 -74.91 57.06 -74.35 55.51 C-71.76 48.98 -68.15 42.83 -64.03 37.14 C-63.37 37.14 -62.71 37.14 -62.03 37.14 C-61.77 36.56 -61.5 35.98 -61.22 35.39 C-60 33.08 -58.73 31.12 -57.03 29.14 C-56.37 29.14 -55.71 29.14 -55.03 29.14 C-54.77 28.5 -54.5 27.86 -54.22 27.2 C-53.03 25.14 -53.03 25.14 -50.03 24.14 C-50.03 23.48 -50.03 22.82 -50.03 22.14 C-46.57 19.14 -46.57 19.14 -44.03 19.14 C-44.03 18.48 -44.03 17.82 -44.03 17.14 C-36.32 11.5 -27.94 7.52 -19.03 4.14 C-18.17 3.78 -17.31 3.41 -16.42 3.04 C-13.35 1.88 -10.28 1.58 -7.03 1.14 C-5.16 -0.73 -2.49 0.01 0 0 Z " fill="#000002" transform="translate(379.0338134765625,-0.138946533203125)"/>
<path d="M0 0 C0.83 -0.01 1.65 -0.01 2.5 -0.02 C3.85 -0.03 3.85 -0.03 5.22 -0.03 C6.17 -0.04 7.12 -0.04 8.1 -0.05 C11.25 -0.07 14.4 -0.08 17.55 -0.09 C18.63 -0.1 19.71 -0.1 20.82 -0.1 C26.52 -0.12 32.22 -0.14 37.93 -0.15 C43.81 -0.16 49.69 -0.19 55.57 -0.23 C60.1 -0.26 64.63 -0.27 69.16 -0.27 C71.32 -0.28 73.49 -0.29 75.66 -0.31 C78.7 -0.33 81.74 -0.33 84.77 -0.32 C85.66 -0.34 86.55 -0.35 87.46 -0.36 C93.61 -0.31 98.49 1.02 103.82 4.15 C105.76 6.18 105.76 6.18 106.82 8.21 C107.19 8.88 107.56 9.55 107.95 10.24 C109.83 14.35 109.97 17.67 110.01 22.16 C110.02 23.22 110.02 23.22 110.04 24.31 C110.05 25.85 110.07 27.38 110.08 28.92 C110.1 31.36 110.13 33.79 110.16 36.22 C110.23 42.26 110.29 48.3 110.35 54.34 C110.4 59.45 110.45 64.56 110.51 69.66 C110.54 72.07 110.56 74.47 110.58 76.87 C110.6 78.33 110.61 79.8 110.63 81.27 C110.64 82.55 110.66 83.83 110.67 85.16 C110.62 88.07 110.62 88.07 111.82 90.15 C112.76 90.15 113.7 90.16 114.67 90.16 C123.52 90.22 132.38 90.3 141.24 90.38 C145.79 90.43 150.34 90.47 154.9 90.49 C159.29 90.52 163.69 90.56 168.09 90.61 C169.76 90.63 171.44 90.64 173.11 90.64 C175.46 90.65 177.81 90.68 180.16 90.71 C180.85 90.71 181.54 90.71 182.25 90.71 C187.46 90.81 191.66 92.02 195.43 95.73 C195.81 96.28 196.18 96.83 196.57 97.4 C196.96 97.94 197.34 98.48 197.74 99.04 C200.88 105.17 201.11 111.08 201.1 117.83 C201.1 119.25 201.1 119.25 201.11 120.69 C201.13 123.8 201.12 126.91 201.12 130.02 C201.13 132.19 201.13 134.36 201.13 136.53 C201.14 141.08 201.14 145.62 201.14 150.16 C201.13 155.97 201.15 161.79 201.17 167.6 C201.19 172.08 201.19 176.56 201.18 181.04 C201.18 183.19 201.19 185.33 201.2 187.47 C201.21 190.47 201.21 193.47 201.19 196.47 C201.2 197.35 201.21 198.23 201.22 199.13 C201.16 205.98 200 210.75 195.26 215.96 C194.45 216.68 193.65 217.4 192.82 218.15 C192.16 218.81 191.5 219.47 190.82 220.15 C187.11 221.52 183.2 221.32 179.3 221.35 C178.55 221.36 177.8 221.37 177.02 221.38 C174.54 221.41 172.06 221.44 169.59 221.46 C167.87 221.48 166.15 221.51 164.42 221.53 C159.9 221.58 155.38 221.63 150.85 221.68 C146.23 221.73 141.62 221.79 137 221.84 C127.94 221.95 118.88 222.05 109.82 222.15 C109.83 223.08 109.84 224.02 109.85 224.98 C109.93 233.81 109.99 242.63 110.03 251.46 C110.05 256 110.08 260.54 110.12 265.07 C110.17 269.46 110.19 273.84 110.2 278.22 C110.21 279.89 110.22 281.56 110.24 283.23 C110.45 299.49 110.45 299.49 105.82 306.15 C99.82 311.99 94.17 312.44 86.18 312.42 C84.74 312.43 84.74 312.43 83.26 312.44 C80.08 312.45 76.89 312.45 73.7 312.45 C71.49 312.45 69.27 312.46 67.05 312.46 C62.4 312.47 57.75 312.47 53.1 312.46 C47.15 312.46 41.2 312.47 35.25 312.5 C30.67 312.51 26.09 312.51 21.51 312.51 C19.32 312.51 17.12 312.52 14.93 312.53 C11.86 312.54 8.79 312.53 5.72 312.52 C4.81 312.53 3.91 312.53 2.98 312.54 C-4.97 312.48 -10.87 310.17 -17.18 305.15 C-22.58 297.14 -21.3 286.29 -21.22 277.03 C-21.21 274.86 -21.2 272.69 -21.19 270.51 C-21.16 264.34 -21.13 258.17 -21.08 252 C-21.06 248.21 -21.04 244.42 -21.03 240.63 C-21.02 239.19 -21.01 237.75 -21 236.31 C-20.98 234.3 -20.97 232.3 -20.97 230.29 C-20.96 229.15 -20.95 228.01 -20.95 226.83 C-20.9 224 -20.9 224 -23.18 222.15 C-26.31 221.85 -26.31 221.85 -30.06 221.91 C-30.76 221.91 -31.47 221.9 -32.2 221.9 C-33.74 221.9 -35.28 221.9 -36.82 221.9 C-39.26 221.91 -41.71 221.9 -44.15 221.89 C-51.1 221.85 -58.05 221.83 -64.99 221.84 C-69.24 221.85 -73.49 221.83 -77.74 221.8 C-79.36 221.79 -80.97 221.79 -82.58 221.8 C-99.42 221.91 -99.42 221.91 -106.18 216.15 C-109.66 212.25 -111.29 208.23 -111.33 203.02 C-111.34 202.18 -111.35 201.34 -111.36 200.48 C-111.36 199.56 -111.37 198.64 -111.37 197.69 C-111.38 196.72 -111.39 195.75 -111.4 194.76 C-111.42 191.54 -111.44 188.33 -111.45 185.11 C-111.46 183.46 -111.46 183.46 -111.47 181.78 C-111.5 175.96 -111.51 170.14 -111.53 164.32 C-111.54 159.51 -111.57 154.7 -111.61 149.89 C-111.66 144.08 -111.69 138.26 -111.69 132.45 C-111.7 130.24 -111.71 128.03 -111.74 125.82 C-111.77 122.71 -111.77 119.61 -111.76 116.51 C-111.78 115.6 -111.8 114.7 -111.81 113.77 C-111.75 107.03 -109.92 101.78 -106.18 96.15 C-101.42 91.62 -96.27 91 -89.97 90.96 C-88.87 90.95 -88.87 90.95 -87.76 90.93 C-86.17 90.92 -84.59 90.9 -83 90.89 C-80.5 90.87 -77.99 90.84 -75.49 90.81 C-69.27 90.74 -63.06 90.68 -56.84 90.62 C-51.58 90.57 -46.33 90.52 -41.07 90.46 C-38.6 90.43 -36.12 90.41 -33.65 90.39 C-32.14 90.37 -30.64 90.35 -29.13 90.34 C-28.09 90.33 -28.09 90.33 -27.03 90.32 C-23.83 90.55 -23.83 90.55 -21.18 89.15 C-21.1 87.12 -21.08 85.09 -21.1 83.06 C-21.11 81.1 -21.11 81.1 -21.12 79.1 C-21.13 78.05 -21.13 78.05 -21.13 76.97 C-21.15 74.77 -21.16 72.56 -21.17 70.36 C-21.19 64.09 -21.23 57.82 -21.27 51.55 C-21.3 47.71 -21.32 43.88 -21.33 40.05 C-21.34 38.59 -21.35 37.14 -21.36 35.69 C-21.58 12.24 -21.58 12.24 -15.18 5.15 C-10.41 1.7 -5.85 0.03 0 0 Z " fill="#000002" transform="translate(786.1788787841797,849.8528289794922)"/>
<path d="M0 0 C0.66 0.66 1.32 1.32 2 2 C3.89 2.43 3.89 2.43 5.81 2.88 C11.37 4.21 14.47 6.84 17.6 11.58 C21.4 18.6 20.71 26.45 20.67 34.21 C20.68 35.88 20.7 37.54 20.71 39.21 C20.74 43.56 20.75 47.91 20.75 52.27 C20.75 58.43 20.79 64.59 20.83 70.74 C20.85 74.02 20.86 77.29 20.86 80.57 C20.87 82.06 20.87 83.54 20.87 85.03 C20.87 86.33 20.87 87.63 20.88 88.97 C20.79 91.92 20.79 91.92 22 94 C22.71 93.27 23.41 92.55 24.14 91.8 C42.64 73.36 68.67 64.4 94.5 63.75 C113.23 64.19 129.8 68.97 146 78 C146.99 78.55 147.98 79.09 149 79.65 C170.33 92.31 186.5 115.51 192.75 139.38 C192.91 140.09 193.07 140.81 193.24 141.56 C194 144.66 194.59 146.64 197.02 148.78 C201.25 150.51 205.57 151.85 209.94 153.19 C219.12 156.14 226.95 159.68 235 165 C235.95 165.63 236.9 166.25 237.88 166.9 C250.33 175.57 265.55 187.85 270 203 C270.56 208.23 269.89 212.58 267 217 C263.33 221.42 259.79 224.3 254 225.12 C245.38 225.35 240.32 221.93 234.15 216.18 C232.18 214.18 230.36 212.14 228.56 210 C217.62 197.27 202.97 191.07 187.32 186.15 C179.04 183.49 171.67 179.77 166 173 C165.28 172.15 165.28 172.15 164.55 171.29 C159.85 165.1 158.17 158.38 156.14 151.03 C154.87 146.44 153.23 142.21 151 138 C150.37 136.81 150.37 136.81 149.73 135.59 C142.24 122.26 130.46 110.33 115.56 105.88 C114.47 105.54 113.38 105.21 112.25 104.87 C96.05 100.55 78.88 102.3 64 110 C62.82 110.6 62.82 110.6 61.61 111.2 C45.83 119.84 37.38 133.74 31.95 150.36 C29.86 158.4 29.8 163.24 32.69 170.94 C33 171.79 33.3 172.63 33.62 173.51 C39.58 189.35 46.76 205.44 57 219 C57.71 219.96 58.41 220.92 59.14 221.91 C61.4 224.97 63.69 227.99 66 231 C67.16 232.51 67.16 232.51 68.34 234.05 C69.98 236.18 71.62 238.32 73.27 240.45 C76.36 244.46 79.43 248.48 82.5 252.5 C87.99 259.68 93.49 266.84 99 274 C119.11 300.11 119.11 300.11 128.84 313.12 C130.73 315.64 132.64 318.15 134.57 320.64 C135.83 322.27 137.09 323.91 138.34 325.55 C139.69 327.3 141.04 329.05 142.4 330.79 C151.16 342 158.81 353.73 166 366 C166.42 366.72 166.85 367.45 167.29 368.19 C176.81 384.68 190 408.62 190 428 C190.99 428.33 191.98 428.66 193 429 C203.35 422.49 209.49 411.21 212.62 399.71 C213.17 395.76 213.19 391.85 213.19 387.88 C213.19 387.02 213.19 386.17 213.19 385.3 C213.16 380.78 212.91 376.56 211.94 372.12 C209.97 363.05 211.04 352.45 215 344 C218.77 338.18 223.56 333.4 228.5 328.56 C240.07 317.12 246.7 304.39 251.12 288.88 C253.01 282.43 255.08 279.14 260.56 275.12 C266.77 273.09 273.08 273.24 279.38 274.88 C284.21 278.79 287.25 283.58 288.59 289.69 C289.78 310.18 275.64 332.88 263 348 C260.64 350.4 258.17 352.67 255.69 354.94 C251.53 358.71 251.53 358.71 249.37 363.78 C249.63 366.38 250.2 368.52 251 371 C253.42 384.69 252.54 398.61 249 412 C248.73 413.02 248.47 414.05 248.19 415.1 C241.18 438.71 222.98 457.53 201.78 469.19 C200 470 200 470 198 470 C198 471.19 198 471.19 198.01 472.39 C198.16 519.19 198.3 565.99 198.43 612.78 C198.45 618.4 198.47 624.01 198.48 629.63 C198.49 631.3 198.49 631.3 198.49 633.01 C198.54 651.13 198.6 669.25 198.66 687.36 C198.72 705.94 198.77 724.52 198.83 743.1 C198.86 754.57 198.89 766.04 198.93 777.51 C198.96 785.37 198.98 793.23 199 801.09 C199.01 805.63 199.02 810.16 199.04 814.7 C199.06 818.85 199.07 823.01 199.08 827.16 C199.08 828.66 199.09 830.17 199.09 831.67 C199.1 833.71 199.11 835.75 199.11 837.79 C199.11 839.49 199.11 839.49 199.12 841.23 C199 844 199 844 198 847 C198.66 847.33 199.32 847.66 200 848 C198.5 854.27 196.54 858.92 191.39 863.14 C187.19 865.44 184.2 865.63 179.5 865.56 C178.77 865.59 178.03 865.61 177.28 865.63 C173.22 865.62 170.69 865.16 167.47 862.59 C165 860 165 860 165 858 C164.34 858 163.68 858 163 858 C160.48 853.59 159.62 850.44 159.62 845.37 C159.62 844.73 159.62 844.08 159.61 843.42 C159.6 841.26 159.61 839.11 159.62 836.96 C159.62 835.39 159.61 833.83 159.61 832.27 C159.6 827.98 159.6 823.69 159.61 819.4 C159.62 814.77 159.61 810.14 159.6 805.52 C159.59 797.49 159.58 789.47 159.59 781.45 C159.6 769.83 159.58 758.2 159.57 746.58 C159.54 727.69 159.52 708.81 159.51 689.92 C159.51 688.79 159.51 687.66 159.51 686.49 C159.51 678.48 159.5 670.46 159.5 662.44 C159.5 653.3 159.49 644.17 159.49 635.04 C159.49 633.91 159.49 632.79 159.49 631.63 C159.48 612.83 159.46 594.03 159.43 575.23 C159.41 563.65 159.41 552.07 159.41 540.49 C159.42 532.54 159.41 524.59 159.4 516.64 C159.39 512.06 159.38 507.48 159.39 502.9 C159.44 479.18 158.22 457.01 152 434 C151.5 431.85 151 429.71 150.5 427.56 C149.41 423.19 147.95 419.25 146.02 415.18 C144.98 412.97 144.11 410.73 143.25 408.44 C134.52 386.51 121.29 367.5 106.88 348.97 C106.41 348.37 105.94 347.77 105.46 347.15 C104.21 345.55 102.95 343.96 101.7 342.37 C100 340 100 340 100 338 C99.34 338 98.68 338 98 338 C96.22 335.76 94.57 333.53 92.94 331.19 C92.48 330.54 92.02 329.9 91.54 329.24 C89.58 326.46 88.09 324.26 87 321 C86.34 321 85.68 321 85 321 C85 320.01 85 319.02 85 318 C84.34 318 83.68 318 83 318 C81.49 316.32 81.49 316.32 79.88 314.12 C79.34 313.41 78.8 312.69 78.24 311.95 C77 310 77 310 77 308 C76.34 308 75.68 308 75 308 C73.55 306.26 72.19 304.46 70.88 302.62 C70.15 301.63 69.43 300.63 68.68 299.6 C67 297 67 297 67 295 C66.34 295 65.68 295 65 295 C62 290.62 62 290.62 62 288 C61.34 288 60.68 288 60 288 C58.58 286.3 57.24 284.54 55.94 282.75 C55.13 281.64 54.32 280.54 53.5 279.43 C53.09 278.86 52.67 278.29 52.25 277.71 C50.31 275.06 48.34 272.44 46.38 269.81 C45.64 268.83 44.91 267.85 44.15 266.84 C41.57 263.43 38.91 260.07 36.21 256.74 C35 255 35 255 35 253 C34.34 253 33.68 253 33 253 C30 248.62 30 248.62 30 246 C29.34 246 28.68 246 28 246 C26.31 243.73 26.31 243.73 24.44 240.75 C23.82 239.78 23.2 238.8 22.56 237.8 C21.24 235.43 20.46 233.64 20 231 C19.34 231 18.68 231 18 231 C12.11 220.85 6.34 210.79 2.1 199.82 C1.28 197.71 0.43 195.62 -0.44 193.53 C-3.92 185.15 -6.64 176.77 -9 168 C-10.02 164.51 -11.04 161.03 -12.07 157.55 C-17.4 137.19 -18.47 116.31 -18.4 95.37 C-18.4 93.11 -18.4 90.85 -18.41 88.6 C-18.41 83.92 -18.41 79.24 -18.39 74.57 C-18.37 68.58 -18.38 62.6 -18.4 56.62 C-18.41 51.98 -18.41 47.34 -18.4 42.7 C-18.4 40.5 -18.4 38.29 -18.41 36.08 C-18.42 33.01 -18.4 29.94 -18.39 26.87 C-18.39 25.97 -18.4 25.07 -18.41 24.14 C-18.35 18.68 -17.5 14.88 -15 10 C-14.34 10 -13.68 10 -13 10 C-12.67 9.01 -12.34 8.02 -12 7 C-8.02 4.4 -4.78 2.58 0 2 C0 1.34 0 0.68 0 0 Z " fill="#000002" transform="translate(192,415)"/>
<path d="M0 0 C0 0.66 0 1.32 0 2 C0.66 2 1.32 2 2 2 C2.05 2.57 2.1 3.14 2.15 3.72 C2.5 7.39 2.91 10.72 4 14.25 C5.47 19.77 5.63 25.32 6 31 C6.16 32.9 6.32 34.79 6.5 36.69 C6.57 37.48 6.64 38.26 6.72 39.07 C6.91 41.08 6.91 41.08 8 43 C8.1 45.01 8.13 47.03 8.13 49.05 C8.13 50.29 8.14 51.52 8.14 52.8 C8.13 54.1 8.13 55.41 8.12 56.75 C8.13 58.01 8.13 59.26 8.14 60.56 C8.12 81.09 8.12 81.09 6 91 C5.84 92.6 5.69 94.21 5.56 95.81 C5.21 99.6 4.54 103.12 3.54 106.8 C2.64 110.48 2.13 114.23 1.56 117.97 C0.93 121.4 -0 124.66 -1 128 C-1.55 129.9 -1.55 129.9 -2.11 131.83 C-4.45 139.65 -7.06 146.8 -11 154 C-14.3 154 -17.6 154 -21 154 C-22.47 151.07 -22.13 148.47 -22.14 145.2 C-22.15 144.15 -22.15 144.15 -22.15 143.08 C-22.16 141.56 -22.17 140.04 -22.17 138.51 C-22.18 136.1 -22.19 133.69 -22.21 131.27 C-22.26 124.41 -22.31 117.55 -22.33 110.68 C-22.34 106.48 -22.37 102.29 -22.41 98.09 C-22.42 96.49 -22.42 94.9 -22.42 93.3 C-22.41 83.66 -22.65 76.52 -28.88 68.62 C-34.24 64.52 -40.2 64.71 -46.64 64.73 C-48.07 64.72 -48.07 64.72 -49.53 64.71 C-52.67 64.7 -55.82 64.7 -58.96 64.7 C-61.15 64.7 -63.34 64.69 -65.54 64.69 C-70.13 64.68 -74.72 64.68 -79.31 64.68 C-85.18 64.69 -91.06 64.67 -96.93 64.65 C-101.46 64.64 -105.98 64.63 -110.51 64.64 C-112.67 64.64 -114.84 64.63 -117 64.62 C-120.04 64.61 -123.07 64.62 -126.1 64.63 C-126.99 64.62 -127.87 64.61 -128.79 64.6 C-135.76 64.66 -141.35 65.81 -146.88 70.38 C-153.8 78.94 -152.13 91.58 -152.04 101.95 C-152.03 104.05 -152.02 106.15 -152.01 108.25 C-151.98 114.2 -151.95 120.16 -151.9 126.11 C-151.88 129.77 -151.86 133.44 -151.85 137.1 C-151.84 138.49 -151.83 139.88 -151.82 141.27 C-151.8 143.21 -151.79 145.14 -151.79 147.07 C-151.78 148.17 -151.77 149.27 -151.77 150.4 C-152 153 -152 153 -154 155 C-157.03 155.25 -157.03 155.25 -160.98 155.26 C-161.7 155.26 -162.42 155.26 -163.16 155.27 C-164.73 155.27 -166.29 155.28 -167.86 155.27 C-170.34 155.27 -172.82 155.29 -175.3 155.3 C-182.35 155.35 -189.41 155.37 -196.46 155.38 C-200.78 155.39 -205.09 155.41 -209.41 155.45 C-211.05 155.46 -212.69 155.46 -214.33 155.45 C-226.5 154.92 -226.5 154.92 -237 160 C-241.39 166.58 -242.73 172.49 -242.63 180.28 C-242.64 181.25 -242.65 182.23 -242.65 183.23 C-242.67 186.42 -242.65 189.6 -242.63 192.79 C-242.63 195.02 -242.63 197.25 -242.64 199.48 C-242.64 204.14 -242.62 208.81 -242.6 213.47 C-242.56 219.43 -242.57 225.39 -242.59 231.35 C-242.6 235.96 -242.59 240.56 -242.57 245.16 C-242.57 247.36 -242.57 249.56 -242.58 251.76 C-242.58 254.83 -242.56 257.9 -242.53 260.98 C-242.54 261.88 -242.55 262.78 -242.55 263.71 C-242.45 270.45 -240.97 275.87 -236.24 280.85 C-228.64 285.22 -220.49 284.69 -212 284.64 C-210.36 284.64 -208.72 284.66 -207.08 284.67 C-202.78 284.7 -198.49 284.7 -194.2 284.69 C-187.3 284.68 -180.4 284.71 -173.5 284.75 C-171.09 284.76 -168.69 284.76 -166.28 284.75 C-164.81 284.75 -163.34 284.76 -161.88 284.76 C-159.95 284.76 -159.95 284.76 -157.99 284.76 C-155 285 -155 285 -153 287 C-152.8 289.16 -152.8 289.16 -152.88 291.62 C-152.89 292.44 -152.91 293.26 -152.93 294.1 C-152.95 294.73 -152.98 295.35 -153 296 C-162.17 301.65 -172.02 304.89 -182.56 306.88 C-186.07 307.56 -189.45 308.41 -192.88 309.44 C-198.27 310.95 -203.71 311.85 -209.25 312.69 C-210.53 312.88 -210.53 312.88 -211.83 313.09 C-216.61 313.78 -221.16 314.03 -226 314 C-226.91 314.16 -227.83 314.32 -228.77 314.49 C-232.2 315.03 -235.44 315.13 -238.91 315.13 C-239.56 315.13 -240.21 315.13 -240.88 315.14 C-242.25 315.14 -243.61 315.13 -244.98 315.13 C-247.03 315.13 -249.08 315.13 -251.13 315.14 C-269.49 315.15 -287.03 312.46 -305 309 C-305 308.34 -305 307.68 -305 307 C-305.66 307 -306.32 307 -307 307 C-312.99 290.18 -318.04 273.63 -321 256 C-321.13 255.27 -321.26 254.53 -321.39 253.78 C-325.43 230.08 -324.39 203.54 -320 180 C-319.83 179.06 -319.66 178.13 -319.48 177.16 C-315.89 158.13 -310.8 139.32 -302 122 C-301.37 120.72 -300.75 119.44 -300.13 118.15 C-281.1 79.11 -253.55 47.94 -217.86 23.29 C-216.35 22.24 -214.84 21.18 -213.33 20.11 C-208.51 16.76 -203.48 14.11 -198.19 11.55 C-196.1 10.54 -194.04 9.48 -192 8.38 C-167.42 -4.69 -139.52 -11.75 -112 -15 C-110.87 -15.14 -110.87 -15.14 -109.72 -15.29 C-72.21 -19.59 -35.24 -12.56 0 0 Z " fill="#8AB7FC" transform="translate(918,786)"/>
<path d="M0 0 C14.27 11.32 21.53 25.25 26.48 42.48 C28.37 48.99 30.24 53.67 34.47 58.96 C34.47 59.62 34.47 60.28 34.47 60.96 C35.32 61.37 35.32 61.37 36.19 61.78 C38.57 63.01 40.77 64.4 43.02 65.84 C48.37 69.08 53.78 70.97 59.72 72.84 C77.16 78.66 90.52 87.34 102.35 101.46 C105.96 105.71 109.38 108.54 115.03 109.31 C116.76 109.45 118.5 109.54 120.24 109.59 C123.03 110.05 123.77 110.72 125.47 112.96 C132.08 125.08 134.69 139.8 135.3 153.46 C135.38 156.09 135.38 156.09 136.47 158.96 C135.59 159.31 135.59 159.31 134.68 159.66 C128.99 162.01 124.36 164.14 121.5 169.94 C120.16 173.19 118.99 176.49 117.83 179.81 C112.15 196.01 103.73 207.35 91.91 219.62 C83.86 228.19 79.29 237.33 79.54 249.31 C79.83 253.35 80.11 257.33 81 261.29 C83.73 276.61 81.18 291.53 72.41 304.44 C64.96 314.13 64.96 314.13 59.47 315.96 C59.47 315.3 59.47 314.64 59.47 313.96 C58.81 313.96 58.15 313.96 57.47 313.96 C57.31 313.38 57.14 312.8 56.97 312.2 C49.54 286.24 39.73 261.39 24.47 238.96 C24.06 238.35 23.64 237.73 23.22 237.1 C18.41 229.96 13.57 222.88 8.2 216.15 C6.14 213.54 4.15 210.88 2.16 208.21 C-1.36 203.5 -4.92 198.83 -8.51 194.17 C-12.03 189.61 -15.53 185.04 -19.03 180.46 C-22.92 175.37 -26.81 170.29 -30.71 165.21 C-31.52 164.17 -32.32 163.13 -33.14 162.06 C-34.74 159.98 -36.34 157.91 -37.95 155.83 C-43.04 149.23 -48.07 142.58 -53.07 135.9 C-56.19 131.73 -59.34 127.59 -62.53 123.46 C-63.33 122.42 -64.13 121.37 -64.96 120.29 C-66.29 118.56 -67.63 116.83 -68.98 115.1 C-76.48 105.51 -82.98 95.81 -88.53 84.96 C-88.91 84.21 -89.29 83.47 -89.69 82.7 C-105.68 51.14 -105.68 51.14 -102.55 38.96 C-102.22 37.97 -101.88 36.98 -101.53 35.96 C-101.12 34.74 -100.7 33.51 -100.28 32.25 C-94.48 16.04 -84 2.86 -68.53 -5.04 C-67.8 -5.42 -67.07 -5.79 -66.32 -6.18 C-44.83 -16.52 -19.17 -14.04 0 0 Z " fill="#F97D7A" transform="translate(324.52734375,529.0390625)"/>
<path d="M0 0 C1.02 0 2.04 0 3.09 0 C4.19 0.01 5.29 0.01 6.43 0.02 C7.55 0.02 8.68 0.02 9.84 0.02 C13.45 0.03 17.06 0.04 20.67 0.05 C23.11 0.06 25.55 0.06 28 0.06 C33.99 0.08 39.98 0.09 45.98 0.11 C45.98 0.77 45.98 1.43 45.98 2.11 C46.64 2.11 47.3 2.11 47.98 2.11 C47.98 3.05 47.99 3.99 48 4.96 C48.05 13.82 48.13 22.67 48.21 31.53 C48.26 36.08 48.3 40.64 48.32 45.19 C48.35 49.59 48.39 53.98 48.44 58.38 C48.46 60.05 48.47 61.73 48.48 63.4 C48.49 65.76 48.51 68.11 48.55 70.46 C48.54 71.14 48.54 71.83 48.54 72.54 C48.63 77.1 49.63 80.22 51.98 84.11 C53.62 85.79 53.62 85.79 55.48 86.93 C56.07 87.32 56.65 87.72 57.26 88.13 C61.18 90.37 64.66 90.26 69.08 90.3 C69.8 90.31 70.52 90.32 71.26 90.33 C72.82 90.35 74.38 90.36 75.94 90.37 C78.4 90.39 80.87 90.42 83.34 90.45 C89.46 90.52 95.59 90.58 101.71 90.64 C106.89 90.69 112.07 90.75 117.24 90.81 C119.68 90.83 122.11 90.85 124.55 90.87 C126.03 90.89 127.52 90.91 129.01 90.92 C130.31 90.94 131.61 90.95 132.95 90.96 C135.98 91.11 135.98 91.11 137.98 92.11 C137.98 110.26 137.98 128.41 137.98 147.11 C129.89 147.15 129.89 147.15 121.63 147.19 C118.21 147.22 114.78 147.24 111.35 147.27 C105.92 147.32 100.49 147.37 95.05 147.38 C90.67 147.4 86.29 147.43 81.9 147.48 C80.23 147.5 78.57 147.5 76.9 147.51 C64.81 147.32 64.81 147.32 53.98 152.11 C49.72 157.47 48.83 161.67 48.79 168.32 C48.78 169.05 48.77 169.78 48.76 170.54 C48.75 172.12 48.73 173.71 48.72 175.29 C48.7 177.79 48.67 180.3 48.64 182.8 C48.57 189.02 48.51 195.24 48.45 201.45 C48.4 206.71 48.35 211.97 48.29 217.22 C48.26 219.7 48.24 222.17 48.22 224.64 C48.2 226.15 48.18 227.66 48.17 229.16 C48.16 230.2 48.16 230.2 48.15 231.26 C48.09 236 48.09 236 46.98 237.11 C45.29 237.21 43.6 237.23 41.91 237.23 C40.83 237.23 39.75 237.23 38.63 237.23 C36.87 237.22 36.87 237.22 35.07 237.21 C33.87 237.21 32.67 237.21 31.44 237.21 C27.6 237.2 23.76 237.19 19.92 237.18 C17.32 237.17 14.72 237.17 12.12 237.16 C5.74 237.15 -0.64 237.13 -7.02 237.11 C-8.48 234.19 -8.15 231.61 -8.15 228.34 C-8.15 227.65 -8.15 226.95 -8.15 226.23 C-8.16 224.72 -8.16 223.2 -8.16 221.69 C-8.16 218.46 -8.19 215.23 -8.21 211.99 C-8.24 205.98 -8.27 199.96 -8.27 193.95 C-8.27 189.76 -8.3 185.58 -8.33 181.39 C-8.34 179.81 -8.35 178.22 -8.34 176.63 C-8.3 167.75 -8.32 159.48 -14.02 152.11 C-18.84 147.86 -23.06 147.99 -29.33 147.94 C-30.06 147.93 -30.79 147.93 -31.54 147.92 C-33.12 147.91 -34.7 147.89 -36.27 147.88 C-38.77 147.87 -41.27 147.84 -43.76 147.82 C-50.86 147.75 -57.95 147.69 -65.05 147.64 C-69.39 147.6 -73.73 147.56 -78.07 147.52 C-79.73 147.5 -81.39 147.49 -83.04 147.48 C-85.35 147.47 -87.66 147.44 -89.97 147.42 C-91.29 147.41 -92.61 147.4 -93.96 147.39 C-97.02 147.11 -97.02 147.11 -99.02 145.11 C-99.27 142.91 -99.27 142.91 -99.27 140.14 C-99.27 139.11 -99.27 138.08 -99.27 137.01 C-99.27 135.89 -99.26 134.77 -99.25 133.61 C-99.25 132.47 -99.25 131.32 -99.25 130.14 C-99.25 127.71 -99.24 125.28 -99.23 122.86 C-99.21 119.13 -99.21 115.4 -99.21 111.68 C-99.2 109.32 -99.2 106.97 -99.19 104.61 C-99.19 103.49 -99.19 102.37 -99.19 101.22 C-99.18 100.18 -99.17 99.15 -99.17 98.08 C-99.16 97.17 -99.16 96.26 -99.16 95.31 C-99.02 93.11 -99.02 93.11 -98.02 91.11 C-97.08 91.11 -96.14 91.1 -95.17 91.09 C-86.3 91.01 -77.43 90.92 -68.55 90.83 C-63.99 90.78 -59.43 90.73 -54.87 90.69 C-50.47 90.65 -46.06 90.61 -41.66 90.56 C-39.98 90.54 -38.3 90.52 -36.63 90.51 C-34.27 90.49 -31.92 90.46 -29.57 90.43 C-28.53 90.43 -28.53 90.43 -27.47 90.43 C-21.86 90.33 -18.46 89.45 -14.33 85.61 C-13.57 84.79 -12.81 83.96 -12.02 83.11 C-11.36 82.45 -10.7 81.79 -10.02 81.11 C-8.67 77.43 -8.85 73.56 -8.82 69.68 C-8.81 68.94 -8.8 68.2 -8.79 67.43 C-8.76 64.99 -8.73 62.54 -8.71 60.1 C-8.69 58.4 -8.66 56.7 -8.64 55 C-8.59 50.54 -8.54 46.07 -8.49 41.61 C-8.44 37.05 -8.38 32.49 -8.33 27.93 C-8.22 18.99 -8.12 10.05 -8.02 1.11 C-5.04 0.12 -3.11 -0.01 0 0 Z " fill="#EDF3F3" transform="translate(811.022216796875,886.886474609375)"/>
<path d="M0 0 C1.75 0.56 1.75 0.56 3.53 1.13 C10.9 3.73 16.93 7.11 23 12 C24.25 12.99 24.25 12.99 25.52 13.99 C40.98 26.98 52.35 48.16 54.22 68.36 C55.06 81.6 53.89 93.44 44.97 103.91 C31.69 117.98 14.89 124.8 -4 128 C-4.64 128.11 -5.29 128.22 -5.95 128.33 C-36.58 133.33 -66.58 126.51 -92.36 109.44 C-99.65 103.76 -103.84 94.81 -106 86 C-106.42 82.61 -106.48 79.29 -106.44 75.88 C-106.43 74.96 -106.42 74.04 -106.42 73.1 C-106.23 64.91 -104.76 57.75 -102 50 C-101.63 48.94 -101.25 47.89 -100.87 46.8 C-93 26.45 -77.85 10.96 -58.06 2.06 C-39.18 -5.88 -19.35 -6.22 0 0 Z " fill="#000002" transform="translate(508,314)"/>
<path d="M0 0 C2.48 2.48 2.24 3.93 2.28 7.32 C2.28 8.06 2.27 8.8 2.27 9.57 C2.28 10.35 2.28 11.13 2.29 11.93 C2.3 13.63 2.3 15.33 2.3 17.03 C2.31 19.72 2.33 22.41 2.35 25.1 C2.4 32.75 2.43 40.4 2.46 48.05 C2.47 52.73 2.5 57.4 2.54 62.08 C2.55 63.86 2.56 65.64 2.56 67.43 C2.56 69.92 2.58 72.42 2.6 74.92 C2.59 75.65 2.59 76.38 2.59 77.14 C2.66 82.48 3.82 86.62 7.47 90.61 C11.81 93.72 15.68 94.82 20.96 95.54 C21.63 95.69 22.31 95.84 23 96 C24.21 98.42 24.12 99.93 24.11 102.63 C24.11 104.07 24.11 104.07 24.11 105.54 C24.11 106.58 24.1 107.62 24.1 108.7 C24.1 109.76 24.09 110.82 24.09 111.92 C24.09 115.32 24.08 118.72 24.06 122.12 C24.06 124.43 24.05 126.73 24.05 129.04 C24.04 134.69 24.02 140.35 24 146 C23.18 146.18 22.36 146.37 21.52 146.56 C20.44 146.81 19.37 147.06 18.26 147.32 C17.19 147.57 16.13 147.81 15.03 148.06 C10.04 149.61 6.4 152.36 3.94 156.99 C2.6 161.29 2.64 165.41 2.59 169.89 C2.57 170.84 2.55 171.79 2.53 172.77 C2.47 175.78 2.42 178.8 2.38 181.81 C2.34 183.86 2.3 185.91 2.26 187.96 C2.16 192.97 2.08 197.99 2 203 C0.25 203.82 -1.5 204.63 -3.25 205.44 C-4.22 205.89 -5.2 206.34 -6.2 206.81 C-15.79 210.89 -30.12 210.66 -39.82 207.03 C-51.74 201.4 -62.86 193.24 -67.93 180.71 C-72.73 167.09 -71.75 153.76 -66.21 140.52 C-64.51 136.99 -62.49 133.71 -60.37 130.42 C-56.18 123 -56.18 115.32 -57 107 C-58.24 102.76 -60.04 98.95 -62 95 C-71.04 75.3 -71.57 58.94 -64.9 38.66 C-59.81 25.26 -48.71 12.4 -35.54 6.43 C-23.66 1.42 -12.98 -1.09 0 0 Z " fill="#FA6366" transform="translate(900,372)"/>
<path d="M0 0 C6.62 5.59 11.57 11.86 15.71 19.49 C16.18 20.33 16.65 21.18 17.13 22.05 C23.84 34.72 27.05 49.5 24.02 63.7 C20.06 75.46 11.9 83.95 1.02 89.68 C-21.63 100.35 -47.97 101.52 -71.89 94.42 C-84.09 90.02 -97.88 83.46 -104.17 71.55 C-110.31 57.83 -109.08 43.44 -104.23 29.4 C-103.04 26.67 -101.74 24.09 -100.29 21.49 C-99.79 20.58 -99.28 19.66 -98.77 18.72 C-88.31 1.11 -73.01 -7.64 -53.79 -12.89 C-35.31 -16.25 -14.78 -11.71 0 0 Z " fill="#000002" transform="translate(751.29296875,610.51171875)"/>
<path d="M0 0 C12.8 10.82 22.16 28.2 24.02 44.83 C24.81 57.21 23.36 66.9 15.89 77.02 C4.69 89.67 -12.01 95.06 -28.25 97.44 C-53.37 98.78 -75.36 96.63 -96.25 81.44 C-104.48 73.94 -108.24 65.39 -109.48 54.43 C-110.2 37.25 -103.45 20.55 -92.39 7.62 C-88.65 3.81 -84.55 0.58 -80.25 -2.56 C-78.86 -3.65 -78.86 -3.65 -77.44 -4.75 C-52.34 -19.02 -23.1 -16.87 0 0 Z " fill="#000002" transform="translate(533.25,1114.5625)"/>
<path d="M0 0 C12.83 -0.46 25.39 3.85 35.06 12.19 C46.81 23.22 55.78 37.14 56.39 53.64 C56.41 55.66 56.41 57.68 56.4 59.69 C56.41 61.36 56.41 61.36 56.42 63.06 C56.44 66.7 56.44 70.34 56.44 73.98 C56.45 76.53 56.47 79.08 56.48 81.62 C56.52 88.98 56.54 96.34 56.56 103.7 C56.58 113.72 56.62 123.74 56.67 133.76 C56.69 137.49 56.69 141.22 56.7 144.96 C56.71 147.24 56.72 149.53 56.73 151.82 C56.72 153.37 56.72 153.37 56.72 154.95 C56.76 160.39 57.29 164.84 59 170 C59.12 172.94 59.12 172.94 59 175 C57.44 175.82 55.88 176.63 54.31 177.44 C53.44 177.89 52.57 178.34 51.68 178.81 C43.67 182.37 34.67 181.79 26.51 179.03 C15.99 174.7 8 168.1 3.32 157.58 C0.55 150.64 0.23 144.32 0.2 136.91 C0.18 135.46 0.16 134.01 0.13 132.57 C0.07 128.35 0.04 124.13 0.02 119.92 C-0 116.8 -0.03 113.69 -0.05 110.58 C-0.18 95.81 -0.23 81.04 -0.24 66.27 C-0.25 59.71 -0.27 53.16 -0.3 46.6 C-0.32 41.52 -0.32 36.44 -0.32 31.36 C-0.33 28.94 -0.33 26.52 -0.35 24.1 C-0.36 20.75 -0.36 17.41 -0.36 14.06 C-0.37 13.06 -0.37 12.07 -0.38 11.04 C-0.38 10.14 -0.37 9.23 -0.37 8.3 C-0.37 7.51 -0.37 6.73 -0.37 5.92 C-0.25 5.28 -0.13 4.65 0 4 C0.99 3.34 1.98 2.68 3 2 C2.01 1.34 1.02 0.68 0 0 Z " fill="#F9C8B5" transform="translate(393,37)"/>
<path d="M0 0 C13.32 -0.8 26.99 2.73 37.18 11.67 C47.88 21.68 57.42 34.96 58.09 50.12 C58.13 52.8 58.14 55.48 58.14 58.16 C58.15 59.18 58.15 60.2 58.15 61.25 C58.16 63.46 58.17 65.67 58.17 67.88 C58.18 71.39 58.19 74.9 58.21 78.4 C58.26 88.37 58.31 98.34 58.33 108.31 C58.34 114.41 58.37 120.51 58.41 126.61 C58.42 128.93 58.42 131.25 58.42 133.57 C58.42 136.82 58.44 140.07 58.47 143.33 C58.46 144.28 58.46 145.23 58.45 146.21 C58.53 151.91 59.51 156.04 62.14 161.11 C63 163 63 163 63 166 C61.27 166.82 59.54 167.63 57.81 168.44 C56.85 168.89 55.89 169.34 54.89 169.81 C45.71 173.59 35.67 173 26.6 169.25 C15.33 163.81 8.21 155.83 4 144 C3.01 140.73 2.86 137.74 2.84 134.33 C2.82 133.18 2.81 132.02 2.8 130.83 C2.79 128.94 2.79 128.94 2.78 127 C2.77 125.65 2.76 124.31 2.74 122.96 C2.71 119.31 2.69 115.65 2.66 112 C2.64 108.95 2.62 105.9 2.6 102.85 C2.54 95.66 2.49 88.47 2.44 81.28 C2.39 73.85 2.34 66.42 2.28 59 C2.23 52.63 2.18 46.26 2.13 39.88 C2.11 36.08 2.08 32.27 2.05 28.46 C2.02 24.88 2 21.31 1.98 17.73 C1.96 15.79 1.95 13.84 1.93 11.9 C1.92 10.75 1.92 9.6 1.91 8.41 C1.9 7.41 1.9 6.41 1.89 5.37 C2 3 2 3 3 1 C2.01 0.67 1.02 0.34 0 0 Z " fill="#F9C8B5" transform="translate(542,78)"/>
<path d="M0 0 C11.17 -1.21 23.95 2.46 32.93 9.24 C33.95 10.11 33.95 10.11 35 11 C35.81 11.67 36.61 12.35 37.45 13.04 C42.6 17.75 46.46 22.82 49.94 28.81 C50.3 29.43 50.67 30.04 51.04 30.68 C57.9 43.19 57.43 56.91 57.41 70.76 C57.41 74.24 57.42 77.71 57.44 81.19 C57.48 89.82 57.49 98.44 57.51 107.07 C57.52 114.39 57.54 121.7 57.58 129.02 C57.59 132.43 57.59 135.85 57.58 139.27 C57.59 141.37 57.6 143.47 57.62 145.57 C57.61 146.51 57.6 147.45 57.6 148.42 C57.65 154.32 58.73 158.56 61 164 C61 164.99 61 165.98 61 167 C59.75 167.65 58.5 168.3 57.25 168.94 C56.55 169.3 55.86 169.66 55.14 170.03 C47.13 173.67 34.81 173.49 26.56 170.5 C16.01 165.35 8.1 157.27 3.95 146.21 C1.18 136.88 1.86 126.46 1.92 116.81 C1.92 115.56 1.92 114.31 1.93 113.03 C1.93 110.34 1.94 107.66 1.96 104.98 C1.97 100.74 1.98 96.5 1.99 92.26 C2.02 80.22 2.05 68.17 2.1 56.12 C2.12 49.45 2.14 42.77 2.15 36.1 C2.15 31.88 2.17 27.66 2.19 23.45 C2.21 20.22 2.21 17 2.21 13.77 C2.22 12.6 2.23 11.43 2.24 10.23 C2.24 9.17 2.24 8.11 2.23 7.01 C2.24 6.09 2.24 5.16 2.24 4.21 C2.21 1.79 2.21 1.79 0 0 Z " fill="#F9C8B5" transform="translate(694,119)"/>
<path d="M0 0 C10.22 -0.91 21.74 2.06 30 8.31 C31.36 9.51 32.69 10.74 34 12 C35.02 12.91 35.02 12.91 36.07 13.84 C46.96 23.96 54.19 37.8 55.18 52.69 C55.24 55.6 55.25 58.51 55.23 61.42 C55.23 62.51 55.23 63.6 55.23 64.73 C55.23 68.31 55.21 71.89 55.2 75.48 C55.19 77.97 55.19 80.47 55.19 82.97 C55.18 89.51 55.16 96.06 55.14 102.61 C55.12 109.3 55.11 115.99 55.1 122.68 C55.08 135.78 55.04 148.89 55 162 C54.32 162.05 53.63 162.1 52.93 162.15 C49.79 162.39 46.66 162.64 43.52 162.88 C42.44 162.96 41.37 163.04 40.26 163.12 C28.62 164.05 18.13 166.93 7.27 171.27 C5 172 5 172 1 172 C0.98 149.98 0.96 127.96 0.95 105.95 C0.94 95.72 0.94 85.5 0.92 75.28 C0.91 66.37 0.91 57.47 0.91 48.56 C0.9 43.84 0.9 39.12 0.89 34.4 C0.89 29.97 0.89 25.53 0.89 21.09 C0.89 19.46 0.88 17.83 0.88 16.2 C0.88 13.98 0.88 11.76 0.88 9.54 C0.88 8.29 0.88 7.05 0.88 5.76 C1 3 1 3 2 2 C1.34 1.34 0.68 0.68 0 0 Z " fill="#F9C8B5" transform="translate(847,172)"/>
<path d="M0 0 C1.11 0.41 2.22 0.82 3.37 1.24 C4.87 1.79 6.37 2.33 7.88 2.88 C8.6 3.14 9.33 3.41 10.08 3.69 C19.64 7.13 28.54 8.31 38.69 8.19 C39.68 8.19 40.67 8.19 41.7 8.19 C45.88 8.16 49.95 8.09 54.08 7.43 C57 7 57 7 59 8 C56.06 34.41 46.04 59.07 35 83 C34.52 84.04 34.52 84.04 34.03 85.1 C31.36 90.92 28.67 96.74 25.75 102.44 C24.5 104.98 23.5 107.3 22.56 109.94 C21.45 113.06 20.04 115.87 18.4 118.75 C17.73 119.95 17.73 119.95 17.04 121.17 C16.7 121.78 16.35 122.38 16 123 C15.22 122.99 14.44 122.98 13.63 122.97 C-6.02 122.74 -25.41 123.41 -45 125 C-46.45 120.66 -44.43 117.88 -42.58 113.94 C-42.22 113.14 -41.85 112.34 -41.48 111.52 C-40.33 109.01 -39.16 106.5 -38 104 C-37.31 102.49 -36.61 100.97 -35.92 99.46 C-34.21 95.72 -32.48 91.99 -30.76 88.26 C-27.82 81.9 -24.9 75.53 -21.99 69.16 C-21.36 67.79 -20.73 66.41 -20.1 65.04 C-11.47 46.2 -4.11 27.47 0.27 7.18 C1 4 1 4 2 2 C1.34 2 0.68 2 0 2 C0 1.34 0 0.68 0 0 Z " fill="#F8C8B5" transform="translate(839,610)"/>
<path d="M0 0 C0.01 1.19 0.01 2.38 0.02 3.61 C0.08 14.86 0.15 26.12 0.24 37.37 C0.28 43.16 0.32 48.94 0.35 54.73 C0.37 60.32 0.41 65.91 0.46 71.49 C0.48 73.62 0.49 75.75 0.5 77.87 C0.35 93.21 0.35 93.21 4 108 C3.26 108.37 2.52 108.75 1.76 109.13 C0.91 109.56 0.06 109.99 -0.81 110.44 C-9.62 114.9 -20.32 115.69 -29.98 113.25 C-32.12 112.31 -34.03 111.27 -36 110 C-37.01 109.42 -38.02 108.85 -39.06 108.25 C-47.87 101.5 -53.61 94.04 -56 83 C-56.1 81.63 -56.15 80.26 -56.17 78.89 C-56.19 78.1 -56.2 77.3 -56.21 76.48 C-56.22 75.62 -56.24 74.77 -56.25 73.89 C-56.28 72.06 -56.31 70.24 -56.35 68.42 C-56.39 65.55 -56.44 62.69 -56.48 59.83 C-56.52 57.05 -56.57 54.28 -56.62 51.51 C-56.63 50.24 -56.63 50.24 -56.65 48.94 C-56.75 43.92 -57.4 39.76 -59 35 C-59.5 33.51 -59.5 33.51 -60 32 C-53.48 25.1 -46.89 19.31 -39 14 C-38.3 13.53 -37.6 13.06 -36.88 12.57 C-34.95 11.32 -32.99 10.15 -31 9 C-30.3 8.59 -29.6 8.18 -28.88 7.76 C-23.5 4.84 -17.97 2.89 -12.12 1.12 C-11.02 0.78 -11.02 0.78 -9.89 0.44 C-6.17 -0.64 -3.69 -1.15 0 0 Z " fill="#F9C8B5" transform="translate(297,178)"/>
<path d="M0 0 C9.09 7.74 17.07 17.25 18.37 29.51 C18.39 30.7 18.41 31.9 18.44 33.12 C18.5 34.92 18.5 34.92 18.56 36.76 C18 40 18 40 15.69 42.3 C14.8 42.86 13.92 43.42 13 44 C12.41 44.38 11.82 44.77 11.22 45.16 C-7.55 55.02 -31.41 53.63 -51.27 48.09 C-56.9 46.19 -64.19 43.63 -67 38 C-67.26 26.75 -64.06 17.13 -56.69 8.62 C-41.88 -6.6 -18.78 -13.24 0 0 Z " fill="#FA7E7B" transform="translate(506,354)"/>
<path d="M0 0 C3 2 3 2 3.68 4.7 C4.01 8.08 4.13 11.37 4.13 14.76 C4.13 15.41 4.13 16.06 4.13 16.73 C4.14 18.86 4.14 20.98 4.13 23.11 C4.13 24.6 4.13 26.09 4.14 27.59 C4.14 30.71 4.14 33.83 4.13 36.96 C4.12 40.93 4.13 44.91 4.13 48.89 C4.14 51.97 4.14 55.05 4.13 58.14 C4.13 59.6 4.13 61.07 4.14 62.53 C4.15 69.71 4.11 76.82 3.17 83.95 C2.99 86.15 3.18 88.07 3.5 90.25 C3.99 93.92 3.6 96.39 3 100 C3.15 101.11 3.3 102.21 3.46 103.35 C4.27 109.35 4.14 115.36 4.13 121.41 C4.13 123.33 4.13 123.33 4.14 125.28 C4.14 127.98 4.14 130.68 4.13 133.37 C4.12 136.81 4.13 140.24 4.13 143.68 C4.14 146.98 4.14 150.29 4.13 153.59 C4.13 154.82 4.14 156.04 4.14 157.3 C4.12 163.3 3.92 169.07 3 175 C-6.47 169.69 -11.09 161.21 -14 151 C-17.21 137.9 -14.12 123.88 -7.48 112.36 C-6.46 110.7 -5.42 109.05 -4.37 107.42 C-0.18 100 -0.18 92.32 -1 84 C-2.24 79.76 -4.04 75.95 -6 72 C-14.99 52.43 -15.83 35.69 -8.8 15.55 C-6.5 9.76 -3.88 4.88 0 0 Z " fill="#FA7D7A" transform="translate(844,395)"/>
<path d="M0 0 C5.67 4.39 8.93 10.5 12.09 16.82 C12.33 18.88 12.33 18.88 12.41 21.25 C12.46 22.43 12.46 22.43 12.52 23.62 C12.09 25.82 12.09 25.82 10.41 27.5 C-3.54 35.44 -22 33.84 -36.91 29.82 C-39.96 28.39 -42.22 26.89 -44.91 24.82 C-44.45 15.02 -41.42 8.35 -34.24 1.58 C-24.27 -5.97 -10.6 -6.58 0 0 Z " fill="#FA7E7B" transform="translate(506.90625,1142.18359375)"/>
<path d="M0 0 C7.05 5.13 12.96 12.01 14.48 20.73 C14.74 22.66 14.93 24.59 15.1 26.53 C2.6 34.77 -13.94 35.64 -28.38 32.73 C-39.48 30.08 -39.48 30.08 -42.9 26.53 C-43.79 20.25 -41.55 13.6 -37.9 8.53 C-28.34 -2.06 -13.37 -7.02 0 0 Z " fill="#FA7E7B" transform="translate(723.90234375,637.47265625)"/>
<path d="M0 0 C5.69 0.39 9.29 1.94 13.38 5.94 C16.96 10.74 18.62 15.25 18.62 21.25 C17.64 26.56 15.09 31.02 11.09 34.64 C6.27 37.87 1.26 37.99 -4.38 37.25 C-9.72 35.56 -13.5 33.22 -17.38 29.25 C-19.91 23.62 -19.72 18.18 -18.38 12.25 C-15.71 7.01 -11.65 2.34 -5.94 0.44 C-3.96 0.29 -1.98 0.15 0 0 Z " fill="#000002" transform="translate(335.375,405.75)"/>
<path d="M0 0 C4.87 3.7 8.49 8.53 9.39 14.65 C9.64 20.99 8.83 24.92 5 30 C0.94 33.85 -2.66 35.68 -8.19 36.44 C-14.42 35.72 -19.57 32.88 -24.5 29.06 C-27.9 24.38 -28.49 19.67 -28 14 C-26.65 8.49 -24.64 4.45 -20 1 C-13.22 -2.21 -7.04 -2.75 0 0 Z " fill="#000002" transform="translate(594,566)"/>
<path d="M0 0 C5.21 6.3 7.62 11.74 7 20 C5.54 25.56 1.97 29.62 -2.69 32.88 C-8.44 34.83 -13.24 35.02 -18.98 32.9 C-23.44 30.69 -26.38 28.91 -29.19 24.75 C-30.74 17.58 -31.06 11.29 -27.34 4.76 C-20.72 -3.93 -9.2 -5.62 0 0 Z " fill="#000002" transform="translate(529,526)"/>
<path d="M0 0 C3.9 3.45 7.84 8.99 8.46 14.26 C8.71 21.14 7.95 25.79 3.19 30.94 C-1.27 35.03 -6.11 35.62 -12.03 35.39 C-17.92 34.43 -22.24 31.58 -26.31 27.31 C-29.25 22.66 -29.3 18.28 -28.81 12.94 C-26.75 6.43 -23.44 2.69 -17.81 -1.06 C-12.14 -2.95 -5.5 -2.08 0 0 Z " fill="#000002" transform="translate(680.8125,308.0625)"/>
<path d="M0 0 C4.42 3.4 7.21 8.11 9.69 13.06 C10.28 18.78 9.92 23.16 6.69 28.06 C2.41 33.18 -2.03 35.57 -8.62 36.56 C-14.99 35.7 -20.39 33.03 -24.88 28.44 C-28.03 23.23 -27.76 17.97 -27.31 12.06 C-25.56 6.61 -21.92 3.28 -17.31 0.06 C-11.71 -1.8 -5.65 -1.6 0 0 Z " fill="#000002" transform="translate(532.3125,829.9375)"/>
<path d="M0 0 C5.32 6.08 8.12 11.63 7.66 19.86 C6.68 25.36 4.46 28.84 -0.05 32.14 C-4.88 34.88 -9.04 36.31 -14.57 35.28 C-19.95 33.41 -24.42 30.37 -27.81 25.81 C-30.23 20.22 -30.57 15.28 -28.75 9.44 C-26.36 3.65 -22.13 0.5 -16.5 -1.94 C-10.67 -2.83 -5.29 -2.82 0 0 Z " fill="#000002" transform="translate(607.8125,488.5)"/>
<path d="M0 0 C5.1 5.79 6.96 11.5 6.51 19.16 C5.56 24.45 3.48 28.06 -0.76 31.38 C-5.88 34.36 -11.2 35.16 -17 34 C-22.85 31.5 -27.15 28.82 -30 23 C-31.42 17.5 -31.52 12.13 -29.22 6.89 C-26.59 2.81 -22.67 -1.09 -18.02 -2.68 C-11.55 -3.72 -5.64 -3.62 0 0 Z " fill="#000002" transform="translate(729,361)"/>
<path d="M0 0 C5.26 3.27 8.37 8.22 10.31 14.06 C10.85 20.42 9.95 24.76 6.31 30.06 C0.97 35.14 -3.52 36.63 -10.79 36.52 C-16.76 35.58 -21.75 31.53 -25.69 27.06 C-27.68 21.08 -27.69 14.39 -25 8.62 C-19.43 -0.96 -10.05 -2.56 0 0 Z " fill="#000002" transform="translate(290.6875,347.9375)"/>
<path d="M0 0 C4.41 3.91 7.25 7.42 8.23 13.34 C8.51 19.34 7.91 23.93 4.3 28.82 C0.24 33.07 -4.43 35.07 -10.27 35.54 C-15.89 35.25 -20.93 31.78 -25.25 28.44 C-28.75 23.48 -29.65 19.48 -29.25 13.44 C-28.06 7.78 -25.72 4.15 -21.13 0.63 C-14.38 -3.64 -7 -3.37 0 0 Z " fill="#000002" transform="translate(501.25,896.5625)"/>
<path d="M0 0 C0.52 0.28 1.04 0.55 1.57 0.84 C5.36 2.81 8.71 4.46 13 5 C13 5.33 13 5.66 13 6 C-99.86 6 -212.72 6 -329 6 C-329.33 5.34 -329.66 4.68 -330 4 C-329.37 4 -328.74 4 -328.09 3.99 C-290.58 3.89 -253.08 3.78 -215.58 3.67 C-211.06 3.66 -206.54 3.64 -202.03 3.63 C-200.68 3.62 -200.68 3.62 -199.3 3.62 C-184.8 3.58 -170.3 3.53 -155.8 3.5 C-140.88 3.45 -125.97 3.41 -111.06 3.36 C-101.88 3.33 -92.7 3.31 -83.52 3.28 C-77.2 3.27 -70.88 3.25 -64.56 3.23 C-60.92 3.21 -57.29 3.2 -53.66 3.2 C-35.75 3.16 -17.89 2.8 0 2 C0 1.34 0 0.68 0 0 Z " fill="#ECF3F3" transform="translate(721,1256)"/>
<path d="M0 0 C0.6 0.27 1.2 0.54 1.81 0.81 C2.14 1.8 2.47 2.79 2.81 3.81 C-91.9 3.81 -186.61 3.81 -284.19 3.81 C-284.19 3.48 -284.19 3.15 -284.19 2.81 C-283.6 2.81 -283.01 2.81 -282.41 2.81 C-247.65 2.73 -212.9 2.64 -178.15 2.53 C-173.97 2.52 -169.8 2.51 -165.63 2.5 C-164.8 2.49 -163.97 2.49 -163.12 2.49 C-149.66 2.45 -136.21 2.42 -122.75 2.39 C-108.95 2.35 -95.15 2.32 -81.36 2.27 C-72.84 2.24 -64.32 2.22 -55.8 2.21 C-49.96 2.19 -44.12 2.18 -38.29 2.15 C-34.92 2.14 -31.55 2.13 -28.17 2.13 C-24.52 2.12 -20.87 2.11 -17.22 2.09 C-16.15 2.09 -15.08 2.09 -13.98 2.1 C-13 2.09 -12.03 2.08 -11.02 2.07 C-10.18 2.07 -9.34 2.07 -8.47 2.07 C-5.27 1.71 -3.19 -0.27 0 0 Z " fill="#F9C8B5" transform="translate(719.1875,1255.1875)"/>
<path d="M0 0 C0.99 0.33 1.98 0.66 3 1 C3.03 8.77 3.04 16.55 3.05 24.32 C3.06 26.96 3.07 29.6 3.08 32.24 C3.09 36.05 3.09 39.87 3.1 43.68 C3.1 44.84 3.11 46.01 3.11 47.22 C3.11 54.2 2.77 61.06 2 68 C1.67 68 1.34 68 1 68 C-0.45 54.08 -0.11 40.1 -0.06 26.12 C-0.06 23.59 -0.05 21.05 -0.05 18.51 C-0.04 12.34 -0.02 6.17 0 0 Z " fill="#EDF4F4" transform="translate(487,128)"/>
<path d="M0 0 C0.33 16.17 0.66 32.34 1 49 C0.01 48.67 -0.98 48.34 -2 48 C-3.18 45.65 -3.12 44.26 -3.11 41.64 C-3.11 40.74 -3.11 39.84 -3.11 38.91 C-3.11 37.94 -3.1 36.96 -3.1 35.96 C-3.1 34.96 -3.09 33.97 -3.09 32.94 C-3.09 29.75 -3.08 26.56 -3.06 23.38 C-3.06 21.22 -3.05 19.06 -3.05 16.9 C-3.04 11.6 -3.02 6.3 -3 1 C-1 0 -1 0 0 0 Z " fill="#EDF4F4" transform="translate(195,369)"/>
<path d="M0 0 C0.33 0 0.66 0 1 0 C1.33 24.42 1.66 48.84 2 74 C1.01 74.5 1.01 74.5 0 75 C-1.16 66.88 -1.04 58.86 -0.88 50.68 C-0.85 49.22 -0.83 47.75 -0.81 46.28 C-0.74 42.45 -0.68 38.62 -0.61 34.79 C-0.53 30.87 -0.47 26.94 -0.4 23.02 C-0.28 15.35 -0.14 7.67 0 0 Z " fill="#EDF4F4" transform="translate(213,435)"/>
<path d="M0 0 C0.66 0.33 1.32 0.66 2 1 C3.5 7.91 3.5 7.91 1.62 12 C1.09 12.66 0.55 13.32 0 14 C-0.33 14 -0.66 14 -1 14 C-1.03 11.85 -1.05 9.71 -1.06 7.56 C-1.07 6.37 -1.09 5.17 -1.1 3.94 C-1 1 -1 1 0 0 Z " fill="#FA7B79" transform="translate(845,480)"/>
</svg>
