<svg width="26" height="22" viewBox="0 0 26 22" fill="none" xmlns="http://www.w3.org/2000/svg">
<g id="Frame 18339">
<path id="Vector" d="M15.421 10.4053L15.2255 9.87366C15.2646 9.85403 15.3037 9.83425 15.3466 9.81126H15.3468C16.4991 9.1417 17.1837 8.03794 17.1764 6.86154V5.02729C17.1755 4.24348 16.8041 3.49187 16.1437 2.93756C15.4833 2.38324 14.588 2.07154 13.6538 2.07098H12.4733C11.5392 2.07157 10.6438 2.38328 9.98338 2.93756C9.32292 3.49183 8.95153 4.24344 8.95069 5.02729V6.86154C8.94318 8.03884 9.6296 9.14301 10.7843 9.81126C10.8215 9.8344 10.8608 9.8552 10.9016 9.87366L10.7061 10.4053C10.0452 10.4353 9.39677 10.5689 8.79431 10.799C8.78191 10.8019 8.77005 10.8063 8.75922 10.812C7.82965 11.1718 7.04234 11.7473 6.49014 12.4706C5.93793 13.194 5.64416 14.0348 5.64331 14.8939V19.6023C5.64383 19.7834 5.81854 19.9299 6.03426 19.9305H20.0929C20.3086 19.9299 20.4833 19.7834 20.4839 19.6023V14.8939C20.4823 13.7446 19.9571 12.6394 19.0157 11.8049C18.0745 10.9702 16.7883 10.4694 15.4211 10.4052L15.421 10.4053ZM9.73273 5.02745C9.73291 4.41748 10.0218 3.8326 10.5358 3.4012C11.0496 2.96996 11.7465 2.72753 12.4734 2.72738H13.6541H13.654C14.3809 2.72752 15.0778 2.96995 15.5916 3.4012C16.1056 3.8326 16.3945 4.41752 16.3947 5.02745V5.33594C15.6396 5.92742 14.6001 6.19127 13.5812 6.04989C12.5621 5.90854 11.679 5.37798 11.191 4.61407C11.1236 4.50699 10.9913 4.44005 10.847 4.4402H10.804C10.6436 4.45617 10.5106 4.55226 10.4677 4.68292C10.3427 5.05689 10.0867 5.39073 9.73276 5.64107L9.73273 5.02745ZM9.73273 6.8617V6.42531C10.2256 6.19841 10.6363 5.86399 10.9213 5.45738C11.5634 6.12768 12.4811 6.57213 13.4941 6.70322C14.5069 6.83447 15.5415 6.64287 16.3947 6.16608V6.86173C16.3947 7.81591 15.8438 8.71106 14.9169 9.26362C14.8083 9.32323 14.6961 9.37802 14.5806 9.42768C13.6259 9.84002 12.4925 9.83886 11.539 9.42431C11.4413 9.38168 11.3357 9.33246 11.2146 9.26684C10.2857 8.71387 9.73349 7.81756 9.73278 6.86173L9.73273 6.8617ZM8.92746 16.1638C9.10409 16.1631 9.26378 16.252 9.33168 16.3888C9.39975 16.5258 9.36257 16.6835 9.23761 16.7883C9.11264 16.8932 8.92467 16.9244 8.76167 16.8674C8.59866 16.8102 8.49272 16.6762 8.49341 16.528C8.49481 16.3273 8.68837 16.1648 8.92747 16.1638L8.92746 16.1638ZM19.7021 19.2744H13.4549V13.1747L14.9053 11.9607C15.0576 11.8319 15.0571 11.624 14.9042 11.4957C14.7513 11.3674 14.5037 11.367 14.3503 11.4949L13.064 12.5777L11.7777 11.4949C11.6243 11.367 11.3766 11.3674 11.2237 11.4957C11.0709 11.6241 11.0703 11.8319 11.2227 11.9607L12.6731 13.1747V19.2744H6.42586V14.8941C6.42761 13.5861 7.22349 12.3691 8.53701 11.6653V15.5667C8.16874 15.6713 7.88199 15.9168 7.76489 16.228C7.64777 16.5391 7.71427 16.8783 7.94395 17.1416C8.17381 17.4046 8.53928 17.5602 8.92795 17.5602C9.31662 17.5602 9.68211 17.4046 9.91181 17.1416C10.1417 16.8783 10.2082 16.5391 10.0911 16.228C9.97394 15.9168 9.68718 15.6713 9.31893 15.5667V11.3274C9.853 11.1507 10.422 11.0595 10.996 11.0583C11.1684 11.0579 11.3205 10.9635 11.3714 10.8254L11.6139 10.1692C12.5483 10.4667 13.5801 10.4667 14.5146 10.1692L14.757 10.8254C14.808 10.9635 14.96 11.0579 15.1324 11.0583C15.5595 11.0598 15.9845 11.1106 16.3952 11.2093V14.5004C15.9299 14.5767 15.5106 14.7863 15.2091 15.0933C14.9073 15.4003 14.7422 15.7857 14.7415 16.1836V17.2237C14.7415 17.4049 14.9164 17.5519 15.1324 17.5519C15.3483 17.5519 15.5234 17.4049 15.5234 17.2237V16.1836C15.5234 15.8049 15.7641 15.4551 16.1547 15.2657C16.5454 15.0764 17.0268 15.0764 17.4174 15.2657C17.8082 15.4551 18.0489 15.8049 18.0489 16.1836V17.2237C18.0489 17.4049 18.2239 17.5519 18.4398 17.5519C18.6557 17.5519 18.8308 17.4049 18.8308 17.2237V16.1836C18.8301 15.7857 18.6648 15.4003 18.3632 15.0933C18.0616 14.7863 17.6424 14.5767 17.1771 14.5004V11.4685C17.9356 11.7862 18.5737 12.275 19.0198 12.8801C19.4659 13.4853 19.7024 14.1826 19.7025 14.8941L19.7021 19.2744Z" fill="#151921"/>
</g>
</svg>
