<?xml version="1.0" encoding="UTF-8"?>
<!-- Generator: visioncortex VTracer 0.6.3 -->
<svg version="1.1" xmlns="http://www.w3.org/2000/svg" width="1280" height="1280">
<path d="M0 0 C2.69 0 5.39 -0 8.08 -0.02 C51.73 -0.3 51.73 -0.3 65.56 4.32 C67.25 4.49 68.93 4.63 70.62 4.75 C77.01 5.29 83.28 6.17 89.35 8.29 C93.73 9.69 98.2 10.41 102.73 11.17 C106.57 11.85 109.97 12.8 113.56 14.32 C114.61 14.44 115.66 14.56 116.75 14.69 C120.91 15.37 124.3 16.72 128.17 18.34 C131.24 19.59 134.36 20.45 137.56 21.32 C144.36 23.28 150.97 25.32 157.39 28.32 C159.71 29.39 162.06 30.32 164.44 31.25 C178.44 36.82 192.1 43.54 205.56 50.32 C205.56 50.98 205.56 51.64 205.56 52.32 C206.29 52.43 207.02 52.54 207.77 52.65 C210.71 53.35 212.68 54.36 215.25 55.93 C216.11 56.46 216.98 56.98 217.87 57.52 C218.75 58.07 219.64 58.62 220.56 59.19 C221.45 59.73 222.34 60.28 223.26 60.84 C224.92 61.85 226.58 62.87 228.24 63.89 C229.92 64.92 231.63 65.91 233.35 66.87 C234.08 67.35 234.81 67.82 235.56 68.32 C235.56 68.98 235.56 69.64 235.56 70.32 C236.55 70.32 237.54 70.32 238.56 70.32 C238.56 70.98 238.56 71.64 238.56 72.32 C239.34 72.63 240.13 72.93 240.94 73.25 C243.56 74.32 243.56 74.32 245.56 75.32 C245.56 75.98 245.56 76.64 245.56 77.32 C246.1 77.39 246.63 77.47 247.19 77.54 C250.51 78.63 252.8 80.56 255.56 82.69 C256.59 83.48 257.62 84.27 258.69 85.09 C259.63 85.82 260.58 86.56 261.56 87.32 C262.34 87.86 263.13 88.41 263.94 88.98 C264.74 89.64 264.74 89.64 265.56 90.32 C265.56 90.98 265.56 91.64 265.56 92.32 C266.36 92.69 266.36 92.69 267.19 93.07 C270.14 94.62 272.86 96.35 275.56 98.32 C275.56 98.98 275.56 99.64 275.56 100.32 C276.43 100.72 276.43 100.72 277.31 101.13 C279.62 102.34 281.58 103.62 283.56 105.32 C283.56 105.98 283.56 106.64 283.56 107.32 C284.14 107.57 284.72 107.82 285.32 108.08 C287.82 109.46 289.41 111 291.37 113.07 C294 115.77 296.65 118.29 299.56 120.69 C300.55 121.56 301.54 122.42 302.56 123.32 C302.56 123.98 302.56 124.64 302.56 125.32 C303.55 125.65 304.54 125.98 305.56 126.32 C307.35 128.06 307.35 128.06 309.19 130.19 C309.8 130.89 310.41 131.59 311.04 132.31 C312.56 134.32 312.56 134.32 313.56 137.32 C314.22 137.32 314.88 137.32 315.56 137.32 C320.56 142.79 320.56 142.79 320.56 145.32 C321.55 145.65 322.54 145.98 323.56 146.32 C325.38 148.31 325.38 148.31 327.25 150.75 C327.87 151.56 328.49 152.36 329.13 153.19 C330.56 155.32 330.56 155.32 330.56 157.32 C331.22 157.32 331.88 157.32 332.56 157.32 C334.01 159.05 335.37 160.86 336.69 162.69 C337.41 163.69 338.13 164.69 338.88 165.71 C340.56 168.32 340.56 168.32 340.56 170.32 C341.22 170.32 341.88 170.32 342.56 170.32 C345.56 174.7 345.56 174.7 345.56 177.32 C346.22 177.32 346.88 177.32 347.56 177.32 C349.08 179.41 349.08 179.41 350.81 182.25 C353.58 186.75 356.45 191.12 359.49 195.44 C360.56 197.32 360.56 197.32 360.56 200.32 C361.22 200.32 361.88 200.32 362.56 200.32 C367.04 208 371.34 215.7 375.25 223.7 C376.35 225.89 377.5 228.01 378.75 230.13 C380.63 233.44 382.08 236.8 383.56 240.32 C384.18 241.54 384.8 242.76 385.44 243.98 C387.6 248.29 389.36 252.69 391.06 257.19 C391.67 258.78 392.28 260.38 392.89 261.97 C393.18 262.73 393.47 263.48 393.77 264.26 C394.73 266.75 395.73 269.22 396.75 271.69 C398.58 276.23 400.1 280.85 401.62 285.5 C402.42 287.88 403.27 290.22 404.19 292.57 C405.33 295.7 406.19 298.75 406.98 301.98 C408.33 307.38 409.86 312.73 411.35 318.09 C415.08 331.64 417.36 345.24 419.1 359.16 C419.47 362.33 419.47 362.33 420.56 365.32 C420.76 367.94 420.93 370.56 421.06 373.19 C421.28 377.65 421.67 381.93 422.56 386.32 C426.17 426.71 426.17 426.71 415.56 443.32 C414.9 443.32 414.24 443.32 413.56 443.32 C413.31 443.93 413.07 444.55 412.81 445.19 C411.35 447.67 410.18 448.27 407.56 449.32 C407.56 449.98 407.56 450.64 407.56 451.32 C406.16 452.5 406.16 452.5 404.19 453.75 C403.56 454.16 402.93 454.58 402.29 455 C393.77 459.11 385.7 459.75 376.34 459.7 C375.03 459.7 373.73 459.71 372.38 459.71 C368.76 459.73 365.14 459.72 361.52 459.71 C357.57 459.71 353.63 459.72 349.69 459.73 C342.78 459.74 335.87 459.75 328.96 459.74 C318.69 459.73 308.42 459.74 298.15 459.76 C278.74 459.78 259.32 459.79 239.91 459.79 C224.92 459.78 209.93 459.79 194.94 459.79 C192.78 459.8 190.63 459.8 188.48 459.8 C186.87 459.8 186.87 459.8 185.24 459.8 C184.17 459.8 183.1 459.8 181.99 459.8 C180.92 459.8 179.85 459.8 178.74 459.8 C148.57 459.82 118.4 459.83 88.23 459.82 C87.09 459.82 85.95 459.82 84.78 459.82 C79.01 459.82 73.25 459.82 67.48 459.82 C66.34 459.82 65.19 459.82 64.01 459.82 C61.7 459.82 59.38 459.82 57.07 459.82 C21.03 459.81 -15 459.83 -51.03 459.86 C-91.51 459.89 -131.99 459.91 -172.47 459.91 C-176.78 459.91 -181.1 459.91 -185.42 459.91 C-187.01 459.91 -187.01 459.91 -188.64 459.91 C-204.68 459.91 -220.73 459.92 -236.77 459.94 C-255.02 459.96 -273.26 459.96 -291.51 459.94 C-301.72 459.93 -311.93 459.93 -322.14 459.96 C-328.96 459.97 -335.79 459.97 -342.61 459.95 C-346.5 459.94 -350.38 459.94 -354.27 459.96 C-358.46 459.98 -362.65 459.96 -366.84 459.94 C-368.04 459.95 -369.24 459.96 -370.47 459.98 C-380.82 459.87 -391.13 457.34 -398.85 450.06 C-399.31 449.59 -399.77 449.12 -400.25 448.63 C-400.77 448.14 -401.28 447.66 -401.81 447.16 C-403.07 445.93 -404.27 444.63 -405.44 443.32 C-405.44 442.66 -405.44 442 -405.44 441.32 C-406.1 441.32 -406.76 441.32 -407.44 441.32 C-408.26 439.57 -409.07 437.82 -409.88 436.07 C-410.33 435.09 -410.78 434.12 -411.25 433.11 C-414.27 426.01 -413.68 418.59 -413.69 411 C-413.69 410.25 -413.69 409.5 -413.69 408.73 C-413.67 355.78 -413.67 355.78 -406.44 341.32 C-406.25 339.4 -406.25 339.4 -406.06 337.44 C-405.58 332.76 -404.55 328.36 -403.35 323.81 C-402.74 321.48 -402.16 319.13 -401.59 316.78 C-399.38 307.54 -396.71 298.55 -393.66 289.56 C-392.93 287.42 -392.22 285.28 -391.51 283.14 C-389.04 275.77 -386.43 268.49 -383.44 261.32 C-382.83 259.8 -382.22 258.29 -381.62 256.78 C-377.44 246.56 -372.71 236.84 -367.43 227.16 C-366.08 224.64 -364.86 222.08 -363.63 219.5 C-356.64 205.43 -347.96 192.18 -338.89 179.37 C-337.29 177.11 -335.72 174.83 -334.15 172.55 C-333.06 170.97 -331.97 169.39 -330.88 167.82 C-330.36 167.07 -329.85 166.32 -329.32 165.55 C-328.08 163.77 -326.77 162.04 -325.44 160.32 C-324.78 160.32 -324.12 160.32 -323.44 160.32 C-323.07 159.51 -323.07 159.51 -322.69 158.69 C-321.13 155.73 -319.41 153.02 -317.44 150.32 C-316.78 150.32 -316.12 150.32 -315.44 150.32 C-315.17 149.74 -314.9 149.16 -314.63 148.57 C-313.41 146.26 -312.14 144.3 -310.44 142.32 C-309.78 142.32 -309.12 142.32 -308.44 142.32 C-308.17 141.73 -307.91 141.14 -307.64 140.54 C-306.4 138.24 -305.07 136.63 -303.28 134.74 C-302.34 133.75 -302.34 133.75 -301.39 132.73 C-300.72 132.04 -300.06 131.34 -299.38 130.63 C-298.7 129.91 -298.02 129.2 -297.32 128.46 C-289.97 120.73 -282.55 113.24 -274.44 106.32 C-273.78 105.73 -273.13 105.15 -272.46 104.55 C-271.83 104 -271.21 103.45 -270.56 102.88 C-269.73 102.14 -269.73 102.14 -268.88 101.38 C-267.44 100.32 -267.44 100.32 -265.44 100.32 C-265.44 99.66 -265.44 99 -265.44 98.32 C-263.71 96.72 -263.71 96.72 -261.25 94.82 C-259.88 93.75 -259.88 93.75 -258.48 92.66 C-257.48 91.89 -256.47 91.11 -255.44 90.32 C-254.4 89.5 -253.37 88.69 -252.3 87.85 C-232.5 72.32 -232.5 72.32 -228.44 72.32 C-228.44 71.66 -228.44 71 -228.44 70.32 C-227.45 70.32 -226.46 70.32 -225.44 70.32 C-225.44 69.66 -225.44 69 -225.44 68.32 C-223.76 67.08 -223.76 67.08 -221.42 65.71 C-220.56 65.2 -219.7 64.69 -218.82 64.17 C-217.91 63.64 -217 63.11 -216.06 62.57 C-215.19 62.05 -214.32 61.54 -213.43 61.01 C-211.65 59.97 -209.88 58.92 -208.1 57.89 C-205.51 56.35 -202.94 54.78 -200.37 53.21 C-195.71 50.41 -190.94 48.07 -186 45.82 C-179.73 42.91 -173.63 39.84 -167.6 36.46 C-164.96 35.06 -162.28 34.18 -159.44 33.32 C-158.45 32.82 -157.46 32.33 -156.44 31.82 C-153.48 30.33 -150.58 29.34 -147.44 28.32 C-145.92 27.64 -145.92 27.64 -144.38 26.94 C-139.91 24.98 -135.25 23.69 -130.58 22.29 C-127.44 21.32 -124.39 20.22 -121.33 19.03 C-115.55 16.83 -109.8 15.11 -103.75 13.85 C-101.29 13.28 -98.91 12.57 -96.5 11.82 C-92.45 10.57 -88.43 9.63 -84.27 8.85 C-82.13 8.45 -79.99 8.01 -77.86 7.56 C-71.21 6.17 -64.73 5.05 -57.95 4.56 C-55.55 4.33 -53.3 3.91 -50.94 3.38 C-34.15 -0.11 -17.07 -0.03 0 0 Z " fill="#000000" transform="translate(452.439453125,701.684326171875)"/>
<path d="M0 0 C3 0 6 -0.02 9 -0.05 C20.72 -0.08 31.9 0.76 43.42 2.95 C46.14 3.47 48.86 3.92 51.58 4.38 C57.43 5.47 62.81 7.11 68.33 9.32 C71.6 10.27 74.87 11.19 78.15 12.09 C95.64 17.12 111.56 26.42 127.33 35.32 C127.33 35.98 127.33 36.64 127.33 37.32 C128.02 37.55 128.7 37.78 129.41 38.02 C132.99 39.61 136.01 41.76 139.15 44.07 C139.76 44.51 140.38 44.96 141.02 45.42 C142.79 46.71 144.56 48.01 146.33 49.32 C147.19 49.94 148.04 50.56 148.92 51.2 C155.04 55.72 155.04 55.72 157.33 58.32 C157.33 58.98 157.33 59.64 157.33 60.32 C157.99 60.32 158.65 60.32 159.33 60.32 C159.33 60.98 159.33 61.64 159.33 62.32 C159.87 62.52 160.41 62.73 160.96 62.94 C164.25 64.85 166.93 67.36 169.33 70.32 C169.33 70.98 169.33 71.64 169.33 72.32 C170.32 72.65 171.31 72.98 172.33 73.32 C172.33 73.98 172.33 74.64 172.33 75.32 C172.99 75.32 173.65 75.32 174.33 75.32 C179.33 80.79 179.33 80.79 179.33 83.32 C179.99 83.32 180.65 83.32 181.33 83.32 C182.84 85 182.84 85 184.46 87.19 C185 87.91 185.54 88.63 186.09 89.37 C187.33 91.32 187.33 91.32 187.33 93.32 C187.99 93.32 188.65 93.32 189.33 93.32 C190.85 95.37 190.85 95.37 192.58 98.19 C193.2 99.19 193.82 100.19 194.46 101.21 C196.67 104.88 198.89 108.54 201.07 112.22 C202.11 113.95 203.22 115.64 204.33 117.32 C204.33 118.31 204.33 119.3 204.33 120.32 C204.99 120.32 205.65 120.32 206.33 120.32 C206.66 121.05 206.99 121.79 207.32 122.55 C207.76 123.52 208.2 124.5 208.65 125.5 C209.08 126.47 209.51 127.43 209.95 128.42 C211.27 131.3 211.27 131.3 212.88 133.82 C214.44 136.51 215.35 139.04 216.27 142 C217.5 145.85 218.82 149.59 220.4 153.32 C222.31 157.96 223.51 162.66 224.62 167.55 C225.32 170.27 226.27 172.73 227.33 175.32 C229.31 182.22 230.32 189.22 231.33 196.32 C231.51 197.39 231.68 198.47 231.86 199.59 C232.45 204.2 232.69 208.79 232.9 213.44 C232.96 214.84 232.96 214.84 233.02 216.27 C233.32 223.29 233.52 230.29 233.33 237.32 C233.31 238.35 233.31 238.35 233.28 239.4 C232.8 255.66 230.79 271.64 226.33 287.32 C226.05 288.33 226.05 288.33 225.76 289.36 C225.13 291.62 224.48 293.87 223.83 296.13 C223.63 296.83 223.43 297.54 223.22 298.27 C221.9 302.78 220.23 307.01 218.33 311.32 C217.67 313.14 217.03 314.98 216.4 316.82 C214.77 321.35 212.8 325.19 210.33 329.32 C209.66 330.95 208.99 332.58 208.32 334.22 C206.45 338.18 204.11 341.89 201.86 345.64 C200.24 348.29 200.24 348.29 199.33 351.32 C198.67 351.32 198.01 351.32 197.33 351.32 C197.09 352 196.84 352.68 196.58 353.38 C195.09 356.88 193.27 360.03 191.33 363.32 C190.67 363.32 190.01 363.32 189.33 363.32 C189.02 364.31 189.02 364.31 188.71 365.32 C186.84 369.39 184.36 373 181.33 376.32 C180.67 376.32 180.01 376.32 179.33 376.32 C178.93 377.18 178.93 377.18 178.52 378.07 C177.3 380.37 176.03 382.34 174.33 384.32 C173.67 384.32 173.01 384.32 172.33 384.32 C172.02 385.12 172.02 385.12 171.71 385.94 C169.8 389.24 167.29 391.91 164.33 394.32 C163.67 394.32 163.01 394.32 162.33 394.32 C162.33 394.98 162.33 395.64 162.33 396.32 C160.96 397.94 160.96 397.94 159.33 399.32 C158.67 399.32 158.01 399.32 157.33 399.32 C157.33 399.98 157.33 400.64 157.33 401.32 C151.23 407.19 144.04 412.08 137.21 417.07 C136.47 417.61 135.73 418.15 134.97 418.71 C130.57 421.88 126.1 424.66 121.33 427.23 C118.98 428.51 116.72 429.9 114.46 431.32 C109.27 434.45 103.89 436.91 98.33 439.32 C96.75 440.02 95.17 440.73 93.58 441.44 C92.85 441.76 92.12 442.09 91.36 442.42 C89.61 443.19 87.88 444 86.15 444.82 C81.37 446.88 76.26 448.09 71.25 449.45 C68.47 450.02 68.47 450.02 67.33 451.32 C65.25 451.8 63.17 452.28 61.08 452.72 C59.26 453.11 57.45 453.54 55.65 454.01 C38.14 458.44 20.65 459.6 2.65 459.63 C1.83 459.63 1.01 459.64 0.17 459.64 C-8.44 459.66 -16.73 459.48 -25.2 457.77 C-27.69 457.31 -30.08 457.12 -32.6 457 C-38.3 456.55 -43.75 455.26 -49.29 453.94 C-50.62 453.63 -50.62 453.63 -51.97 453.31 C-57.64 451.92 -63.15 450.24 -68.67 448.32 C-70.41 447.73 -70.41 447.73 -72.19 447.14 C-79.1 444.75 -85.58 442.02 -92.07 438.65 C-94.78 437.21 -94.78 437.21 -98.17 435.88 C-102.66 433.87 -106.78 431.37 -110.99 428.84 C-113.64 427.22 -113.64 427.22 -116.67 426.32 C-116.67 425.66 -116.67 425 -116.67 424.32 C-117.48 424.17 -117.48 424.17 -118.31 424.03 C-121.36 423.1 -123.72 421.59 -126.42 419.88 C-127.4 419.26 -128.39 418.64 -129.4 418.01 C-130.15 417.45 -130.9 416.89 -131.67 416.32 C-131.67 415.66 -131.67 415 -131.67 414.32 C-132.35 414.1 -133.03 413.89 -133.74 413.67 C-137.57 411.9 -140.34 409.42 -143.48 406.63 C-144.41 405.81 -144.41 405.81 -145.36 404.98 C-146.58 403.91 -147.8 402.84 -149.02 401.76 C-150.37 400.57 -151.74 399.41 -153.11 398.25 C-157.17 394.82 -160.69 391.17 -164.12 387.11 C-165.75 385.16 -165.75 385.16 -168.1 382.94 C-169.67 381.32 -169.67 381.32 -169.67 379.32 C-170.33 379.32 -170.99 379.32 -171.67 379.32 C-174.67 375.85 -174.67 375.85 -174.67 373.32 C-175.33 373.32 -175.99 373.32 -176.67 373.32 C-178.04 371.72 -178.04 371.72 -179.61 369.47 C-180.19 368.64 -180.77 367.82 -181.36 366.97 C-181.98 366.07 -182.59 365.18 -183.23 364.25 C-183.86 363.34 -184.49 362.43 -185.14 361.49 C-194.94 347.21 -204.11 332.38 -209.76 315.92 C-211.54 310.79 -213.65 305.77 -215.72 300.75 C-216.75 298.09 -217.44 295.39 -218.1 292.62 C-218.74 290.02 -219.49 287.45 -220.23 284.88 C-221.36 280.79 -222.08 276.9 -222.36 272.68 C-222.72 269.87 -223.46 267.2 -224.16 264.46 C-228.86 244.39 -231.99 207.97 -222.67 189.32 C-222.51 187.43 -222.51 187.43 -222.35 185.5 C-221.72 179.18 -219.62 173.33 -217.67 167.32 C-217.34 166.16 -217.01 165.01 -216.67 163.82 C-211.99 147.44 -211.99 147.44 -208.65 141.25 C-207.56 139.11 -206.71 136.94 -205.85 134.69 C-203.25 128.01 -199.93 121.69 -196.67 115.32 C-196.01 115.32 -195.35 115.32 -194.67 115.32 C-194.57 114.77 -194.47 114.22 -194.38 113.66 C-193.47 110.68 -192 108.47 -190.29 105.88 C-188.48 103.1 -186.69 100.36 -185.06 97.47 C-184.6 96.76 -184.14 96.05 -183.67 95.32 C-183.01 95.32 -182.35 95.32 -181.67 95.32 C-181.42 94.6 -181.17 93.88 -180.92 93.15 C-179.53 90 -177.82 87.68 -175.67 85 C-174.61 83.68 -174.61 83.68 -173.54 82.33 C-172.92 81.66 -172.3 81 -171.67 80.32 C-171.01 80.32 -170.35 80.32 -169.67 80.32 C-169.44 79.78 -169.22 79.24 -168.99 78.68 C-167.25 75.57 -164.96 73.09 -162.54 70.5 C-162.05 69.98 -161.56 69.45 -161.06 68.9 C-157.2 64.79 -153.27 60.6 -148.67 57.32 C-148.01 57.32 -147.35 57.32 -146.67 57.32 C-146.67 56.66 -146.67 56 -146.67 55.32 C-146.01 55.32 -145.35 55.32 -144.67 55.32 C-144.67 54.66 -144.67 54 -144.67 53.32 C-142.99 51.81 -142.99 51.81 -140.79 50.19 C-140.07 49.65 -139.35 49.11 -138.61 48.56 C-136.67 47.32 -136.67 47.32 -134.67 47.32 C-134.67 46.66 -134.67 46 -134.67 45.32 C-130.78 42.3 -126.84 39.78 -122.53 37.41 C-120.44 36.18 -118.47 34.82 -116.48 33.44 C-112 30.41 -107.3 28.04 -102.44 25.69 C-100.25 24.6 -98.19 23.47 -96.1 22.19 C-92.31 20.12 -88.51 18.74 -84.45 17.32 C-80.42 15.87 -76.56 14.09 -72.67 12.32 C-69.14 10.77 -65.65 9.77 -61.9 8.89 C-59.47 8.27 -57.11 7.52 -54.73 6.75 C-50.71 5.52 -46.91 4.92 -42.73 4.56 C-40.45 4.35 -40.45 4.35 -37.48 3.38 C-25.18 -0.05 -12.67 -0.03 0 0 Z " fill="#000000" transform="translate(453.665771484375,181.684326171875)"/>
<path d="M0 0 C1.3 0.23 2.59 0.46 3.93 0.69 C26.77 4.77 26.77 4.77 29 7 C29.97 7.1 30.94 7.21 31.94 7.31 C36.01 7.84 39.44 9.31 43.2 10.9 C46.22 12.09 49.26 13.02 52.38 13.94 C63.84 17.4 74.36 22.57 85 27.99 C86.93 28.96 88.87 29.92 90.82 30.86 C96.75 33.75 102.45 36.71 107.84 40.54 C110.13 42.13 110.13 42.13 113.2 43.79 C117.63 46.3 121.77 49.19 125.94 52.12 C126.72 52.66 127.5 53.2 128.3 53.75 C129.4 54.53 129.4 54.53 130.53 55.32 C131.53 56.02 131.53 56.02 132.55 56.73 C133.27 57.36 133.27 57.36 134 58 C134 58.66 134 59.32 134 60 C135.08 60.37 135.08 60.37 136.19 60.75 C139.28 62.12 141.51 63.72 144 66 C144 66.66 144 67.32 144 68 C144.87 68.4 144.87 68.4 145.75 68.81 C148.06 70.03 150.02 71.3 152 73 C152 73.66 152 74.32 152 75 C152.58 75.25 153.16 75.5 153.75 75.76 C156.28 77.16 157.93 78.74 159.94 80.81 C160.63 81.53 161.33 82.24 162.05 82.98 C163.02 83.98 163.02 83.98 164 85 C164.87 85.87 165.73 86.73 166.62 87.62 C167.41 88.41 168.19 89.19 169 90 C169.54 90.52 170.08 91.03 170.64 91.57 C172.13 93.01 173.57 94.5 175 96 C175 96.66 175 97.32 175 98 C175.66 98 176.32 98 177 98 C182 103.48 182 103.48 182 106 C182.66 106 183.32 106 184 106 C185.29 107.46 185.29 107.46 186.62 109.38 C187.07 110 187.52 110.63 187.98 111.27 C189 113 189 113 189 115 C189.66 115 190.32 115 191 115 C192.16 116.36 192.16 116.36 193.43 118.25 C194.13 119.29 194.13 119.29 194.84 120.35 C195.33 121.08 195.81 121.81 196.31 122.56 C197.27 123.98 198.22 125.4 199.18 126.82 C199.64 127.52 200.11 128.21 200.59 128.93 C201.96 130.94 203.4 132.89 204.86 134.84 C207 138 207 138 207 141 C207.66 141 208.32 141 209 141 C209.39 141.8 209.77 142.59 210.17 143.41 C213.41 150.17 213.41 150.17 217.38 156.5 C219 159 219 159 219 163 C219.66 163 220.32 163 221 163 C231.59 185.97 231.59 185.97 234.29 195.7 C235.04 198.12 235.99 200.33 237.06 202.62 C238.63 206.02 239.69 209.26 240.5 212.91 C241.06 215.27 241.77 217.56 242.5 219.88 C244.95 227.95 246.24 236.21 247.54 244.53 C247.88 246.99 247.88 246.99 249 249 C249.29 251.95 249.45 254.9 249.62 257.86 C249.89 261.44 250.45 264.96 251.01 268.51 C252.1 276.05 252.4 283.45 252.44 291.06 C252.47 292.32 252.5 293.58 252.54 294.88 C252.61 308.45 248.48 319.23 239 329 C226.58 340.94 209.71 339.7 193.78 339.6 C191.23 339.6 188.68 339.61 186.13 339.61 C179.95 339.62 173.77 339.61 167.59 339.58 C160.39 339.55 153.19 339.55 145.99 339.55 C133.15 339.55 120.31 339.53 107.47 339.49 C95.01 339.45 82.55 339.43 70.09 339.43 C69.32 339.43 68.56 339.43 67.76 339.42 C67 339.42 66.23 339.42 65.44 339.42 C63.89 339.42 62.34 339.42 60.8 339.42 C60.04 339.42 59.27 339.42 58.49 339.42 C46.61 339.42 34.72 339.4 22.84 339.38 C18.54 339.37 14.23 339.37 9.92 339.37 C2.46 339.36 -5 339.34 -12.45 339.32 C-14.93 339.31 -17.42 339.31 -19.9 339.31 C-23.27 339.3 -26.64 339.29 -30.01 339.27 C-31.01 339.28 -32 339.28 -33.02 339.28 C-33.92 339.27 -34.82 339.27 -35.75 339.26 C-36.52 339.26 -37.3 339.26 -38.11 339.25 C-40 339 -40 339 -42 337 C-42.56 334.64 -42.56 334.64 -43 331.69 C-43.17 330.6 -43.34 329.52 -43.51 328.4 C-43.82 326.23 -44.13 324.05 -44.43 321.88 C-45.58 313.79 -47.4 305.97 -49.46 298.08 C-50.01 295.97 -50.53 293.86 -51.04 291.74 C-53.34 282.32 -53.34 282.32 -56.29 273.09 C-57.31 270.09 -58.13 267.05 -59 264 C-59.8 261.33 -60.61 258.66 -61.44 256 C-61.64 255.33 -61.85 254.65 -62.06 253.96 C-63.44 249.49 -65.13 245.28 -67 241 C-67.5 239.57 -67.99 238.13 -68.44 236.69 C-70.07 231.69 -72 226.85 -74 222 C-74.39 221.04 -74.79 220.08 -75.19 219.09 C-77.98 212.32 -80.92 205.64 -84 199 C-84.47 197.96 -84.47 197.96 -84.95 196.91 C-89.45 187.04 -94.22 177.58 -99.94 168.36 C-101.79 165.35 -103.51 162.3 -105.19 159.19 C-113.22 144.28 -122.81 130.4 -132.89 116.81 C-133.42 116.09 -133.96 115.36 -134.51 114.61 C-134.99 113.96 -135.47 113.31 -135.97 112.64 C-137 111 -137 111 -137 109 C-137.66 109 -138.32 109 -139 109 C-140.51 107.32 -140.51 107.32 -142.12 105.12 C-142.66 104.41 -143.2 103.69 -143.76 102.95 C-145 101 -145 101 -145 99 C-145.66 99 -146.32 99 -147 99 C-148.95 96.88 -148.95 96.88 -151.12 94.12 C-151.85 93.22 -152.57 92.32 -153.32 91.38 C-155 89 -155 89 -155 87 C-155.66 87 -156.32 87 -157 87 C-162 81.52 -162 81.52 -162 79 C-162.66 79 -163.32 79 -164 79 C-165.38 77.6 -165.38 77.6 -167.01 75.62 C-171.36 70.51 -176.06 65.8 -180.81 61.06 C-181.67 60.2 -182.53 59.34 -183.41 58.45 C-184.23 57.63 -185.05 56.82 -185.89 55.97 C-186.64 55.23 -187.38 54.49 -188.14 53.73 C-189.89 51.94 -189.89 51.94 -192 51 C-192 50.34 -192 49.68 -192 49 C-192.66 49 -193.32 49 -194 49 C-194 48.34 -194 47.68 -194 47 C-194.99 46.67 -195.98 46.34 -197 46 C-197 45.34 -197 44.68 -197 44 C-197.64 43.73 -198.28 43.46 -198.94 43.19 C-201 42 -201 42 -202 39 C-187.98 30.1 -172.7 22.93 -157.25 16.9 C-155.39 16.16 -153.57 15.34 -151.75 14.5 C-146.06 12.04 -139.96 10.65 -134 9 C-131.52 8.29 -129.04 7.59 -126.56 6.88 C-125.47 6.56 -124.38 6.25 -123.25 5.93 C-120.95 5.27 -118.66 4.6 -116.37 3.91 C-113.67 3.18 -111.32 2.71 -108.56 2.5 C-105.01 2.16 -101.7 1.44 -98.24 0.54 C-68.04 -6.72 -30.44 -5.67 0 0 Z " fill="#000000" transform="translate(989,709)"/>
<path d="M0 0 C2.57 1.08 4.91 1.91 7.56 2.69 C22.66 7.63 36.32 17.68 48.56 27.5 C49.48 28.21 50.4 28.92 51.34 29.64 C52.26 30.36 53.18 31.08 54.12 31.81 C55.4 32.8 55.4 32.8 56.69 33.8 C57.31 34.36 57.93 34.92 58.56 35.5 C58.56 36.16 58.56 36.82 58.56 37.5 C59.22 37.5 59.88 37.5 60.56 37.5 C62.19 38.88 62.19 38.88 63.56 40.5 C63.56 41.16 63.56 41.82 63.56 42.5 C64.22 42.5 64.88 42.5 65.56 42.5 C80.2 57.97 94.08 78.18 100.56 98.5 C101.31 100.2 101.31 100.2 102.06 101.94 C103.54 105.44 104.58 108.83 105.56 112.5 C105.8 113.3 106.04 114.1 106.28 114.93 C108.35 122.05 109.56 129.16 110.56 136.5 C110.82 138.09 110.82 138.09 111.08 139.71 C111.57 143.58 111.72 147.37 111.73 151.27 C111.73 151.99 111.74 152.71 111.74 153.45 C111.75 154.97 111.75 156.49 111.75 158.01 C111.75 160.3 111.77 162.59 111.79 164.88 C111.82 172.65 111.39 179.91 109.56 187.5 C109.36 189.23 109.18 190.95 109.06 192.69 C108.53 198.69 106.79 203.94 104.56 209.5 C104.25 210.61 103.94 211.73 103.62 212.88 C102.54 216.58 101.09 219.95 99.56 223.5 C99.16 224.83 98.77 226.16 98.38 227.5 C94.6 239.05 87.47 249.62 80.56 259.5 C80.05 260.26 79.54 261.02 79.02 261.8 C77.92 263.4 76.75 264.96 75.56 266.5 C74.9 266.5 74.24 266.5 73.56 266.5 C73.25 267.52 73.25 267.52 72.94 268.56 C71.13 272.42 68.66 275.58 65.56 278.5 C64.9 278.5 64.24 278.5 63.56 278.5 C63.56 279.16 63.56 279.82 63.56 280.5 C62.19 282.12 62.19 282.12 60.56 283.5 C59.9 283.5 59.24 283.5 58.56 283.5 C58.56 284.16 58.56 284.82 58.56 285.5 C56.45 287.45 56.45 287.45 53.69 289.62 C52.78 290.35 51.88 291.07 50.95 291.82 C48.56 293.5 48.56 293.5 46.56 293.5 C46.23 294.49 45.9 295.48 45.56 296.5 C43.32 298.19 41.11 299.74 38.75 301.25 C38.07 301.69 37.4 302.13 36.7 302.59 C25.96 309.55 14.86 316.68 2.56 320.5 C1.43 321 0.29 321.49 -0.88 322 C-4.38 323.48 -7.76 324.52 -11.44 325.5 C-12.64 325.86 -12.64 325.86 -13.87 326.22 C-20.99 328.28 -28.1 329.5 -35.44 330.5 C-37.03 330.76 -37.03 330.76 -38.65 331.02 C-42.52 331.51 -46.31 331.66 -50.21 331.67 C-50.93 331.67 -51.65 331.67 -52.39 331.68 C-53.91 331.68 -55.43 331.69 -56.94 331.69 C-59.23 331.69 -61.52 331.71 -63.81 331.72 C-70.8 331.75 -77.54 331.68 -84.37 329.97 C-86.71 329.44 -88.98 329.23 -91.38 329.06 C-101 328.2 -110.08 324.84 -118.88 321 C-121.45 319.92 -123.79 319.09 -126.44 318.31 C-137.99 314.53 -148.56 307.4 -158.44 300.5 C-159.2 299.99 -159.95 299.48 -160.73 298.96 C-162.34 297.86 -163.9 296.69 -165.44 295.5 C-165.44 294.84 -165.44 294.18 -165.44 293.5 C-166.46 293.19 -166.46 293.19 -167.5 292.88 C-171.35 291.07 -174.52 288.6 -177.44 285.5 C-177.44 284.84 -177.44 284.18 -177.44 283.5 C-178.1 283.5 -178.76 283.5 -179.44 283.5 C-181.06 282.12 -181.06 282.12 -182.44 280.5 C-182.44 279.84 -182.44 279.18 -182.44 278.5 C-183.1 278.5 -183.76 278.5 -184.44 278.5 C-186.38 276.38 -186.38 276.38 -188.56 273.62 C-189.29 272.72 -190.01 271.82 -190.76 270.88 C-192.44 268.5 -192.44 268.5 -192.44 266.5 C-193.43 266.17 -194.42 265.84 -195.44 265.5 C-197.13 263.26 -198.67 261.04 -200.19 258.69 C-200.63 258.01 -201.07 257.33 -201.53 256.64 C-208.49 245.9 -215.61 234.79 -219.44 222.5 C-219.93 221.37 -220.43 220.23 -220.94 219.06 C-222.41 215.56 -223.46 212.17 -224.44 208.5 C-224.78 207.42 -224.78 207.42 -225.12 206.32 C-234.99 173.55 -234.64 129.64 -219.38 98.46 C-218.37 96.37 -217.6 94.25 -216.81 92.06 C-211.2 77.99 -202.74 65.36 -193.44 53.5 C-193 52.94 -192.56 52.37 -192.11 51.79 C-186.89 45.1 -186.89 45.1 -184.44 42.5 C-183.78 42.5 -183.12 42.5 -182.44 42.5 C-182.44 41.84 -182.44 41.18 -182.44 40.5 C-181.06 38.88 -181.06 38.88 -179.44 37.5 C-178.78 37.5 -178.12 37.5 -177.44 37.5 C-177.44 36.84 -177.44 36.18 -177.44 35.5 C-160.92 19.88 -139.85 6.08 -118.11 -0.67 C-115.81 -1.38 -113.61 -2.18 -111.38 -3.06 C-77.4 -15.81 -33.16 -14.47 0 0 Z " fill="#000000" transform="translate(999.4375,329.5)"/>
</svg>
