<svg width="26" height="22" viewBox="0 0 26 22" fill="none" xmlns="http://www.w3.org/2000/svg">
<g id="Frame 18339">
<g id="Group 37061">
<path id="Vector" d="M22.7016 2.09976H18.2658C17.7321 2.09976 17.2986 2.46364 17.2986 2.9115V3.38735C17.2986 3.8352 17.7321 4.19909 18.2658 4.19909H18.3658V18.0266C18.3658 19.0343 19.3663 19.874 20.567 19.874H20.6003H20.6337C21.8343 19.874 22.8348 19.0343 22.8348 18.0266V4.19909C23.3018 4.1711 23.702 3.80721 23.702 3.41534V2.9115C23.6686 2.46364 23.2351 2.09976 22.7014 2.09976H22.7016ZM22.1347 14.4996H20.5672C20.3671 14.4996 20.2337 14.6116 20.2337 14.7795C20.2337 14.9475 20.3671 15.0594 20.5672 15.0594H22.1347V16.2071H20.5672C20.3671 16.2071 20.2337 16.319 20.2337 16.487C20.2337 16.6549 20.3671 16.7669 20.5672 16.7669H22.1347V17.1588C22.1013 18.4463 21.6678 19.2581 20.5672 19.3141C19.3665 19.2581 19.033 18.3624 19.033 17.1867V13.324H22.1347V14.4996ZM22.1347 7.61383H20.5672C20.3671 7.61383 20.2337 7.72579 20.2337 7.89374C20.2337 8.06168 20.3671 8.17365 20.5672 8.17365H22.1347V9.32128H20.5672C20.3671 9.32128 20.2337 9.43324 20.2337 9.60119C20.2337 9.76913 20.3671 9.8811 20.5672 9.8811H22.1347V11.0287H20.5672C20.3671 11.0287 20.2337 11.1407 20.2337 11.3086C20.2337 11.4766 20.3671 11.5885 20.5672 11.5885H22.1347V12.7362H19.033V4.19877H22.1347V7.61383ZM23.0018 3.41518C23.0018 3.55513 22.8684 3.6671 22.7016 3.6671H18.2658C18.099 3.6671 17.9656 3.55513 17.9656 3.41518V2.91134C17.9656 2.77139 18.099 2.65942 18.2658 2.65942H22.7016C22.8684 2.65942 23.0018 2.77139 23.0018 2.91134V3.41518Z" fill="#151921"/>
<path id="Vector_2" d="M16.8336 18.0549L12.7648 13.3805L12.3646 12.9327C12.1978 12.6528 12.0977 12.3449 12.0977 12.037V4.19949C12.598 4.1715 12.9982 3.83561 12.9982 3.41575V2.91191C12.9982 2.46405 12.5647 2.10017 12.031 2.10017H7.59518C7.06156 2.10017 6.628 2.46405 6.628 2.91191V3.38776C6.628 3.80762 7.02821 4.14351 7.52848 4.1715V11.9808C7.52848 12.2887 7.42842 12.5966 7.26167 12.8765L6.8281 13.3524L2.79245 18.0549C2.42559 18.3628 2.32553 18.8106 2.52564 19.2305C2.72575 19.6504 3.19266 19.9023 3.72627 19.9023H15.9659C16.4995 19.9023 16.9664 19.6504 17.1665 19.2305C17.3666 18.8106 17.1999 18.3628 16.833 18.0549H16.8336ZM7.29521 3.41575V2.91191C7.29521 2.77195 7.42861 2.65999 7.59537 2.65999H12.0312C12.198 2.65999 12.3314 2.77195 12.3314 2.91191V3.38776C12.3314 3.52771 12.198 3.63967 12.0312 3.63967H7.59537C7.42861 3.63967 7.29521 3.52771 7.29521 3.41575ZM9.86323 8.17422H11.3974V9.32185H9.86323C9.66313 9.32185 9.52972 9.43381 9.52972 9.60176C9.52972 9.7697 9.66313 9.88167 9.86323 9.88167H11.3974V11.0293H9.86323C9.66313 11.0293 9.52972 11.1413 9.52972 11.3092C9.52972 11.4772 9.66313 11.5891 9.86323 11.5891H11.3974V11.981C11.3974 12.2329 11.4307 12.4848 11.5308 12.7367H8.06228C8.16233 12.4848 8.19569 12.2329 8.19569 11.981V4.19949H11.4307V7.6144H9.89658C9.69648 7.6144 9.56308 7.72636 9.56308 7.89431C9.56308 8.06225 9.69648 8.17422 9.86323 8.17422ZM16.4999 19.0066C16.3998 19.2025 16.1997 19.3145 15.9329 19.3145H3.69331C3.4265 19.3145 3.22639 19.2025 3.12634 18.9786C3.02629 18.7826 3.09299 18.5587 3.25974 18.3908L7.32856 13.8002L7.76212 13.3524H11.8976L12.3312 13.8002L12.9649 14.528H11.6308C11.4307 14.528 11.2973 14.64 11.2973 14.8079C11.2973 14.9759 11.4307 15.0878 11.6308 15.0878H13.4651L13.5652 15.1718L14.4657 16.2075H13.265C12.9315 16.2075 12.7648 16.3194 12.7648 16.4874C12.7648 16.6553 12.8982 16.7673 13.0983 16.7673H14.9659L16.4334 18.4467C16.5334 18.5867 16.6001 18.8106 16.5001 19.0066H16.4999Z" fill="#151921"/>
</g>
</g>
</svg>
