<?xml version="1.0" encoding="UTF-8"?>
<!-- Generator: visioncortex VTracer 0.6.3 -->
<svg version="1.1" xmlns="http://www.w3.org/2000/svg" width="1280" height="1280">
<path d="M0 0 C1.44 -0 1.44 -0 2.9 -0.01 C3.94 -0.01 4.99 -0.01 6.06 -0 C7.12 -0 8.18 -0.01 9.28 -0.01 C11.53 -0.01 13.77 -0.01 16.02 -0 C19.48 0 22.94 -0 26.39 -0.01 C28.57 -0.01 30.75 -0.01 32.93 -0 C34.5 -0.01 34.5 -0.01 36.09 -0.01 C37.05 -0.01 38.01 -0 38.99 0 C39.84 0 40.69 0 41.56 0 C43.5 0.13 43.5 0.13 44.5 1.13 C45.86 1.44 47.24 1.7 48.62 1.94 C67.82 5.67 67.82 5.67 75.59 10.1 C77.69 11.27 77.69 11.27 80.79 12.52 C84.44 14.06 87.86 15.91 91.31 17.88 C92.21 18.4 92.21 18.4 93.14 18.92 C97.79 21.62 102.14 24.61 106.41 27.88 C108.66 29.47 108.66 29.47 112.5 29.13 C112.5 28.47 112.5 27.81 112.5 27.13 C116.56 23.58 122.05 19.13 127.5 19.13 C127.5 18.47 127.5 17.81 127.5 17.13 C157.2 2.64 157.2 2.64 170.37 1.57 C173.23 1.52 173.23 1.52 175.5 0.13 C178.31 0.04 181.09 0.01 183.91 0.03 C184.75 0.03 185.59 0.03 186.46 0.04 C189.16 0.04 191.86 0.05 194.56 0.07 C196.38 0.07 198.21 0.08 200.04 0.08 C204.52 0.09 209.01 0.11 213.5 0.13 C213.5 0.79 213.5 1.45 213.5 2.13 C214.36 2.25 214.36 2.25 215.25 2.38 C219 3.63 220.78 5.8 222.64 9.25 C224.49 13.22 225.5 15.67 225.5 20.13 C226.2 20.31 226.9 20.49 227.62 20.68 C233.39 22.21 238.97 23.88 244.5 26.13 C245.97 26.72 245.97 26.72 247.48 27.32 C260.81 32.75 260.81 32.75 262.5 36.13 C264.81 36.74 264.81 36.74 267.5 37.13 C268.28 37.4 269.06 37.67 269.87 37.94 C272.73 38.41 272.73 38.41 275.56 36.19 C280.55 33.08 285.82 33.28 291.5 34.13 C298.31 36.61 303.9 42.71 308.5 48.13 C308.5 48.79 308.5 49.45 308.5 50.13 C309.16 50.13 309.82 50.13 310.5 50.13 C310.83 51.45 311.16 52.77 311.5 54.13 C312.16 54.13 312.82 54.13 313.5 54.13 C315.19 56.43 316.76 58.73 318.31 61.13 C318.76 61.82 319.21 62.51 319.67 63.22 C320.56 64.58 321.44 65.94 322.32 67.31 C323.26 68.76 324.21 70.21 325.16 71.66 C327.76 75.68 329.72 79.68 331.5 84.13 C331.83 84.79 332.16 85.45 332.5 86.13 C333.55 86.17 334.6 86.2 335.69 86.24 C359.82 87.27 382.13 94.02 403.5 105.13 C403.5 105.79 403.5 106.45 403.5 107.13 C404.24 107.24 404.98 107.35 405.74 107.46 C408.62 108.16 410.22 109.05 412.6 110.78 C413.34 111.31 414.07 111.84 414.83 112.39 C415.59 112.94 416.34 113.5 417.12 114.07 C418.63 115.16 420.15 116.25 421.66 117.34 C422.32 117.83 422.99 118.32 423.67 118.82 C425.26 119.96 426.87 121.05 428.5 122.13 C428.5 122.79 428.5 123.45 428.5 124.13 C429.08 124.39 429.67 124.66 430.28 124.93 C432.58 126.17 434.1 127.48 435.95 129.32 C436.88 130.24 436.88 130.24 437.82 131.18 C438.46 131.83 439.09 132.47 439.75 133.13 C440.4 133.77 441.05 134.41 441.71 135.07 C442.33 135.69 442.94 136.31 443.57 136.94 C444.14 137.51 444.7 138.07 445.27 138.65 C446.5 140.13 446.5 140.13 446.5 142.13 C447.16 142.13 447.82 142.13 448.5 142.13 C449.81 143.68 449.81 143.68 451.29 145.86 C452.11 147.06 452.11 147.06 452.94 148.28 C453.52 149.14 454.09 149.99 454.68 150.88 C455.27 151.75 455.86 152.62 456.46 153.51 C462.3 162.23 467.93 170.85 471.61 180.73 C472.18 182.27 472.79 183.8 473.45 185.31 C475.92 190.98 477.6 196.79 479.18 202.75 C479.51 203.95 479.51 203.95 479.83 205.18 C480.82 209 481.63 212.73 482.08 216.65 C482.11 219.95 482.11 219.95 483.5 221.13 C485.41 221.29 487.33 221.41 489.25 221.5 C506.54 222.72 521.26 229.37 536.5 237.13 C536.5 237.79 536.5 238.45 536.5 239.13 C537.28 239.44 538.06 239.75 538.87 240.07 C541.5 241.13 541.5 241.13 543.5 242.13 C543.5 242.79 543.5 243.45 543.5 244.13 C544.08 244.4 544.66 244.66 545.26 244.94 C554.78 250.01 562.77 260.18 568.5 269.13 C568.5 270.12 568.5 271.11 568.5 272.13 C569.16 272.13 569.82 272.13 570.5 272.13 C570.83 273.78 571.16 275.43 571.5 277.13 C572.16 277.13 572.82 277.13 573.5 277.13 C578.58 289.72 578.58 289.72 580.5 295.13 C580.77 295.86 581.03 296.6 581.31 297.36 C585.99 311.23 584.62 326.68 584.5 341.13 C585.03 341.39 585.56 341.66 586.11 341.93 C589.57 343.67 593.03 345.4 596.5 347.13 C596.5 347.79 596.5 348.45 596.5 349.13 C597.03 349.2 597.57 349.28 598.12 349.36 C601.45 350.44 603.73 352.37 606.5 354.5 C607.53 355.3 608.56 356.09 609.62 356.9 C610.57 357.64 611.52 358.37 612.5 359.13 C613.28 359.68 614.06 360.23 614.87 360.79 C615.41 361.23 615.94 361.68 616.5 362.13 C616.5 362.79 616.5 363.45 616.5 364.13 C617.04 364.35 617.58 364.56 618.14 364.79 C621.31 366.59 623.7 369.05 626.25 371.63 C626.75 372.13 627.26 372.63 627.78 373.14 C631.5 376.88 631.5 376.88 631.5 379.13 C632.16 379.13 632.82 379.13 633.5 379.13 C634.73 380.53 634.73 380.53 636.11 382.5 C636.61 383.21 637.11 383.93 637.63 384.67 C638.17 385.44 638.7 386.21 639.25 387 C640.06 388.17 640.06 388.17 640.89 389.37 C646.82 397.95 652.08 406.68 656.5 416.13 C656.91 417.01 657.32 417.89 657.74 418.79 C661.64 427.61 664.16 436.8 666.5 446.13 C666.68 446.87 666.87 447.61 667.06 448.37 C668.31 453.58 668.9 458.6 669.12 463.94 C669.18 465.12 669.18 465.12 669.23 466.33 C669.51 472.6 669.66 478.85 669.5 485.13 C669.49 486.13 669.49 486.13 669.47 487.15 C669.27 502.78 665.84 517.18 661.5 532.13 C662.16 532.13 662.82 532.13 663.5 532.13 C663.5 532.79 663.5 533.45 663.5 534.13 C664.04 534.35 664.58 534.56 665.14 534.79 C668.31 536.59 670.7 539.05 673.25 541.63 C673.75 542.13 674.26 542.63 674.78 543.14 C678.5 546.88 678.5 546.88 678.5 549.13 C679.49 549.46 680.48 549.79 681.5 550.13 C681.5 550.79 681.5 551.45 681.5 552.13 C682.16 552.13 682.82 552.13 683.5 552.13 C684.94 553.86 686.3 555.67 687.62 557.5 C688.35 558.5 689.07 559.5 689.82 560.53 C691.5 563.13 691.5 563.13 691.5 565.13 C692.16 565.13 692.82 565.13 693.5 565.13 C695.14 567.43 696.65 569.72 698.12 572.13 C698.79 573.2 698.79 573.2 699.46 574.3 C705.65 584.47 710.83 595.18 715.5 606.13 C716.03 607.33 716.57 608.52 717.12 609.75 C718.52 613.18 719.53 616.56 720.5 620.13 C720.99 621.73 721.49 623.34 722 624.94 C723.5 629.97 724.57 634.97 725.5 640.13 C725.76 641.33 726.02 642.52 726.29 643.75 C730.85 666.34 730.12 691.61 725.5 714.13 C725.31 715.18 725.12 716.22 724.92 717.3 C720.97 738.68 711.2 759.37 700.5 778.13 C699.84 778.13 699.18 778.13 698.5 778.13 C698.38 778.72 698.25 779.31 698.13 779.92 C697.12 783.44 694.83 786.15 692.68 789.07 C692.24 789.67 691.81 790.28 691.35 790.91 C690.08 792.66 688.79 794.4 687.5 796.13 C686.77 797.1 686.04 798.07 685.3 799.07 C684.41 800.09 684.41 800.09 683.5 801.13 C682.84 801.13 682.18 801.13 681.5 801.13 C681.25 801.69 681 802.24 680.75 802.82 C679.27 805.55 677.56 807.81 675.5 810.13 C674.84 810.13 674.18 810.13 673.5 810.13 C673.17 811.12 672.84 812.11 672.5 813.13 C671.84 813.13 671.18 813.13 670.5 813.13 C670.5 813.79 670.5 814.45 670.5 815.13 C669.04 816.64 669.04 816.64 667.12 818.25 C666.18 819.06 666.18 819.06 665.22 819.89 C663.5 821.13 663.5 821.13 661.5 821.13 C661.5 821.79 661.5 822.45 661.5 823.13 C659.83 824.46 658.16 825.8 656.5 827.13 C656.5 827.79 656.5 828.45 656.5 829.13 C657.49 829.62 657.49 829.62 658.5 830.13 C658.5 830.79 658.5 831.45 658.5 832.13 C659.03 832.36 659.57 832.58 660.12 832.82 C664.35 835.15 668.35 838.45 671.5 842.13 C671.5 842.79 671.5 843.45 671.5 844.13 C672.16 844.13 672.82 844.13 673.5 844.13 C675.12 845.77 675.12 845.77 676.93 847.94 C679.47 850.95 679.47 850.95 682.22 853.77 C683.5 855.13 683.5 855.13 683.5 857.13 C684.16 857.13 684.82 857.13 685.5 857.13 C686.76 858.47 686.76 858.47 688.18 860.36 C688.71 861.05 689.24 861.75 689.79 862.46 C690.35 863.22 690.91 863.98 691.5 864.75 C692.08 865.52 692.66 866.3 693.25 867.09 C695.01 869.43 696.75 871.78 698.5 874.13 C699.23 875.12 699.23 875.12 699.99 876.13 C705.46 883.5 710.3 890.95 714.5 899.13 C715.22 900.49 715.95 901.85 716.68 903.2 C722.49 914.01 727.84 924.64 731.59 936.35 C732.36 938.7 733.17 941.01 734.06 943.32 C736.47 949.66 738.58 955.97 739.96 962.62 C740.36 964.49 740.79 966.35 741.25 968.2 C742.73 974.25 743.82 980.06 744.23 986.27 C744.48 988.94 744.95 991.42 745.51 994.03 C747.03 1002.97 746.79 1011.99 746.76 1021.03 C746.75 1024.12 746.76 1027.22 746.77 1030.31 C746.78 1048.21 746.78 1048.21 744.96 1056.79 C744.45 1059.35 744.26 1061.84 744.12 1064.44 C743.66 1070.36 742.08 1075.88 740.43 1081.55 C739.51 1085.08 738.99 1088.52 738.5 1092.13 C737.92 1094.29 737.92 1094.29 737.25 1096.19 C736.98 1096.95 736.71 1097.71 736.44 1098.49 C736.13 1099.36 735.82 1100.23 735.5 1101.13 C734.94 1102.75 734.94 1102.75 734.36 1104.4 C730.36 1115.84 725.7 1126.85 720.56 1137.82 C719.95 1139.14 719.95 1139.14 719.33 1140.48 C716.84 1145.72 714.07 1150.49 710.73 1155.23 C709.33 1157.21 709.33 1157.21 708.5 1160.13 C707.84 1160.13 707.18 1160.13 706.5 1160.13 C706.43 1160.69 706.37 1161.24 706.31 1161.82 C705.13 1165.16 703.13 1166.79 700.5 1169.13 C699.65 1169.89 698.8 1170.66 697.93 1171.44 C692.91 1173.91 688.01 1173.79 682.5 1173.13 C680.51 1172.3 679.01 1171.65 677.5 1170.13 C676.26 1171.61 676.26 1171.61 675 1173.13 C672.56 1175.99 670 1178.64 667.31 1181.25 C664.46 1184.05 662.53 1186.69 660.5 1190.13 C656.87 1194.23 653.27 1197.42 648.5 1200.13 C647.79 1200.85 647.09 1201.57 646.37 1202.32 C644.5 1204.13 644.5 1204.13 641.5 1204.13 C642.49 1204.46 643.48 1204.79 644.5 1205.13 C647.37 1209.12 647.81 1214.44 647.25 1219.22 C646.25 1223.85 644.57 1227.44 641.5 1231.13 C638.75 1232.5 638.75 1232.5 636.5 1233.13 C636.5 1233.79 636.5 1234.45 636.5 1235.13 C634.77 1236.39 634.77 1236.39 632.37 1237.81 C631.5 1238.33 630.63 1238.84 629.73 1239.38 C628.35 1240.18 628.35 1240.18 626.93 1241 C626.04 1241.53 625.14 1242.06 624.22 1242.61 C622.46 1243.65 620.7 1244.68 618.94 1245.71 C617.41 1246.59 615.9 1247.49 614.39 1248.4 C609.82 1251.13 609.82 1251.13 606.5 1251.13 C606.5 1251.79 606.5 1252.45 606.5 1253.13 C605.87 1253.37 605.24 1253.61 604.59 1253.86 C600.46 1255.48 596.42 1257.11 592.5 1259.19 C588.7 1261.16 584.82 1262.32 580.7 1263.42 C578.24 1264.1 578.24 1264.1 575.5 1266.13 C573.53 1266.68 571.55 1267.18 569.56 1267.63 C565.45 1268.52 565.45 1268.52 561.61 1270.13 C558.45 1271.63 555.1 1272.05 551.68 1272.63 C546.5 1273.51 541.55 1274.65 536.5 1276.13 C528.39 1277.96 520.27 1278.47 512 1278.79 C511.21 1278.82 510.43 1278.85 509.62 1278.88 C508.57 1278.92 508.57 1278.92 507.5 1278.96 C505.48 1279.08 505.48 1279.08 503.48 1279.64 C500.08 1280.48 496.6 1280.27 493.12 1280.25 C492.38 1280.26 491.64 1280.26 490.87 1280.27 C486.62 1280.26 482.7 1279.84 478.5 1279.13 C476.24 1278.99 473.98 1278.91 471.72 1278.84 C458.31 1278.39 445.58 1276.37 432.6 1272.94 C430.24 1272.32 427.89 1271.75 425.52 1271.19 C418.92 1269.64 412.61 1268.04 406.48 1265.06 C404.45 1264.11 402.45 1263.42 400.31 1262.75 C391.03 1259.77 382.09 1255.66 373.58 1250.91 C371.05 1249.96 369.99 1250.15 367.5 1251.13 C366.51 1251.79 365.52 1252.45 364.5 1253.13 C363.51 1253.13 362.52 1253.13 361.5 1253.13 C361.5 1253.79 361.5 1254.45 361.5 1255.13 C353.67 1259.77 346.06 1263.99 337.5 1267.13 C335.95 1267.77 334.41 1268.42 332.87 1269.07 C325.9 1271.86 318.69 1273.98 311.5 1276.13 C309.67 1276.68 309.67 1276.68 307.81 1277.24 C305.03 1277.99 302.53 1278.46 299.68 1278.69 C296.47 1278.96 296.47 1278.96 293.5 1280.13 C291.81 1280.22 290.11 1280.26 288.42 1280.26 C287.36 1280.26 286.3 1280.27 285.21 1280.27 C284.07 1280.27 282.92 1280.26 281.74 1280.26 C279.99 1280.26 279.99 1280.26 278.19 1280.27 C275.71 1280.27 273.24 1280.26 270.76 1280.26 C266.95 1280.25 263.14 1280.26 259.33 1280.27 C256.92 1280.27 254.52 1280.26 252.12 1280.26 C250.4 1280.27 250.4 1280.27 248.64 1280.27 C247.58 1280.27 246.53 1280.26 245.44 1280.26 C244.51 1280.26 243.58 1280.26 242.61 1280.26 C240.5 1280.13 240.5 1280.13 239.5 1279.13 C238.2 1279.05 236.9 1278.96 235.56 1278.88 C225.05 1277.93 214.01 1274.71 204.54 1270.08 C202.18 1268.98 199.78 1268.16 197.31 1267.32 C190.4 1264.87 183.98 1261.5 177.5 1258.13 C177.5 1257.47 177.5 1256.81 177.5 1256.13 C176.92 1256.01 176.34 1255.88 175.75 1255.75 C173.47 1255.12 171.57 1254.24 169.5 1253.13 C169.5 1252.47 169.5 1251.81 169.5 1251.13 C168.41 1250.73 168.41 1250.73 167.3 1250.32 C164.53 1249.14 162.19 1247.79 159.68 1246.13 C158.89 1245.61 158.1 1245.1 157.29 1244.57 C156.4 1243.86 156.4 1243.86 155.5 1243.13 C155.5 1242.47 155.5 1241.81 155.5 1241.13 C154.69 1240.8 154.69 1240.8 153.87 1240.46 C150.69 1238.68 148.19 1236.29 145.56 1233.82 C145.05 1233.34 144.53 1232.87 144.01 1232.38 C142.49 1230.98 140.99 1229.55 139.5 1228.13 C138.55 1227.23 137.6 1226.33 136.62 1225.4 C134.5 1223.13 134.5 1223.13 134.5 1221.13 C133.84 1221.13 133.18 1221.13 132.5 1221.13 C130.9 1219.31 129.44 1217.5 128 1215.57 C127.56 1214.99 127.12 1214.42 126.67 1213.82 C120.5 1205.59 114.72 1197 109.5 1188.13 C106.13 1192.9 102.77 1197.68 99.56 1202.57 C97.18 1206.15 94.74 1209.68 92.25 1213.19 C91.58 1214.13 90.92 1215.07 90.23 1216.04 C89.66 1216.73 89.09 1217.42 88.5 1218.13 C87.84 1218.13 87.18 1218.13 86.5 1218.13 C86.23 1218.72 85.97 1219.31 85.7 1219.91 C84.45 1222.21 83.15 1223.74 81.31 1225.58 C80.69 1226.2 80.08 1226.82 79.44 1227.46 C78.48 1228.41 78.48 1228.41 77.5 1229.38 C76.85 1230.03 76.21 1230.68 75.55 1231.35 C74.93 1231.96 74.32 1232.58 73.68 1233.21 C73.12 1233.77 72.56 1234.33 71.98 1234.91 C70.5 1236.13 70.5 1236.13 68.5 1236.13 C68.5 1236.79 68.5 1237.45 68.5 1238.13 C66.41 1239.92 64.32 1241.6 62.12 1243.25 C61.52 1243.72 60.91 1244.19 60.29 1244.67 C55.76 1248.13 55.76 1248.13 53.5 1248.13 C53.5 1248.79 53.5 1249.45 53.5 1250.13 C51.57 1251.48 49.58 1252.73 47.56 1253.94 C46.96 1254.3 46.37 1254.66 45.76 1255.02 C44.01 1256.07 42.25 1257.1 40.5 1258.13 C39.67 1258.62 38.84 1259.12 37.98 1259.63 C33.44 1262.25 28.83 1264.3 23.94 1266.17 C21.7 1267.05 19.55 1268.03 17.37 1269.07 C6.97 1273.76 -5.55 1277.86 -16.94 1278.69 C-20.03 1278.7 -20.03 1278.7 -22.5 1280.13 C-24.16 1280.23 -25.81 1280.26 -27.47 1280.26 C-28.52 1280.26 -29.58 1280.27 -30.67 1280.27 C-31.82 1280.27 -32.97 1280.26 -34.16 1280.26 C-35.92 1280.26 -35.92 1280.26 -37.71 1280.27 C-40.2 1280.27 -42.68 1280.26 -45.17 1280.26 C-48.99 1280.25 -52.81 1280.26 -56.62 1280.27 C-59.03 1280.27 -61.44 1280.26 -63.85 1280.26 C-65.57 1280.27 -65.57 1280.27 -67.34 1280.27 C-68.39 1280.27 -69.45 1280.26 -70.54 1280.26 C-71.95 1280.26 -71.95 1280.26 -73.38 1280.26 C-75.5 1280.13 -75.5 1280.13 -76.5 1279.13 C-77.94 1278.97 -79.39 1278.86 -80.83 1278.77 C-86.88 1278.21 -92.46 1276.68 -98.25 1274.94 C-99.84 1274.47 -99.84 1274.47 -101.46 1273.99 C-117.86 1269 -137.35 1261.56 -150.5 1250.13 C-150.5 1249.47 -150.5 1248.81 -150.5 1248.13 C-151.4 1247.94 -151.4 1247.94 -152.32 1247.75 C-154.5 1247.13 -154.5 1247.13 -157.5 1245.13 C-157.5 1244.47 -157.5 1243.81 -157.5 1243.13 C-158.25 1242.87 -159 1242.61 -159.76 1242.34 C-162.55 1241.11 -164.17 1239.88 -166.35 1237.79 C-167.04 1237.14 -167.73 1236.49 -168.44 1235.82 C-169.14 1235.14 -169.84 1234.46 -170.57 1233.75 C-171.63 1232.75 -171.63 1232.75 -172.71 1231.72 C-174.65 1229.86 -176.58 1228 -178.5 1226.13 C-179.33 1225.35 -180.15 1224.58 -181 1223.78 C-182.5 1222.13 -182.5 1222.13 -182.5 1220.13 C-183.16 1220.13 -183.82 1220.13 -184.5 1220.13 C-186.09 1218.34 -186.09 1218.34 -187.88 1215.94 C-189.85 1213.32 -191.82 1210.76 -193.94 1208.25 C-195.5 1206.13 -195.5 1206.13 -195.5 1203.13 C-196.16 1203.13 -196.82 1203.13 -197.5 1203.13 C-199.15 1200.68 -200.66 1198.25 -202.13 1195.69 C-202.57 1194.92 -203.02 1194.15 -203.48 1193.36 C-213.85 1175.16 -221.83 1155.82 -225.5 1135.13 C-225.71 1134.11 -225.91 1133.09 -226.12 1132.04 C-227.05 1127.3 -227.6 1122.97 -227.5 1118.13 C-228.23 1118.16 -228.96 1118.2 -229.71 1118.23 C-246.68 1118.67 -264.6 1115.46 -279.5 1107.13 C-280.45 1106.62 -281.39 1106.11 -282.36 1105.58 C-284.31 1104.52 -286.25 1103.46 -288.18 1102.4 C-289.61 1101.62 -291.05 1100.86 -292.5 1100.13 C-292.5 1099.47 -292.5 1098.81 -292.5 1098.13 C-293.49 1098.13 -294.48 1098.13 -295.5 1098.13 C-295.5 1097.47 -295.5 1096.81 -295.5 1096.13 C-296.09 1095.87 -296.67 1095.6 -297.27 1095.33 C-301.18 1093.23 -304.24 1090.12 -307.5 1087.13 C-308.06 1086.65 -308.62 1086.17 -309.19 1085.68 C-318.44 1077.23 -327.93 1063.62 -331.22 1051.49 C-332.34 1048.84 -332.34 1048.84 -335.41 1047.91 C-337.19 1047.49 -337.19 1047.49 -339 1047.07 C-348.28 1044.69 -356.64 1041.13 -365.32 1037.13 C-366.05 1036.8 -366.78 1036.46 -367.53 1036.12 C-371.65 1034.19 -375.01 1032.1 -378.5 1029.13 C-380.22 1028.15 -381.93 1027.16 -383.66 1026.2 C-386.79 1024.38 -389.64 1022.35 -392.5 1020.13 C-392.5 1019.47 -392.5 1018.81 -392.5 1018.13 C-393.23 1017.9 -393.95 1017.68 -394.69 1017.44 C-398.13 1015.84 -399.91 1013.91 -402.5 1011.13 C-404.64 1009.05 -406.78 1006.97 -408.93 1004.9 C-410.5 1003.13 -410.5 1003.13 -410.5 1001.13 C-411.16 1001.13 -411.82 1001.13 -412.5 1001.13 C-414.1 999.31 -415.56 997.5 -417 995.57 C-417.66 994.7 -417.66 994.7 -418.33 993.81 C-444.35 959.05 -455.88 918.21 -450.21 874.85 C-449.02 866.71 -447.45 858.83 -444.5 851.13 C-443.91 849.43 -443.91 849.43 -443.31 847.69 C-439.92 837.95 -439.92 837.95 -437.84 833.84 C-436.31 831.3 -436.31 831.3 -436.63 828.88 C-437.5 826.77 -437.5 826.77 -440.5 825.13 C-440.5 824.47 -440.5 823.81 -440.5 823.13 C-441.25 822.87 -442 822.61 -442.77 822.34 C-445.57 821.1 -447.12 819.88 -449.27 817.72 C-449.93 817.06 -450.59 816.4 -451.28 815.72 C-451.95 815.03 -452.62 814.34 -453.32 813.63 C-454.01 812.94 -454.7 812.25 -455.42 811.54 C-460.5 806.4 -460.5 806.4 -460.5 804.13 C-461.16 804.13 -461.82 804.13 -462.5 804.13 C-465.5 800.67 -465.5 800.67 -465.5 798.13 C-466.16 798.13 -466.82 798.13 -467.5 798.13 C-477.27 786.86 -485.2 773.58 -491.5 760.13 C-492.02 759.08 -492.53 758.03 -493.06 756.95 C-496.26 750.3 -498.73 743.71 -500.74 736.61 C-501.27 734.21 -501.27 734.21 -502.5 733.13 C-503.49 719.94 -503.49 719.94 -499.5 714.13 C-498.84 714.13 -498.18 714.13 -497.5 714.13 C-497.5 713.47 -497.5 712.81 -497.5 712.13 C-496.84 712.13 -496.18 712.13 -495.5 712.13 C-495.5 711.47 -495.5 710.81 -495.5 710.13 C-493 708.5 -493 708.5 -490.5 707.13 C-490.65 703.36 -490.79 699.59 -490.94 695.82 C-491 694.24 -491 694.24 -491.06 692.63 C-491.31 686.51 -491.71 680.46 -492.4 674.38 C-492.5 672.13 -492.5 672.13 -491.5 669.13 C-490.87 665.64 -490.65 662.59 -491.5 659.13 C-493.57 657.2 -495.72 655.99 -498.17 654.59 C-502.01 652.19 -504.07 649.42 -505.5 645.13 C-506.24 638.64 -506.1 633.15 -503.5 627.13 C-503.38 626.06 -503.26 624.98 -503.13 623.88 C-502.47 619.94 -501.23 617.03 -499.54 613.45 C-498.53 611.18 -497.75 608.94 -497 606.57 C-495.86 603.01 -494.46 599.79 -492.73 596.48 C-491.77 594.64 -490.85 592.77 -489.94 590.9 C-486.24 583.32 -482.26 576.11 -477.5 569.13 C-477.09 568.52 -476.68 567.92 -476.25 567.3 C-474.91 565.34 -473.55 563.39 -472.19 561.44 C-471.76 560.82 -471.33 560.19 -470.88 559.55 C-469.81 558.04 -468.66 556.58 -467.5 555.13 C-466.84 555.13 -466.18 555.13 -465.5 555.13 C-465.24 554.55 -464.97 553.96 -464.69 553.36 C-463.49 551.1 -462.17 549.32 -460.5 547.38 C-459.99 546.77 -459.47 546.15 -458.94 545.52 C-457.5 544.13 -457.5 544.13 -455.5 544.13 C-455.1 543.17 -455.1 543.17 -454.69 542.19 C-453.5 540.13 -453.5 540.13 -450.5 539.13 C-450.5 538.47 -450.5 537.81 -450.5 537.13 C-448.97 535.62 -448.97 535.62 -447 534 C-446.35 533.47 -445.7 532.93 -445.04 532.37 C-444.28 531.76 -444.28 531.76 -443.5 531.13 C-444 528.03 -444.79 525.34 -445.88 522.38 C-454.93 495.31 -454.53 459.9 -444.5 433.13 C-444.16 432.09 -443.81 431.04 -443.45 429.97 C-437.73 413.09 -428.99 395.88 -417.5 382.13 C-416.84 382.13 -416.18 382.13 -415.5 382.13 C-415.28 381.59 -415.06 381.05 -414.82 380.49 C-413.09 377.38 -410.79 374.91 -408.38 372.32 C-407.89 371.79 -407.4 371.26 -406.9 370.72 C-403.04 366.6 -399.11 362.41 -394.5 359.13 C-393.84 359.13 -393.18 359.13 -392.5 359.13 C-392.5 358.47 -392.5 357.81 -392.5 357.13 C-390.14 355.4 -387.78 353.78 -385.32 352.19 C-384.64 351.75 -383.97 351.31 -383.28 350.85 C-381.36 349.6 -379.43 348.36 -377.5 347.13 C-376.12 346.23 -376.12 346.23 -374.7 345.31 C-372.5 344.13 -372.5 344.13 -369.5 344.13 C-369.5 343.47 -369.5 342.81 -369.5 342.13 C-368.18 342.13 -366.86 342.13 -365.5 342.13 C-365.58 341.47 -365.66 340.82 -365.73 340.14 C-366.47 333.13 -366.53 326.35 -366.19 319.32 C-366.16 318.32 -366.12 317.32 -366.08 316.3 C-365.86 311.2 -365.38 306.92 -363.5 302.13 C-363.32 300.49 -363.32 300.49 -363.13 298.82 C-362.46 294.89 -361.22 291.93 -359.52 288.36 C-358.36 285.93 -358.36 285.93 -357.32 282.44 C-353.86 273 -346.42 262.37 -339.5 255.13 C-338.84 255.13 -338.18 255.13 -337.5 255.13 C-337.17 254.14 -336.84 253.15 -336.5 252.13 C-335.84 252.13 -335.18 252.13 -334.5 252.13 C-334.5 251.47 -334.5 250.81 -334.5 250.13 C-332.39 248.18 -332.39 248.18 -329.63 246 C-328.72 245.28 -327.82 244.56 -326.89 243.81 C-324.5 242.13 -324.5 242.13 -322.5 242.13 C-322.5 241.47 -322.5 240.81 -322.5 240.13 C-320.42 238.62 -320.42 238.62 -317.69 237 C-316.8 236.47 -315.9 235.93 -314.98 235.37 C-312.5 234.13 -312.5 234.13 -309.5 234.13 C-309.5 233.47 -309.5 232.81 -309.5 232.13 C-308.8 231.88 -308.1 231.62 -307.38 231.36 C-306.43 231.02 -305.48 230.67 -304.5 230.32 C-302.99 229.77 -302.99 229.77 -301.44 229.21 C-299.13 228.36 -296.85 227.47 -294.57 226.57 C-284.47 222.84 -275.26 221.7 -264.5 222.13 C-264.37 220.91 -264.37 220.91 -264.24 219.66 C-261.92 200.73 -255.46 183 -246.27 166.34 C-244.96 163.96 -243.69 161.58 -242.5 159.13 C-241.84 159.13 -241.18 159.13 -240.5 159.13 C-240.13 158.06 -240.13 158.06 -239.75 156.98 C-238.36 153.81 -236.63 151.34 -234.57 148.57 C-233.53 147.17 -233.53 147.17 -232.48 145.75 C-231.83 144.89 -231.17 144.02 -230.5 143.13 C-229.7 141.97 -229.7 141.97 -228.88 140.79 C-228.2 139.97 -228.2 139.97 -227.5 139.13 C-226.84 139.13 -226.18 139.13 -225.5 139.13 C-225.19 138.33 -225.19 138.33 -224.88 137.5 C-222.97 134.21 -220.46 131.54 -217.5 129.13 C-216.84 129.13 -216.18 129.13 -215.5 129.13 C-215.17 128.14 -214.84 127.15 -214.5 126.13 C-213.84 126.13 -213.18 126.13 -212.5 126.13 C-212.5 125.47 -212.5 124.81 -212.5 124.13 C-210.85 123.47 -209.2 122.81 -207.5 122.13 C-207.5 121.47 -207.5 120.81 -207.5 120.13 C-205.12 118.31 -202.74 116.61 -200.25 114.94 C-199.53 114.45 -198.8 113.96 -198.05 113.45 C-189.68 107.84 -181.36 102.58 -171.88 99.03 C-169.46 98.11 -167.11 97.08 -164.75 96 C-155.49 91.86 -145.99 90.14 -136.01 88.59 C-133.52 88.25 -133.52 88.25 -131.5 87.13 C-128.62 86.9 -125.76 86.71 -122.88 86.57 C-122.08 86.52 -121.28 86.48 -120.45 86.44 C-118.47 86.33 -116.49 86.23 -114.5 86.13 C-112.19 81.51 -109.88 76.89 -107.5 72.13 C-106.84 72.13 -106.18 72.13 -105.5 72.13 C-105.17 70.48 -104.84 68.83 -104.5 67.13 C-103.84 67.13 -103.18 67.13 -102.5 67.13 C-102.43 66.6 -102.35 66.08 -102.28 65.54 C-101.18 62.14 -99.18 59.45 -97.13 56.57 C-96.73 55.99 -96.33 55.41 -95.92 54.82 C-91.91 49.11 -91.91 49.11 -89.5 47.13 C-88.84 47.13 -88.18 47.13 -87.5 47.13 C-87.19 46.33 -87.19 46.33 -86.88 45.5 C-84.97 42.21 -82.46 39.54 -79.5 37.13 C-78.84 37.13 -78.18 37.13 -77.5 37.13 C-77.17 36.14 -76.84 35.15 -76.5 34.13 C-75.84 34.13 -75.18 34.13 -74.5 34.13 C-74.5 33.47 -74.5 32.81 -74.5 32.13 C-72.95 30.82 -72.95 30.82 -70.77 29.34 C-69.97 28.79 -69.18 28.25 -68.36 27.69 C-67.5 27.11 -66.64 26.53 -65.75 25.94 C-64.88 25.36 -64.01 24.77 -63.12 24.16 C-53.25 17.56 -43.84 11.87 -32.5 8.13 C-31.15 7.62 -29.79 7.09 -28.44 6.57 C-20.8 3.71 -13.62 1.9 -5.5 1.13 C-3.9 -0.47 -2.22 0 0 0 Z M672.5 1170.13 C672.5 1170.79 672.5 1171.45 672.5 1172.13 C673.16 1171.8 673.82 1171.47 674.5 1171.13 C673.84 1170.8 673.18 1170.47 672.5 1170.13 Z M652.5 1192.13 C653.5 1194.13 653.5 1194.13 653.5 1194.13 Z " fill="#F9DDD0" transform="translate(519.50390625,-0.12939453125)"/>
<path d="M0 0 C5.65 3.29 10.55 8.24 14.75 13.2 C14.75 13.86 14.75 14.52 14.75 15.2 C15.41 15.2 16.07 15.2 16.75 15.2 C17.08 16.52 17.41 17.84 17.75 19.2 C18.41 19.2 19.07 19.2 19.75 19.2 C21.45 21.5 23.02 23.8 24.57 26.2 C25.02 26.88 25.47 27.57 25.93 28.28 C26.82 29.64 27.7 31.01 28.58 32.38 C29.52 33.83 30.47 35.28 31.42 36.73 C34.02 40.75 35.98 44.75 37.75 49.2 C38.08 49.86 38.41 50.52 38.75 51.2 C39.81 51.23 40.86 51.27 41.95 51.31 C66.07 52.33 88.39 59.09 109.75 70.2 C109.75 70.86 109.75 71.52 109.75 72.2 C110.49 72.31 111.23 72.42 112 72.53 C114.88 73.23 116.48 74.12 118.86 75.85 C119.59 76.38 120.33 76.91 121.09 77.45 C121.85 78.01 122.6 78.56 123.38 79.13 C124.89 80.23 126.4 81.32 127.92 82.41 C128.58 82.9 129.25 83.38 129.93 83.88 C131.51 85.02 133.13 86.11 134.75 87.2 C134.75 87.86 134.75 88.52 134.75 89.2 C135.34 89.46 135.93 89.72 136.54 90 C138.83 91.24 140.36 92.55 142.21 94.38 C142.83 95 143.44 95.62 144.08 96.25 C144.72 96.89 145.35 97.53 146 98.2 C146.65 98.84 147.3 99.48 147.97 100.14 C148.59 100.76 149.2 101.37 149.83 102.01 C150.39 102.57 150.95 103.13 151.53 103.71 C152.75 105.2 152.75 105.2 152.75 107.2 C153.41 107.2 154.07 107.2 154.75 107.2 C156.06 108.75 156.06 108.75 157.55 110.93 C158.36 112.12 158.36 112.12 159.2 113.34 C160.06 114.63 160.06 114.63 160.94 115.95 C161.53 116.81 162.11 117.68 162.72 118.58 C168.56 127.3 174.19 135.91 177.86 145.8 C178.44 147.34 179.05 148.87 179.71 150.37 C182.18 156.04 183.85 161.85 185.44 167.82 C185.76 169.02 185.76 169.02 186.09 170.24 C187.08 174.06 187.89 177.8 188.34 181.72 C188.37 185.02 188.37 185.02 189.75 186.2 C191.67 186.36 193.59 186.47 195.5 186.57 C212.79 187.78 227.52 194.43 242.75 202.2 C242.75 202.86 242.75 203.52 242.75 204.2 C243.54 204.5 244.32 204.81 245.13 205.13 C247.75 206.2 247.75 206.2 249.75 207.2 C249.75 207.86 249.75 208.52 249.75 209.2 C250.34 209.46 250.92 209.73 251.52 210 C261.04 215.08 269.03 225.25 274.75 234.2 C274.75 235.19 274.75 236.18 274.75 237.2 C275.41 237.2 276.07 237.2 276.75 237.2 C277.08 238.85 277.41 240.5 277.75 242.2 C278.41 242.2 279.07 242.2 279.75 242.2 C284.84 254.79 284.84 254.79 286.75 260.2 C287.02 260.93 287.29 261.66 287.57 262.42 C292.25 276.29 290.88 291.75 290.75 306.2 C291.29 306.46 291.82 306.73 292.36 307 C295.83 308.73 299.29 310.46 302.75 312.2 C302.75 312.86 302.75 313.52 302.75 314.2 C303.29 314.27 303.83 314.34 304.38 314.42 C307.71 315.51 309.99 317.44 312.75 319.57 C313.79 320.36 314.82 321.15 315.88 321.97 C316.83 322.7 317.78 323.44 318.75 324.2 C319.54 324.74 320.32 325.29 321.13 325.86 C321.67 326.3 322.2 326.74 322.75 327.2 C322.75 327.86 322.75 328.52 322.75 329.2 C323.3 329.41 323.84 329.63 324.39 329.85 C327.57 331.66 329.96 334.11 332.5 336.7 C333.01 337.19 333.52 337.69 334.04 338.21 C337.75 341.94 337.75 341.94 337.75 344.2 C338.41 344.2 339.07 344.2 339.75 344.2 C340.99 345.6 340.99 345.6 342.36 347.56 C342.87 348.28 343.37 348.99 343.89 349.73 C344.42 350.5 344.96 351.28 345.5 352.07 C346.32 353.24 346.32 353.24 347.15 354.43 C353.08 363.01 358.34 371.74 362.75 381.2 C363.17 382.07 363.58 382.95 364 383.86 C367.9 392.68 370.42 401.86 372.75 411.2 C372.94 411.94 373.13 412.68 373.32 413.44 C374.56 418.64 375.16 423.67 375.38 429.01 C375.43 430.19 375.43 430.19 375.49 431.39 C375.77 437.67 375.91 443.92 375.75 450.2 C375.74 451.19 375.74 451.19 375.73 452.21 C375.53 467.85 372.1 482.24 367.75 497.2 C368.41 497.2 369.07 497.2 369.75 497.2 C369.75 497.86 369.75 498.52 369.75 499.2 C370.3 499.41 370.84 499.63 371.39 499.85 C374.57 501.66 376.96 504.11 379.5 506.7 C380.01 507.19 380.52 507.69 381.04 508.21 C384.75 511.94 384.75 511.94 384.75 514.2 C385.74 514.53 386.73 514.86 387.75 515.2 C387.75 515.86 387.75 516.52 387.75 517.2 C388.41 517.2 389.07 517.2 389.75 517.2 C391.2 518.93 392.56 520.74 393.88 522.57 C394.6 523.57 395.33 524.57 396.07 525.59 C397.75 528.2 397.75 528.2 397.75 530.2 C398.41 530.2 399.07 530.2 399.75 530.2 C401.4 532.5 402.9 534.79 404.38 537.2 C405.04 538.27 405.04 538.27 405.72 539.37 C411.91 549.54 417.09 560.25 421.75 571.2 C422.29 572.39 422.83 573.59 423.38 574.82 C424.78 578.25 425.78 581.62 426.75 585.2 C427.25 586.8 427.75 588.4 428.25 590.01 C429.76 595.04 430.83 600.03 431.75 605.2 C432.01 606.39 432.27 607.59 432.54 608.82 C437.11 631.41 436.38 656.68 431.75 679.2 C431.56 680.24 431.37 681.29 431.18 682.37 C427.23 703.75 417.46 724.43 406.75 743.2 C406.09 743.2 405.43 743.2 404.75 743.2 C404.63 743.79 404.51 744.38 404.39 744.99 C403.38 748.51 401.09 751.22 398.94 754.13 C398.5 754.74 398.06 755.35 397.61 755.97 C396.34 757.73 395.05 759.46 393.75 761.2 C393.03 762.17 392.3 763.14 391.55 764.14 C390.66 765.16 390.66 765.16 389.75 766.2 C389.09 766.2 388.43 766.2 387.75 766.2 C387.51 766.75 387.26 767.31 387 767.88 C385.52 770.62 383.82 772.87 381.75 775.2 C381.09 775.2 380.43 775.2 379.75 775.2 C379.42 776.19 379.09 777.18 378.75 778.2 C378.09 778.2 377.43 778.2 376.75 778.2 C376.75 778.86 376.75 779.52 376.75 780.2 C375.29 781.7 375.29 781.7 373.38 783.32 C372.44 784.13 372.44 784.13 371.48 784.95 C369.75 786.2 369.75 786.2 367.75 786.2 C367.75 786.86 367.75 787.52 367.75 788.2 C366.09 789.53 364.42 790.86 362.75 792.2 C362.75 792.86 362.75 793.52 362.75 794.2 C363.74 794.69 363.74 794.69 364.75 795.2 C364.75 795.86 364.75 796.52 364.75 797.2 C365.29 797.42 365.83 797.65 366.38 797.88 C370.6 800.22 374.6 803.52 377.75 807.2 C377.75 807.86 377.75 808.52 377.75 809.2 C378.41 809.2 379.07 809.2 379.75 809.2 C381.38 810.84 381.38 810.84 383.19 813.01 C385.73 816.02 385.73 816.02 388.48 818.83 C389.75 820.2 389.75 820.2 389.75 822.2 C390.41 822.2 391.07 822.2 391.75 822.2 C393.02 823.53 393.02 823.53 394.44 825.42 C394.97 826.12 395.5 826.81 396.04 827.53 C396.61 828.29 397.17 829.04 397.75 829.82 C398.33 830.59 398.91 831.36 399.51 832.15 C401.27 834.5 403.01 836.84 404.75 839.2 C405.49 840.19 405.49 840.19 406.25 841.2 C411.72 848.57 416.55 856.02 420.75 864.2 C421.48 865.55 422.21 866.91 422.94 868.27 C428.75 879.07 434.09 889.7 437.85 901.41 C438.61 903.77 439.43 906.07 440.32 908.38 C442.73 914.73 444.84 921.03 446.22 927.69 C446.62 929.55 447.05 931.41 447.51 933.27 C448.99 939.31 450.08 945.13 450.49 951.34 C450.74 954 451.21 956.48 451.77 959.1 C453.29 968.03 453.05 977.06 453.01 986.09 C453 989.19 453.01 992.28 453.03 995.38 C453.04 1013.28 453.04 1013.28 451.22 1021.86 C450.71 1024.42 450.52 1026.91 450.38 1029.51 C449.92 1035.42 448.33 1040.94 446.69 1046.62 C445.77 1050.14 445.25 1053.59 444.75 1057.2 C444.18 1059.36 444.18 1059.36 443.5 1061.26 C443.24 1062.02 442.97 1062.77 442.7 1063.55 C442.39 1064.43 442.08 1065.3 441.75 1066.2 C441.19 1067.81 441.19 1067.81 440.62 1069.46 C436.61 1080.9 431.96 1091.91 426.82 1102.88 C426.21 1104.2 426.21 1104.2 425.58 1105.55 C423.1 1110.78 420.33 1115.56 416.99 1120.3 C415.59 1122.28 415.59 1122.28 414.75 1125.2 C414.09 1125.2 413.43 1125.2 412.75 1125.2 C412.69 1125.75 412.63 1126.31 412.57 1126.88 C411.39 1130.23 409.39 1131.85 406.75 1134.2 C405.91 1134.96 405.06 1135.72 404.19 1136.51 C399.16 1138.98 394.27 1138.86 388.75 1138.2 C386.77 1137.37 385.27 1136.71 383.75 1135.2 C382.52 1136.68 382.52 1136.68 381.25 1138.2 C378.82 1141.05 376.26 1143.7 373.57 1146.32 C370.72 1149.12 368.78 1151.75 366.75 1155.2 C363.13 1159.3 359.53 1162.49 354.75 1165.2 C354.05 1165.92 353.35 1166.64 352.63 1167.38 C350.75 1169.2 350.75 1169.2 347.75 1169.2 C348.74 1169.53 349.73 1169.86 350.75 1170.2 C353.63 1174.19 354.07 1179.5 353.51 1184.28 C352.5 1188.91 350.82 1192.51 347.75 1196.2 C345 1197.57 345 1197.57 342.75 1198.2 C342.75 1198.86 342.75 1199.52 342.75 1200.2 C341.03 1201.46 341.03 1201.46 338.62 1202.88 C337.75 1203.39 336.88 1203.91 335.99 1204.44 C334.6 1205.25 334.6 1205.25 333.19 1206.07 C332.3 1206.6 331.4 1207.13 330.48 1207.68 C328.72 1208.71 326.96 1209.75 325.19 1210.77 C323.67 1211.66 322.15 1212.56 320.65 1213.47 C316.08 1216.2 316.08 1216.2 312.75 1216.2 C312.75 1216.86 312.75 1217.52 312.75 1218.2 C312.12 1218.44 311.5 1218.68 310.85 1218.93 C306.72 1220.55 302.67 1222.18 298.75 1224.26 C294.96 1226.23 291.08 1227.38 286.95 1228.48 C284.5 1229.17 284.5 1229.17 281.75 1231.2 C279.79 1231.75 277.81 1232.24 275.82 1232.7 C271.71 1233.59 271.71 1233.59 267.86 1235.2 C264.71 1236.69 261.36 1237.12 257.94 1237.7 C252.76 1238.58 247.81 1239.71 242.75 1241.2 C234.65 1243.03 226.53 1243.54 218.25 1243.85 C217.47 1243.89 216.69 1243.92 215.88 1243.95 C214.83 1243.99 214.83 1243.99 213.76 1244.02 C211.73 1244.14 211.73 1244.14 209.74 1244.7 C206.34 1245.55 202.86 1245.34 199.38 1245.32 C198.64 1245.32 197.89 1245.33 197.13 1245.33 C192.87 1245.32 188.96 1244.91 184.75 1244.2 C182.5 1244.06 180.24 1243.98 177.98 1243.9 C164.57 1243.46 151.84 1241.44 138.86 1238.01 C136.5 1237.39 134.15 1236.81 131.78 1236.26 C125.18 1234.7 118.86 1233.1 112.74 1230.12 C110.71 1229.17 108.7 1228.49 106.57 1227.82 C97.28 1224.83 88.35 1220.73 79.84 1215.98 C77.31 1215.03 76.25 1215.21 73.75 1216.2 C72.76 1216.86 71.77 1217.52 70.75 1218.2 C69.76 1218.2 68.77 1218.2 67.75 1218.2 C67.75 1218.86 67.75 1219.52 67.75 1220.2 C59.93 1224.84 52.32 1229.06 43.75 1232.2 C42.21 1232.84 40.67 1233.49 39.13 1234.13 C32.16 1236.93 24.95 1239.05 17.75 1241.2 C15.93 1241.75 15.93 1241.75 14.07 1242.31 C11.29 1243.05 8.79 1243.52 5.94 1243.76 C2.73 1244.03 2.73 1244.03 -0.25 1245.2 C-1.94 1245.29 -3.63 1245.32 -5.32 1245.32 C-6.38 1245.33 -7.44 1245.33 -8.53 1245.33 C-9.67 1245.33 -10.82 1245.33 -12 1245.33 C-13.76 1245.33 -13.76 1245.33 -15.55 1245.33 C-18.03 1245.33 -20.51 1245.33 -22.99 1245.33 C-26.8 1245.32 -30.61 1245.33 -34.42 1245.33 C-36.82 1245.33 -39.22 1245.33 -41.62 1245.33 C-43.35 1245.33 -43.35 1245.33 -45.1 1245.33 C-46.16 1245.33 -47.21 1245.33 -48.3 1245.32 C-49.23 1245.32 -50.17 1245.32 -51.13 1245.32 C-53.25 1245.2 -53.25 1245.2 -54.25 1244.2 C-55.55 1244.11 -56.84 1244.03 -58.18 1243.95 C-68.69 1242.99 -79.73 1239.77 -89.2 1235.15 C-91.56 1234.05 -93.97 1233.22 -96.43 1232.38 C-103.34 1229.94 -109.76 1226.57 -116.25 1223.2 C-116.25 1222.54 -116.25 1221.88 -116.25 1221.2 C-116.82 1221.07 -117.4 1220.95 -118 1220.82 C-120.27 1220.19 -122.17 1219.31 -124.25 1218.2 C-124.25 1217.54 -124.25 1216.88 -124.25 1216.2 C-125.33 1215.79 -125.33 1215.79 -126.45 1215.38 C-129.21 1214.21 -131.56 1212.86 -134.06 1211.2 C-134.85 1210.68 -135.64 1210.16 -136.45 1209.63 C-137.34 1208.92 -137.34 1208.92 -138.25 1208.2 C-138.25 1207.54 -138.25 1206.88 -138.25 1206.2 C-139.05 1205.86 -139.05 1205.86 -139.88 1205.53 C-143.05 1203.74 -145.55 1201.36 -148.18 1198.88 C-148.7 1198.41 -149.21 1197.94 -149.74 1197.45 C-151.25 1196.04 -152.75 1194.62 -154.25 1193.2 C-155.2 1192.29 -156.15 1191.39 -157.12 1190.46 C-159.25 1188.2 -159.25 1188.2 -159.25 1186.2 C-159.91 1186.2 -160.57 1186.2 -161.25 1186.2 C-162.84 1184.38 -164.3 1182.56 -165.75 1180.63 C-166.18 1180.06 -166.62 1179.48 -167.07 1178.89 C-173.25 1170.65 -179.02 1162.06 -184.25 1153.2 C-187.62 1157.97 -190.97 1162.75 -194.18 1167.63 C-196.57 1171.21 -199.01 1174.75 -201.5 1178.26 C-202.16 1179.2 -202.83 1180.14 -203.51 1181.11 C-204.08 1181.8 -204.66 1182.48 -205.25 1183.2 C-205.91 1183.2 -206.57 1183.2 -207.25 1183.2 C-207.51 1183.78 -207.77 1184.37 -208.05 1184.98 C-209.29 1187.28 -210.6 1188.8 -212.43 1190.65 C-213.05 1191.27 -213.67 1191.89 -214.3 1192.52 C-215.26 1193.47 -215.26 1193.47 -216.25 1194.45 C-216.89 1195.1 -217.53 1195.74 -218.19 1196.41 C-218.81 1197.03 -219.42 1197.64 -220.06 1198.27 C-220.62 1198.83 -221.19 1199.4 -221.77 1199.97 C-223.25 1201.2 -223.25 1201.2 -225.25 1201.2 C-225.25 1201.86 -225.25 1202.52 -225.25 1203.2 C-227.34 1204.99 -229.42 1206.67 -231.62 1208.32 C-232.22 1208.79 -232.83 1209.26 -233.45 1209.74 C-237.98 1213.2 -237.98 1213.2 -240.25 1213.2 C-240.25 1213.86 -240.25 1214.52 -240.25 1215.2 C-242.17 1216.54 -244.17 1217.8 -246.18 1219.01 C-246.78 1219.36 -247.37 1219.72 -247.99 1220.09 C-249.73 1221.13 -251.49 1222.17 -253.25 1223.2 C-254.08 1223.69 -254.91 1224.18 -255.76 1224.69 C-260.3 1227.31 -264.91 1229.36 -269.8 1231.23 C-272.04 1232.12 -274.19 1233.1 -276.37 1234.13 C-286.78 1238.83 -299.29 1242.92 -310.68 1243.76 C-313.77 1243.77 -313.77 1243.77 -316.25 1245.2 C-317.9 1245.29 -319.55 1245.32 -321.21 1245.32 C-322.27 1245.33 -323.32 1245.33 -324.41 1245.33 C-325.57 1245.33 -326.72 1245.33 -327.9 1245.33 C-329.66 1245.33 -329.66 1245.33 -331.46 1245.33 C-333.94 1245.33 -336.43 1245.33 -338.91 1245.33 C-342.73 1245.32 -346.55 1245.33 -350.37 1245.33 C-352.77 1245.33 -355.18 1245.33 -357.59 1245.33 C-359.32 1245.33 -359.32 1245.33 -361.08 1245.33 C-362.14 1245.33 -363.19 1245.33 -364.28 1245.32 C-365.69 1245.32 -365.69 1245.32 -367.12 1245.32 C-369.25 1245.2 -369.25 1245.2 -370.25 1244.2 C-371.69 1244.04 -373.13 1243.93 -374.57 1243.83 C-380.62 1243.28 -386.2 1241.75 -392 1240.01 C-393.58 1239.53 -393.58 1239.53 -395.2 1239.05 C-411.6 1234.06 -431.09 1226.62 -444.25 1215.2 C-444.25 1214.54 -444.25 1213.88 -444.25 1213.2 C-445.14 1213.01 -445.14 1213.01 -446.06 1212.82 C-448.25 1212.2 -448.25 1212.2 -451.25 1210.2 C-451.25 1209.54 -451.25 1208.88 -451.25 1208.2 C-451.99 1207.93 -452.74 1207.67 -453.51 1207.4 C-456.29 1206.18 -457.91 1204.95 -460.09 1202.86 C-460.78 1202.21 -461.47 1201.55 -462.18 1200.88 C-462.88 1200.2 -463.58 1199.52 -464.31 1198.82 C-465.37 1197.81 -465.37 1197.81 -466.45 1196.78 C-468.39 1194.93 -470.32 1193.06 -472.25 1191.2 C-473.07 1190.42 -473.89 1189.64 -474.74 1188.84 C-476.25 1187.2 -476.25 1187.2 -476.25 1185.2 C-476.91 1185.2 -477.57 1185.2 -478.25 1185.2 C-479.83 1183.4 -479.83 1183.4 -481.62 1181.01 C-483.59 1178.38 -485.56 1175.83 -487.68 1173.32 C-489.25 1171.2 -489.25 1171.2 -489.25 1168.2 C-489.91 1168.2 -490.57 1168.2 -491.25 1168.2 C-492.9 1165.75 -494.4 1163.31 -495.87 1160.76 C-496.32 1159.99 -496.76 1159.22 -497.22 1158.43 C-507.6 1140.23 -515.57 1120.89 -519.25 1100.2 C-519.45 1099.18 -519.65 1098.16 -519.86 1097.11 C-520.79 1092.37 -521.34 1088.04 -521.25 1083.2 C-521.98 1083.23 -522.71 1083.26 -523.46 1083.3 C-540.42 1083.74 -558.34 1080.53 -573.25 1072.2 C-574.19 1071.68 -575.13 1071.17 -576.11 1070.64 C-578.05 1069.59 -579.99 1068.53 -581.93 1067.46 C-583.35 1066.68 -584.79 1065.92 -586.25 1065.2 C-586.25 1064.54 -586.25 1063.88 -586.25 1063.2 C-587.24 1063.2 -588.23 1063.2 -589.25 1063.2 C-589.25 1062.54 -589.25 1061.88 -589.25 1061.2 C-589.83 1060.93 -590.41 1060.67 -591.01 1060.39 C-594.93 1058.29 -597.99 1055.18 -601.25 1052.2 C-601.8 1051.72 -602.36 1051.24 -602.93 1050.74 C-612.18 1042.3 -621.68 1028.69 -624.96 1016.55 C-626.08 1013.91 -626.08 1013.91 -629.15 1012.97 C-630.34 1012.7 -631.52 1012.42 -632.75 1012.13 C-642.02 1009.75 -650.38 1006.19 -659.06 1002.2 C-659.79 1001.86 -660.52 1001.53 -661.27 1001.19 C-665.39 999.26 -668.75 997.17 -672.25 994.2 C-673.96 993.21 -675.67 992.23 -677.4 991.27 C-680.53 989.45 -683.38 987.42 -686.25 985.2 C-686.25 984.54 -686.25 983.88 -686.25 983.2 C-686.97 982.97 -687.69 982.74 -688.43 982.51 C-691.87 980.9 -693.65 978.97 -696.25 976.2 C-698.39 974.12 -700.53 972.04 -702.67 969.96 C-704.25 968.2 -704.25 968.2 -704.25 966.2 C-704.91 966.2 -705.57 966.2 -706.25 966.2 C-707.84 964.38 -709.3 962.56 -710.75 960.63 C-711.4 959.76 -711.4 959.76 -712.07 958.88 C-738.09 924.12 -749.63 883.28 -743.95 839.92 C-742.76 831.78 -741.19 823.9 -738.25 816.2 C-737.65 814.49 -737.65 814.49 -737.05 812.76 C-733.66 803.01 -733.66 803.01 -731.58 798.91 C-730.05 796.36 -730.05 796.36 -730.37 793.95 C-731.24 791.84 -731.24 791.84 -734.25 790.2 C-734.25 789.54 -734.25 788.88 -734.25 788.2 C-734.99 787.94 -735.74 787.68 -736.51 787.41 C-739.32 786.16 -740.87 784.95 -743.02 782.79 C-743.68 782.13 -744.34 781.47 -745.02 780.79 C-745.69 780.1 -746.36 779.41 -747.06 778.7 C-747.75 778.01 -748.44 777.32 -749.16 776.61 C-754.25 771.46 -754.25 771.46 -754.25 769.2 C-754.91 769.2 -755.57 769.2 -756.25 769.2 C-759.25 765.73 -759.25 765.73 -759.25 763.2 C-759.91 763.2 -760.57 763.2 -761.25 763.2 C-771.01 751.92 -778.94 738.65 -785.25 725.2 C-785.76 724.15 -786.27 723.1 -786.8 722.02 C-790 715.37 -792.47 708.78 -794.48 701.68 C-795.01 699.28 -795.01 699.28 -796.25 698.2 C-797.23 685 -797.23 685 -793.25 679.2 C-792.59 679.2 -791.93 679.2 -791.25 679.2 C-791.25 678.54 -791.25 677.88 -791.25 677.2 C-790.59 677.2 -789.93 677.2 -789.25 677.2 C-789.25 676.54 -789.25 675.88 -789.25 675.2 C-785.69 672.39 -783.66 671.16 -779.06 671.27 C-768.69 672.74 -768.69 672.74 -764.25 676.2 C-762.4 679.06 -762.4 679.06 -760.75 682.51 C-760.45 683.13 -760.14 683.75 -759.84 684.39 C-757.91 688.47 -756.36 692.6 -754.93 696.88 C-749.96 711.36 -742.28 724.65 -732.25 736.2 C-731.78 736.73 -731.31 737.27 -730.83 737.83 C-719.31 750.97 -707.06 761.57 -692.3 770.9 C-690.57 771.99 -688.87 773.1 -687.16 774.23 C-671.41 784.15 -653.28 788.53 -635.25 792.2 C-633.6 792.53 -631.96 792.87 -630.31 793.22 C-629.61 793.37 -628.9 793.52 -628.18 793.67 C-623.41 794.97 -620.42 797.55 -617.93 801.7 C-615.31 807.13 -613.94 812.26 -615.93 818.25 C-618.18 823.19 -620.81 826.08 -625.25 829.2 C-644.55 835.63 -674.28 823.32 -691.38 814.83 C-693.43 813.92 -693.43 813.92 -696.25 815.2 C-697.41 817.91 -698.36 820.51 -699.25 823.32 C-699.51 824.14 -699.77 824.95 -700.04 825.79 C-709.04 854.62 -708.13 885.57 -695.25 913.2 C-690.73 921.51 -685.39 929.01 -679.25 936.2 C-678.58 937 -677.92 937.81 -677.23 938.65 C-665.25 952.74 -649.21 963.12 -632.25 970.2 C-631.92 970.2 -631.59 970.2 -631.25 970.2 C-631.09 969.14 -630.93 968.09 -630.77 967 C-627.45 946.07 -620.16 925.78 -605.25 910.2 C-598.76 905.82 -593.98 904.59 -586.25 905.2 C-579.92 907.02 -577.4 911.78 -574.25 917.2 C-572.35 920.99 -572.64 925.07 -573.25 929.2 C-574.84 932.82 -576.96 935.97 -579.25 939.2 C-590.66 955.35 -594.94 973.01 -591.86 992.66 C-588.22 1010.02 -577.47 1022.96 -562.8 1032.67 C-547.4 1041.88 -529.25 1045.02 -511.68 1040.95 C-495.73 1036.21 -482.78 1026.48 -472.87 1013.18 C-469.85 1009.49 -466.08 1006.78 -461.25 1006.2 C-455.76 1005.78 -452.07 1006.52 -447.25 1009.2 C-442.25 1014.19 -438.95 1019.55 -438.93 1026.76 C-440.6 1038.69 -453.25 1050.75 -462.25 1057.75 C-464.48 1059.43 -466.73 1061.07 -469 1062.7 C-469.72 1063.21 -470.44 1063.73 -471.18 1064.26 C-475.09 1066.97 -478.59 1068.96 -483.25 1070.2 C-479.28 1110.9 -465.66 1146.09 -433.81 1173.01 C-401.69 1198 -365.01 1210.24 -324.17 1205.37 C-296.81 1201.65 -270.23 1190.62 -250.25 1171.2 C-248.94 1170.11 -247.62 1169.03 -246.31 1167.95 C-224.06 1148.39 -207.13 1115.91 -204.96 1086.35 C-204.88 1082.98 -204.83 1079.62 -204.84 1076.24 C-204.84 1074.02 -204.83 1071.8 -204.81 1069.58 C-204.76 1064.07 -204.75 1058.56 -204.74 1053.05 C-204.73 1048.37 -204.71 1043.68 -204.67 1039 C-204.65 1036.83 -204.66 1034.66 -204.66 1032.49 C-204.6 1014.97 -204.6 1014.97 -199.53 1009.26 C-194.31 1004.5 -189.9 1002.7 -182.84 1002.89 C-177.78 1003.48 -173.92 1005.13 -170.68 1009.14 C-167.32 1014.35 -166.12 1018.37 -166.09 1024.62 C-166.08 1025.59 -166.08 1025.59 -166.07 1026.58 C-166.06 1027.99 -166.05 1029.39 -166.05 1030.8 C-166.04 1033.05 -166.02 1035.29 -165.99 1037.53 C-165.93 1043.91 -165.88 1050.29 -165.84 1056.67 C-165.82 1060.58 -165.79 1064.49 -165.74 1068.39 C-165.73 1069.87 -165.72 1071.34 -165.72 1072.82 C-165.69 1085.5 -164.48 1098.02 -160.04 1110.02 C-159.46 1111.6 -158.95 1113.2 -158.48 1114.8 C-149.06 1146.35 -123.61 1172.51 -95.32 1188.27 C-61.55 1206.5 -23.62 1211.54 13.5 1200.95 C27.68 1196.92 27.68 1196.92 39.75 1189.2 C39.27 1188.78 38.79 1188.37 38.3 1187.94 C30.23 1180.93 22.49 1173.57 14.75 1166.2 C13.83 1165.32 12.92 1164.44 11.97 1163.54 C-7.12 1144.93 -22.11 1121.31 -33.25 1097.2 C-33.61 1096.41 -33.97 1095.63 -34.35 1094.83 C-40.57 1081.3 -45.33 1067.56 -49.25 1053.2 C-49.46 1052.43 -49.67 1051.66 -49.88 1050.87 C-56.25 1027.05 -57.65 1002.74 -57.25 978.2 C-57.23 976.9 -57.21 975.61 -57.2 974.29 C-56.14 946.65 -48.93 919.31 -39.06 893.6 C-38.09 891.14 -38.09 891.14 -38.25 888.2 C-38.25 887.54 -38.25 886.88 -38.25 886.2 C-38.93 885.96 -39.61 885.72 -40.31 885.47 C-51.55 880.6 -61.08 872.17 -69.73 863.68 C-71.2 862.24 -72.69 860.84 -74.18 859.45 C-81.01 852.92 -86.16 846.1 -91.25 838.2 C-91.74 837.46 -92.23 836.73 -92.74 835.98 C-98.65 827 -103.78 817.19 -101.68 806.26 C-99.18 800.92 -95.64 796.44 -90.37 793.7 C-83.66 792.62 -78.1 792.25 -72.25 796.2 C-69.06 799.72 -66.86 803.54 -64.59 807.68 C-55.28 824.63 -43.3 837.88 -27.31 848.82 C-26.66 849.27 -26.01 849.72 -25.33 850.19 C-23.69 851.27 -21.97 852.25 -20.25 853.2 C-16.31 851.88 -15.38 849.53 -13.37 846.13 C0.67 823.43 20.74 802.96 41.88 786.82 C42.61 786.26 43.35 785.7 44.1 785.12 C50.76 780.09 57.65 775.56 64.75 771.2 C65.55 770.68 66.35 770.16 67.18 769.63 C121.54 735.23 191.72 726.56 253.75 740.2 C274.6 745.01 295.47 751.57 314.13 762.15 C314.72 762.48 315.31 762.82 315.92 763.16 C317.23 763.9 318.52 764.65 319.82 765.42 C323.89 767.79 323.89 767.79 328.44 767.69 C333.22 764.6 337.47 760.92 341.75 757.2 C342.55 756.5 342.55 756.5 343.37 755.79 C372.98 729.83 391.36 693.52 394.75 654.2 C396.94 611.13 383.18 569.87 354.18 537.75 C333.51 515.22 309.12 501.43 279.75 493.2 C278.32 492.77 278.32 492.77 276.87 492.34 C274.26 491.59 274.26 491.59 270.75 491.2 C267.97 493.36 267.06 495.77 265.74 498.99 C256.91 518.74 240.56 533.33 220.99 542.01 C215.05 544.19 210.69 544.37 204.8 542.01 C199.74 539.46 196.12 537.53 193.75 532.2 C192.96 526.07 192.82 520.21 195.44 514.57 C199.19 510.72 202.66 508.19 207.5 505.88 C218.91 500.33 227.55 491.8 232.75 480.2 C236.44 469.5 236.26 456.49 232.16 445.94 C229.59 440.93 226.24 436.59 222.75 432.2 C217.56 425.23 215.52 419.98 216.75 411.2 C218.85 406.34 221.43 403.04 225.88 400.2 C226.83 399.87 227.78 399.54 228.75 399.2 C229.39 398.97 230.03 398.74 230.69 398.51 C237.45 397.48 242.22 398.25 247.75 402.2 C260.62 413.73 267.08 428.96 271.75 445.2 C271.95 445.88 272.15 446.57 272.36 447.28 C272.83 448.92 273.29 450.56 273.75 452.2 C275.14 452.52 275.14 452.52 276.55 452.86 C314.26 461.96 314.26 461.96 329.75 471.2 C331.08 471.56 332.41 471.91 333.75 472.2 C337.54 445.81 336.94 419.53 324.75 395.2 C324.2 393.99 324.2 393.99 323.64 392.75 C318.26 381.23 310.52 371.33 301.75 362.2 C300.66 361.02 300.66 361.02 299.54 359.82 C294.41 354.48 288.95 350.24 282.75 346.2 C281.89 345.57 281.03 344.95 280.14 344.3 C274.65 340.88 268.67 338.52 262.72 335.99 C256.5 333.26 251.95 330.96 248.44 324.95 C246.89 318.74 247.62 313.39 249.25 307.26 C253.63 289.42 250.45 272.14 241.41 256.36 C231.43 240.05 217.62 231.33 199.42 226.59 C185.59 224.56 172.63 225.95 159.75 231.2 C158.83 231.54 157.92 231.89 156.97 232.25 C143.98 237.87 132.59 250.89 126.69 263.45 C123.54 270.12 119.53 274.24 112.75 277.2 C105.64 278.05 100.74 276.03 94.75 272.2 C91.1 268.91 89.76 265.39 88.88 260.65 C88.12 245.81 101.33 230.07 110.5 219.51 C120.94 208.41 134.22 198.95 148.75 194.2 C148.41 177.85 142.72 163.25 134.75 149.2 C134.41 148.59 134.06 147.98 133.71 147.35 C128.54 138.42 122.32 130.93 115.1 123.58 C113.95 122.4 112.84 121.18 111.74 119.96 C95.93 102.81 70.62 93.19 47.75 91.2 C45.73 93.22 46.48 97.4 46.38 100.2 C45.62 116.22 42.55 131.21 36.13 145.97 C34.36 149.99 34.36 149.99 34.75 154.2 C36.1 155.75 37.45 157.29 38.84 158.81 C49.55 172.16 57.78 191.82 56.63 209.07 C55.8 214.42 53.26 217.81 49.32 221.45 C44.46 224.76 40.67 225.87 34.75 225.2 C29.56 223.19 24.1 220.79 20.75 216.2 C19.11 211.86 18.29 207.64 17.57 203.07 C15.39 191.27 8.79 181.07 -0.25 173.2 C-12.24 165.48 -24.76 163.45 -38.62 166.42 C-41.62 167.3 -44.34 168.52 -47.18 169.82 C-54.05 172.76 -59.89 173.83 -67.02 171.16 C-72.39 168.34 -75.7 165.33 -77.76 159.56 C-79.05 153.26 -77.68 147.6 -74.25 142.2 C-68.76 135.64 -61.05 133.68 -53.18 131.07 C-52.41 130.81 -51.63 130.54 -50.83 130.27 C-42.87 127.61 -35.55 126.97 -27.18 126.95 C-25.65 126.94 -25.65 126.94 -24.08 126.93 C-17.24 126.99 -11.24 127.64 -4.67 129.64 C-1.98 130.26 -0.7 130.5 1.75 129.2 C10.14 111.52 9.79 89.48 3.75 71.2 C-1.6 57.51 -9.75 45.18 -20.12 34.82 C-24.17 30.68 -26.65 26.7 -27.64 20.86 C-27.57 14.49 -26.1 8.9 -23.25 3.2 C-21.6 2.48 -19.93 1.82 -18.25 1.2 C-17.65 0.85 -17.05 0.51 -16.44 0.16 C-11.48 -2.02 -5.05 -1.81 0 0 Z M378.75 1135.2 C378.75 1135.86 378.75 1136.52 378.75 1137.2 C379.41 1136.87 380.07 1136.54 380.75 1136.2 C380.09 1135.87 379.43 1135.54 378.75 1135.2 Z M358.75 1157.2 C359.75 1159.2 359.75 1159.2 359.75 1159.2 Z " fill="#000002" transform="translate(813.24609375,34.8046875)"/>
<path d="M0 0 C0.88 0 1.75 0 2.66 0 C17.3 0.04 31.32 1.1 45.62 4.38 C47.1 4.7 47.1 4.7 48.6 5.04 C61.72 8.04 74.29 11.98 86.62 17.38 C87.4 17.71 88.18 18.05 88.98 18.4 C109.55 27.49 127.47 39.4 143.84 54.78 C146.33 57.1 148.86 59.34 151.44 61.56 C155.56 65.23 159.11 69.13 162.62 73.38 C163.59 74.51 164.56 75.64 165.53 76.77 C189.85 105.56 206.53 140.36 213.62 177.38 C213.79 178.19 213.95 179.01 214.12 179.85 C224.43 234.04 210.62 290.18 181.75 336.42 C178.87 341.41 178.94 346.78 179.62 352.38 C180.93 355.65 182.63 358.48 184.62 361.38 C185.29 362.37 185.94 363.36 186.62 364.38 C186.22 364.77 185.81 365.17 185.39 365.58 C183.52 367.4 181.67 369.23 179.81 371.06 C179.17 371.69 178.53 372.31 177.87 372.96 C174.54 376.25 171.91 379.26 169.62 383.38 C166.06 387.51 162.37 390.68 157.62 393.38 C156.26 394.67 154.91 395.99 153.62 397.38 C151.27 396.49 148.99 395.58 146.79 394.35 C142.09 391.73 138.06 390.39 132.62 391.38 C125.53 393.46 119.45 397.92 113.35 401.96 C104.92 407.46 96.49 412 87.19 415.88 C86.04 416.35 84.89 416.83 83.71 417.32 C31.91 438.59 -28.31 439.7 -80.38 418.38 C-99.04 410.36 -116.81 400.72 -132.58 387.84 C-133.99 386.69 -135.41 385.56 -136.83 384.43 C-143.56 379.03 -149.8 373.3 -155.88 367.19 C-157.25 365.8 -157.25 365.8 -158.65 364.39 C-165.49 357.44 -171.82 350.39 -177.38 342.38 C-177.82 341.73 -178.27 341.08 -178.74 340.41 C-201.04 307.86 -216.33 267.81 -216.58 227.96 C-216.59 227.19 -216.59 226.41 -216.6 225.62 C-216.62 223.14 -216.62 220.66 -216.62 218.19 C-216.63 217.34 -216.63 216.49 -216.63 215.62 C-216.57 171.32 -203.17 126.1 -176.38 90.38 C-175.3 88.91 -175.3 88.91 -174.21 87.41 C-138.67 39.35 -86.09 10.1 -27.4 1.27 C-18.28 0.1 -9.19 -0.02 0 0 Z M181.62 363.38 C181.62 364.04 181.62 364.69 181.62 365.38 C182.29 365.05 182.94 364.71 183.62 364.38 C182.96 364.05 182.31 363.71 181.62 363.38 Z M161.62 385.38 C162.62 387.38 162.62 387.38 162.62 387.38 Z " fill="#6DAAEF" transform="translate(1010.375,806.625)"/>
<path d="M0 0 C1.44 -0 1.44 -0 2.9 -0.01 C3.94 -0.01 4.99 -0.01 6.06 -0 C7.12 -0 8.18 -0.01 9.28 -0.01 C11.53 -0.01 13.77 -0.01 16.02 -0 C19.48 0 22.94 -0 26.39 -0.01 C28.57 -0.01 30.75 -0.01 32.93 -0 C34.5 -0.01 34.5 -0.01 36.09 -0.01 C37.05 -0.01 38.01 -0 38.99 0 C39.84 0 40.69 0 41.56 0 C43.5 0.13 43.5 0.13 44.5 1.13 C45.86 1.44 47.24 1.7 48.62 1.94 C67.82 5.67 67.82 5.67 75.59 10.1 C77.69 11.27 77.69 11.27 80.79 12.52 C84.44 14.06 87.86 15.91 91.31 17.88 C92.21 18.4 92.21 18.4 93.14 18.92 C97.79 21.62 102.14 24.61 106.41 27.88 C108.66 29.47 108.66 29.47 112.5 29.13 C112.5 28.47 112.5 27.81 112.5 27.13 C116.56 23.58 122.05 19.13 127.5 19.13 C127.5 18.47 127.5 17.81 127.5 17.13 C157.2 2.64 157.2 2.64 170.37 1.57 C173.23 1.52 173.23 1.52 175.5 0.13 C178.31 0.04 181.09 0.01 183.91 0.03 C184.75 0.03 185.59 0.03 186.46 0.04 C189.16 0.04 191.86 0.05 194.56 0.07 C196.38 0.07 198.21 0.08 200.04 0.08 C204.52 0.09 209.01 0.11 213.5 0.13 C213.5 0.79 213.5 1.45 213.5 2.13 C214.36 2.25 214.36 2.25 215.25 2.38 C218.99 3.63 220.76 5.82 222.67 9.22 C224.23 12.43 225.5 15.09 225.5 18.69 C225.17 19.5 224.84 20.3 224.5 21.13 C224.15 22.04 224.15 22.04 223.8 22.96 C221.16 29.16 216.56 34.1 210.5 37.13 C209.06 37.23 207.63 37.28 206.19 37.31 C182.42 37.86 159.13 41.81 139.5 56.13 C138.34 56.97 138.34 56.97 137.16 57.83 C135.82 58.83 134.48 59.84 133.15 60.87 C131.64 62.02 130.07 63.08 128.5 64.13 C128.19 67.26 128.08 70.18 128.1 73.31 C128.1 74.28 128.09 75.25 128.08 76.25 C128.07 79.53 128.07 82.82 128.07 86.1 C128.07 88.46 128.06 90.83 128.05 93.19 C128.03 99.03 128.02 104.86 128.02 110.7 C128.01 117.69 127.99 124.68 127.97 131.67 C127.93 148.56 127.91 165.45 127.89 182.35 C127.89 190.34 127.88 198.33 127.86 206.32 C127.83 233.66 127.79 261.01 127.78 288.35 C127.78 290.07 127.78 291.78 127.78 293.5 C127.78 295.22 127.78 296.94 127.78 298.66 C127.78 302.12 127.78 305.57 127.78 309.03 C127.78 309.88 127.77 310.74 127.77 311.62 C127.76 339.38 127.72 367.15 127.65 394.91 C127.57 424.25 127.53 453.6 127.53 482.94 C127.53 486.16 127.53 489.38 127.53 492.6 C127.53 493.39 127.53 494.19 127.52 495 C127.52 507.77 127.49 520.54 127.44 533.31 C127.4 546.14 127.39 558.98 127.42 571.81 C127.43 579.43 127.42 587.06 127.37 594.68 C127.34 600.38 127.35 606.07 127.38 611.76 C127.39 614.07 127.38 616.37 127.36 618.67 C126.66 632.39 126.66 632.39 132.88 643.92 C135.2 645.74 135.2 645.74 137.5 647.13 C138.46 647.87 139.43 648.6 140.43 649.36 C143.1 650.98 145.78 652.58 148.5 654.13 C149.31 654.6 150.12 655.08 150.96 655.57 C165.12 663.28 182.69 664.47 198.18 660.29 C215.67 654.18 227.1 644.43 237.5 629.13 C240.83 624.4 243.82 621.83 249.5 620.13 C254.92 619.34 259.81 619.83 264.63 622.54 C269.04 626.3 271.63 631.72 273.04 637.27 C273.86 648.14 264.13 658.41 257.5 666.13 C250.06 674.53 241.98 681.14 232.5 687.13 C231.3 687.9 231.3 687.9 230.07 688.69 C206.22 701.99 176.81 704.3 150.81 696.94 C145.17 695.29 140.01 693.02 134.71 690.52 C134.02 690.2 133.32 689.87 132.61 689.53 C130.9 688.73 129.2 687.93 127.5 687.13 C127.5 687.73 127.5 688.34 127.5 688.96 C127.57 724.81 127.62 760.66 127.65 796.51 C127.65 800.81 127.66 805.12 127.66 809.42 C127.66 810.28 127.66 811.13 127.66 812.02 C127.68 825.89 127.7 839.77 127.73 853.64 C127.76 867.88 127.77 882.12 127.78 896.35 C127.78 905.14 127.8 913.92 127.82 922.71 C127.84 928.73 127.84 934.76 127.84 940.78 C127.83 944.26 127.84 947.73 127.85 951.21 C127.87 954.98 127.87 958.74 127.86 962.51 C127.87 963.61 127.87 964.71 127.88 965.84 C127.84 972.48 127.11 976.92 122.8 982.21 C118.38 986.3 114.96 988.14 108.88 988.34 C102.99 987.83 98.08 984.67 93.5 981.13 C88.49 974.57 89.35 966.56 89.38 958.7 C89.37 957.55 89.37 956.39 89.37 955.2 C89.37 952 89.38 948.79 89.38 945.59 C89.38 942.14 89.38 938.68 89.38 935.22 C89.38 929.24 89.38 923.25 89.39 917.27 C89.4 908.62 89.4 899.96 89.4 891.31 C89.4 877.27 89.41 863.23 89.42 849.19 C89.43 835.56 89.44 821.92 89.44 808.28 C89.44 807.44 89.44 806.6 89.44 805.74 C89.44 801.52 89.44 797.3 89.45 793.08 C89.46 758.1 89.47 723.11 89.5 688.13 C88.93 688.36 88.37 688.59 87.79 688.83 C85.2 689.88 82.6 690.93 80 691.98 C79.12 692.34 78.23 692.7 77.32 693.07 C51.77 703.37 24.05 703.9 -1.56 693.28 C-23.23 683.69 -45.58 668.03 -54.5 645.13 C-56.2 639.03 -55.23 633.77 -52.5 628.13 C-48.8 623.68 -44.28 620.59 -38.48 619.88 C-32.71 619.56 -27.99 620.33 -23.5 624.13 C-21.57 626.66 -19.8 629.26 -18.06 631.92 C-8.15 646.96 6.29 656.37 23.5 661.13 C41.85 664.37 59.2 661.71 74.72 651.31 C76.37 650.21 78.05 649.15 79.73 648.1 C84.93 644.22 88.49 640.96 89.6 634.36 C90.2 628.27 90.08 622.19 90 616.08 C90.01 613.71 90.03 611.33 90.05 608.96 C90.09 603.14 90.07 597.32 90.03 591.5 C89.99 584.52 90.01 577.55 90.04 570.57 C90.09 556.9 90.08 543.23 90.03 529.56 C89.99 517.6 89.98 505.64 89.99 493.68 C89.99 492.89 89.99 492.1 89.99 491.28 C89.99 488.06 89.99 484.83 89.99 481.61 C90.01 451.4 89.97 421.18 89.89 390.97 C89.82 364.13 89.8 337.28 89.83 310.44 C89.84 303.57 89.85 296.69 89.86 289.82 C89.86 288.55 89.86 288.55 89.86 287.25 C89.88 264.82 89.86 242.39 89.83 219.95 C89.83 217.54 89.82 215.13 89.82 212.71 C89.82 211.11 89.82 209.51 89.81 207.91 C89.8 195.95 89.8 184 89.81 172.05 C89.83 158.46 89.81 144.87 89.75 131.27 C89.72 124.34 89.71 117.4 89.73 110.47 C89.75 104.12 89.73 97.77 89.68 91.43 C89.67 89.13 89.67 86.83 89.69 84.53 C90.34 70.86 90.34 70.86 84.13 59.36 C81.83 57.53 81.83 57.53 79.5 56.13 C78.91 55.7 78.32 55.27 77.72 54.83 C56.86 40.24 27.95 35 3.15 38.9 C-24.22 43.79 -48.69 56.45 -65.5 79.13 C-66.18 80.02 -66.86 80.91 -67.56 81.83 C-71.87 87.85 -74.99 94.02 -77.88 100.82 C-78.21 101.6 -78.55 102.38 -78.89 103.19 C-82.79 112.74 -83.89 121.45 -83.88 131.75 C-83.88 132.9 -83.88 134.05 -83.88 135.23 C-83.73 146.03 -82.48 155.87 -76.5 165.13 C-74.77 164.82 -73.05 164.5 -71.32 164.19 C-70.35 164.02 -69.39 163.84 -68.4 163.66 C-66.64 163.34 -64.88 162.99 -63.13 162.61 C-43.79 159.07 -20.83 162.98 -4.5 174.13 C-2.96 176.07 -2.96 176.07 -1.75 178.13 C-1.35 178.81 -0.94 179.49 -0.52 180.19 C1.88 184.76 2.09 189.08 1.5 194.13 C-0.35 199.44 -3.84 203.05 -8.5 206.13 C-17.34 209.85 -24.4 206.41 -32.75 203 C-44.58 198.19 -56.43 199.62 -68.17 204.16 C-79.23 209.23 -86.63 217.16 -91.43 228.27 C-93.09 232.86 -94 237.53 -94.94 242.32 C-96.39 249.25 -97.77 252.72 -103.13 257.44 C-108.89 260.32 -114.1 260.89 -120.25 258.94 C-129.81 253.61 -129.81 253.61 -132.5 247.13 C-133.9 237.05 -131.61 227.67 -128.5 218.13 C-128.07 216.79 -128.07 216.79 -127.63 215.42 C-124.43 206.6 -119.29 197.96 -112.94 191.07 C-112.14 190.1 -111.33 189.13 -110.5 188.13 C-110.86 184.41 -112.85 180.96 -114.32 177.57 C-119.95 164.04 -122.73 148.81 -122.57 134.19 C-122.56 133.41 -122.56 132.63 -122.55 131.83 C-122.54 129.93 -122.52 128.03 -122.5 126.13 C-154.28 129.5 -180.07 144.45 -201.19 168.25 C-205.19 173.23 -208.4 178.56 -211.5 184.13 C-212.05 185.11 -212.59 186.09 -213.16 187.09 C-219.52 199.17 -223.8 212.56 -225.5 226.13 C-225.17 227.12 -224.84 228.11 -224.5 229.13 C-222.65 230.06 -222.65 230.06 -220.32 230.75 C-208.92 235.04 -199.06 242.6 -190.5 251.13 C-189.6 252.01 -188.69 252.89 -187.76 253.8 C-180.29 261.34 -175.3 269.72 -170.5 279.13 C-170.14 279.82 -169.77 280.51 -169.4 281.22 C-166.35 287.07 -164.2 292.75 -166.17 299.37 C-168.56 304.52 -171.82 308.61 -176.82 311.44 C-184.05 313.29 -188.81 312.13 -195.25 308.6 C-200.09 305.44 -202.44 301.39 -204.88 296.32 C-211.57 282.48 -223.16 270.73 -237.5 265.13 C-240.81 263.98 -244.11 262.98 -247.5 262.13 C-248.42 261.87 -248.42 261.87 -249.35 261.61 C-259.98 259.25 -273.45 260.18 -283.5 264.13 C-284.47 264.47 -285.44 264.81 -286.44 265.16 C-303.24 271.5 -314.42 283.17 -321.84 299.21 C-323.97 304.06 -325.46 308.95 -326.5 314.13 C-326.84 315.61 -326.84 315.61 -327.19 317.13 C-327.97 324.58 -327.6 331.23 -326 338.57 C-322.48 355.22 -322.48 355.22 -326.44 362.57 C-330.08 367.45 -334.9 369.52 -340.35 371.96 C-364.87 382.91 -383.58 398.99 -397.5 422.13 C-398.18 423.23 -398.85 424.33 -399.54 425.46 C-411.63 446.85 -414.52 473.69 -410.98 497.63 C-410.59 500.53 -410.41 503.21 -410.5 506.13 C-407.53 507.5 -407.53 507.5 -404.89 505.94 C-403.81 505.34 -402.74 504.75 -401.63 504.13 C-386.08 495.9 -367.84 490.83 -350.5 488.13 C-350.19 487.02 -349.87 485.91 -349.55 484.76 C-344.08 465.64 -336.93 445.85 -319.63 434.19 C-314.01 432.28 -309.33 432.56 -303.69 434.32 C-300.28 436.26 -298.67 437.88 -296.5 441.13 C-295.98 441.88 -295.46 442.64 -294.92 443.42 C-293.28 446.56 -293.1 448.6 -293.13 452.13 C-293.12 453.14 -293.11 454.15 -293.11 455.19 C-293.79 460.26 -296.8 463.62 -299.94 467.5 C-308.83 478.85 -312.44 490.74 -311.5 505.13 C-309.44 519.18 -302.06 527.86 -291.11 536.38 C-288.28 538.28 -285.42 539.61 -282.32 541 C-276.38 543.87 -273.01 546.98 -270.5 553.13 C-269.17 558.15 -269.16 561.95 -270.63 566.94 C-273.84 572.4 -277.52 575.94 -283.5 578.13 C-295.84 580.07 -307.82 571.97 -317.5 565.13 C-330.01 555.29 -339.98 543.2 -345.5 528.13 C-345.5 527.47 -345.5 526.81 -345.5 526.13 C-389 535.1 -423.57 558.56 -448.57 595.15 C-457 608.8 -462.72 624.34 -466.95 639.76 C-469.05 647.03 -472.09 652.16 -478.75 656 C-489.41 659.2 -489.41 659.2 -494.75 657.35 C-499.81 654.51 -503.61 650.67 -505.5 645.13 C-506.25 638.64 -506.1 633.14 -503.5 627.13 C-503.38 626.06 -503.26 624.98 -503.13 623.88 C-502.47 619.94 -501.23 617.03 -499.54 613.45 C-498.53 611.18 -497.75 608.94 -497 606.57 C-495.86 603.01 -494.46 599.79 -492.73 596.48 C-491.77 594.64 -490.85 592.77 -489.94 590.9 C-486.24 583.32 -482.26 576.11 -477.5 569.13 C-477.09 568.52 -476.68 567.92 -476.25 567.3 C-474.91 565.34 -473.55 563.39 -472.19 561.44 C-471.76 560.82 -471.33 560.19 -470.88 559.55 C-469.81 558.04 -468.66 556.58 -467.5 555.13 C-466.84 555.13 -466.18 555.13 -465.5 555.13 C-465.24 554.55 -464.97 553.96 -464.69 553.36 C-463.49 551.1 -462.17 549.32 -460.5 547.38 C-459.99 546.77 -459.47 546.15 -458.94 545.52 C-457.5 544.13 -457.5 544.13 -455.5 544.13 C-455.1 543.17 -455.1 543.17 -454.69 542.19 C-453.5 540.13 -453.5 540.13 -450.5 539.13 C-450.5 538.47 -450.5 537.81 -450.5 537.13 C-448.97 535.62 -448.97 535.62 -447 534 C-446.35 533.47 -445.7 532.93 -445.04 532.37 C-444.28 531.76 -444.28 531.76 -443.5 531.13 C-444 528.03 -444.79 525.34 -445.88 522.38 C-454.93 495.31 -454.53 459.9 -444.5 433.13 C-444.16 432.09 -443.81 431.04 -443.45 429.97 C-437.73 413.09 -428.99 395.88 -417.5 382.13 C-416.84 382.13 -416.18 382.13 -415.5 382.13 C-415.28 381.59 -415.06 381.05 -414.82 380.49 C-413.09 377.38 -410.79 374.91 -408.38 372.32 C-407.89 371.79 -407.4 371.26 -406.9 370.72 C-403.04 366.6 -399.11 362.41 -394.5 359.13 C-393.84 359.13 -393.18 359.13 -392.5 359.13 C-392.5 358.47 -392.5 357.81 -392.5 357.13 C-390.14 355.4 -387.78 353.78 -385.32 352.19 C-384.64 351.75 -383.97 351.31 -383.28 350.85 C-381.36 349.6 -379.43 348.36 -377.5 347.13 C-376.12 346.23 -376.12 346.23 -374.7 345.31 C-372.5 344.13 -372.5 344.13 -369.5 344.13 C-369.5 343.47 -369.5 342.81 -369.5 342.13 C-368.18 342.13 -366.86 342.13 -365.5 342.13 C-365.58 341.47 -365.66 340.82 -365.73 340.14 C-366.47 333.13 -366.53 326.35 -366.19 319.32 C-366.16 318.32 -366.12 317.32 -366.08 316.3 C-365.86 311.2 -365.38 306.92 -363.5 302.13 C-363.32 300.49 -363.32 300.49 -363.13 298.82 C-362.46 294.89 -361.22 291.93 -359.52 288.36 C-358.36 285.93 -358.36 285.93 -357.32 282.44 C-353.86 273 -346.42 262.37 -339.5 255.13 C-338.84 255.13 -338.18 255.13 -337.5 255.13 C-337.17 254.14 -336.84 253.15 -336.5 252.13 C-335.84 252.13 -335.18 252.13 -334.5 252.13 C-334.5 251.47 -334.5 250.81 -334.5 250.13 C-332.39 248.18 -332.39 248.18 -329.63 246 C-328.72 245.28 -327.82 244.56 -326.89 243.81 C-324.5 242.13 -324.5 242.13 -322.5 242.13 C-322.5 241.47 -322.5 240.81 -322.5 240.13 C-320.42 238.62 -320.42 238.62 -317.69 237 C-316.8 236.47 -315.9 235.93 -314.98 235.37 C-312.5 234.13 -312.5 234.13 -309.5 234.13 C-309.5 233.47 -309.5 232.81 -309.5 232.13 C-308.8 231.88 -308.1 231.62 -307.38 231.36 C-306.43 231.02 -305.48 230.67 -304.5 230.32 C-302.99 229.77 -302.99 229.77 -301.44 229.21 C-299.13 228.36 -296.85 227.47 -294.57 226.57 C-284.47 222.84 -275.26 221.7 -264.5 222.13 C-264.37 220.91 -264.37 220.91 -264.24 219.66 C-261.92 200.73 -255.46 183 -246.27 166.34 C-244.96 163.96 -243.69 161.58 -242.5 159.13 C-241.84 159.13 -241.18 159.13 -240.5 159.13 C-240.13 158.06 -240.13 158.06 -239.75 156.98 C-238.36 153.81 -236.63 151.34 -234.57 148.57 C-233.53 147.17 -233.53 147.17 -232.48 145.75 C-231.83 144.89 -231.17 144.02 -230.5 143.13 C-229.7 141.97 -229.7 141.97 -228.88 140.79 C-228.2 139.97 -228.2 139.97 -227.5 139.13 C-226.84 139.13 -226.18 139.13 -225.5 139.13 C-225.19 138.33 -225.19 138.33 -224.88 137.5 C-222.97 134.21 -220.46 131.54 -217.5 129.13 C-216.84 129.13 -216.18 129.13 -215.5 129.13 C-215.17 128.14 -214.84 127.15 -214.5 126.13 C-213.84 126.13 -213.18 126.13 -212.5 126.13 C-212.5 125.47 -212.5 124.81 -212.5 124.13 C-210.85 123.47 -209.2 122.81 -207.5 122.13 C-207.5 121.47 -207.5 120.81 -207.5 120.13 C-205.12 118.31 -202.74 116.61 -200.25 114.94 C-199.53 114.45 -198.8 113.96 -198.05 113.45 C-189.68 107.84 -181.36 102.58 -171.88 99.03 C-169.46 98.11 -167.11 97.08 -164.75 96 C-155.49 91.86 -145.99 90.14 -136.01 88.59 C-133.52 88.25 -133.52 88.25 -131.5 87.13 C-128.62 86.9 -125.76 86.71 -122.88 86.57 C-122.08 86.52 -121.28 86.48 -120.45 86.44 C-118.47 86.33 -116.49 86.23 -114.5 86.13 C-112.19 81.51 -109.88 76.89 -107.5 72.13 C-106.84 72.13 -106.18 72.13 -105.5 72.13 C-105.17 70.48 -104.84 68.83 -104.5 67.13 C-103.84 67.13 -103.18 67.13 -102.5 67.13 C-102.43 66.6 -102.35 66.08 -102.28 65.54 C-101.18 62.14 -99.18 59.45 -97.13 56.57 C-96.73 55.99 -96.33 55.41 -95.92 54.82 C-91.91 49.11 -91.91 49.11 -89.5 47.13 C-88.84 47.13 -88.18 47.13 -87.5 47.13 C-87.19 46.33 -87.19 46.33 -86.88 45.5 C-84.97 42.21 -82.46 39.54 -79.5 37.13 C-78.84 37.13 -78.18 37.13 -77.5 37.13 C-77.17 36.14 -76.84 35.15 -76.5 34.13 C-75.84 34.13 -75.18 34.13 -74.5 34.13 C-74.5 33.47 -74.5 32.81 -74.5 32.13 C-72.95 30.82 -72.95 30.82 -70.77 29.34 C-69.97 28.79 -69.18 28.25 -68.36 27.69 C-67.5 27.11 -66.64 26.53 -65.75 25.94 C-64.88 25.36 -64.01 24.77 -63.12 24.16 C-53.25 17.56 -43.84 11.87 -32.5 8.13 C-31.15 7.62 -29.79 7.09 -28.44 6.57 C-20.8 3.71 -13.62 1.9 -5.5 1.13 C-3.9 -0.47 -2.22 0 0 0 Z " fill="#000002" transform="translate(519.50390625,-0.12939453125)"/>
<path d="M0 0 C0.92 -0.01 1.83 -0.01 2.78 -0.02 C5.8 -0.03 8.82 -0.03 11.85 -0.03 C13.95 -0.03 16.06 -0.03 18.16 -0.04 C22.58 -0.05 26.99 -0.05 31.4 -0.04 C37.05 -0.04 42.7 -0.05 48.35 -0.08 C52.7 -0.09 57.05 -0.09 61.4 -0.09 C63.48 -0.09 65.56 -0.09 67.64 -0.1 C70.56 -0.12 73.47 -0.11 76.39 -0.1 C77.24 -0.11 78.1 -0.11 78.98 -0.12 C84.34 -0.07 88.07 0.75 92.82 3.27 C97.94 8.53 100.19 13.89 100.24 21.18 C100.25 21.84 100.26 22.51 100.27 23.19 C100.29 25.36 100.29 27.53 100.3 29.7 C100.31 31.21 100.33 32.73 100.35 34.24 C100.39 38.21 100.41 42.18 100.43 46.15 C100.47 52.52 100.53 58.89 100.59 65.27 C100.61 67.49 100.62 69.72 100.63 71.95 C100.64 73.3 100.65 74.66 100.67 76.01 C100.67 77.2 100.68 78.39 100.68 79.61 C100.52 82.2 100.52 82.2 101.82 83.27 C103.94 83.38 106.06 83.42 108.18 83.43 C108.84 83.44 109.5 83.44 110.19 83.45 C111.63 83.46 113.08 83.47 114.52 83.47 C116.81 83.49 119.11 83.51 121.4 83.53 C127.91 83.59 134.43 83.64 140.95 83.68 C144.93 83.7 148.91 83.73 152.89 83.78 C154.41 83.79 155.92 83.8 157.44 83.8 C159.57 83.81 161.7 83.83 163.82 83.86 C165.03 83.87 166.24 83.87 167.49 83.88 C172.17 84.43 175.59 85.84 178.69 89.43 C179.16 90.2 179.64 90.98 180.14 91.77 C180.63 92.55 181.12 93.32 181.62 94.12 C184.17 98.7 183.98 103.02 184 108.12 C184.01 109.02 184.01 109.93 184.02 110.86 C184.04 113.85 184.05 116.85 184.06 119.85 C184.07 120.87 184.07 121.9 184.07 122.95 C184.09 128.38 184.11 133.8 184.12 139.22 C184.13 144.82 184.16 150.41 184.2 156 C184.23 160.31 184.24 164.62 184.24 168.93 C184.25 170.99 184.26 173.05 184.28 175.11 C184.3 178 184.3 180.89 184.29 183.79 C184.31 185.05 184.31 185.05 184.33 186.35 C184.28 192.11 183.03 196.45 179.82 201.27 C174.74 206.23 170.02 207.52 163.03 207.58 C162.04 207.59 162.04 207.59 161.02 207.6 C158.85 207.63 156.67 207.64 154.49 207.65 C152.98 207.67 151.46 207.69 149.95 207.71 C145.97 207.75 141.99 207.79 138.02 207.82 C131.63 207.87 125.25 207.93 118.87 208.01 C116.64 208.03 114.41 208.04 112.18 208.06 C110.82 208.07 109.46 208.09 108.1 208.1 C106.91 208.11 105.72 208.12 104.49 208.13 C101.9 207.97 101.9 207.97 100.82 209.27 C100.72 211.35 100.69 213.43 100.68 215.5 C100.68 216.15 100.67 216.8 100.67 217.47 C100.66 218.89 100.66 220.31 100.65 221.73 C100.65 223.98 100.63 226.23 100.61 228.48 C100.56 234.88 100.51 241.27 100.5 247.67 C100.49 251.58 100.46 255.5 100.42 259.41 C100.4 260.89 100.4 262.38 100.4 263.87 C100.42 280.62 100.42 280.62 94.01 287.11 C93.43 287.48 92.85 287.84 92.26 288.21 C91.68 288.59 91.1 288.97 90.51 289.36 C86.15 291.72 81.82 291.44 77.01 291.47 C76.11 291.48 75.21 291.48 74.28 291.49 C71.29 291.52 68.31 291.53 65.32 291.55 C64.3 291.55 63.28 291.56 62.22 291.56 C56.81 291.59 51.4 291.61 45.98 291.62 C41.51 291.64 37.04 291.67 32.57 291.71 C27.17 291.76 21.76 291.78 16.36 291.79 C14.31 291.79 12.25 291.81 10.2 291.83 C-10.85 292.07 -10.85 292.07 -18.18 286.27 C-22.74 281.61 -23.3 277.99 -23.37 271.62 C-23.38 270.61 -23.38 270.61 -23.39 269.58 C-23.41 268.12 -23.42 266.67 -23.44 265.21 C-23.46 262.91 -23.49 260.6 -23.51 258.3 C-23.58 252.59 -23.64 246.87 -23.7 241.15 C-23.75 236.32 -23.81 231.49 -23.87 226.65 C-23.9 224.38 -23.92 222.11 -23.94 219.83 C-23.95 218.45 -23.97 217.06 -23.99 215.67 C-24 214.46 -24.01 213.25 -24.03 211.99 C-23.87 209.36 -23.87 209.36 -25.18 208.27 C-27.24 208.18 -29.31 208.16 -31.37 208.16 C-32.72 208.16 -34.06 208.16 -35.4 208.16 C-36.48 208.16 -36.48 208.16 -37.57 208.17 C-41.36 208.17 -45.16 208.14 -48.95 208.12 C-53.77 208.1 -58.6 208.08 -63.43 208.1 C-67.32 208.11 -71.22 208.09 -75.12 208.06 C-76.6 208.05 -78.08 208.05 -79.56 208.06 C-88.54 208.14 -96.26 207.65 -103.18 201.27 C-106.96 195.67 -107.33 191.06 -107.35 184.45 C-107.36 183.55 -107.37 182.64 -107.37 181.71 C-107.39 178.72 -107.41 175.73 -107.42 172.74 C-107.42 171.71 -107.42 170.69 -107.43 169.64 C-107.45 164.22 -107.46 158.8 -107.47 153.38 C-107.48 147.8 -107.52 142.21 -107.56 136.63 C-107.58 132.32 -107.59 128.02 -107.6 123.72 C-107.6 121.66 -107.61 119.6 -107.63 117.54 C-107.66 114.65 -107.65 111.77 -107.65 108.88 C-107.66 108.04 -107.67 107.19 -107.69 106.33 C-107.62 99.23 -105.85 92.94 -100.74 87.84 C-95.84 84.85 -92.03 84.02 -86.28 83.96 C-85.27 83.94 -85.27 83.94 -84.23 83.93 C-82.02 83.89 -79.81 83.88 -77.6 83.86 C-76.06 83.84 -74.52 83.82 -72.98 83.8 C-68.93 83.75 -64.89 83.71 -60.85 83.67 C-56.72 83.63 -52.59 83.58 -48.46 83.53 C-40.37 83.44 -32.27 83.35 -24.18 83.27 C-24.17 82 -24.17 82 -24.16 80.7 C-24.1 72.68 -24.03 64.67 -23.94 56.65 C-23.9 52.53 -23.86 48.4 -23.83 44.28 C-23.8 40.3 -23.76 36.32 -23.71 32.34 C-23.7 30.82 -23.69 29.31 -23.68 27.79 C-23.67 25.66 -23.64 23.53 -23.61 21.4 C-23.6 20.19 -23.59 18.98 -23.58 17.74 C-23.05 13.16 -21.76 9.16 -18.75 5.57 C-12.42 0.73 -7.73 -0.02 0 0 Z " fill="#000002" transform="translate(972.17724609375,877.725341796875)"/>
<path d="M0 0 C4.43 3.59 6.76 8.94 7.86 14.45 C8.27 20.52 6.33 26.46 4.8 32.27 C-1.27 56.23 3.53 83.6 14.86 105.27 C29.4 129.23 52.65 149.2 80.31 156.08 C88.08 157.82 95.93 159.17 103.79 160.45 C103.96 159.32 103.96 159.32 104.12 158.16 C104.84 154.17 105.79 150.29 106.76 146.36 C111.77 126.14 115.57 105.81 118.54 85.2 C118.65 84.47 118.76 83.74 118.87 82.98 C120.24 73.48 121.25 64.04 121.79 54.45 C121.13 54.12 120.47 53.79 119.79 53.45 C121.46 52.62 121.46 52.62 123.16 51.77 C131.75 47.39 139.63 43 146.79 36.45 C147.47 35.86 148.15 35.27 148.86 34.67 C155.17 28.86 159.39 21.73 163.79 14.45 C164.34 13.56 164.89 12.68 165.46 11.76 C166.62 9.76 167.49 7.86 168.29 5.7 C169.04 4.09 169.04 4.09 169.79 2.45 C173.09 1.35 173.89 1.53 177.12 2.46 C177.97 2.7 178.83 2.94 179.71 3.19 C180.62 3.46 181.54 3.74 182.48 4.02 C183.42 4.29 184.37 4.57 185.34 4.86 C210.2 12.29 229.88 23.56 248.79 41.45 C249.61 42.22 250.44 42.99 251.28 43.78 C279.68 71.16 296.29 110.87 297.09 150.15 C297.26 174.52 292.61 197.58 281.79 219.45 C281.42 220.27 281.04 221.08 280.65 221.92 C271.45 241.33 256.25 258.75 239.79 272.45 C238.38 273.64 238.38 273.64 236.93 274.86 C235.98 275.61 235.03 276.36 234.04 277.14 C233.18 277.83 232.32 278.51 231.43 279.21 C228.79 280.45 228.79 280.45 225.94 279.92 C222.25 278.2 218.72 276.31 215.17 274.33 C190.29 260.85 162.6 253.23 134.79 248.7 C134.09 248.59 133.39 248.47 132.66 248.35 C119.8 246.4 106.89 246.32 93.92 246.39 C92.34 246.4 90.77 246.4 89.2 246.4 C85.39 246.42 81.59 246.43 77.79 246.45 C76.58 242.23 77.05 239.91 78.71 235.88 C79.35 234.27 79.35 234.27 80.01 232.63 C80.47 231.5 80.94 230.37 81.42 229.2 C84.55 221.36 87.59 213.57 89.92 205.45 C90.12 204.76 90.32 204.07 90.52 203.35 C91.48 199.95 91.48 199.95 91.79 196.45 C90.73 196.45 90.73 196.45 89.65 196.45 C63.48 195.46 37.68 181.86 17.61 165.77 C14.5 163.23 14.5 163.23 10.7 162.43 C-7.3 172.08 -22.63 189.04 -29.77 208.14 C-30.07 208.92 -30.37 209.7 -30.68 210.51 C-32.46 215.17 -33.88 219.81 -35.14 224.64 C-36.91 230.75 -39.92 234.02 -45.21 237.45 C-49.47 239.59 -54.59 239.04 -59.21 238.45 C-64.21 236.51 -68 233.98 -71.33 229.77 C-75.61 213.56 -67.28 194.27 -59.39 180.33 C-53.42 170.08 -46.34 161.07 -38.21 152.45 C-37.53 151.71 -36.86 150.98 -36.16 150.21 C-29.6 143.28 -21.98 137.93 -14.21 132.45 C-14.93 131.19 -14.93 131.19 -15.68 129.91 C-27.79 108.42 -35.75 84.27 -36.21 59.45 C-36.27 58.16 -36.27 58.16 -36.32 56.83 C-36.68 43.98 -34.86 31.1 -31.83 18.64 C-31.64 17.81 -31.44 16.98 -31.24 16.13 C-29.39 8.96 -26.45 3.71 -20.21 -0.55 C-13.83 -4.09 -6.25 -3.54 0 0 Z " fill="#F8C7B4" transform="translate(912.20703125,523.546875)"/>
<path d="M0 0 C0.88 0 1.75 0 2.66 0 C17.29 0.04 31.32 1.08 45.62 4.38 C47.14 4.72 47.14 4.72 48.68 5.07 C59.97 7.71 70.97 10.75 81.62 15.38 C81.62 16.03 81.62 16.7 81.62 17.38 C82.29 17.71 82.94 18.03 83.62 18.38 C83.58 19.39 83.54 20.4 83.5 21.44 C83.61 24.79 84.13 27.12 85.12 30.26 C87.24 39.09 86.78 48.79 86.79 57.82 C86.8 58.95 86.8 60.08 86.8 61.24 C86.81 63.61 86.81 65.97 86.81 68.34 C86.81 71.93 86.83 75.52 86.85 79.12 C86.85 81.43 86.85 83.75 86.86 86.07 C86.86 87.12 86.87 88.18 86.88 89.27 C86.86 96.48 85.99 103.3 84.62 110.38 C84.43 111.51 84.23 112.64 84.03 113.81 C83.87 114.66 83.72 115.5 83.56 116.38 C83.41 117.24 83.25 118.11 83.09 119 C82.67 121.15 82.18 123.25 81.62 125.38 C81.42 126.18 81.22 126.99 81.01 127.82 C79.58 133.32 77.89 138.55 75.69 143.79 C74.25 147.29 72.95 150.84 71.62 154.38 C91.42 154.38 111.22 154.38 131.62 154.38 C131.62 154.71 131.62 155.03 131.62 155.38 C122.79 155.42 113.96 155.46 105.13 155.48 C101.03 155.49 96.93 155.5 92.83 155.53 C88.87 155.55 84.92 155.56 80.96 155.56 C79.45 155.57 77.94 155.58 76.43 155.59 C74.32 155.6 72.21 155.6 70.09 155.6 C68.89 155.61 67.69 155.61 66.45 155.62 C63.62 155.38 63.62 155.38 61.62 153.38 C61.38 150.61 61.38 150.61 61.39 147.05 C61.38 146.07 61.38 146.07 61.38 145.08 C61.38 143.67 61.38 142.26 61.38 140.85 C61.39 138.6 61.38 136.36 61.36 134.12 C61.33 127.75 61.31 121.37 61.32 115 C61.33 111.1 61.31 107.2 61.27 103.3 C61.27 101.82 61.27 100.34 61.28 98.86 C61.34 90.53 61.3 83.02 55.62 76.38 C51.83 73.08 48.54 72.26 43.59 72.23 C42.8 72.22 42 72.21 41.19 72.21 C40.33 72.2 39.46 72.2 38.58 72.2 C37.66 72.19 36.75 72.18 35.81 72.18 C32.78 72.16 29.76 72.15 26.73 72.14 C25.7 72.13 24.67 72.13 23.6 72.12 C18.12 72.1 12.65 72.09 7.17 72.08 C1.53 72.07 -4.12 72.03 -9.77 71.99 C-14.12 71.97 -18.46 71.96 -22.81 71.96 C-24.9 71.95 -26.98 71.94 -29.06 71.92 C-31.98 71.9 -34.89 71.9 -37.81 71.91 C-38.66 71.89 -39.52 71.88 -40.4 71.87 C-46.18 71.92 -50.53 73.14 -55.38 76.38 C-60.25 81.38 -60.49 85.35 -60.56 92.15 C-60.57 92.82 -60.58 93.49 -60.59 94.18 C-60.61 95.64 -60.62 97.09 -60.64 98.55 C-60.66 100.84 -60.68 103.14 -60.71 105.44 C-60.78 111.15 -60.84 116.85 -60.9 122.55 C-60.95 127.38 -61.01 132.21 -61.07 137.04 C-61.09 139.3 -61.11 141.57 -61.13 143.84 C-61.15 145.23 -61.17 146.61 -61.19 147.99 C-61.2 149.2 -61.21 150.41 -61.22 151.66 C-61.38 154.38 -61.38 154.38 -62.38 155.38 C-64.48 155.48 -66.59 155.51 -68.7 155.52 C-69.36 155.52 -70.02 155.52 -70.7 155.53 C-72.14 155.53 -73.58 155.54 -75.01 155.54 C-77.3 155.55 -79.58 155.57 -81.86 155.59 C-88.36 155.64 -94.85 155.69 -101.35 155.7 C-105.32 155.71 -109.29 155.74 -113.25 155.78 C-114.76 155.79 -116.27 155.8 -117.78 155.8 C-125.83 155.79 -132.48 155.79 -139.38 160.38 C-143.93 164.93 -144.6 170.84 -144.66 177.01 C-144.65 177.86 -144.65 178.7 -144.65 179.57 C-144.66 180.93 -144.66 180.93 -144.67 182.32 C-144.68 185.31 -144.68 188.29 -144.68 191.28 C-144.68 193.36 -144.68 195.44 -144.69 197.52 C-144.7 201.88 -144.7 206.24 -144.69 210.6 C-144.68 216.18 -144.7 221.76 -144.73 227.34 C-144.74 231.64 -144.74 235.94 -144.74 240.24 C-144.74 242.3 -144.74 244.35 -144.75 246.41 C-144.77 249.29 -144.76 252.17 -144.75 255.05 C-144.75 255.89 -144.76 256.74 -144.77 257.61 C-144.72 263.76 -143.93 268.76 -139.45 273.35 C-131.76 278.15 -124.37 278.21 -115.59 278.11 C-114.09 278.12 -112.58 278.12 -111.08 278.14 C-107.15 278.16 -103.21 278.15 -99.28 278.13 C-92.96 278.11 -86.64 278.14 -80.32 278.17 C-78.12 278.17 -75.92 278.16 -73.71 278.15 C-72.37 278.15 -71.03 278.15 -69.69 278.15 C-67.93 278.14 -67.93 278.14 -66.13 278.14 C-63.38 278.38 -63.38 278.38 -61.38 280.38 C-60.94 282.75 -60.94 282.75 -61.38 285.38 C-64.13 288.13 -66.49 289.8 -70.38 290.38 C-70.38 291.04 -70.38 291.69 -70.38 292.38 C-71.52 292.65 -71.52 292.65 -72.68 292.93 C-77.59 294.12 -82.42 295.33 -87.19 297 C-90.9 298.29 -94.47 298.87 -98.38 299.38 C-99.45 299.7 -100.52 300.04 -101.62 300.38 C-105.58 301.43 -109.26 301.79 -113.34 302.03 C-115.85 302.32 -118.05 302.78 -120.48 303.39 C-126.08 304.68 -131.53 304.63 -137.25 304.56 C-138.92 304.55 -138.92 304.55 -140.63 304.54 C-149.11 304.46 -157.59 304.23 -166.06 303.94 C-167.75 303.88 -167.75 303.88 -169.48 303.82 C-176.14 303.56 -182.46 303.26 -188.88 301.31 C-192.53 300.33 -195.61 300.22 -199.38 300.38 C-199.38 299.38 -199.38 298.39 -199.38 297.38 C-200.03 297.38 -200.7 297.38 -201.38 297.38 C-223.18 244.09 -221.4 184.92 -199.81 131.88 C-193.52 117.34 -185.89 103.06 -176.38 90.38 C-175.3 88.91 -175.3 88.91 -174.21 87.41 C-138.67 39.35 -86.09 10.1 -27.4 1.27 C-18.28 0.1 -9.19 -0.02 0 0 Z " fill="#8AB7FC" transform="translate(1010.375,806.625)"/>
<path d="M0 0 C1.15 0.6 2.29 1.21 3.48 1.83 C8.59 4.41 13.9 6.09 19.38 7.75 C20.49 8.09 21.61 8.43 22.76 8.78 C63.48 20.89 107.33 29.97 150 28 C151.19 27.95 152.38 27.9 153.6 27.85 C189.22 26.39 225.06 22.75 259.6 13.55 C262 13 262 13 265 13 C270.17 30.99 260.43 52.38 251.88 67.94 C242.14 85.03 229.08 101.51 213 113 C212.46 113.39 211.92 113.78 211.36 114.17 C191.72 128.15 170.89 136.65 147 140 C145.72 140.18 144.43 140.37 143.11 140.56 C106.24 145.02 70.15 133.14 41.08 110.68 C30.97 102.52 21.76 93.44 14 83 C13.1 81.84 13.1 81.84 12.19 80.66 C-3.77 59.23 -12.86 30.58 -12 4 C-10.57 3.13 -9.13 2.28 -7.69 1.44 C-6.49 0.72 -6.49 0.72 -5.26 -0 C-3 -1 -3 -1 0 0 Z " fill="#F8C7B4" transform="translate(342,1101)"/>
<path d="M0 0 C0.13 0.95 0.13 0.95 0.27 1.91 C9.7 67.09 38.41 126.97 90.5 168.81 C91.33 169.53 92.15 170.26 93 171 C93 171.66 93 172.32 93 173 C93.99 173.33 94.98 173.66 96 174 C91.66 177.97 87.03 179.9 81.62 182 C80.74 182.35 79.85 182.7 78.93 183.06 C44.98 196.1 6.87 195.35 -26.65 181.08 C-34.86 177.41 -42.64 173.19 -50 168 C-50.96 167.32 -51.92 166.65 -52.91 165.95 C-77.26 148.24 -95.96 126.03 -105 97 C-105.52 95.58 -106.04 94.17 -106.56 92.75 C-111.26 78.24 -111.39 64.11 -111 49 C-110.67 49.99 -110.34 50.98 -110 52 C-109.34 52 -108.68 52 -108 52 C-107.67 40.45 -107.34 28.9 -107 17 C-106.67 17 -106.34 17 -106 17 C-106 27.89 -106 38.78 -106 50 C-88.35 43.21 -71.05 36.18 -54 28 C-53.14 27.59 -52.28 27.18 -51.39 26.76 C-35.4 19.07 -19.43 10.75 -4.67 0.88 C-3 0 -3 0 0 0 Z " fill="#F8C7B4" transform="translate(758,1050)"/>
<path d="M0 0 C1.37 -0.01 1.37 -0.01 2.77 -0.02 C3.77 -0.02 4.76 -0.02 5.79 -0.02 C6.8 -0.03 7.82 -0.03 8.86 -0.03 C11.01 -0.04 13.16 -0.04 15.31 -0.04 C18.62 -0.04 21.92 -0.06 25.22 -0.08 C27.3 -0.08 29.39 -0.08 31.47 -0.09 C32.47 -0.09 33.46 -0.1 34.48 -0.11 C35.4 -0.1 36.32 -0.1 37.26 -0.1 C38.07 -0.1 38.88 -0.1 39.72 -0.1 C41.7 0.15 41.7 0.15 43.7 2.15 C43.95 4.96 43.95 4.96 43.97 8.61 C43.97 9.27 43.98 9.94 43.98 10.62 C43.99 12.07 44 13.51 44 14.95 C44 17.24 44.02 19.53 44.04 21.81 C44.1 28.32 44.13 34.82 44.15 41.32 C44.17 45.3 44.2 49.28 44.24 53.25 C44.25 54.77 44.25 56.28 44.25 57.79 C44.25 59.92 44.27 62.04 44.29 64.16 C44.3 65.37 44.31 66.57 44.31 67.82 C44.83 72.32 46.14 75.85 49.67 78.79 C50.36 79.18 51.05 79.56 51.76 79.96 C52.45 80.36 53.14 80.75 53.86 81.16 C57.52 83.12 59.82 83.28 64.03 83.32 C65 83.33 65 83.33 65.99 83.34 C67.4 83.35 68.81 83.37 70.22 83.38 C72.46 83.39 74.69 83.41 76.92 83.44 C83.26 83.51 89.61 83.57 95.95 83.62 C99.83 83.65 103.71 83.7 107.59 83.74 C109.07 83.76 110.55 83.77 112.03 83.78 C114.1 83.79 116.17 83.82 118.24 83.84 C119.41 83.85 120.59 83.86 121.8 83.87 C124.7 84.15 124.7 84.15 127.7 86.15 C128.06 88.13 128.06 88.13 128.04 90.59 C128.04 91.52 128.04 92.44 128.04 93.39 C128.02 94.38 128 95.38 127.99 96.4 C127.98 97.42 127.98 98.44 127.98 99.49 C127.96 102.75 127.92 106.01 127.88 109.27 C127.87 111.48 127.85 113.68 127.84 115.89 C127.81 121.31 127.76 126.73 127.7 132.15 C126.91 132.15 126.13 132.16 125.33 132.17 C117.93 132.25 110.53 132.34 103.13 132.43 C99.32 132.48 95.52 132.53 91.72 132.57 C88.04 132.6 84.37 132.65 80.69 132.7 C79.29 132.72 77.9 132.74 76.5 132.75 C62.09 132.76 62.09 132.76 49.2 138.54 C45.12 142.89 44.32 147.44 44.28 153.24 C44.27 154.26 44.27 154.26 44.25 155.3 C44.23 157.54 44.22 159.77 44.22 162.01 C44.2 163.57 44.19 165.13 44.17 166.68 C44.13 170.77 44.1 174.86 44.08 178.95 C44.05 185.51 43.99 192.07 43.93 198.63 C43.91 200.93 43.89 203.22 43.88 205.51 C43.87 206.91 43.86 208.31 43.85 209.7 C43.85 210.92 43.84 212.15 43.83 213.41 C43.7 216.15 43.7 216.15 42.7 217.15 C41.26 217.25 39.83 217.28 38.39 217.29 C37.48 217.3 36.56 217.3 35.62 217.31 C34.13 217.31 34.13 217.31 32.61 217.31 C31.59 217.32 30.58 217.32 29.53 217.32 C27.38 217.33 25.23 217.33 23.08 217.33 C19.78 217.33 16.48 217.35 13.17 217.37 C11.09 217.37 9 217.37 6.92 217.38 C5.93 217.38 4.93 217.39 3.91 217.4 C2.53 217.39 2.53 217.39 1.13 217.39 C0.32 217.39 -0.49 217.39 -1.32 217.39 C-3.3 217.15 -3.3 217.15 -5.3 215.15 C-5.55 212.38 -5.55 212.38 -5.54 208.82 C-5.55 207.85 -5.55 207.85 -5.55 206.85 C-5.55 205.44 -5.55 204.03 -5.55 202.62 C-5.54 200.37 -5.55 198.13 -5.57 195.89 C-5.6 189.52 -5.62 183.14 -5.61 176.77 C-5.6 172.87 -5.62 168.97 -5.66 165.07 C-5.66 163.59 -5.66 162.11 -5.65 160.63 C-5.59 152.3 -5.63 144.79 -11.3 138.15 C-18.87 131.64 -29.75 132.82 -39.15 132.77 C-40.57 132.75 -41.99 132.73 -43.41 132.71 C-47.12 132.67 -50.82 132.63 -54.53 132.6 C-60.49 132.55 -66.46 132.49 -72.42 132.41 C-74.5 132.39 -76.58 132.38 -78.66 132.36 C-80.54 132.34 -80.54 132.34 -82.46 132.32 C-83.57 132.31 -84.67 132.3 -85.82 132.29 C-88.3 132.15 -88.3 132.15 -89.3 131.15 C-89.41 129.74 -89.44 128.34 -89.45 126.93 C-89.46 126.04 -89.46 125.14 -89.47 124.22 C-89.47 123.25 -89.47 122.28 -89.47 121.27 C-89.48 120.28 -89.48 119.29 -89.48 118.27 C-89.49 116.16 -89.49 114.06 -89.49 111.95 C-89.49 108.73 -89.51 105.5 -89.53 102.27 C-89.53 100.23 -89.53 98.19 -89.53 96.15 C-89.54 95.18 -89.55 94.21 -89.56 93.21 C-89.55 92.31 -89.55 91.41 -89.55 90.49 C-89.55 89.7 -89.55 88.9 -89.55 88.09 C-89.3 86.15 -89.3 86.15 -87.3 84.15 C-84.5 83.9 -84.5 83.9 -80.87 83.91 C-79.88 83.9 -79.88 83.9 -78.87 83.9 C-77.43 83.9 -76 83.9 -74.56 83.9 C-72.28 83.91 -70 83.9 -67.72 83.88 C-61.24 83.85 -54.76 83.83 -48.28 83.84 C-44.31 83.85 -40.35 83.83 -36.39 83.79 C-34.88 83.79 -33.37 83.79 -31.87 83.8 C-21.2 84.09 -21.2 84.09 -11.79 79.71 C-4.93 72.51 -5.72 63.69 -5.73 54.31 C-5.72 52.77 -5.7 51.24 -5.69 49.71 C-5.65 45.69 -5.63 41.68 -5.62 37.67 C-5.6 31.22 -5.55 24.78 -5.5 18.33 C-5.48 16.08 -5.47 13.83 -5.47 11.57 C-5.46 10.2 -5.45 8.84 -5.45 7.47 C-5.44 6.27 -5.44 5.07 -5.44 3.83 C-5.23 -0.48 -3.9 0.02 0 0 Z " fill="#F0F2F1" transform="translate(991.304443359375,914.854736328125)"/>
<path d="M0 0 C4.53 5.57 7.6 10.57 7.54 17.82 C3.35 42.5 -22.39 67.97 -41.56 82.13 C-56.49 92.65 -72.99 101.38 -91 105 C-90.62 123.01 -88.34 139.39 -81 156 C-80.61 156.89 -80.22 157.78 -79.82 158.7 C-76.96 164.81 -73.33 169.86 -69 175 C-68.11 176.11 -68.11 176.11 -67.2 177.25 C-59.61 186.32 -50.31 192.33 -40.12 198.06 C-32.95 202.12 -27.69 205.92 -25 214 C-24.4 219.97 -24.92 224.73 -28 230 C-32.6 234.92 -36.02 236.8 -42.75 237.25 C-50.3 237.13 -56.86 233.21 -63.19 229.44 C-63.93 229 -64.67 228.56 -65.43 228.1 C-82.76 217.58 -97.2 204.18 -108 187 C-108.53 186.23 -109.05 185.46 -109.6 184.67 C-123.24 163.89 -129.4 136.57 -129 112 C-129.66 112 -130.32 112 -131 112 C-131 111.34 -131 110.68 -131 110 C-131.8 110.03 -132.6 110.07 -133.43 110.11 C-168.99 110.95 -205.89 95.13 -231.81 71.12 C-233.55 69.43 -235.29 67.72 -237 66 C-237.78 65.27 -238.55 64.54 -239.36 63.79 C-245.54 57.91 -249.17 53.7 -249.44 44.94 C-249.2 38.6 -247.79 35.02 -243.56 30.25 C-239.43 26.62 -236.64 25.71 -231.12 25.69 C-229.61 25.66 -229.61 25.66 -228.07 25.64 C-220.45 26.54 -216.33 31.4 -211.31 36.69 C-205.25 42.91 -199.32 48.27 -192 53 C-191.39 53.43 -190.78 53.86 -190.15 54.3 C-166.76 70.11 -137.41 75.26 -109.82 70.49 C-90.27 66.69 -73.33 58.41 -58.09 45.6 C-56 44 -56 44 -53 43 C-52.3 41.68 -51.64 40.35 -51 39 C-49.52 37.43 -49.52 37.43 -47.81 35.88 C-43.51 31.7 -40.28 26.99 -37 22 C-36.56 21.33 -36.12 20.66 -35.66 19.97 C-33.22 16.16 -31.09 12.26 -29 8.25 C-26.16 3.01 -23.69 0.2 -18.19 -2.25 C-11.43 -3.84 -6 -3.66 0 0 Z " fill="#000002" transform="translate(538,831)"/>
<path d="M0 0 C12.66 -0.48 23.96 -0.41 36 4 C36.9 4.33 37.79 4.65 38.72 4.99 C54.73 11.93 66.54 28.42 73 44 C77.66 57.34 77.25 71.66 73.68 85.17 C71.99 92.2 72.45 97.6 76 104 C78.29 105.8 80.77 106.91 83.44 108.06 C84.15 108.4 84.87 108.73 85.6 109.07 C87.05 109.75 88.5 110.42 89.95 111.07 C103.01 116.98 113.61 124.14 124 134 C125.29 135.21 125.29 135.21 126.61 136.45 C132.22 141.87 136.76 147.46 141 154 C141.56 154.79 142.12 155.59 142.7 156.41 C153.42 172.04 160.37 192 161 211 C161.04 211.98 161.04 211.98 161.08 212.99 C161.49 224.69 160.46 235.56 158 247 C153.54 246.48 150.77 245.38 147 243 C144.67 242 142.37 241.07 140 240.19 C139.32 239.93 138.63 239.68 137.93 239.41 C125.63 234.95 112.88 231.43 100.08 228.74 C98 228 98 228 96 225 C95.33 222.64 94.71 220.26 94.12 217.88 C92.59 211.92 90.87 206.44 88 201 C87.43 199.91 86.87 198.82 86.29 197.7 C81.74 189.2 76.37 179.24 67.38 174.88 C61.17 173.27 56.69 173.8 50.89 176.25 C48.95 177.02 47.04 177.53 45 178 C43.17 173.07 42.3 168.29 41.55 163.12 C41.28 161.34 41.01 159.55 40.74 157.76 C40.6 156.82 40.46 155.88 40.32 154.92 C32.91 105.89 22.28 56.07 3.24 10.1 C1.4 5.5 1.4 5.5 1 3 C1.33 2.67 1.66 2.34 2 2 C1.34 1.34 0.68 0.68 0 0 Z " fill="#F7C6B4" transform="translate(989,260)"/>
<path d="M0 0 C10.93 8.2 13.01 23.22 14.87 35.92 C19.04 68.44 13.13 102.5 -4.54 130.43 C-5.56 132.26 -5.56 132.26 -4.25 135.06 C-2.11 136.81 -2.11 136.81 0.56 138.56 C12.95 147.32 23.32 157.91 31.69 170.56 C32.2 171.34 32.72 172.12 33.25 172.92 C41.07 184.97 46.7 197.29 50.75 211.06 C51.12 212.28 51.12 212.28 51.5 213.53 C53.47 220.61 53.41 225.86 49.89 232.27 C47.5 236.03 44.85 238.38 40.75 240.06 C32.86 241.16 26.99 240.57 20.55 235.77 C17.26 232.66 15.46 229.86 14.36 225.46 C14.13 224.59 13.9 223.71 13.66 222.8 C13.42 221.88 13.18 220.95 12.94 220 C10.76 212.03 8.4 204.97 3.75 198.06 C3.17 197.18 2.58 196.3 1.98 195.39 C-5.02 185.3 -13.12 176.49 -22.62 168.75 C-23.21 168.26 -23.79 167.78 -24.39 167.28 C-26.94 165.28 -28.6 164.07 -31.89 164.05 C-34.62 165.22 -36.45 166.61 -38.69 168.56 C-66.57 191.57 -102.6 202.16 -138.57 199.84 C-146.72 198.98 -154.06 197.92 -160.25 192.06 C-163.41 187.76 -164.58 183.69 -164.19 178.38 C-162.93 171.29 -160.11 167.28 -154.25 163.06 C-150.12 160.98 -146.81 160.87 -142.21 161.01 C-140.82 161.04 -139.43 161.06 -138.04 161.09 C-136.96 161.12 -136.96 161.12 -135.85 161.14 C-117.41 161.52 -101.3 159.67 -84.25 152.06 C-83.42 151.71 -82.58 151.35 -81.73 150.98 C-66.55 144.01 -53.07 132.43 -43.25 119.06 C-42.58 118.16 -41.91 117.25 -41.22 116.32 C-32.55 104.02 -27.56 90.65 -24.25 76.06 C-24.07 75.3 -23.9 74.54 -23.72 73.75 C-21.1 58.78 -22.51 42.35 -26.34 27.75 C-28.2 20.22 -28.42 13.55 -24.45 6.71 C-18.54 -1.4 -9.15 -2.64 0 0 Z " fill="#000002" transform="translate(364.25,521.9375)"/>
<path d="M0 0 C4.43 3.59 6.76 8.94 7.86 14.45 C8.27 20.52 6.33 26.46 4.8 32.27 C-1.27 56.23 3.53 83.6 14.86 105.27 C30.55 131.12 54.94 149.9 84.4 157.29 C95.57 159.81 106.7 159.75 118.08 159.39 C125.05 159.23 130.58 159.09 136.79 162.45 C138.85 164.57 138.85 164.57 140.23 166.89 C140.7 167.65 141.18 168.41 141.66 169.2 C144.2 174.26 144.58 179.52 143.11 185.02 C140.06 190.67 136.7 194 130.79 196.45 C127.93 197.1 125.08 197.43 122.17 197.7 C120.93 197.82 120.93 197.82 119.67 197.95 C82.86 201.08 46.26 188.74 17.61 165.77 C14.5 163.23 14.5 163.23 10.7 162.43 C-7.3 172.08 -22.63 189.04 -29.77 208.14 C-30.07 208.92 -30.37 209.7 -30.68 210.51 C-32.46 215.17 -33.88 219.81 -35.14 224.64 C-36.91 230.75 -39.92 234.02 -45.21 237.45 C-49.47 239.59 -54.59 239.04 -59.21 238.45 C-64.21 236.51 -68 233.98 -71.33 229.77 C-75.61 213.56 -67.28 194.27 -59.39 180.33 C-53.42 170.08 -46.34 161.07 -38.21 152.45 C-37.53 151.71 -36.86 150.98 -36.16 150.21 C-29.6 143.28 -21.98 137.93 -14.21 132.45 C-14.93 131.19 -14.93 131.19 -15.68 129.91 C-27.79 108.42 -35.75 84.27 -36.21 59.45 C-36.27 58.16 -36.27 58.16 -36.32 56.83 C-36.68 43.98 -34.86 31.1 -31.83 18.64 C-31.64 17.81 -31.44 16.98 -31.24 16.13 C-29.39 8.96 -26.45 3.71 -20.21 -0.55 C-13.83 -4.09 -6.25 -3.54 0 0 Z " fill="#000002" transform="translate(912.20703125,523.546875)"/>
<path d="M0 0 C4.89 3.34 7.87 7.3 9.75 12.88 C10.74 20.15 9.31 26.26 6.72 33.05 C1.32 48.74 4.39 67.59 11.44 82.12 C16.2 91.7 16.2 91.7 23.75 98.88 C29.19 98.7 33.95 96.85 39 95 C66.25 85.57 96.63 86.41 123.04 98.36 C128.45 101.38 131.39 106.04 133.31 111.8 C134.49 117.34 133.13 122.54 130.09 127.27 C126.89 131.11 123.27 133.37 118.35 134.36 C110.94 134.77 104.35 132.45 97.45 130.07 C79.24 124.2 57.35 127.17 40.25 135.25 C38.74 136.1 37.24 136.98 35.75 137.88 C34.89 138.35 34.02 138.83 33.13 139.32 C21.24 146.28 12.51 155.96 5.75 167.88 C5.26 168.61 4.77 169.34 4.26 170.1 C2.13 174.02 0.92 178.12 -0.38 182.38 C-0.64 183.22 -0.9 184.06 -1.18 184.93 C-3.75 193.23 -4.49 200.63 -4.59 209.31 C-4.81 215.89 -6.12 221.4 -10.63 226.4 C-15.15 230.48 -19.54 232.15 -25.56 231.88 C-32.03 230.96 -37.33 227.4 -41.25 222.25 C-48.65 204.68 -40.51 178.26 -33.88 161.69 C-27.58 147.25 -19 135.34 -8.25 123.88 C-9.57 120.06 -11.2 117.56 -13.88 114.56 C-30.07 94.75 -35.81 67.17 -33.98 42.15 C-32.64 29.34 -30.3 11.93 -20.88 2.5 C-14.3 -1.57 -7.32 -2.53 0 0 Z " fill="#000002" transform="translate(780.25,308.125)"/>
<path d="M0 0 C8.54 6.07 11.14 15.29 13.81 25 C14.13 26.14 14.46 27.28 14.79 28.46 C21.23 55.26 15.94 83.68 1.76 107.06 C-1.66 112.22 -5.38 117.13 -9.19 122 C-8.4 123.05 -7.62 124.1 -6.81 125.19 C-6.26 125.93 -5.71 126.67 -5.14 127.44 C-3.78 129.22 -2.38 130.97 -0.95 132.69 C16.66 154.26 25.68 180.16 26.19 207.88 C26.21 208.77 26.24 209.66 26.27 210.58 C26.28 217.17 25.08 221.53 20.44 226.46 C15.88 230.57 11.58 232.27 5.5 232 C-0.76 231.11 -6.04 227.75 -9.91 222.79 C-11.53 219.24 -11.63 216.01 -11.69 212.19 C-12.76 184.23 -23.81 162.04 -44.19 143 C-58.45 130.12 -80.19 127.08 -98.59 127.6 C-107.25 128.06 -115.17 130.24 -123.33 133.1 C-130.17 135.25 -135.7 134.62 -142.12 131.44 C-145.5 129.39 -147.11 128.11 -149.38 124.81 C-150.9 117.64 -151.62 111.56 -147.69 105.06 C-144.37 100.76 -141.27 98.77 -136.19 97 C-135.04 96.59 -133.9 96.18 -132.71 95.76 C-103.24 85.7 -74.99 87.3 -46.08 98.29 C-44.46 98.9 -42.83 99.45 -41.19 100 C-25.6 81.84 -20.83 64.69 -22.19 41 C-22.83 36.84 -23.82 32.98 -25.19 29 C-27.34 22.22 -28.2 17.13 -26 10.31 C-20.49 0.24 -10.79 -3.38 0 0 Z " fill="#000002" transform="translate(493.1875,308)"/>
<path d="M0 0 C0.99 0 1.98 0 3 0 C3 189.42 3 378.84 3 574 C2.01 574 1.02 574 0 574 C0 384.58 0 195.16 0 0 Z " fill="#F0F2F1" transform="translate(647,64)"/>
<path d="M0 0 C1.32 0.33 2.64 0.66 4 1 C3.92 36.62 3.83 72.24 3.72 107.86 C3.71 112.06 3.69 116.26 3.68 120.46 C3.68 121.3 3.68 122.14 3.68 123 C3.64 136.56 3.6 150.12 3.57 163.67 C3.54 177.58 3.5 191.48 3.46 205.39 C3.43 213.97 3.41 222.56 3.39 231.14 C3.38 237.02 3.36 242.91 3.34 248.79 C3.33 252.18 3.32 255.58 3.32 258.98 C3.31 262.65 3.3 266.33 3.28 270.01 C3.28 271.09 3.28 272.17 3.28 273.28 C3.28 274.27 3.27 275.25 3.26 276.26 C3.26 277.11 3.26 277.96 3.25 278.83 C3 281 3 281 1 284 C-0.24 278.24 -0.14 272.58 -0.12 266.72 C-0.12 265.58 -0.12 264.44 -0.12 263.27 C-0.12 259.45 -0.12 255.62 -0.11 251.8 C-0.11 249.06 -0.11 246.32 -0.11 243.58 C-0.11 237.68 -0.11 231.78 -0.11 225.88 C-0.1 217.35 -0.09 208.82 -0.09 200.29 C-0.09 186.45 -0.08 172.61 -0.08 158.77 C-0.07 145.33 -0.06 131.89 -0.05 118.44 C-0.05 117.62 -0.05 116.79 -0.05 115.93 C-0.05 111.78 -0.05 107.62 -0.05 103.46 C-0.04 68.97 -0.02 34.49 0 0 Z " fill="#F0F2F1" transform="translate(647,687)"/>
<path d="M0 0 C6.47 5.27 10.35 14.92 11.22 23.07 C11.92 36.15 10.38 46.53 2 57 C-0.51 54.49 -0.27 53.63 -0.33 50.15 C-0.36 49.15 -0.38 48.14 -0.4 47.1 C-0.42 46.01 -0.43 44.91 -0.45 43.79 C-0.47 42.67 -0.49 41.55 -0.52 40.4 C-0.56 38.02 -0.6 35.65 -0.63 33.28 C-0.69 29.65 -0.76 26.01 -0.83 22.38 C-0.87 20.08 -0.91 17.78 -0.95 15.48 C-0.97 14.39 -0.99 13.3 -1.01 12.18 C-1.03 11.16 -1.04 10.15 -1.05 9.1 C-1.07 8.21 -1.08 7.32 -1.1 6.4 C-1 4.12 -0.65 2.19 0 0 Z " fill="#F8C7B4" transform="translate(1038,469)"/>
<path d="M0 0 C2.5 3.75 2.37 6.82 2.45 11.18 C2.48 12.38 2.48 12.38 2.52 13.61 C2.56 15.31 2.6 17.01 2.63 18.7 C2.69 21.29 2.76 23.88 2.83 26.47 C2.87 28.12 2.91 29.77 2.95 31.43 C2.97 32.19 2.99 32.96 3.01 33.76 C3.09 37.97 2.85 41.85 2 46 C1.34 46 0.68 46 0 46 C-0.9 43.29 -1.13 41.71 -1.13 38.93 C-1.13 38.11 -1.14 37.3 -1.14 36.46 C-1.14 35.59 -1.13 34.71 -1.13 33.81 C-1.13 32.91 -1.13 32.01 -1.14 31.08 C-1.14 29.17 -1.13 27.27 -1.13 25.37 C-1.13 22.45 -1.13 19.52 -1.14 16.6 C-1.14 14.76 -1.13 12.91 -1.13 11.06 C-1.13 10.18 -1.14 9.3 -1.14 8.4 C-1.11 2.23 -1.11 2.23 0 0 Z " fill="#F0F3F2" transform="translate(648,1056)"/>
<path d="M0 0 C0.99 0.33 1.98 0.66 3 1 C3.03 5.07 3.04 9.14 3.05 13.21 C3.06 14.59 3.07 15.97 3.08 17.35 C3.13 25.63 2.96 33.77 2 42 C-1.11 38.89 -0.74 35.26 -1 31 C-1 29.05 -1 27.1 -0.96 25.15 C-1.01 22.65 -1.32 20.23 -1.62 17.75 C-2.25 11.62 -1.27 6 0 0 Z " fill="#D8CBC5" transform="translate(29,660)"/>
<path d="M0 0 C0.33 0 0.66 0 1 0 C0.67 7.92 0.34 15.84 0 24 C-0.66 24.33 -1.32 24.66 -2 25 C-2.81 22.15 -3.12 19.63 -3.1 16.67 C-3.09 15.47 -3.09 15.47 -3.09 14.25 C-3.08 13.42 -3.07 12.6 -3.06 11.75 C-3.06 10.91 -3.05 10.07 -3.05 9.2 C-3.04 7.14 -3.02 5.07 -3 3 C-2.67 3.99 -2.34 4.98 -2 6 C-1.34 6 -0.68 6 0 6 C0 4.02 0 2.04 0 0 Z " fill="#FADDD0" transform="translate(650,1096)"/>
<path d="M0 0 C0.66 0.33 1.32 0.66 2 1 C2 5.29 2 9.58 2 14 C3.32 14.33 4.64 14.66 6 15 C4.02 15 2.04 15 0 15 C-1.51 9.96 -0.65 5.12 0 0 Z " fill="#F0F3F2" transform="translate(31,692)"/>
<path d="" fill="#000002" transform="translate(0,0)"/>
</svg>
