<svg width="21" height="20" viewBox="0 0 21 20" fill="none" xmlns="http://www.w3.org/2000/svg">
<g id="Frame 18339">
<path id="Vector" d="M17.5607 5.85743L16.2989 2.67764C16.2484 2.52625 16.097 2.45055 15.9456 2.45055L11.7562 2.45038H4.84136C4.68996 2.45038 4.53857 2.55125 4.48805 2.67747L3.22621 5.85725C3.17569 5.98347 3.20104 6.10969 3.27674 6.21056C3.35243 6.31143 3.45348 6.3873 3.57953 6.3873H8.90448C9.1064 6.3873 9.25779 6.23591 9.28296 6.034L9.30813 5.8826H11.5037L11.5289 6.034C11.554 6.23591 11.7056 6.3873 11.9073 6.3873H17.2075C17.3337 6.3873 17.4599 6.33678 17.5103 6.21056C17.5862 6.10969 17.6113 5.98365 17.5608 5.85743H17.5607ZM8.5512 5.63034H4.13476L5.09381 3.20752H8.77846L8.5512 5.63034ZM12.2357 5.63034L12.0086 3.20752H15.6932L16.6523 5.63034H12.2357ZM17.2073 5.63034H3.57947C3.37755 5.63034 3.20099 5.80708 3.20099 6.00882V16.7092C3.20099 16.9111 3.37773 17.0877 3.57947 17.0877H17.2073C17.4092 17.0877 17.5858 16.9109 17.5858 16.7092L17.586 6.00882C17.586 5.78173 17.4092 5.63034 17.2073 5.63034ZM16.8288 16.3307H3.95809V6.38744H8.55118V12.7219L10.3934 11.46L12.2357 12.7219V6.38744H16.8287L16.8288 16.3307Z" fill="black"/>
</g>
</svg>
