<?xml version="1.0" encoding="UTF-8"?>
<!-- Generator: visioncortex VTracer 0.6.3 -->
<svg version="1.1" xmlns="http://www.w3.org/2000/svg" width="1280" height="1280">
<path d="M0 0 C1.23 -0 2.47 -0.01 3.74 -0.01 C5.09 -0.01 6.45 -0.01 7.8 -0 C9.18 -0 10.57 -0.01 11.95 -0.01 C14.85 -0.01 17.75 -0.01 20.64 -0 C24.36 0 28.08 0 31.8 -0 C34.66 -0.01 37.51 -0.01 40.37 -0 C41.74 -0 43.11 -0 44.48 -0.01 C46.4 -0.01 48.31 -0 50.23 0 C51.32 0 52.41 0 53.53 0 C56.11 0.13 56.11 0.13 58.11 1.13 C59.67 1.26 61.24 1.36 62.8 1.44 C68.96 1.94 74.7 3.49 80.62 5.16 C83.3 5.9 85.95 6.57 88.68 7.13 C97.35 9 105.9 11.32 113.93 15.15 C116.33 16.22 118.75 17.05 121.24 17.88 C127.99 20.28 134.12 23.71 140.37 27.17 C141.88 28 143.4 28.8 144.92 29.59 C153.67 34.18 161.92 39.62 170.11 45.13 C170.8 45.59 171.48 46.04 172.19 46.51 C173.87 47.66 175.5 48.89 177.11 50.13 C177.11 50.79 177.11 51.45 177.11 52.13 C177.86 52.4 178.6 52.67 179.36 52.94 C182 54.08 183.97 55.22 186.11 57.13 C186.11 57.79 186.11 58.45 186.11 59.13 C187.1 59.46 188.09 59.79 189.11 60.13 C189.11 60.79 189.11 61.45 189.11 62.13 C189.92 62.47 189.92 62.47 190.74 62.82 C196.38 65.93 200.38 70.4 204.5 75.26 C206.07 77.14 206.07 77.14 207.82 78.75 C209.11 80.13 209.11 80.13 209.11 82.13 C210.1 82.46 211.09 82.79 212.11 83.13 C212.11 83.79 212.11 84.45 212.11 85.13 C212.77 85.13 213.43 85.13 214.11 85.13 C215.4 86.59 215.4 86.59 216.74 88.5 C217.18 89.13 217.63 89.76 218.09 90.4 C219.11 92.13 219.11 92.13 219.11 94.13 C219.77 94.13 220.43 94.13 221.11 94.13 C222.93 96.53 224.63 98.94 226.3 101.44 C226.8 102.18 227.29 102.91 227.8 103.66 C229.25 105.81 230.68 107.97 232.11 110.13 C233.12 111.62 233.12 111.62 234.15 113.15 C238.13 119.2 241.39 125.46 244.54 131.97 C246.03 135.08 246.03 135.08 247.7 137.72 C249.17 140.23 250.11 142.63 251.05 145.38 C252.21 148.78 253.51 152.03 255.02 155.29 C257.36 160.5 259.04 165.85 260.68 171.32 C261.13 172.83 261.13 172.83 261.6 174.38 C264.71 184.88 267.02 195.22 268.11 206.13 C268.44 206.79 268.77 207.45 269.11 208.13 C269.34 210.1 269.51 212.08 269.65 214.06 C269.78 215.87 269.78 215.87 269.91 217.72 C270 218.99 270.09 220.26 270.18 221.57 C270.27 222.8 270.36 224.04 270.45 225.31 C271.97 246.88 271.03 269.02 266.11 290.13 C265.76 291.66 265.76 291.66 265.39 293.23 C264.67 296.21 263.9 299.17 263.11 302.13 C262.8 303.36 262.49 304.59 262.18 305.85 C260.53 312.31 258.72 318.53 256.12 324.66 C254.56 328.5 253.33 332.45 252.05 336.39 C251.11 339.13 251.11 339.13 249.55 342.63 C244.43 355.1 242.69 370.89 246.11 384.13 C246.71 384.11 247.3 384.1 247.91 384.08 C276.29 383.43 276.29 383.43 289.15 390.46 C291.89 391.4 293.36 391.01 296.11 390.13 C298.17 388.97 300.19 387.73 302.18 386.44 C307.37 383.13 312.65 380.29 318.2 377.61 C321.01 376.18 323.63 374.6 326.3 372.94 C335.46 367.48 345.45 363.57 355.23 359.37 C358.61 357.92 361.97 356.43 365.32 354.93 C369.85 352.91 374.35 351.48 379.11 350.13 C380.61 349.61 382.11 349.09 383.61 348.57 C387.43 347.27 391.11 346.67 395.11 346.13 C395.89 345.8 396.66 345.47 397.45 345.13 C402.81 343.11 409.17 342.98 414.53 345.07 C419.49 348.03 423.25 351.55 425.11 357.13 C427.07 357.95 427.07 357.95 429.11 358.13 C429.44 357.8 429.77 357.47 430.11 357.13 C431.44 356.99 432.78 356.9 434.11 356.85 C434.92 356.81 435.72 356.77 436.55 356.73 C438.26 356.66 439.97 356.59 441.68 356.52 C442.48 356.49 443.28 356.45 444.11 356.41 C444.86 356.38 445.6 356.35 446.36 356.32 C448.14 356.31 448.14 356.31 449.11 355.13 C450.63 355.07 452.15 355.07 453.66 355.1 C454.59 355.11 455.52 355.13 456.47 355.14 C458.43 355.17 460.39 355.21 462.35 355.26 C463.28 355.27 464.21 355.28 465.16 355.29 C466.02 355.31 466.87 355.32 467.75 355.34 C470.37 355.11 471.93 354.6 474.11 353.13 C475.41 350.09 475.41 350.09 476.11 347.13 C476.77 347.13 477.43 347.13 478.11 347.13 C478.32 346.55 478.53 345.97 478.74 345.38 C480.62 342.3 482.84 340.55 486.11 339.13 C489.57 338.6 492.94 338.66 496.43 338.75 C497.32 338.76 498.22 338.76 499.15 338.76 C504.37 338.83 509.14 339.42 514.2 340.67 C516.39 341.19 518.5 341.4 520.74 341.5 C526.37 342 531.67 343.5 537.09 345.02 C540.53 345.98 543.99 346.85 547.46 347.69 C552.79 348.98 558.04 350.27 563.13 352.35 C565.75 353.38 568.43 354.21 571.11 355.07 C575.34 356.46 579.21 358.05 583.13 360.13 C585.37 361.26 587.65 362.16 589.99 363.07 C596.22 365.5 602.24 368.34 607.93 371.88 C610.34 373.26 612.4 373.64 615.11 374.13 C615.16 373.45 615.21 372.77 615.26 372.07 C616.64 354.95 622.4 341.74 631.11 327.13 C631.77 327.13 632.43 327.13 633.11 327.13 C633.77 325.48 634.43 323.83 635.11 322.13 C635.77 322.13 636.43 322.13 637.11 322.13 C637.36 321.55 637.61 320.97 637.86 320.38 C639.3 317.8 640.9 316.07 643.11 314.13 C643.77 314.13 644.43 314.13 645.11 314.13 C645.11 313.47 645.11 312.81 645.11 312.13 C647.33 310.42 649.53 308.85 651.86 307.32 C652.54 306.87 653.23 306.42 653.93 305.95 C673.9 293.08 697.06 290.53 720.11 295.13 C722.89 295.92 725.47 296.97 728.11 298.13 C728.88 298.41 729.64 298.68 730.43 298.97 C751.27 306.6 767.63 324.01 776.86 343.88 C778.25 346.94 779.41 349.84 780.11 353.13 C781.02 352.48 781.92 351.83 782.85 351.16 C784.04 350.32 785.23 349.47 786.43 348.63 C787.02 348.2 787.62 347.77 788.23 347.33 C792.77 344.13 792.77 344.13 796.11 344.13 C796.11 343.47 796.11 342.81 796.11 342.13 C810.39 336.19 823.57 331.77 839.11 331.82 C840.66 331.79 840.66 331.79 842.23 331.77 C851.62 331.76 858.59 333.91 866.68 338.69 C867.71 339.29 868.74 339.89 869.8 340.51 C870.57 341.04 871.33 341.58 872.11 342.13 C872.11 342.79 872.11 343.45 872.11 344.13 C873.07 344.53 873.07 344.53 874.05 344.94 C876.11 346.13 876.11 346.13 877.11 349.13 C877.77 349.13 878.43 349.13 879.11 349.13 C888.08 359.8 889.85 371.08 889.73 384.6 C889.74 386.24 889.75 387.89 889.75 389.53 C889.77 394.02 889.76 398.51 889.74 402.99 C889.72 407.85 889.74 412.7 889.75 417.55 C889.76 427.04 889.75 436.53 889.73 446.02 C889.7 457.08 889.7 468.14 889.71 479.2 C889.71 498.94 889.69 518.68 889.66 538.42 C889.62 557.56 889.61 576.7 889.61 595.84 C889.62 616.7 889.62 637.56 889.6 658.41 C889.6 659.52 889.6 660.62 889.6 661.76 C889.59 663.97 889.59 666.19 889.59 668.41 C889.58 676.11 889.58 683.82 889.58 691.52 C889.58 700.91 889.58 710.3 889.55 719.7 C889.54 724.49 889.53 729.28 889.54 734.07 C889.54 738.45 889.53 742.84 889.51 747.23 C889.51 748.82 889.51 750.4 889.52 751.98 C889.55 761.09 888.84 769.39 886.11 778.13 C885.91 778.81 885.71 779.49 885.5 780.19 C883.03 788.2 879.65 795.13 875.11 802.13 C874.42 803.35 873.73 804.58 873.05 805.82 C870.92 809.46 868.7 812.79 866.11 816.13 C865.45 816.13 864.79 816.13 864.11 816.13 C863.85 816.87 863.58 817.61 863.3 818.38 C862.16 821.02 861.02 822.98 859.11 825.13 C858.45 825.13 857.79 825.13 857.11 825.13 C856.65 826.06 856.65 826.06 856.18 827 C855.49 828.38 854.8 829.75 854.11 831.13 C853.45 831.13 852.79 831.13 852.11 831.13 C851.9 831.65 851.68 832.16 851.45 832.69 C849.56 836.14 847.13 839.07 844.68 842.13 C843.7 843.36 842.72 844.59 841.74 845.82 C841.28 846.39 840.82 846.96 840.35 847.55 C839.33 848.86 838.35 850.21 837.39 851.57 C836.97 852.08 836.55 852.6 836.11 853.13 C835.45 853.13 834.79 853.13 834.11 853.13 C833.87 853.84 833.62 854.56 833.36 855.3 C831.97 858.44 830.27 860.77 828.11 863.44 C827.41 864.32 826.71 865.21 825.99 866.12 C825.37 866.78 824.75 867.45 824.11 868.13 C823.45 868.13 822.79 868.13 822.11 868.13 C821.87 868.67 821.62 869.2 821.36 869.75 C819.81 872.71 818.08 875.43 816.11 878.13 C815.45 878.13 814.79 878.13 814.11 878.13 C813.87 878.85 813.63 879.57 813.38 880.31 C811.94 883.51 810.21 885.65 807.86 888.25 C807.12 889.1 806.37 889.95 805.6 890.82 C800.77 895.31 796.58 896.56 790.05 896.57 C788.86 896.59 787.68 896.61 786.45 896.63 C782.57 896.05 780.92 894.81 778.11 892.13 C777.78 893.12 777.45 894.11 777.11 895.13 C776.45 895.13 775.79 895.13 775.11 895.13 C775.09 895.81 775.07 896.49 775.05 897.19 C773.84 900.99 771.76 902.67 768.89 905.35 C767.23 907.01 766.07 908.57 764.86 910.57 C764.29 911.41 763.71 912.26 763.11 913.13 C760.11 913.13 760.11 913.13 758.11 912.13 C757.78 913.45 757.45 914.77 757.11 916.13 C758.1 916.62 758.1 916.62 759.11 917.13 C758.33 917.85 757.55 918.57 756.74 919.32 C754.22 922.02 753.36 923.75 752.11 927.13 C750.49 928.94 750.49 928.94 749.11 930.13 C749.92 931.02 750.72 931.9 751.55 932.82 C755.59 937.71 755.59 942.93 755.11 949.13 C753.99 953.79 752.02 957.32 749.11 961.13 C748.45 961.13 747.79 961.13 747.11 961.13 C746.87 961.67 746.62 962.2 746.36 962.75 C744.81 965.71 743.08 968.43 741.11 971.13 C740.45 971.13 739.79 971.13 739.11 971.13 C738.93 971.79 738.74 972.45 738.55 973.13 C736.79 976.8 734.41 979.38 731.67 982.36 C730.04 984.06 730.04 984.06 729.11 986.13 C728.45 986.13 727.79 986.13 727.11 986.13 C726.85 986.7 726.58 987.27 726.3 987.86 C725.07 990.21 723.69 992.25 722.11 994.38 C721.34 995.44 721.34 995.44 720.55 996.52 C720.08 997.05 719.6 997.58 719.11 998.13 C718.45 998.13 717.79 998.13 717.11 998.13 C716.87 998.85 716.62 999.57 716.36 1000.32 C714.99 1003.41 713.39 1005.64 711.11 1008.13 C710.45 1008.13 709.79 1008.13 709.11 1008.13 C708.93 1008.79 708.74 1009.45 708.55 1010.13 C706.79 1013.8 704.41 1016.38 701.67 1019.36 C700.04 1021.06 700.04 1021.06 699.11 1023.13 C698.45 1023.13 697.79 1023.13 697.11 1023.13 C696.87 1023.67 696.62 1024.2 696.36 1024.75 C694.81 1027.71 693.08 1030.43 691.11 1033.13 C690.45 1033.13 689.79 1033.13 689.11 1033.13 C688.87 1033.67 688.62 1034.21 688.36 1034.77 C686.83 1037.66 685.02 1040.23 683.11 1042.88 C682.41 1043.86 681.71 1044.85 680.99 1045.86 C680.37 1046.61 679.75 1047.36 679.11 1048.13 C678.45 1048.13 677.79 1048.13 677.11 1048.13 C676.86 1048.69 676.61 1049.26 676.35 1049.84 C674.94 1052.45 673.28 1054.49 671.36 1056.75 C657.26 1073.74 657.26 1073.74 645.11 1092.13 C644.66 1092.88 644.2 1093.63 643.73 1094.41 C640.41 1100.07 638.25 1105.94 636.11 1112.13 C635.6 1113.44 635.08 1114.76 634.55 1116.07 C628.48 1132.36 624.6 1154.95 629.11 1172.13 C629.29 1174.38 629.43 1176.63 629.55 1178.88 C629.85 1183.47 630.31 1187.67 631.57 1192.09 C633.27 1198.52 634.08 1205.19 634.61 1211.82 C634.95 1215.98 635.66 1219.87 636.64 1223.92 C637.3 1227.02 637.59 1230.13 637.87 1233.28 C638.02 1235.22 638.02 1235.22 639.11 1237.13 C639.3 1238.98 639.43 1240.84 639.55 1242.69 C639.83 1246.51 640.25 1250.05 641.24 1253.75 C642.81 1260.38 642.35 1266.55 638.93 1272.5 C636.64 1276.1 633.87 1278.14 630.11 1280.13 C627.13 1280.58 624.25 1280.51 621.24 1280.38 C620.45 1280.36 619.67 1280.34 618.86 1280.32 C616.95 1280.28 615.03 1280.21 613.11 1280.13 C613.11 1279.47 613.11 1278.81 613.11 1278.13 C612.22 1277.98 612.22 1277.98 611.31 1277.82 C608.71 1277 607.75 1276.06 605.99 1274 C605.49 1273.44 604.99 1272.89 604.48 1272.31 C603.11 1270.13 603.11 1270.13 601.11 1263.13 C539.73 1262.8 478.35 1262.47 415.11 1262.13 C415.44 1263.12 415.77 1264.11 416.11 1265.13 C414.19 1270.78 411.5 1275.8 406.45 1279.27 C403.08 1280.51 399.78 1280.5 396.24 1280.5 C395.54 1280.53 394.85 1280.55 394.13 1280.58 C388.95 1280.61 386.11 1279.36 382.11 1276.13 C376.44 1269.98 375.81 1264.69 375.79 1256.66 C375.78 1255.71 375.77 1254.76 375.76 1253.79 C375.73 1250.67 375.72 1247.54 375.7 1244.42 C375.68 1242.25 375.66 1240.09 375.64 1237.92 C375.59 1232.22 375.55 1226.52 375.51 1220.82 C375.47 1215 375.42 1209.18 375.37 1203.37 C375.27 1191.95 375.19 1180.54 375.11 1169.13 C371.78 1169.78 368.6 1170.55 365.36 1171.57 C361.48 1172.75 357.62 1173.76 353.64 1174.59 C351.72 1175 349.81 1175.44 347.89 1175.88 C340.86 1177.49 334.07 1178.54 326.86 1178.92 C324.45 1179.1 322.43 1179.54 320.11 1180.13 C304.67 1181.91 285.29 1183.48 270.1 1179.62 C267.5 1178.98 264.98 1178.9 262.3 1178.75 C251.8 1177.99 241.63 1175.56 231.43 1173.07 C230.42 1172.82 230.42 1172.82 229.39 1172.58 C226.06 1171.74 223.17 1170.68 220.11 1169.13 C219.12 1169.13 218.13 1169.13 217.11 1169.13 C217.11 1170.31 217.11 1171.49 217.1 1172.71 C217.07 1183.88 217.01 1195.05 216.93 1206.21 C216.89 1211.95 216.86 1217.69 216.84 1223.43 C216.83 1228.98 216.79 1234.52 216.74 1240.07 C216.73 1242.18 216.72 1244.29 216.72 1246.4 C216.72 1249.36 216.69 1252.33 216.66 1255.3 C216.67 1256.59 216.67 1256.59 216.67 1257.92 C216.55 1265.02 214.66 1271.02 210.11 1276.57 C205.64 1280.06 201.84 1280.49 196.24 1280.5 C195.54 1280.53 194.85 1280.55 194.13 1280.58 C187.76 1280.61 184.3 1278.26 179.86 1273.94 C178.11 1271.13 178.11 1271.13 176.11 1262.13 C84.54 1262.62 84.54 1262.62 -8.89 1263.13 C-9.55 1265.44 -10.21 1267.75 -10.89 1270.13 C-11.55 1270.13 -12.21 1270.13 -12.89 1270.13 C-12.97 1270.75 -13.05 1271.37 -13.14 1272 C-13.89 1274.13 -13.89 1274.13 -15.95 1275.38 C-16.91 1275.75 -16.91 1275.75 -17.89 1276.13 C-17.89 1276.79 -17.89 1277.45 -17.89 1278.13 C-18.88 1278.13 -19.87 1278.13 -20.89 1278.13 C-20.89 1278.79 -20.89 1279.45 -20.89 1280.13 C-37.87 1280.99 -37.87 1280.99 -42.14 1278.25 C-46.76 1273.88 -50.12 1267.41 -50.32 1261 C-49.95 1257.67 -49.31 1254.64 -48.39 1251.42 C-47.54 1247.55 -47.38 1243.62 -47.13 1239.67 C-46.89 1237.13 -46.89 1237.13 -45.89 1235.13 C-45.52 1232.65 -45.19 1230.18 -44.89 1227.69 C-44.02 1220.53 -44.02 1220.53 -42.89 1217.13 C-42.76 1215.65 -42.66 1214.17 -42.57 1212.69 C-42.12 1207.19 -41.08 1201.9 -39.95 1196.5 C-34.2 1168.58 -32.86 1139.01 -43.89 1112.13 C-44.21 1111.27 -44.54 1110.42 -44.87 1109.54 C-50.46 1095.3 -58.26 1082.94 -67.89 1071.13 C-69.24 1069.42 -70.6 1067.71 -71.95 1066 C-74.07 1063.36 -76.21 1060.74 -78.38 1058.14 C-79.21 1057.14 -80.04 1056.15 -80.89 1055.13 C-82.03 1053.77 -82.03 1053.77 -83.2 1052.38 C-84.89 1050.13 -84.89 1050.13 -84.89 1048.13 C-85.55 1048.13 -86.21 1048.13 -86.89 1048.13 C-88.5 1046.22 -89.98 1044.33 -91.45 1042.32 C-91.86 1041.77 -92.27 1041.22 -92.7 1040.66 C-94.55 1038.16 -95.9 1036.1 -96.89 1033.13 C-97.55 1033.13 -98.21 1033.13 -98.89 1033.13 C-100.39 1031.45 -100.39 1031.45 -102.01 1029.25 C-102.82 1028.18 -102.82 1028.18 -103.64 1027.07 C-104.89 1025.13 -104.89 1025.13 -104.89 1023.13 C-105.55 1023.13 -106.21 1023.13 -106.89 1023.13 C-108.51 1021.3 -108.51 1021.3 -110.32 1018.88 C-110.92 1018.09 -111.52 1017.3 -112.13 1016.49 C-113 1015.32 -113 1015.32 -113.89 1014.13 C-114.46 1013.41 -115.02 1012.7 -115.61 1011.96 C-116.89 1010.13 -116.89 1010.13 -116.89 1008.13 C-117.55 1008.13 -118.21 1008.13 -118.89 1008.13 C-120.39 1006.45 -120.39 1006.45 -122.01 1004.25 C-122.55 1003.54 -123.09 1002.82 -123.64 1002.07 C-124.89 1000.13 -124.89 1000.13 -124.89 998.13 C-125.55 998.13 -126.21 998.13 -126.89 998.13 C-128.68 996.04 -130.36 993.95 -132.01 991.75 C-132.71 990.85 -132.71 990.85 -133.43 989.93 C-136.89 985.39 -136.89 985.39 -136.89 983.13 C-137.88 982.8 -138.87 982.47 -139.89 982.13 C-141.6 980.1 -143.19 978.08 -144.76 975.94 C-145.61 974.8 -146.46 973.66 -147.32 972.52 C-147.74 971.96 -148.15 971.4 -148.58 970.82 C-149.91 969.1 -151.29 967.47 -152.71 965.83 C-154.89 963.13 -154.89 963.13 -154.89 961.13 C-155.55 961.13 -156.21 961.13 -156.89 961.13 C-159.89 957.67 -159.89 957.67 -159.89 955.13 C-160.55 955.13 -161.21 955.13 -161.89 955.13 C-163.18 953.67 -163.18 953.67 -164.51 951.75 C-165.18 950.81 -165.18 950.81 -165.86 949.86 C-166.89 948.13 -166.89 948.13 -166.89 946.13 C-167.55 946.13 -168.21 946.13 -168.89 946.13 C-171.89 942.67 -171.89 942.67 -171.89 940.13 C-172.55 940.13 -173.21 940.13 -173.89 940.13 C-175.33 938.51 -175.33 938.51 -177.01 936.25 C-179.51 932.95 -182.03 929.67 -184.64 926.44 C-186.05 924.67 -187.47 922.9 -188.89 921.13 C-189.35 920.55 -189.81 919.98 -190.28 919.39 C-191.78 917.51 -193.27 915.63 -194.76 913.75 C-195.24 913.16 -195.71 912.56 -196.21 911.95 C-198.44 909.13 -200.47 906.45 -201.89 903.13 C-202.55 903.13 -203.21 903.13 -203.89 903.13 C-205.39 901.45 -205.39 901.45 -207.01 899.25 C-207.55 898.54 -208.09 897.82 -208.64 897.07 C-209.89 895.13 -209.89 895.13 -209.89 893.13 C-210.55 893.13 -211.21 893.13 -211.89 893.13 C-213.51 891.3 -213.51 891.3 -215.32 888.88 C-215.92 888.09 -216.52 887.3 -217.13 886.49 C-217.71 885.71 -218.29 884.93 -218.89 884.13 C-219.46 883.41 -220.02 882.7 -220.61 881.96 C-221.89 880.13 -221.89 880.13 -221.89 878.13 C-222.55 878.13 -223.21 878.13 -223.89 878.13 C-225.39 876.45 -225.39 876.45 -227.01 874.25 C-227.55 873.54 -228.09 872.82 -228.64 872.07 C-229.89 870.13 -229.89 870.13 -229.89 868.13 C-230.55 868.13 -231.21 868.13 -231.89 868.13 C-233.68 866.04 -235.36 863.95 -237.01 861.75 C-237.71 860.85 -237.71 860.85 -238.43 859.93 C-241.89 855.39 -241.89 855.39 -241.89 853.13 C-242.55 853.13 -243.21 853.13 -243.89 853.13 C-245.74 850.96 -247.48 848.78 -249.2 846.5 C-250.15 845.26 -251.11 844.02 -252.06 842.78 C-252.53 842.17 -252.99 841.56 -253.48 840.93 C-254.85 839.17 -256.29 837.48 -257.74 835.79 C-259.89 833.13 -259.89 833.13 -259.89 831.13 C-260.55 831.13 -261.21 831.13 -261.89 831.13 C-264.89 827.67 -264.89 827.67 -264.89 825.13 C-265.55 825.13 -266.21 825.13 -266.89 825.13 C-268.18 823.67 -268.18 823.67 -269.51 821.75 C-270.18 820.81 -270.18 820.81 -270.86 819.86 C-271.89 818.13 -271.89 818.13 -271.89 816.13 C-272.55 816.13 -273.21 816.13 -273.89 816.13 C-279.92 809.23 -284.01 801.36 -287.89 793.13 C-288.19 792.55 -288.49 791.97 -288.81 791.37 C-297.72 774.24 -297.63 756.24 -297.53 737.34 C-297.51 733.66 -297.52 729.97 -297.52 726.28 C-297.53 720.11 -297.51 713.94 -297.48 707.77 C-297.45 700.66 -297.45 693.54 -297.47 686.42 C-297.48 679.53 -297.48 672.64 -297.46 665.75 C-297.45 662.83 -297.46 659.92 -297.46 657 C-297.47 652.94 -297.45 648.87 -297.42 644.81 C-297.43 643.61 -297.43 642.41 -297.44 641.17 C-297.35 633.66 -296.59 629.95 -291.32 624.52 C-284.53 619.13 -284.53 619.13 -278.89 619.13 C-278.89 603.29 -278.89 587.45 -278.89 571.13 C-281.2 570.8 -283.51 570.47 -285.89 570.13 C-288.32 569.07 -288.32 569.07 -289.89 568.13 C-289.89 567.47 -289.89 566.81 -289.89 566.13 C-290.55 566.13 -291.21 566.13 -291.89 566.13 C-296.13 561.2 -297.62 557.68 -297.52 551.12 C-297.53 550.34 -297.54 549.56 -297.55 548.76 C-297.57 546.17 -297.55 543.58 -297.53 540.99 C-297.54 539.13 -297.55 537.27 -297.56 535.4 C-297.58 530.35 -297.57 525.3 -297.56 520.25 C-297.55 514.95 -297.56 509.65 -297.57 504.36 C-297.57 495.46 -297.56 486.56 -297.54 477.66 C-297.51 467.39 -297.52 457.12 -297.55 446.85 C-297.57 438.02 -297.57 429.19 -297.56 420.36 C-297.55 415.09 -297.55 409.82 -297.57 404.56 C-297.58 399.6 -297.57 394.64 -297.54 389.68 C-297.54 387.87 -297.54 386.06 -297.55 384.24 C-297.62 370.8 -295.86 359.8 -286.89 349.13 C-286.23 349.13 -285.57 349.13 -284.89 349.13 C-284.62 348.49 -284.35 347.85 -284.07 347.19 C-282.89 345.13 -282.89 345.13 -279.89 344.13 C-279.89 343.47 -279.89 342.81 -279.89 342.13 C-277.7 340.83 -275.52 339.54 -273.32 338.25 C-272.41 337.71 -272.41 337.71 -271.48 337.15 C-265.72 333.79 -260.21 331.82 -253.45 332 C-252.58 332.02 -251.72 332.04 -250.83 332.06 C-249.87 332.09 -249.87 332.09 -248.89 332.13 C-249.03 331.47 -249.17 330.81 -249.32 330.14 C-253.53 307.81 -258.45 264.26 -247.89 243.13 C-247.75 241.74 -247.66 240.34 -247.57 238.94 C-246.98 232.47 -245.18 226.37 -243.43 220.13 C-242.71 217.48 -242.07 214.81 -241.43 212.13 C-238.36 199.36 -234.13 187.18 -228.89 175.13 C-228.33 173.81 -227.78 172.5 -227.23 171.18 C-224.3 164.27 -221.27 157.74 -217.24 151.39 C-215.09 147.8 -213.47 144 -211.89 140.13 C-211.23 140.13 -210.57 140.13 -209.89 140.13 C-208.81 137.48 -207.79 134.85 -206.89 132.13 C-206.23 132.13 -205.57 132.13 -204.89 132.13 C-204.78 131.56 -204.68 130.98 -204.57 130.39 C-203.78 127.77 -202.64 126.1 -201.02 123.91 C-200.44 123.12 -199.87 122.34 -199.28 121.53 C-198.67 120.71 -198.07 119.9 -197.45 119.07 C-196.26 117.45 -195.08 115.84 -193.89 114.22 C-193.36 113.51 -192.84 112.79 -192.29 112.06 C-191.12 110.44 -189.99 108.79 -188.89 107.13 C-188.23 107.13 -187.57 107.13 -186.89 107.13 C-186.68 106.44 -186.46 105.74 -186.25 105.03 C-184.48 101.26 -182.01 98.73 -179.14 95.75 C-178.05 94.61 -176.96 93.46 -175.88 92.31 C-175.36 91.77 -174.84 91.22 -174.31 90.66 C-172.55 88.77 -170.9 86.81 -169.26 84.82 C-168.48 83.93 -167.69 83.04 -166.89 82.13 C-166.23 82.13 -165.57 82.13 -164.89 82.13 C-164.56 81.14 -164.23 80.15 -163.89 79.13 C-163.23 79.13 -162.57 79.13 -161.89 79.13 C-161.89 78.47 -161.89 77.81 -161.89 77.13 C-160.38 75.61 -160.38 75.61 -158.32 73.88 C-157.24 72.96 -157.24 72.96 -156.12 72.02 C-155.39 71.39 -154.65 70.77 -153.89 70.13 C-153.22 69.54 -152.55 68.95 -151.87 68.34 C-151.25 67.79 -150.64 67.25 -150.01 66.69 C-149.18 65.95 -149.18 65.95 -148.33 65.2 C-146.89 64.13 -146.89 64.13 -144.89 64.13 C-144.89 63.47 -144.89 62.81 -144.89 62.13 C-138.1 55.66 -129.54 50.71 -121.8 45.45 C-119.92 44.15 -118.07 42.82 -116.23 41.48 C-113.45 39.48 -110.61 37.78 -107.57 36.19 C-103.91 34.24 -100.35 32.2 -96.82 30 C-92.84 27.58 -88.87 25.83 -84.51 24.19 C-81.58 23 -78.82 21.59 -76.01 20.13 C-71.02 17.58 -66.06 15.72 -60.72 14.06 C-58.19 13.23 -55.82 12.26 -53.39 11.19 C-45.24 7.84 -36.45 6.12 -27.89 4.13 C-27.09 3.94 -26.29 3.75 -25.47 3.56 C-21.29 2.59 -17.25 1.86 -12.95 1.57 C-8.37 1.25 -4.64 0 0 0 Z M740.49 513.25 C737.17 516.2 733.8 519.06 730.36 521.87 C728.88 523.07 728.88 523.07 729.11 525.13 C728.58 525.38 728.04 525.62 727.49 525.88 C724.53 527.44 721.82 529.16 719.11 531.13 C719.11 531.79 719.11 532.45 719.11 533.13 C718.43 533.36 717.75 533.58 717.05 533.82 C714.12 535.13 711.82 536.81 709.25 538.71 C705.77 541.02 702.03 542.77 698.28 544.59 C696.23 545.59 694.19 546.61 692.16 547.67 C680.44 553.77 668.54 557.46 655.66 560.15 C649.95 561.35 644.31 562.83 638.66 564.3 C635.14 565.12 631.7 565.67 628.11 566.13 C627.78 567.12 627.45 568.11 627.11 569.13 C629.35 572.37 629.35 572.37 632.11 575.13 C632.77 575.13 633.43 575.13 634.11 575.13 C634.52 575.99 634.52 575.99 634.94 576.87 C636.12 579.15 637.45 581.21 638.91 583.32 C639.72 584.51 639.72 584.51 640.56 585.73 C641.13 586.56 641.71 587.4 642.3 588.25 C642.89 589.11 643.48 589.97 644.08 590.85 C647.02 595.12 649.98 599.36 652.99 603.57 C659.73 613.18 664.99 623.6 670.11 634.13 C673.72 634.32 675.96 634 679.11 632.25 C679.81 631.89 680.5 631.52 681.21 631.15 C682.15 630.64 682.15 630.64 683.11 630.13 C691.29 626.25 700.38 625.74 709.3 625.75 C710.3 625.75 711.3 625.75 712.33 625.75 C721.57 625.9 731.24 626.88 739.11 632.13 C741.09 632.46 743.07 632.79 745.11 633.13 C745.11 592.54 745.11 551.95 745.11 510.13 C743.22 510.13 741.83 512.06 740.49 513.25 Z M771.11 897.13 C770.12 898.61 770.12 898.61 769.11 900.13 C770.1 900.13 771.09 900.13 772.11 900.13 C772.44 899.14 772.77 898.15 773.11 897.13 C772.45 897.13 771.79 897.13 771.11 897.13 Z M767.11 901.13 C766.78 901.79 766.45 902.45 766.11 903.13 C766.77 903.13 767.43 903.13 768.11 903.13 C767.78 902.47 767.45 901.81 767.11 901.13 Z M761.11 909.13 C760.78 910.12 760.45 911.11 760.11 912.13 C761.1 911.8 762.09 911.47 763.11 911.13 C763.11 910.47 763.11 909.81 763.11 909.13 C762.45 909.13 761.79 909.13 761.11 909.13 Z M753.11 918.13 C753.11 918.79 753.11 919.45 753.11 920.13 C753.77 919.8 754.43 919.47 755.11 919.13 C754.45 918.8 753.79 918.47 753.11 918.13 Z " fill="#000002" transform="translate(343.88671875,-0.12939453125)"/>
<path d="M0 0 C15.61 0.17 29.02 6.27 39.88 17.31 C50.91 29.84 56.53 45.05 56.37 61.65 C56.37 62.82 56.38 63.99 56.38 65.2 C56.39 68.41 56.38 71.61 56.37 74.82 C56.35 78.3 56.36 81.77 56.37 85.25 C56.38 91.26 56.37 97.28 56.36 103.29 C56.34 112 56.35 120.71 56.36 129.43 C56.38 143.59 56.39 157.76 56.38 171.92 C56.38 172.77 56.38 173.62 56.38 174.49 C56.38 181.35 56.38 188.21 56.37 195.07 C56.37 201.07 56.37 207.06 56.37 213.05 C56.37 213.89 56.37 214.74 56.36 215.61 C56.36 229.72 56.37 243.83 56.39 257.94 C56.4 266.62 56.4 275.3 56.38 283.98 C56.37 289.94 56.37 295.9 56.39 301.85 C56.39 305.28 56.39 308.71 56.37 312.14 C56.24 344.27 62.52 366.12 84.96 389.48 C86.03 390.54 87.1 391.59 88.19 392.63 C89.92 394.35 91.51 396.15 93.11 398.01 C96.76 402.21 100.55 406.27 104.38 410.31 C108.1 414.25 111.79 418.19 115.34 422.28 C119.07 426.57 122.96 430.69 126.88 434.81 C131.4 439.57 135.84 444.38 140.15 449.35 C143.06 452.66 146.09 455.86 149.12 459.06 C153.73 463.96 158.33 468.86 162.88 473.81 C163.68 474.69 164.48 475.57 165.31 476.47 C167.31 478.69 169.28 480.92 171.23 483.17 C174.77 487.23 178.43 491.15 182.12 495.06 C188.43 501.76 194.67 508.52 200.88 515.31 C202.69 517.29 204.5 519.27 206.31 521.25 C206.76 521.74 207.21 522.23 207.67 522.73 C210.11 525.4 212.56 528.06 215.02 530.71 C215.81 531.56 215.81 531.56 216.61 532.43 C217.65 533.55 218.69 534.67 219.74 535.79 C222.3 538.56 224.77 541.37 227.12 544.31 C231.05 548.99 236.74 552.74 242.86 553.59 C249.12 553.87 253.11 552.4 257.88 548.31 C261.65 543.96 262.96 539.98 262.88 534.31 C260.69 522.89 250.31 514.2 242.62 506.15 C240.13 503.53 237.69 500.86 235.25 498.19 C232.43 495.1 229.61 492.02 226.77 488.96 C217.89 479.37 217.89 479.37 214.06 474.94 C211.92 472.46 209.71 470.11 207.38 467.81 C204.4 464.88 201.66 461.82 198.94 458.66 C194.87 454.03 190.65 449.54 186.46 445.02 C183.43 441.75 180.41 438.47 177.39 435.2 C174.83 432.43 172.27 429.65 169.7 426.89 C169.17 426.32 168.65 425.75 168.11 425.17 C167.12 424.1 166.13 423.04 165.15 421.98 C162.54 419.16 159.99 416.31 157.47 413.41 C153.95 409.37 150.31 405.46 146.62 401.56 C140.32 394.86 134.08 388.11 127.88 381.31 C126.52 379.83 125.16 378.35 123.81 376.87 C122.9 375.88 121.99 374.88 121.08 373.89 C118.65 371.24 116.22 368.6 113.76 365.98 C93.49 344.31 93.49 344.31 93.66 326.96 C94.31 315.77 99.2 308.68 107.06 301.06 C115.24 294.15 123.67 292.58 134.24 292.95 C154.28 294.95 168.74 316.05 182.22 329.59 C184.99 332.37 187.77 335.15 190.54 337.93 C197.57 344.97 204.6 352.02 211.62 359.06 C219.23 366.69 226.83 374.31 234.44 381.93 C237.73 385.22 241.01 388.52 244.3 391.82 C246.34 393.87 248.39 395.92 250.44 397.98 C251.83 399.37 253.22 400.76 254.6 402.15 C259 406.55 263.45 410.79 268.17 414.84 C270.3 416.68 272.33 418.62 274.35 420.59 C275.12 421.35 275.9 422.11 276.7 422.9 C280.17 426.32 283.63 429.74 287.09 433.17 C288.91 434.98 290.74 436.78 292.58 438.58 C295.24 441.19 297.88 443.81 300.53 446.44 C301.35 447.24 302.17 448.04 303.02 448.87 C304.15 450 304.15 450 305.31 451.16 C305.97 451.82 306.64 452.48 307.33 453.16 C309.27 455.87 309.59 458.02 309.88 461.31 C309.44 463.37 309.44 463.37 308.65 465.25 C308.36 465.97 308.08 466.69 307.78 467.43 C307.46 468.19 307.14 468.96 306.81 469.75 C295.96 497.47 291.43 526.97 291.5 556.62 C291.5 557.54 291.5 558.46 291.5 559.4 C291.54 575.33 292.7 590.66 295.88 606.31 C296.09 607.38 296.3 608.45 296.52 609.55 C298.92 621.16 302.03 632.45 306 643.62 C306.49 645 306.49 645 306.98 646.41 C309.44 652.99 312.34 657.09 318.68 660.55 C324.56 662.6 330.82 662.3 336.38 659.62 C341.16 655.2 343.97 651.61 344.23 644.99 C344.15 638 341.58 631.92 339.19 625.44 C320.62 573.19 325.18 515.52 347.88 465.31 C363.2 433.22 386.01 404.25 414.88 383.31 C415.41 382.92 415.95 382.53 416.5 382.12 C444.54 361.78 475.72 349.25 509.88 343.31 C510.97 343.12 510.97 343.12 512.1 342.92 C543.8 337.61 577.26 341.46 607.88 350.31 C608.62 350.53 609.37 350.74 610.14 350.96 C657.85 365.13 696.29 398.85 723.88 439.31 C724.44 440.14 725.01 440.98 725.59 441.83 C755.49 487.15 765.48 545.47 755.16 598.47 C746.63 638.64 727.69 675.12 699.32 704.8 C698.34 705.83 697.37 706.85 696.4 707.89 C687.7 717.15 678.2 724.91 667.88 732.31 C667.24 732.77 666.61 733.22 665.96 733.69 C640.11 752.11 610.08 763.93 578.88 769.31 C578.2 769.43 577.52 769.55 576.82 769.67 C521.14 778.88 463.34 763.62 417.79 731.19 C407.24 723.51 397.44 715.31 388.52 705.77 C383.15 700.78 378.6 699.81 371.5 700.02 C366.01 700.63 362.38 703.18 358.88 707.31 C355.78 712.76 355.16 718.67 356.69 724.75 C359.04 730.93 364.06 735 368.88 739.31 C369.89 740.24 369.89 740.24 370.92 741.18 C372.88 742.93 374.86 744.63 376.88 746.31 C377.73 747.03 378.58 747.75 379.46 748.5 C390.67 757.81 402.77 765.68 415.14 773.34 C416.13 773.95 417.11 774.56 418.12 775.19 C419 775.72 419.87 776.25 420.77 776.8 C422.88 778.31 422.88 778.31 424.88 781.31 C425.12 783.4 425.12 783.4 425.12 785.84 C425.13 786.77 425.13 787.7 425.13 788.66 C425.13 789.67 425.12 790.69 425.12 791.73 C425.12 792.81 425.12 793.88 425.12 794.98 C425.13 798.53 425.12 802.08 425.11 805.63 C425.1 808.09 425.1 810.55 425.1 813.01 C425.1 818.17 425.09 823.32 425.08 828.48 C425.06 835.11 425.06 841.73 425.06 848.36 C425.06 853.44 425.06 858.52 425.05 863.59 C425.04 866.04 425.04 868.48 425.04 870.93 C425.04 874.33 425.03 877.74 425.02 881.15 C425.02 882.68 425.02 882.68 425.02 884.24 C425.02 885.16 425.01 886.09 425.01 887.04 C425.01 887.84 425.01 888.65 425 889.48 C424.88 891.31 424.88 891.31 423.88 892.31 C421.48 892.42 419.12 892.47 416.73 892.47 C415.98 892.48 415.22 892.48 414.44 892.49 C411.89 892.5 409.33 892.51 406.78 892.52 C404.96 892.53 403.13 892.54 401.31 892.55 C396.35 892.57 391.38 892.6 386.42 892.62 C381.23 892.64 376.05 892.67 370.87 892.69 C361.05 892.74 351.23 892.79 341.41 892.83 C330.23 892.88 319.05 892.93 307.87 892.99 C284.87 893.1 261.87 893.21 238.88 893.31 C238.21 895.62 237.56 897.93 236.88 900.31 C236.21 900.31 235.56 900.31 234.88 900.31 C234.79 900.93 234.71 901.55 234.62 902.19 C233.88 904.31 233.88 904.31 231.81 905.56 C231.17 905.81 230.53 906.06 229.88 906.31 C229.88 906.97 229.88 907.63 229.88 908.31 C228.88 908.31 227.89 908.31 226.88 908.31 C226.88 908.97 226.88 909.63 226.88 910.31 C209.89 911.17 209.89 911.17 205.62 908.44 C201 904.06 197.64 897.59 197.44 891.19 C197.81 887.86 198.46 884.82 199.37 881.6 C200.23 877.73 200.38 873.8 200.63 869.85 C200.88 867.31 200.88 867.31 201.88 865.31 C202.24 862.83 202.58 860.36 202.88 857.88 C203.74 850.71 203.74 850.71 204.88 847.31 C205.01 845.84 205.1 844.36 205.19 842.88 C205.64 837.37 206.68 832.08 207.81 826.69 C213.56 798.77 214.91 769.19 203.88 742.31 C203.55 741.46 203.23 740.6 202.89 739.72 C197.3 725.48 189.5 713.12 179.88 701.31 C178.52 699.6 177.17 697.9 175.81 696.19 C173.69 693.54 171.55 690.92 169.38 688.32 C168.14 686.83 168.14 686.83 166.88 685.31 C165.73 683.95 165.73 683.95 164.56 682.56 C162.88 680.31 162.88 680.31 162.88 678.31 C162.22 678.31 161.56 678.31 160.88 678.31 C159.27 676.41 157.78 674.51 156.31 672.5 C155.9 671.95 155.49 671.41 155.06 670.84 C153.21 668.34 151.87 666.28 150.88 663.31 C150.22 663.31 149.56 663.31 148.88 663.31 C147.37 661.63 147.37 661.63 145.75 659.44 C145.21 658.72 144.67 658 144.12 657.26 C142.88 655.31 142.88 655.31 142.88 653.31 C142.22 653.31 141.56 653.31 140.88 653.31 C139.25 651.48 139.25 651.48 137.44 649.06 C136.84 648.27 136.24 647.48 135.63 646.67 C134.76 645.5 134.76 645.5 133.88 644.31 C133.31 643.6 132.74 642.88 132.15 642.14 C130.88 640.31 130.88 640.31 130.88 638.31 C130.22 638.31 129.56 638.31 128.88 638.31 C127.37 636.63 127.37 636.63 125.75 634.44 C125.21 633.72 124.67 633 124.12 632.26 C122.88 630.31 122.88 630.31 122.88 628.31 C122.22 628.31 121.56 628.31 120.88 628.31 C119.08 626.22 117.4 624.13 115.75 621.94 C115.05 621.03 115.05 621.03 114.33 620.11 C110.88 615.57 110.88 615.57 110.88 613.31 C109.88 612.98 108.9 612.65 107.88 612.31 C106.16 610.28 104.57 608.26 103 606.12 C102.15 604.98 101.3 603.85 100.45 602.71 C100.03 602.14 99.61 601.58 99.18 601 C97.86 599.29 96.47 597.65 95.05 596.01 C92.88 593.31 92.88 593.31 92.88 591.31 C92.22 591.31 91.56 591.31 90.88 591.31 C87.88 587.85 87.88 587.85 87.88 585.31 C87.22 585.31 86.56 585.31 85.88 585.31 C84.59 583.85 84.59 583.85 83.25 581.94 C82.58 581 82.58 581 81.9 580.04 C80.88 578.31 80.88 578.31 80.88 576.31 C80.22 576.31 79.56 576.31 78.88 576.31 C75.88 572.85 75.88 572.85 75.88 570.31 C75.22 570.31 74.56 570.31 73.88 570.31 C72.43 568.7 72.43 568.7 70.75 566.44 C68.25 563.13 65.73 559.85 63.12 556.62 C61.71 554.85 60.29 553.08 58.88 551.31 C58.41 550.74 57.95 550.16 57.48 549.57 C55.98 547.69 54.49 545.82 53 543.94 C52.52 543.34 52.05 542.75 51.56 542.13 C49.33 539.31 47.3 536.63 45.88 533.31 C45.22 533.31 44.56 533.31 43.88 533.31 C42.37 531.63 42.37 531.63 40.75 529.44 C40.21 528.72 39.67 528 39.12 527.26 C37.88 525.31 37.88 525.31 37.88 523.31 C37.22 523.31 36.56 523.31 35.88 523.31 C34.25 521.48 34.25 521.48 32.44 519.06 C31.84 518.27 31.24 517.48 30.63 516.67 C30.05 515.89 29.47 515.11 28.88 514.31 C28.31 513.6 27.74 512.88 27.15 512.14 C25.88 510.31 25.88 510.31 25.88 508.31 C25.22 508.31 24.56 508.31 23.88 508.31 C22.37 506.63 22.37 506.63 20.75 504.44 C20.21 503.72 19.67 503 19.12 502.26 C17.88 500.31 17.88 500.31 17.88 498.31 C17.22 498.31 16.56 498.31 15.88 498.31 C14.08 496.22 12.4 494.13 10.75 491.94 C10.05 491.03 10.05 491.03 9.33 490.11 C5.88 485.57 5.88 485.57 5.88 483.31 C5.22 483.31 4.56 483.31 3.88 483.31 C2.03 481.14 0.28 478.96 -1.44 476.69 C-2.39 475.44 -3.35 474.2 -4.3 472.96 C-5 472.05 -5 472.05 -5.71 471.11 C-7.09 469.36 -8.52 467.67 -9.98 465.98 C-12.12 463.31 -12.12 463.31 -12.12 461.31 C-12.78 461.31 -13.44 461.31 -14.12 461.31 C-17.12 457.85 -17.12 457.85 -17.12 455.31 C-17.78 455.31 -18.44 455.31 -19.12 455.31 C-20.41 453.85 -20.41 453.85 -21.75 451.94 C-22.2 451.31 -22.64 450.68 -23.1 450.04 C-24.12 448.31 -24.12 448.31 -24.12 446.31 C-24.78 446.31 -25.44 446.31 -26.12 446.31 C-32.15 439.41 -36.25 431.54 -40.12 423.31 C-40.43 422.73 -40.73 422.15 -41.04 421.55 C-49.96 404.42 -49.87 386.43 -49.76 367.53 C-49.75 363.84 -49.76 360.15 -49.76 356.47 C-49.77 350.3 -49.75 344.13 -49.72 337.96 C-49.69 330.84 -49.69 323.72 -49.71 316.6 C-49.72 309.71 -49.72 302.82 -49.7 295.93 C-49.69 293.02 -49.69 290.1 -49.7 287.18 C-49.71 283.12 -49.69 279.06 -49.66 274.99 C-49.66 273.79 -49.67 272.59 -49.68 271.35 C-49.59 263.84 -48.83 260.13 -43.56 254.7 C-36.77 249.31 -36.77 249.31 -31.12 249.31 C-31.12 233.14 -31.12 216.97 -31.12 200.31 C-28.16 199.32 -25.19 198.33 -22.12 197.31 C-17.34 195.19 -15.02 192.1 -13.12 187.31 C-12.21 182.82 -12 178.56 -12 173.98 C-12 172.91 -12 172.91 -12 171.81 C-11.99 169.42 -12 167.03 -12 164.65 C-12 162.93 -12 161.21 -11.99 159.5 C-11.99 155.8 -11.99 152.11 -11.99 148.42 C-11.99 142.59 -11.97 136.75 -11.96 130.91 C-11.95 129.93 -11.95 128.94 -11.95 127.93 C-11.94 125.91 -11.94 123.9 -11.93 121.88 C-11.9 108.3 -11.87 94.71 -11.87 81.13 C-11.88 71.96 -11.86 62.79 -11.82 53.62 C-11.81 48.77 -11.8 43.92 -11.81 39.07 C-11.82 34.51 -11.81 29.95 -11.78 25.39 C-11.77 23.72 -11.77 22.04 -11.78 20.37 C-11.8 18.08 -11.78 15.8 -11.76 13.52 C-11.76 12.24 -11.75 10.96 -11.75 9.64 C-10.96 5.46 -9.34 4 -6.12 1.31 C-4.42 -0.39 -2.33 0.06 0 0 Z " fill="#F9DDD0" transform="translate(96.125,369.6875)"/>
<path d="M0 0 C1.07 0.28 1.07 0.28 2.15 0.57 C10.55 2.82 18.21 6.18 26 10 C27.29 10.62 28.59 11.23 29.88 11.85 C48.1 20.61 64.35 32.05 79 46 C79.59 46.56 80.18 47.12 80.79 47.69 C90.66 57.08 99.24 66.81 107 78 C107.46 78.65 107.91 79.3 108.38 79.97 C114.01 88 118.83 96.1 123 105 C123.66 106.27 124.33 107.54 125 108.81 C142.92 145.03 148.05 187.26 142 227 C141.89 227.75 141.78 228.49 141.67 229.26 C138.93 247.46 132.47 264.92 126.12 282.14 C125.6 283.55 125.08 284.96 124.56 286.38 C124.33 287.02 124.09 287.66 123.85 288.32 C121.69 294.43 120.56 300.63 119.54 307 C119 310 119 310 118 311 C117.88 314.71 118.1 318.42 118.25 322.12 C118.29 323.21 118.34 324.3 118.38 325.42 C118.74 332.9 119.67 339.91 121.48 347.17 C122 349.99 122.18 351.41 121 354 C119.36 355.53 119.36 355.53 117.31 356.94 C111.29 361.14 106.35 365.36 101.94 371.25 C101.5 371.83 101.07 372.4 100.62 372.99 C91.26 385.61 86.95 399.2 84.58 414.58 C84 418 84 418 83 420 C82.9 421.85 82.87 423.71 82.88 425.56 C82.87 427.05 82.87 427.05 82.87 428.57 C82.73 430.95 82.73 430.95 84 432 C84.23 434.02 84.41 436.04 84.56 438.06 C84.69 439.72 84.69 439.72 84.82 441.41 C84.88 442.26 84.94 443.12 85 444 C83.81 443.72 83.81 443.72 82.59 443.44 C21.47 429.3 -37.48 427.74 -99.7 435.97 C-101.23 436.17 -101.23 436.17 -102.78 436.37 C-104.69 436.62 -106.61 436.88 -108.52 437.14 C-112.57 437.67 -116.49 438.06 -120.58 438.02 C-121.71 438.01 -122.84 438.01 -124 438 C-124.33 438.33 -124.66 438.66 -125 439 C-128.49 439.56 -131.97 440.09 -135.48 440.54 C-141.09 441.41 -143.96 442.99 -148 447 C-151.93 452.37 -151.66 458.6 -151 465 C-150.13 468.22 -149.42 469.64 -146.86 471.8 C-145.98 472.3 -145.09 472.8 -144.19 473.31 C-143.34 473.82 -142.48 474.34 -141.61 474.86 C-132.41 477.76 -121.9 475.84 -112.51 474.54 C-111.36 474.39 -110.21 474.24 -109.03 474.08 C-105.39 473.6 -101.76 473.12 -98.12 472.62 C-73.69 469.35 -49.61 466.59 -24.94 466.69 C-23.48 466.69 -23.48 466.69 -22 466.69 C30.69 466.86 86.05 477.41 133.75 500.62 C145.87 506.74 145.87 506.74 159 506 C163.58 503.61 166.4 501.03 169 496.56 C171.04 489.28 169.86 484.93 166.58 478.33 C163.17 473.3 158.33 471.04 152.84 468.84 C151.83 468.42 151.83 468.42 150.79 467.99 C148.66 467.11 146.52 466.24 144.38 465.38 C142.23 464.5 140.08 463.62 137.93 462.74 C136.6 462.19 135.27 461.65 133.94 461.11 C131.06 459.93 128.6 458.74 126 457 C125.2 454.72 125.2 454.72 124.61 451.86 C124.29 450.3 124.29 450.3 123.96 448.7 C123.74 447.58 123.53 446.46 123.31 445.31 C123.09 444.17 122.88 443.04 122.65 441.86 C119.88 426.63 119.46 411.99 127.64 398.24 C129.32 396.01 131.07 394.01 133 392 C133.56 391.37 134.11 390.73 134.69 390.08 C142.95 381.11 154.36 376.9 166.37 375.65 C181.05 375.26 192.27 379.59 202.93 389.63 C210.5 396.97 217.61 404.6 224 413 C224.84 414.06 225.68 415.11 226.53 416.16 C247.58 443.06 261.36 477.64 262 512 C262.06 513.72 262.06 513.72 262.12 515.47 C262.86 554.66 248.45 596.62 222 626 C218.7 628.33 216.03 628.15 212.06 628 C182.65 627.54 153.7 632.08 126 642 C124.93 642.38 124.93 642.38 123.83 642.77 C115.37 645.78 107.09 649.1 99 653 C97.94 653.5 96.87 654 95.78 654.52 C59.99 671.78 28.75 698.95 5.19 730.75 C4.73 731.36 4.27 731.98 3.8 732.61 C0.89 736.6 -1.62 740.67 -4 745 C-7.79 744.43 -9.5 742.86 -12.15 740.17 C-12.96 739.36 -13.77 738.55 -14.6 737.71 C-15.47 736.83 -16.33 735.95 -17.22 735.04 C-18.11 734.14 -19.01 733.24 -19.93 732.31 C-22.31 729.91 -24.68 727.51 -27.05 725.1 C-30.38 721.71 -33.72 718.34 -37.07 714.96 C-38.85 713.17 -40.63 711.37 -42.4 709.57 C-43.21 708.75 -44.01 707.93 -44.85 707.09 C-45.91 706.01 -45.91 706.01 -46.99 704.91 C-48.96 702.95 -48.96 702.95 -51.26 701.37 C-51.83 700.92 -52.41 700.47 -53 700 C-53 699.34 -53 698.68 -53 698 C-53.58 697.75 -54.16 697.49 -54.76 697.23 C-57.24 695.87 -58.89 694.36 -60.88 692.35 C-61.64 691.59 -62.4 690.84 -63.18 690.05 C-64.01 689.22 -64.83 688.39 -65.68 687.53 C-66.56 686.65 -67.43 685.78 -68.33 684.87 C-70.23 682.97 -72.13 681.06 -74.03 679.15 C-77.04 676.12 -80.05 673.1 -83.06 670.08 C-87.83 665.3 -92.6 660.51 -97.37 655.72 C-105.88 647.16 -114.4 638.61 -122.93 630.06 C-125.92 627.06 -128.9 624.06 -131.88 621.06 C-134.19 618.75 -136.49 616.43 -138.8 614.12 C-139.62 613.29 -140.43 612.47 -141.27 611.62 C-145.47 607.42 -149.75 603.37 -154.27 599.5 C-155.94 598.05 -157.53 596.54 -159.12 595 C-172.67 583.52 -192.56 579 -209.87 579.81 C-220.18 580.72 -230.47 584.13 -240 588 C-241.26 584.21 -241.14 580.67 -241.13 576.72 C-241.13 575.86 -241.14 575.01 -241.14 574.13 C-241.14 571.25 -241.14 568.38 -241.14 565.5 C-241.14 563.44 -241.15 561.38 -241.15 559.33 C-241.16 554.88 -241.17 550.44 -241.17 546 C-241.17 538.96 -241.19 531.93 -241.21 524.89 C-241.22 522.48 -241.22 520.07 -241.23 517.66 C-241.23 516.45 -241.24 515.24 -241.24 514 C-241.28 497.61 -241.31 481.23 -241.33 464.84 C-241.33 453.8 -241.36 442.75 -241.4 431.7 C-241.41 425.86 -241.43 420.02 -241.42 414.18 C-241.42 408.67 -241.43 403.16 -241.46 397.65 C-241.47 395.64 -241.47 393.64 -241.46 391.63 C-241.36 362.03 -249.33 335.35 -270.21 313.68 C-276.92 307.23 -283.88 301.75 -292 297.19 C-294 296 -294 296 -296 294 C-301.81 270.85 -301.76 245.65 -300 222 C-299.94 221.2 -299.89 220.39 -299.83 219.56 C-296.04 169.48 -275.49 119.24 -243 81 C-242.09 79.91 -241.18 78.81 -240.27 77.71 C-230.44 65.98 -220.04 55.5 -208 46 C-206.79 45.01 -205.57 44.02 -204.36 43.02 C-197.18 37.15 -189.96 31.8 -182 27 C-181.09 26.4 -180.18 25.8 -179.24 25.19 C-125.31 -9.74 -61.22 -16.21 0 0 Z " fill="#E29584" transform="translate(431,46)"/>
<path d="M0 0 C0.75 0.21 1.49 0.43 2.26 0.65 C49.98 14.82 88.42 48.53 116 89 C116.85 90.25 116.85 90.25 117.72 91.52 C147.61 136.84 157.6 195.16 147.29 248.16 C138.76 288.33 119.82 324.8 91.44 354.49 C90.47 355.51 89.49 356.54 88.53 357.57 C79.82 366.84 70.32 374.6 60 382 C59.37 382.46 58.74 382.91 58.09 383.38 C32.24 401.8 2.21 413.62 -29 419 C-30.02 419.18 -30.02 419.18 -31.05 419.36 C-86.74 428.57 -144.54 413.3 -190.09 380.88 C-200.64 373.2 -210.43 364.99 -219.35 355.46 C-224.73 350.46 -229.27 349.53 -236.38 349.69 C-239.69 350.08 -242.11 351.38 -245 353 C-247.58 352.76 -248.7 352.31 -250.52 350.44 C-250.99 349.77 -251.47 349.11 -251.95 348.42 C-252.75 347.31 -252.75 347.31 -253.57 346.17 C-254.12 345.37 -254.68 344.57 -255.25 343.75 C-255.83 342.94 -256.4 342.12 -256.99 341.28 C-263.78 331.6 -269.97 321.72 -275 311 C-273.64 310.16 -273.64 310.16 -272.25 309.31 C-268.16 306.4 -265.59 303.78 -264 299 C-262.86 290.33 -265.72 283.15 -268.69 275.12 C-287.25 222.88 -282.69 165.21 -260 115 C-244.68 82.91 -221.87 53.94 -193 33 C-192.46 32.61 -191.93 32.22 -191.37 31.81 C-163.34 11.47 -132.16 -1.06 -98 -7 C-97.27 -7.13 -96.53 -7.26 -95.78 -7.39 C-64.07 -12.7 -30.62 -8.85 0 0 Z " fill="#6DAAF0" transform="translate(704,720)"/>
<path d="M0 0 C1.08 -0.06 2.15 -0.13 3.26 -0.19 C6.85 0.7 8.22 2.05 10.26 5.1 C12.61 10.62 11.99 16.92 11.95 22.84 C11.95 24.41 11.96 25.99 11.97 27.56 C11.99 31.88 11.98 36.2 11.97 40.52 C11.95 45.18 11.97 49.84 11.99 54.51 C12.01 63.64 12 72.77 11.99 81.91 C11.98 89.33 11.98 96.76 11.98 104.19 C11.98 105.25 11.98 106.3 11.98 107.39 C11.99 109.54 11.99 111.69 11.99 113.84 C12 133.99 11.99 154.14 11.96 174.29 C11.94 191.56 11.94 208.83 11.96 226.1 C11.99 246.17 12 266.24 11.99 286.3 C11.98 288.45 11.98 290.59 11.98 292.73 C11.98 293.79 11.98 294.84 11.98 295.93 C11.97 303.34 11.98 310.75 11.99 318.15 C12.01 327.2 12 336.24 11.98 345.29 C11.96 349.9 11.96 354.51 11.98 359.11 C11.99 363.34 11.98 367.57 11.96 371.8 C11.95 373.32 11.95 374.85 11.97 376.37 C12.12 396.55 5.07 411.17 -7.69 426.56 C-9.86 429.23 -12.02 431.89 -14.19 434.56 C-15.32 435.95 -16.45 437.34 -17.57 438.73 C-21.3 443.32 -25 447.94 -28.69 452.56 C-33.39 458.46 -38.12 464.33 -42.88 470.19 C-43.42 470.86 -43.97 471.54 -44.54 472.23 C-47.44 475.82 -50.36 479.39 -53.31 482.94 C-54.19 484.01 -54.19 484.01 -55.09 485.1 C-56.21 486.45 -57.33 487.81 -58.46 489.16 C-63.85 495.71 -67.16 501.88 -66.69 510.56 C-65.69 513.77 -64.26 516.61 -62.69 519.56 C-62.01 521.22 -61.34 522.89 -60.69 524.56 C-61.68 524.89 -62.67 525.22 -63.69 525.56 C-63.72 526.58 -63.72 526.58 -63.75 527.62 C-64.96 531.42 -67.04 533.11 -69.91 535.78 C-71.57 537.44 -72.73 539 -73.94 541 C-74.51 541.85 -75.09 542.69 -75.69 543.56 C-78.69 543.56 -78.69 543.56 -80.69 542.56 C-81.02 543.88 -81.35 545.2 -81.69 546.56 C-81.03 546.89 -80.37 547.22 -79.69 547.56 C-80.47 548.28 -81.26 549.01 -82.06 549.75 C-84.59 552.45 -85.44 554.18 -86.69 557.56 C-88.31 559.38 -88.31 559.38 -89.69 560.56 C-88.88 561.45 -88.08 562.34 -87.25 563.25 C-83.21 568.14 -83.21 573.37 -83.69 579.56 C-84.81 584.22 -86.78 587.75 -89.69 591.56 C-90.35 591.56 -91.01 591.56 -91.69 591.56 C-92.06 592.37 -92.06 592.37 -92.44 593.19 C-93.99 596.14 -95.72 598.86 -97.69 601.56 C-98.35 601.56 -99.01 601.56 -99.69 601.56 C-99.87 602.22 -100.06 602.88 -100.25 603.56 C-102.01 607.23 -104.39 609.81 -107.13 612.79 C-108.76 614.49 -108.76 614.49 -109.69 616.56 C-110.35 616.56 -111.01 616.56 -111.69 616.56 C-111.96 617.13 -112.22 617.71 -112.5 618.3 C-113.73 620.64 -115.11 622.69 -116.69 624.81 C-117.46 625.87 -117.46 625.87 -118.25 626.95 C-118.72 627.48 -119.2 628.02 -119.69 628.56 C-120.35 628.56 -121.01 628.56 -121.69 628.56 C-121.93 629.28 -122.18 630.01 -122.44 630.75 C-123.81 633.84 -125.41 636.07 -127.69 638.56 C-128.35 638.56 -129.01 638.56 -129.69 638.56 C-129.87 639.22 -130.06 639.88 -130.25 640.56 C-132.01 644.23 -134.39 646.81 -137.13 649.79 C-138.76 651.49 -138.76 651.49 -139.69 653.56 C-140.35 653.56 -141.01 653.56 -141.69 653.56 C-142.06 654.37 -142.06 654.37 -142.44 655.19 C-143.99 658.14 -145.72 660.86 -147.69 663.56 C-148.35 663.56 -149.01 663.56 -149.69 663.56 C-149.93 664.1 -150.18 664.65 -150.44 665.2 C-151.97 668.09 -153.78 670.66 -155.69 673.31 C-156.39 674.3 -157.09 675.28 -157.81 676.3 C-158.43 677.04 -159.05 677.79 -159.69 678.56 C-160.35 678.56 -161.01 678.56 -161.69 678.56 C-161.94 679.13 -162.19 679.69 -162.45 680.27 C-163.86 682.88 -165.52 684.92 -167.44 687.19 C-181.54 704.17 -181.54 704.17 -193.69 722.56 C-194.14 723.31 -194.6 724.07 -195.07 724.84 C-198.39 730.5 -200.55 736.37 -202.69 742.56 C-203.2 743.88 -203.73 745.19 -204.25 746.5 C-210.32 762.8 -214.21 785.38 -209.69 802.56 C-209.51 804.81 -209.37 807.06 -209.25 809.31 C-208.95 813.9 -208.49 818.11 -207.23 822.52 C-205.53 828.95 -204.72 835.63 -204.19 842.25 C-203.85 846.41 -203.15 850.3 -202.16 854.36 C-201.5 857.45 -201.21 860.56 -200.93 863.71 C-200.78 865.65 -200.78 865.65 -199.69 867.56 C-199.51 869.41 -199.37 871.27 -199.25 873.12 C-198.97 876.95 -198.55 880.49 -197.56 884.19 C-195.99 890.81 -196.45 896.99 -199.88 902.94 C-202.16 906.54 -204.93 908.57 -208.69 910.56 C-211.67 911.02 -214.55 910.95 -217.56 910.81 C-218.35 910.79 -219.13 910.78 -219.94 910.76 C-221.85 910.71 -223.77 910.64 -225.69 910.56 C-225.69 909.9 -225.69 909.24 -225.69 908.56 C-226.28 908.46 -226.88 908.36 -227.49 908.26 C-230.09 907.43 -231.05 906.49 -232.81 904.44 C-233.31 903.88 -233.81 903.32 -234.32 902.74 C-236.14 899.85 -236.8 896.84 -237.69 893.56 C-238.64 893.56 -239.59 893.56 -240.57 893.55 C-263.7 893.47 -286.82 893.38 -309.95 893.27 C-321.13 893.22 -332.31 893.18 -343.5 893.14 C-353.24 893.11 -362.98 893.07 -372.73 893.02 C-377.89 892.99 -383.05 892.97 -388.21 892.96 C-393.07 892.95 -397.92 892.92 -402.78 892.9 C-404.56 892.89 -406.35 892.88 -408.13 892.88 C-410.56 892.87 -412.99 892.86 -415.42 892.84 C-416.14 892.84 -416.85 892.84 -417.59 892.85 C-422.46 892.79 -422.46 892.79 -424.69 890.56 C-424.95 888.61 -424.95 888.61 -424.96 886.17 C-424.97 885.25 -424.98 884.33 -424.99 883.38 C-424.99 882.36 -424.99 881.35 -424.99 880.3 C-425 879.23 -425.01 878.17 -425.02 877.07 C-425.04 873.53 -425.05 869.99 -425.06 866.45 C-425.07 863.99 -425.08 861.54 -425.09 859.08 C-425.1 853.93 -425.11 848.78 -425.11 843.63 C-425.12 837.03 -425.16 830.42 -425.2 823.81 C-425.23 818.74 -425.24 813.67 -425.24 808.6 C-425.24 806.17 -425.26 803.73 -425.28 801.3 C-425.3 797.89 -425.3 794.49 -425.29 791.08 C-425.3 790.07 -425.32 789.06 -425.33 788.02 C-425.26 781.18 -425.26 781.18 -422.35 778.03 C-421.47 777.55 -420.59 777.06 -419.69 776.56 C-418.07 775.57 -418.07 775.57 -416.41 774.55 C-415.19 773.85 -413.97 773.14 -412.75 772.44 C-405.06 767.9 -397.8 762.95 -390.69 757.56 C-389.78 756.88 -389.78 756.88 -388.86 756.19 C-371.45 743 -355.44 727.32 -342.69 709.56 C-341.8 708.36 -340.91 707.15 -340.02 705.95 C-335.72 700.07 -331.64 694.1 -327.98 687.79 C-326.75 685.67 -325.45 683.62 -324.12 681.56 C-321.3 677.06 -318.98 672.35 -316.69 667.56 C-315.87 665.87 -315.87 665.87 -315.03 664.15 C-302.97 639.13 -296.2 613.08 -292.69 585.56 C-292.51 584.31 -292.34 583.05 -292.15 581.76 C-291.62 577.46 -291.51 573.2 -291.48 568.88 C-291.47 567.66 -291.47 567.66 -291.46 566.42 C-291.23 532.44 -293.83 497.28 -308.36 465.95 C-309.82 462.23 -310.29 460.5 -309.69 456.56 C-307.79 453.79 -305.43 451.54 -303.02 449.2 C-302.31 448.49 -301.6 447.78 -300.87 447.04 C-298.52 444.69 -296.15 442.36 -293.78 440.04 C-292.14 438.4 -290.5 436.77 -288.86 435.13 C-284.54 430.83 -280.2 426.54 -275.85 422.25 C-272.32 418.77 -268.81 415.27 -265.29 411.77 C-261.08 407.58 -256.87 403.4 -252.66 399.22 C-251.86 398.43 -251.06 397.64 -250.24 396.82 C-247.96 394.56 -245.67 392.31 -243.39 390.05 C-242.39 389.07 -242.39 389.07 -241.38 388.06 C-238.23 384.96 -235.03 381.95 -231.68 379.06 C-227.65 375.57 -223.89 371.87 -220.15 368.07 C-219.08 367 -219.08 367 -218 365.91 C-216.48 364.37 -214.96 362.84 -213.44 361.3 C-211.03 358.86 -208.62 356.43 -206.2 354 C-199.33 347.09 -192.47 340.18 -185.62 333.25 C-181.42 329 -177.2 324.76 -172.99 320.52 C-171.39 318.91 -169.79 317.3 -168.2 315.69 C-165.98 313.42 -163.73 311.17 -161.49 308.93 C-160.85 308.27 -160.2 307.61 -159.54 306.93 C-151.03 298.47 -142.02 293.61 -129.94 293.19 C-120.25 293.36 -112.54 295.82 -105.47 302.57 C-96.98 312.07 -93.27 321.32 -93.42 333.96 C-94.57 349.31 -107.79 359.94 -117.79 370.41 C-120.92 373.71 -123.93 377.1 -126.91 380.54 C-130.73 384.88 -134.75 389.02 -138.73 393.21 C-142.56 397.26 -146.29 401.37 -149.95 405.59 C-152.91 408.95 -155.99 412.19 -159.06 415.44 C-163.93 420.6 -168.74 425.8 -173.47 431.09 C-179.94 438.29 -186.55 445.35 -193.16 452.41 C-197.77 457.33 -202.34 462.25 -206.73 467.36 C-210.17 471.24 -213.74 475 -217.29 478.79 C-222.8 484.67 -228.25 490.61 -233.69 496.56 C-235.04 498.04 -236.4 499.53 -237.76 501.01 C-238.66 502 -239.57 502.99 -240.48 503.98 C-242.93 506.66 -245.39 509.32 -247.87 511.96 C-248.4 512.53 -248.94 513.1 -249.48 513.69 C-250.5 514.77 -251.52 515.86 -252.54 516.94 C-258.02 522.81 -262.42 527.72 -262.81 536 C-262.61 540.27 -261.95 543.89 -259.69 547.56 C-254.36 552.2 -248.93 553.85 -241.97 553.79 C-238.76 553.47 -236.43 552.2 -233.69 550.56 C-232.7 550.23 -231.71 549.9 -230.69 549.56 C-229.99 548.25 -229.32 546.91 -228.69 545.56 C-227.21 543.92 -227.21 543.92 -225.5 542.31 C-222.3 539.28 -219.45 536.01 -216.56 532.69 C-213.62 529.35 -210.56 526.11 -207.5 522.88 C-206.18 521.48 -204.87 520.08 -203.55 518.68 C-202.9 517.99 -202.25 517.3 -201.58 516.58 C-192.6 507.01 -192.6 507.01 -183.88 497.19 C-181.19 494.08 -178.34 491.2 -175.42 488.32 C-173.08 485.95 -170.93 483.44 -168.76 480.92 C-166.16 477.96 -163.49 475.08 -160.81 472.19 C-157.3 468.4 -153.81 464.6 -150.38 460.75 C-145.73 455.56 -140.96 450.5 -136.18 445.45 C-133.13 442.21 -130.13 438.95 -127.22 435.59 C-123.53 431.35 -119.68 427.26 -115.81 423.19 C-110.75 417.83 -105.72 412.44 -100.81 406.94 C-98.35 404.19 -95.87 401.47 -93.38 398.75 C-92.92 398.25 -92.46 397.75 -91.99 397.23 C-89.56 394.58 -87.11 391.95 -84.64 389.33 C-61.75 365.07 -56.03 343.1 -56.2 310.41 C-56.21 306.93 -56.2 303.45 -56.19 299.97 C-56.18 293.96 -56.19 287.95 -56.2 281.94 C-56.22 273.23 -56.21 264.52 -56.2 255.81 C-56.18 241.66 -56.17 227.51 -56.18 213.35 C-56.18 212.09 -56.18 212.09 -56.18 210.8 C-56.18 204.8 -56.18 198.81 -56.19 192.81 C-56.19 185.96 -56.19 179.1 -56.2 172.25 C-56.2 171.4 -56.2 170.56 -56.2 169.69 C-56.2 155.58 -56.19 141.47 -56.17 127.36 C-56.16 118.68 -56.16 110 -56.18 101.32 C-56.19 95.37 -56.19 89.42 -56.18 83.47 C-56.17 80.04 -56.17 76.62 -56.19 73.2 C-56.28 51.44 -54.81 33.4 -39.1 16.85 C-31.9 10.02 -23.99 5.88 -14.69 2.56 C-14 2.31 -13.31 2.07 -12.61 1.81 C-8.49 0.56 -4.28 0.25 0 0 Z M-67.69 527.56 C-68.68 529.05 -68.68 529.05 -69.69 530.56 C-68.7 530.56 -67.71 530.56 -66.69 530.56 C-66.36 529.57 -66.03 528.58 -65.69 527.56 C-66.35 527.56 -67.01 527.56 -67.69 527.56 Z M-71.69 531.56 C-72.02 532.22 -72.35 532.88 -72.69 533.56 C-72.03 533.56 -71.37 533.56 -70.69 533.56 C-71.02 532.9 -71.35 532.24 -71.69 531.56 Z M-77.69 539.56 C-78.02 540.55 -78.35 541.54 -78.69 542.56 C-77.7 542.23 -76.71 541.9 -75.69 541.56 C-75.69 540.9 -75.69 540.24 -75.69 539.56 C-76.35 539.56 -77.01 539.56 -77.69 539.56 Z M-85.69 548.56 C-85.69 549.22 -85.69 549.88 -85.69 550.56 C-85.03 550.23 -84.37 549.9 -83.69 549.56 C-84.35 549.23 -85.01 548.9 -85.69 548.56 Z " fill="#F9DDD0" transform="translate(1182.6875,369.4375)"/>
<path d="M0 0 C14.72 12.13 19.56 28.61 21.68 47 C24.3 76.83 17.81 109.09 -1 133 C-1.63 133.82 -2.25 134.63 -2.9 135.47 C-4.89 138.02 -6.93 140.51 -9 143 C-9.63 143.79 -10.26 144.58 -10.91 145.39 C-25.09 162.31 -45.9 174.61 -66.9 180.86 C-67.76 181.11 -68.61 181.36 -69.49 181.63 C-79.71 184.6 -90.09 186.9 -100.49 189.15 C-103.86 189.88 -107.22 190.63 -110.59 191.38 C-112.75 191.86 -114.92 192.33 -117.08 192.8 C-118.57 193.14 -118.57 193.14 -120.1 193.48 C-132.61 196.16 -132.61 196.16 -136.93 194.06 C-137.43 193.62 -137.93 193.18 -138.44 192.73 C-139.01 192.24 -139.59 191.75 -140.18 191.24 C-141.08 190.44 -141.08 190.44 -142 189.62 C-143.33 188.5 -144.66 187.39 -146 186.27 C-146.67 185.71 -147.34 185.16 -148.03 184.58 C-150.9 182.28 -153.91 180.25 -157 178.25 C-163.5 174.02 -169.89 169.63 -176.25 165.19 C-184.3 159.57 -192.36 153.99 -200.47 148.46 C-203.94 146.1 -207.4 143.73 -210.82 141.3 C-211.41 140.89 -211.99 140.47 -212.59 140.05 C-214.11 138.97 -215.63 137.89 -217.14 136.8 C-223.41 132.85 -228.69 131.07 -236 132 C-241.72 133.72 -244.67 136.05 -248 141 C-250.23 146.38 -250.48 151.4 -249 157 C-246.76 162 -243.25 164.23 -238.81 167.12 C-237.37 168.09 -235.92 169.06 -234.48 170.02 C-233.74 170.51 -233 171.01 -232.24 171.51 C-228.67 173.88 -225.15 176.32 -221.62 178.75 C-220.95 179.22 -220.27 179.68 -219.57 180.16 C-216.1 182.55 -212.64 184.95 -209.19 187.38 C-206.08 189.56 -202.95 191.72 -199.8 193.86 C-157.02 222.94 -157.02 222.94 -155 229 C-153.34 229.68 -151.67 230.34 -150 231 C-147.74 232.89 -147.74 232.89 -145.45 235.18 C-144.61 236.02 -143.77 236.86 -142.91 237.73 C-141.59 239.07 -141.59 239.07 -140.25 240.44 C-138.9 241.8 -138.9 241.8 -137.52 243.2 C-131.62 249.22 -126.09 255.28 -121 262 C-120.24 262.93 -119.49 263.85 -118.71 264.81 C-83.57 308.59 -83.57 308.59 -85.2 323.85 C-86.29 326.78 -87.99 328.36 -90.21 330.57 C-91.1 331.46 -92 332.36 -92.92 333.29 C-93.91 334.26 -94.89 335.23 -95.88 336.21 C-96.89 337.22 -97.9 338.22 -98.91 339.23 C-101.03 341.35 -103.16 343.46 -105.29 345.57 C-108 348.25 -110.7 350.94 -113.4 353.64 C-116 356.23 -118.59 358.81 -121.19 361.39 C-121.68 361.88 -122.16 362.36 -122.67 362.86 C-124.07 364.26 -125.48 365.65 -126.89 367.05 C-128.08 368.23 -128.08 368.23 -129.3 369.44 C-131.44 371.47 -133.61 373.41 -135.85 375.34 C-139.93 378.89 -143.76 382.65 -147.56 386.5 C-148.27 387.21 -148.98 387.92 -149.71 388.66 C-151.23 390.19 -152.75 391.72 -154.27 393.26 C-156.68 395.69 -159.09 398.11 -161.5 400.53 C-168.35 407.41 -175.19 414.3 -182.02 421.2 C-186.22 425.42 -190.41 429.65 -194.62 433.86 C-196.22 435.47 -197.81 437.08 -199.41 438.69 C-201.63 440.94 -203.85 443.18 -206.09 445.41 C-206.74 446.08 -207.4 446.75 -208.08 447.45 C-208.69 448.05 -209.3 448.65 -209.92 449.28 C-210.45 449.8 -210.97 450.33 -211.51 450.88 C-213 452 -213 452 -216 452 C-216 451.34 -216 450.68 -216 450 C-216.99 449.67 -217.98 449.34 -219 449 C-220.43 447.14 -221.77 445.21 -223.06 443.25 C-229.71 433.37 -236.84 424.03 -244.92 415.27 C-246.82 413.2 -248.63 411.08 -250.44 408.94 C-254.58 404.2 -259.23 400.1 -264 396 C-265.23 394.94 -265.23 394.94 -266.49 393.85 C-279.66 382.78 -293.94 373.3 -309 365 C-309.62 364.66 -310.24 364.31 -310.88 363.96 C-328.01 354.58 -346.77 347.65 -365.68 342.89 C-366.49 342.68 -367.29 342.47 -368.12 342.25 C-369.18 342 -369.18 342 -370.26 341.73 C-372 341 -372 341 -374 338 C-373.52 337.25 -373.03 336.49 -372.53 335.72 C-343.54 289.77 -332.11 235.4 -344 182 C-344.18 181.15 -344.36 180.31 -344.55 179.44 C-352.44 143.66 -372.29 106.76 -398.83 81.24 C-400 80 -400 80 -400 78 C-391.96 72.42 -382.79 68.24 -374 64 C-372.84 63.43 -371.68 62.87 -370.48 62.29 C-354.64 54.72 -338.54 48.6 -321.67 43.7 C-320.61 43.39 -319.56 43.08 -318.47 42.76 C-317.54 42.49 -316.6 42.22 -315.64 41.95 C-312.83 40.94 -310.54 39.54 -308 38 C-307.34 38 -306.68 38 -306 38 C-302.78 31.8 -301.25 25.85 -300 19 C-294.49 17.66 -288.89 17.63 -283.24 17.39 C-279.3 17.59 -279.3 17.59 -276 16 C-272.76 15.75 -269.5 15.81 -266.25 15.81 C-265.34 15.8 -264.43 15.79 -263.5 15.78 C-254.43 15.76 -254.43 15.76 -251 18 C-250.25 19.99 -250.25 19.99 -250 22.31 C-249.18 26.98 -247.83 29.02 -244 32 C-239.08 35.15 -234.92 36.73 -229.11 37.53 C-228.37 37.64 -227.63 37.75 -226.87 37.87 C-225.31 38.11 -223.74 38.35 -222.17 38.58 C-218.09 39.18 -214.02 39.84 -209.94 40.5 C-209.15 40.63 -208.36 40.76 -207.54 40.89 C-182.6 44.99 -159.3 54.48 -136.64 65.38 C-134.1 66.59 -131.55 67.8 -129 69 C-128.35 69.31 -127.7 69.63 -127.03 69.95 C-118.2 74.02 -107.17 74.12 -98 71 C-87.89 66.74 -80.05 59.65 -75.14 49.84 C-73.32 45.31 -72.67 40.81 -72 36 C-69.43 21.23 -64.94 9.41 -52.51 0.14 C-36.43 -9.99 -15.92 -11.53 0 0 Z " fill="#E29584" transform="translate(1069,339)"/>
<path d="M0 0 C0.85 -0.01 1.69 -0.01 2.56 -0.02 C5.33 -0.03 8.1 -0.03 10.87 -0.03 C12.81 -0.03 14.75 -0.03 16.69 -0.04 C20.75 -0.05 24.81 -0.05 28.86 -0.04 C34.05 -0.04 39.23 -0.05 44.41 -0.08 C48.41 -0.09 52.42 -0.09 56.42 -0.09 C58.33 -0.09 60.24 -0.09 62.15 -0.1 C64.83 -0.12 67.51 -0.11 70.18 -0.1 C70.96 -0.11 71.74 -0.11 72.54 -0.12 C78.42 -0.07 85.06 0.68 89.72 4.58 C94.41 9.95 96.52 15.13 96.59 22.2 C96.6 23.19 96.6 23.19 96.62 24.21 C96.65 26.39 96.66 28.56 96.67 30.74 C96.69 32.25 96.7 33.77 96.72 35.28 C96.77 39.26 96.8 43.23 96.83 47.21 C96.86 51.27 96.9 55.33 96.95 59.4 C97.03 67.36 97.1 75.31 97.16 83.27 C97.95 83.27 98.75 83.26 99.56 83.25 C107.08 83.19 114.6 83.15 122.12 83.12 C125.98 83.1 129.84 83.08 133.71 83.05 C137.44 83.02 141.18 83 144.91 82.99 C146.33 82.98 147.75 82.97 149.17 82.96 C166.64 82.76 166.64 82.76 173.28 87.92 C173.71 88.49 174.15 89.06 174.59 89.65 C175.05 90.21 175.5 90.78 175.97 91.36 C179.29 96.7 179.45 101.34 179.43 107.47 C179.44 108.84 179.44 108.84 179.45 110.25 C179.46 113.28 179.46 116.3 179.46 119.33 C179.46 121.44 179.47 123.55 179.47 125.66 C179.48 130.08 179.48 134.49 179.47 138.91 C179.47 144.57 179.48 150.22 179.51 155.88 C179.52 160.24 179.52 164.59 179.52 168.94 C179.52 171.03 179.52 173.11 179.53 175.2 C179.55 178.12 179.54 181.03 179.53 183.95 C179.54 184.81 179.54 185.67 179.55 186.55 C179.5 192.39 178.55 196.73 174.4 201.14 C173.81 201.62 173.21 202.09 172.59 202.59 C171.99 203.08 171.4 203.57 170.78 204.08 C167.32 206.63 164.68 206.43 160.41 206.48 C159.72 206.49 159.03 206.5 158.31 206.51 C156.02 206.54 153.72 206.57 151.43 206.59 C149.84 206.61 148.25 206.63 146.66 206.65 C142.48 206.71 138.29 206.76 134.11 206.81 C129.84 206.86 125.57 206.91 121.3 206.97 C112.92 207.08 104.54 207.18 96.16 207.27 C96.17 208.12 96.17 208.97 96.18 209.85 C96.26 217.87 96.32 225.88 96.36 233.9 C96.38 238.02 96.41 242.14 96.46 246.27 C96.5 250.25 96.53 254.23 96.54 258.21 C96.54 259.73 96.56 261.24 96.58 262.76 C96.7 271.86 96.69 278.19 90.41 285.24 C89.85 285.7 89.29 286.17 88.72 286.65 C88.16 287.13 87.61 287.61 87.04 288.11 C82.4 290.98 76.8 290.42 71.53 290.42 C70.24 290.42 70.24 290.42 68.93 290.43 C66.1 290.44 63.27 290.44 60.45 290.44 C58.47 290.45 56.5 290.45 54.53 290.45 C50.4 290.46 46.27 290.46 42.14 290.46 C36.85 290.46 31.57 290.47 26.28 290.49 C22.21 290.5 18.14 290.5 14.07 290.5 C12.12 290.5 10.17 290.51 8.23 290.52 C5.5 290.53 2.77 290.52 0.04 290.52 C-0.76 290.52 -1.56 290.53 -2.38 290.53 C-8.81 290.5 -14.48 289.43 -20.09 286.09 C-20.74 285.72 -21.38 285.36 -22.05 284.98 C-25.52 281.68 -26.72 277.48 -27.2 272.85 C-27.2 271.66 -27.19 270.47 -27.18 269.24 C-27.18 268.24 -27.18 268.24 -27.19 267.22 C-27.18 265.05 -27.16 262.89 -27.14 260.72 C-27.13 259.2 -27.13 257.69 -27.12 256.17 C-27.11 252.21 -27.08 248.24 -27.05 244.27 C-27.02 240.22 -27.01 236.16 -26.99 232.1 C-26.96 224.16 -26.91 216.22 -26.84 208.27 C-27.5 208.27 -28.16 208.27 -28.84 208.27 C-28.84 207.61 -28.84 206.95 -28.84 206.27 C-30.09 206.29 -30.09 206.29 -31.36 206.32 C-39.21 206.44 -47.07 206.53 -54.92 206.59 C-58.96 206.62 -63 206.66 -67.04 206.73 C-70.94 206.79 -74.84 206.83 -78.75 206.84 C-80.23 206.85 -81.71 206.88 -83.19 206.91 C-92.3 207.1 -99.73 206.57 -106.84 200.27 C-111 193.47 -110.97 185.46 -110.97 177.67 C-110.97 176.96 -110.98 176.25 -110.98 175.51 C-110.98 173.18 -110.98 170.84 -110.98 168.51 C-110.98 166.87 -110.98 165.23 -110.98 163.59 C-110.98 160.15 -110.98 156.72 -110.97 153.29 C-110.97 148.92 -110.97 144.55 -110.98 140.18 C-110.98 136.79 -110.98 133.4 -110.98 130.02 C-110.98 128.41 -110.98 126.8 -110.98 125.19 C-111.01 96.04 -111.01 96.04 -105.37 89.59 C-97.37 81.99 -87.24 83 -76.84 83.08 C-75.4 83.08 -73.95 83.09 -72.51 83.09 C-68.72 83.1 -64.94 83.12 -61.16 83.14 C-57.29 83.16 -53.43 83.17 -49.56 83.18 C-41.99 83.2 -34.42 83.23 -26.84 83.27 C-26.85 82.44 -26.86 81.61 -26.87 80.75 C-26.95 72.86 -27.01 64.98 -27.05 57.09 C-27.07 53.04 -27.1 48.98 -27.15 44.93 C-27.19 41.01 -27.21 37.1 -27.22 33.18 C-27.23 31.69 -27.24 30.2 -27.27 28.71 C-27.4 18.9 -27.2 11.83 -20.09 4.4 C-13.83 0.31 -7.27 -0.02 0 0 Z " fill="#000002" transform="translate(604.843505859375,780.725341796875)"/>
<path d="M0 0 C1.6 6.86 2.21 14.03 2.76 21.05 C2.92 22.98 3.08 24.91 3.25 26.84 C3.98 35.33 4.24 43.79 4.25 52.31 C4.25 53 4.25 53.69 4.26 54.4 C4.26 69.22 4.03 84.92 -1 99 C-1.36 101.08 -1.36 101.08 -1.5 103 C-1.8 106.56 -2.83 109.63 -4 113 C-5.01 116.29 -6.01 119.58 -7 122.88 C-7.89 125.65 -8.9 128.31 -10 131 C-10.33 131.99 -10.66 132.98 -11 134 C-11.94 133.98 -11.94 133.98 -12.9 133.96 C-13.72 133.96 -14.53 133.95 -15.38 133.94 C-16.59 133.92 -16.59 133.92 -17.84 133.9 C-20.05 133.86 -20.05 133.86 -22 135 C-22 134.19 -22 133.39 -22 132.55 C-22.02 124.92 -22.06 117.29 -22.13 109.65 C-22.17 105.73 -22.19 101.8 -22.2 97.88 C-22.2 94.08 -22.23 90.29 -22.27 86.5 C-22.29 85.06 -22.29 83.62 -22.29 82.17 C-22.27 73.79 -22.61 66.82 -28 60 C-28.38 59.47 -28.77 58.94 -29.17 58.39 C-34.36 54.45 -41.61 54.71 -47.84 54.73 C-48.69 54.72 -49.53 54.72 -50.4 54.71 C-53.17 54.7 -55.94 54.7 -58.71 54.7 C-60.65 54.7 -62.59 54.69 -64.53 54.69 C-68.59 54.68 -72.65 54.68 -76.71 54.68 C-81.89 54.69 -87.07 54.67 -92.25 54.65 C-96.26 54.64 -100.26 54.63 -104.27 54.64 C-106.18 54.64 -108.09 54.63 -110 54.62 C-112.67 54.61 -115.35 54.62 -118.03 54.63 C-119.19 54.62 -119.19 54.62 -120.38 54.6 C-127.13 54.67 -133.1 56.23 -138.88 59.75 C-143.38 64.52 -144.37 69.65 -144.43 76.04 C-144.44 76.7 -144.45 77.37 -144.46 78.05 C-144.49 80.22 -144.5 82.39 -144.51 84.56 C-144.53 86.07 -144.55 87.59 -144.57 89.1 C-144.61 93.07 -144.64 97.04 -144.67 101 C-144.7 105.06 -144.75 109.11 -144.79 113.17 C-144.88 121.11 -144.94 129.06 -145 137 C-145.79 137.01 -146.58 137.01 -147.4 137.02 C-154.9 137.08 -162.4 137.15 -169.91 137.24 C-173.76 137.28 -177.62 137.32 -181.47 137.35 C-185.2 137.37 -188.93 137.41 -192.66 137.46 C-194.07 137.48 -195.49 137.49 -196.9 137.5 C-210.78 137.5 -210.78 137.5 -223 143.31 C-230.46 153.33 -228.16 169.21 -228.17 181.19 C-228.17 182.83 -228.17 184.47 -228.18 186.11 C-228.18 189.52 -228.19 192.93 -228.19 196.34 C-228.19 200.69 -228.2 205.04 -228.22 209.38 C-228.23 212.76 -228.23 216.13 -228.23 219.51 C-228.23 221.11 -228.23 222.71 -228.24 224.31 C-228.78 239.72 -228.78 239.72 -224 254 C-217.01 260.33 -208.08 259.73 -199.25 259.71 C-197.73 259.72 -196.22 259.74 -194.71 259.75 C-190.76 259.79 -186.81 259.8 -182.86 259.81 C-178.82 259.82 -174.77 259.85 -170.73 259.89 C-162.82 259.95 -154.91 259.99 -147 260 C-147 260.66 -147 261.32 -147 262 C-146.34 262 -145.68 262 -145 262 C-145 263.98 -145 265.96 -145 268 C-145.88 268.44 -145.88 268.44 -146.78 268.88 C-148.11 269.55 -149.44 270.24 -150.75 270.96 C-156.3 273.95 -161.92 275.46 -168 277 C-169.12 277.32 -170.25 277.64 -171.41 277.97 C-185.53 281.95 -199.57 284.2 -214.23 284.79 C-217.97 284.94 -217.97 284.94 -221.55 285.52 C-225.06 286.01 -228.4 286.13 -231.94 286.12 C-233.08 286.13 -234.22 286.13 -235.4 286.13 C-238.63 286.01 -241.76 285.67 -244.96 285.24 C-247.67 284.92 -250.36 284.82 -253.09 284.71 C-260.4 284.42 -267.09 283.55 -274.17 281.52 C-277.4 280.93 -279.8 281.4 -283 282 C-304 224.15 -304.59 164.62 -279 108 C-263.68 75.91 -240.87 46.94 -212 26 C-211.46 25.61 -210.93 25.22 -210.37 24.81 C-182.34 4.47 -151.16 -8.06 -117 -14 C-116.27 -14.13 -115.53 -14.26 -114.78 -14.39 C-78.3 -20.5 -33.31 -16.65 0 0 Z " fill="#8AB7FC" transform="translate(723,727)"/>
<path d="M0 0 C0.33 0.99 0.66 1.98 1 3 C2.86 3.19 2.86 3.19 4.75 3.38 C7.93 3.69 10.3 4.25 13 6 C14.67 8.14 14.67 8.14 16.19 10.69 C16.7 11.52 17.21 12.35 17.73 13.2 C20.76 19.89 20.14 27.45 20.13 34.65 C20.13 35.8 20.13 36.96 20.13 38.15 C20.14 40.65 20.14 43.16 20.14 45.66 C20.14 49.63 20.15 53.61 20.17 57.58 C20.17 58.26 20.17 58.93 20.18 59.62 C20.18 61 20.19 62.38 20.19 63.76 C20.23 73 20.25 82.24 20.25 91.48 C20.25 97.73 20.27 103.98 20.3 110.23 C20.32 113.52 20.33 116.82 20.32 120.11 C20.26 142.56 22.46 159.72 38.13 176.93 C44.42 183.9 50.12 191.41 55.91 198.8 C59.51 203.4 63.19 207.93 66.91 212.45 C68.85 214.82 70.78 217.22 72.69 219.62 C76.34 224.21 80.07 228.73 83.81 233.25 C88.68 239.14 93.46 245.08 98.16 251.1 C101.67 255.6 105.27 260.03 108.9 264.44 C110.87 266.84 112.82 269.26 114.75 271.69 C118.21 276.02 121.69 280.33 125.19 284.62 C126.02 285.65 126.02 285.65 126.87 286.69 C129.69 290.16 132.51 293.63 135.34 297.09 C140.9 303.92 146.42 310.78 151.84 317.72 C157.46 324.89 163.24 331.94 169 339 C171.21 341.71 173.42 344.42 175.62 347.12 C176.16 347.79 176.7 348.45 177.26 349.13 C180.76 353.45 184.21 357.8 187.62 362.19 C191.59 367.27 195.68 372.21 199.87 377.1 C203.71 381.61 207.38 386.24 211.02 390.91 C213.8 394.48 216.62 398.01 219.5 401.5 C223.38 406.21 227.16 411 230.91 415.81 C233.76 419.44 236.66 423.02 239.62 426.56 C269.79 463.32 285.52 508.54 281.75 556.19 C279.53 577.61 275.5 598.93 272 620.17 C271.8 621.37 271.6 622.58 271.4 623.82 C271.03 626.1 270.65 628.38 270.27 630.66 C270.1 631.69 269.94 632.71 269.76 633.77 C269.61 634.66 269.47 635.55 269.31 636.47 C269 639.02 268.95 641.44 269 644 C269 647.11 268.54 649.94 268 653 C267.34 653 266.68 653 266 653 C265.92 653.62 265.83 654.24 265.75 654.88 C265 657 265 657 262.94 658.25 C262.3 658.5 261.66 658.74 261 659 C261 659.66 261 660.32 261 661 C260.01 661 259.02 661 258 661 C258 661.66 258 662.32 258 663 C241.02 663.86 241.02 663.86 236.75 661.12 C232.12 656.75 228.76 650.28 228.56 643.88 C228.94 640.54 229.58 637.51 230.49 634.29 C231.35 630.42 231.51 626.49 231.75 622.54 C232 620 232 620 233 618 C233.37 615.52 233.7 613.05 234 610.56 C234.87 603.4 234.87 603.4 236 600 C236.13 598.52 236.23 597.04 236.31 595.56 C236.76 590.06 237.8 584.77 238.94 579.38 C244.69 551.45 246.03 521.88 235 495 C234.68 494.14 234.35 493.29 234.02 492.41 C228.43 478.17 220.62 465.81 211 454 C209.65 452.29 208.29 450.58 206.94 448.88 C204.82 446.23 202.68 443.61 200.5 441.01 C199.68 440.02 198.85 439.02 198 438 C197.24 437.09 196.47 436.18 195.69 435.25 C194 433 194 433 194 431 C193.34 431 192.68 431 192 431 C190.39 429.09 188.9 427.2 187.44 425.19 C187.03 424.64 186.61 424.09 186.19 423.53 C184.34 421.03 182.99 418.97 182 416 C181.34 416 180.68 416 180 416 C178.49 414.32 178.49 414.32 176.88 412.12 C176.34 411.41 175.8 410.69 175.24 409.95 C174 408 174 408 174 406 C173.34 406 172.68 406 172 406 C170.38 404.17 170.38 404.17 168.56 401.75 C167.97 400.96 167.37 400.17 166.75 399.36 C166.18 398.58 165.6 397.8 165 397 C164.43 396.28 163.86 395.57 163.28 394.83 C162 393 162 393 162 391 C161.34 391 160.68 391 160 391 C158.49 389.32 158.49 389.32 156.88 387.12 C156.34 386.41 155.8 385.69 155.24 384.95 C154 383 154 383 154 381 C153.34 381 152.68 381 152 381 C150.2 378.91 148.53 376.82 146.88 374.62 C146.17 373.72 146.17 373.72 145.46 372.8 C142 368.26 142 368.26 142 366 C141.01 365.67 140.02 365.34 139 365 C137.29 362.97 135.69 360.95 134.12 358.81 C133.27 357.67 132.42 356.53 131.57 355.39 C131.15 354.83 130.73 354.27 130.3 353.69 C128.98 351.97 127.59 350.34 126.18 348.7 C124 346 124 346 124 344 C123.34 344 122.68 344 122 344 C119 340.54 119 340.54 119 338 C118.34 338 117.68 338 117 338 C115.71 336.54 115.71 336.54 114.38 334.62 C113.93 334 113.48 333.37 113.02 332.73 C112 331 112 331 112 329 C111.34 329 110.68 329 110 329 C107 325.54 107 325.54 107 323 C106.34 323 105.68 323 105 323 C103.55 321.38 103.55 321.38 101.88 319.12 C99.37 315.82 96.85 312.54 94.25 309.31 C92.83 307.54 91.42 305.77 90 304 C89.54 303.42 89.08 302.85 88.6 302.26 C87.11 300.38 85.62 298.5 84.12 296.62 C83.65 296.03 83.17 295.43 82.68 294.82 C80.45 292 78.42 289.32 77 286 C76.34 286 75.68 286 75 286 C73.49 284.32 73.49 284.32 71.88 282.12 C71.34 281.41 70.8 280.69 70.24 279.95 C69 278 69 278 69 276 C68.34 276 67.68 276 67 276 C65.38 274.17 65.38 274.17 63.56 271.75 C62.97 270.96 62.37 270.17 61.75 269.36 C61.18 268.58 60.6 267.8 60 267 C59.43 266.28 58.86 265.57 58.28 264.83 C57 263 57 263 57 261 C56.34 261 55.68 261 55 261 C53.49 259.32 53.49 259.32 51.88 257.12 C51.34 256.41 50.8 255.69 50.24 254.95 C49 253 49 253 49 251 C48.34 251 47.68 251 47 251 C45.2 248.91 43.53 246.82 41.88 244.62 C41.41 244.02 40.94 243.42 40.46 242.8 C37 238.26 37 238.26 37 236 C36.34 236 35.68 236 35 236 C33.15 233.83 31.41 231.65 29.69 229.38 C28.73 228.13 27.78 226.89 26.82 225.65 C26.12 224.73 26.12 224.73 25.41 223.8 C24.03 222.04 22.6 220.35 21.14 218.66 C19 216 19 216 19 214 C18.34 214 17.68 214 17 214 C14 210.54 14 210.54 14 208 C13.34 208 12.68 208 12 208 C10.71 206.54 10.71 206.54 9.38 204.62 C8.93 204 8.48 203.37 8.02 202.73 C7 201 7 201 7 199 C6.34 199 5.68 199 5 199 C-1.03 192.1 -5.12 184.23 -9 176 C-9.3 175.42 -9.61 174.84 -9.92 174.24 C-18.83 157.11 -18.75 139.12 -18.64 120.21 C-18.62 116.53 -18.63 112.84 -18.64 109.15 C-18.64 102.98 -18.63 96.82 -18.6 90.65 C-18.56 83.53 -18.56 76.41 -18.58 69.29 C-18.6 62.4 -18.59 55.51 -18.57 48.62 C-18.57 45.7 -18.57 42.79 -18.58 39.87 C-18.58 35.81 -18.56 31.74 -18.53 27.68 C-18.54 26.48 -18.55 25.28 -18.55 24.04 C-18.47 16.53 -17.71 12.82 -12.44 7.39 C-5.64 2 -5.64 2 0 2 C0 1.34 0 0.68 0 0 Z " fill="#000002" transform="translate(65,617)"/>
<path d="M0 0 C34.04 9.8 59.99 33.19 77.24 63.53 C88.14 83.38 92.13 104.35 92.17 126.83 C92.18 128.32 92.19 129.8 92.19 131.28 C92.21 134.47 92.22 137.65 92.23 140.83 C92.25 145.86 92.27 150.9 92.29 155.93 C92.37 170.25 92.43 184.56 92.48 198.87 C92.51 206.79 92.54 214.71 92.58 222.63 C92.61 227.63 92.63 232.62 92.64 237.62 C92.65 240.74 92.67 243.86 92.69 246.97 C92.69 248.41 92.7 249.85 92.7 251.29 C92.7 262.28 92.91 272.1 100 281 C105.93 286.77 112.61 288.75 120.44 290.88 C138.26 296.04 153.3 302.75 167.04 315.48 C167.61 316 168.17 316.53 168.76 317.07 C174.15 322.09 179.39 327.27 184.57 332.5 C186.2 334.14 187.83 335.78 189.46 337.41 C192.91 340.88 196.36 344.34 199.81 347.81 C203.83 351.86 207.86 355.9 211.89 359.94 C213.48 361.54 215.06 363.14 216.65 364.74 C217.64 365.73 218.63 366.72 219.62 367.71 C220.47 368.57 221.31 369.42 222.19 370.3 C224.37 372.39 226.57 374.38 228.85 376.35 C233.02 379.97 236.92 383.8 240.81 387.72 C241.91 388.83 241.91 388.83 243.03 389.96 C244.61 391.55 246.19 393.13 247.77 394.72 C250.27 397.24 252.77 399.75 255.27 402.26 C262.38 409.4 269.49 416.54 276.59 423.69 C280.95 428.07 285.31 432.45 289.67 436.82 C291.33 438.49 292.99 440.15 294.64 441.82 C296.95 444.15 299.27 446.47 301.58 448.79 C302.26 449.48 302.94 450.17 303.64 450.88 C306.89 454.12 309.88 456.88 314 459 C313.5 463.53 311.84 465.78 308.88 469.19 C301.23 477.86 301.23 477.86 296 488 C292.21 487.43 290.5 485.86 287.85 483.17 C287.04 482.36 286.23 481.55 285.4 480.71 C284.53 479.83 283.67 478.95 282.78 478.04 C281.89 477.14 280.99 476.24 280.07 475.31 C277.69 472.91 275.32 470.51 272.95 468.1 C269.62 464.71 266.28 461.34 262.93 457.96 C261.15 456.17 259.37 454.37 257.6 452.57 C256.79 451.75 255.99 450.93 255.15 450.09 C254.45 449.37 253.74 448.65 253.01 447.91 C251.04 445.95 251.04 445.95 248.74 444.37 C248.17 443.92 247.59 443.47 247 443 C247 442.34 247 441.68 247 441 C246.42 440.75 245.84 440.49 245.24 440.23 C242.76 438.87 241.11 437.36 239.12 435.35 C238.36 434.59 237.6 433.84 236.82 433.05 C235.99 432.22 235.17 431.39 234.32 430.53 C233.44 429.65 232.57 428.78 231.67 427.87 C229.77 425.97 227.87 424.06 225.97 422.15 C222.96 419.12 219.95 416.1 216.94 413.08 C212.17 408.3 207.4 403.51 202.63 398.72 C194.12 390.16 185.6 381.61 177.07 373.06 C174.08 370.06 171.1 367.06 168.12 364.06 C165.81 361.75 163.51 359.43 161.2 357.12 C160.38 356.29 159.57 355.47 158.73 354.62 C154.53 350.42 150.25 346.37 145.73 342.5 C144.06 341.05 142.47 339.54 140.88 338 C127.33 326.52 107.44 322 90.13 322.81 C79.82 323.72 69.53 327.13 60 331 C58.74 327.21 58.86 323.67 58.87 319.72 C58.87 318.86 58.86 318.01 58.86 317.13 C58.86 314.25 58.86 311.38 58.86 308.5 C58.86 306.44 58.85 304.38 58.85 302.33 C58.84 297.88 58.83 293.44 58.83 289 C58.83 281.96 58.81 274.93 58.79 267.89 C58.78 265.48 58.78 263.07 58.77 260.66 C58.77 259.45 58.76 258.24 58.76 257 C58.72 240.61 58.69 224.23 58.67 207.84 C58.67 196.8 58.64 185.75 58.6 174.7 C58.59 168.86 58.57 163.02 58.58 157.18 C58.58 151.67 58.57 146.16 58.54 140.65 C58.53 138.64 58.53 136.64 58.54 134.63 C58.64 105.03 50.67 78.35 29.79 56.68 C23.08 50.23 16.12 44.75 8 40.19 C6 39 6 39 4 37 C3.37 34.34 2.87 31.75 2.44 29.06 C2.31 28.28 2.18 27.49 2.05 26.68 C0.68 17.82 0.29 8.94 0 0 Z " fill="#D4816C" transform="translate(131,303)"/>
<path d="M0 0 C6.51 -0.05 13.03 -0.09 19.54 -0.11 C21.76 -0.12 23.98 -0.13 26.2 -0.15 C29.38 -0.18 32.56 -0.19 35.74 -0.2 C37.24 -0.21 37.24 -0.21 38.76 -0.23 C40.14 -0.23 40.14 -0.23 41.55 -0.23 C42.36 -0.23 43.18 -0.24 44.01 -0.24 C46 0 46 0 48 2 C48.26 4.78 48.26 4.78 48.27 8.37 C48.28 9.03 48.28 9.68 48.29 10.36 C48.3 11.78 48.3 13.2 48.3 14.62 C48.31 16.87 48.33 19.13 48.35 21.38 C48.4 27.79 48.43 34.2 48.46 40.6 C48.47 44.52 48.5 48.44 48.54 52.36 C48.55 53.85 48.56 55.34 48.56 56.83 C48.56 58.93 48.58 61.02 48.6 63.11 C48.6 64.3 48.61 65.49 48.61 66.71 C49.14 71.18 50.46 74.7 53.94 77.64 C54.96 78.22 54.96 78.22 56 78.81 C56.68 79.21 57.36 79.61 58.06 80.02 C61.94 81.98 65.08 82.14 69.37 82.17 C70.68 82.19 72 82.2 73.35 82.21 C74.05 82.22 74.76 82.22 75.48 82.23 C77.68 82.25 79.87 82.27 82.07 82.29 C88.32 82.37 94.57 82.43 100.82 82.48 C104.64 82.51 108.46 82.55 112.28 82.6 C113.74 82.61 115.2 82.63 116.66 82.63 C118.69 82.65 120.73 82.67 122.76 82.7 C123.92 82.71 125.08 82.72 126.27 82.73 C129 83 129 83 131 85 C131.24 86.99 131.24 86.99 131.23 89.45 C131.23 90.83 131.23 90.83 131.23 92.24 C131.22 93.24 131.21 94.23 131.2 95.26 C131.19 96.28 131.19 97.29 131.19 98.34 C131.18 101.6 131.15 104.86 131.12 108.12 C131.11 110.33 131.11 112.54 131.1 114.75 C131.08 120.16 131.04 125.58 131 131 C130.17 131 129.34 131.01 128.48 131.01 C120.61 131.05 112.74 131.11 104.87 131.18 C100.82 131.22 96.78 131.26 92.73 131.27 C88.82 131.29 84.91 131.32 81 131.37 C79.52 131.38 78.03 131.39 76.54 131.39 C67.11 131.4 58.52 131.48 51.5 138.5 C48.87 142.88 48.86 146.72 48.79 151.79 C48.78 152.46 48.77 153.14 48.76 153.83 C48.73 156.05 48.71 158.27 48.68 160.48 C48.66 162.03 48.64 163.57 48.62 165.11 C48.57 169.16 48.52 173.21 48.47 177.26 C48.42 181.4 48.36 185.53 48.31 189.67 C48.2 197.78 48.1 205.89 48 214 C45.63 215.19 44.19 215.13 41.55 215.13 C40.17 215.14 40.17 215.14 38.76 215.14 C37.77 215.13 36.77 215.13 35.75 215.12 C34.73 215.12 33.72 215.12 32.67 215.11 C25.34 215.07 18.01 214.91 10.69 214.62 C9.75 214.59 8.8 214.56 7.83 214.53 C6.96 214.49 6.09 214.45 5.2 214.41 C4.43 214.38 3.67 214.35 2.88 214.32 C1 214 1 214 -1 212 C-1.24 209.28 -1.24 209.28 -1.22 205.78 C-1.22 204.47 -1.22 203.16 -1.23 201.81 C-1.22 201.11 -1.22 200.41 -1.21 199.69 C-1.2 197.48 -1.21 195.28 -1.22 193.07 C-1.25 186.81 -1.26 180.54 -1.23 174.27 C-1.21 170.44 -1.23 166.6 -1.26 162.77 C-1.26 161.31 -1.26 159.86 -1.24 158.4 C-1.16 150.37 -1.69 143.91 -6.03 136.93 C-10.58 132.47 -15.88 131.62 -22.04 131.57 C-22.7 131.56 -23.37 131.55 -24.05 131.54 C-26.22 131.51 -28.39 131.5 -30.56 131.49 C-32.07 131.47 -33.59 131.45 -35.1 131.43 C-39.07 131.39 -43.04 131.36 -47 131.33 C-51.06 131.3 -55.11 131.25 -59.17 131.21 C-67.11 131.12 -75.06 131.06 -83 131 C-84.17 128.66 -84.13 127.27 -84.13 124.66 C-84.13 123.76 -84.14 122.86 -84.14 121.94 C-84.14 120.48 -84.14 120.48 -84.13 119 C-84.13 118 -84.13 117.01 -84.14 115.99 C-84.14 113.88 -84.13 111.78 -84.13 109.68 C-84.13 106.45 -84.13 103.22 -84.14 99.99 C-84.14 97.95 -84.13 95.91 -84.13 93.87 C-84.13 92.9 -84.14 91.93 -84.14 90.92 C-84.14 90.03 -84.13 89.13 -84.13 88.21 C-84.13 87.42 -84.13 86.63 -84.13 85.82 C-84 84 -84 84 -83 83 C-80.93 82.9 -78.85 82.86 -76.77 82.86 C-75.8 82.85 -75.8 82.85 -74.8 82.85 C-73.38 82.84 -71.96 82.83 -70.55 82.83 C-68.3 82.82 -66.05 82.81 -63.8 82.79 C-57.4 82.74 -51 82.69 -44.6 82.67 C-40.69 82.66 -36.78 82.63 -32.87 82.59 C-31.38 82.58 -29.9 82.58 -28.41 82.58 C-15.86 82.71 -15.86 82.71 -5.44 76.5 C-0.44 70.14 -1.29 62.09 -1.33 54.41 C-1.32 52.91 -1.3 51.4 -1.29 49.89 C-1.26 45.94 -1.25 41.99 -1.25 38.05 C-1.25 32.46 -1.21 26.88 -1.17 21.3 C-1.15 18.33 -1.14 15.36 -1.14 12.39 C-1.13 11.04 -1.13 9.69 -1.13 8.34 C-1.13 7.16 -1.13 5.98 -1.12 4.77 C-1 2 -1 2 0 0 Z " fill="#EDF3F3" transform="translate(616,819)"/>
<path d="M0 0 C4.6 2.54 7.77 4.97 9.44 10.12 C10.28 19.21 9.36 25.36 3.69 32.81 C3.03 32.81 2.37 32.81 1.69 32.81 C1.32 33.62 1.32 33.62 0.94 34.44 C-0.62 37.39 -2.35 40.11 -4.31 42.81 C-4.97 42.81 -5.63 42.81 -6.31 42.81 C-6.5 43.47 -6.68 44.13 -6.88 44.81 C-8.63 48.48 -11.01 51.06 -13.75 54.04 C-15.38 55.74 -15.38 55.74 -16.31 57.81 C-16.97 57.81 -17.63 57.81 -18.31 57.81 C-18.58 58.38 -18.85 58.96 -19.12 59.55 C-20.35 61.89 -21.74 63.94 -23.31 66.06 C-23.83 66.77 -24.34 67.48 -24.88 68.2 C-25.35 68.73 -25.82 69.27 -26.31 69.81 C-26.97 69.81 -27.63 69.81 -28.31 69.81 C-28.68 70.9 -28.68 70.9 -29.06 72 C-30.44 75.09 -32.04 77.32 -34.31 79.81 C-34.97 79.81 -35.63 79.81 -36.31 79.81 C-36.59 80.8 -36.59 80.8 -36.88 81.81 C-38.63 85.48 -41.01 88.06 -43.75 91.04 C-45.38 92.74 -45.38 92.74 -46.31 94.81 C-46.97 94.81 -47.63 94.81 -48.31 94.81 C-48.56 95.35 -48.81 95.88 -49.06 96.44 C-50.62 99.39 -52.35 102.11 -54.31 104.81 C-54.97 104.81 -55.63 104.81 -56.31 104.81 C-56.56 105.35 -56.81 105.9 -57.06 106.45 C-58.59 109.34 -60.4 111.91 -62.31 114.56 C-63.01 115.55 -63.71 116.53 -64.44 117.55 C-65.06 118.29 -65.67 119.04 -66.31 119.81 C-66.97 119.81 -67.63 119.81 -68.31 119.81 C-68.57 120.38 -68.82 120.94 -69.08 121.52 C-70.49 124.13 -72.15 126.17 -74.06 128.44 C-88.16 145.42 -88.16 145.42 -100.31 163.81 C-101 164.94 -101 164.94 -101.7 166.09 C-105.02 171.75 -107.18 177.62 -109.31 183.81 C-109.83 185.13 -110.35 186.44 -110.88 187.75 C-116.95 204.05 -120.83 226.63 -116.31 243.81 C-116.14 246.06 -116 248.31 -115.88 250.56 C-115.57 255.15 -115.11 259.36 -113.85 263.77 C-112.15 270.2 -111.34 276.88 -110.81 283.5 C-110.48 287.66 -109.77 291.55 -108.79 295.61 C-108.12 298.7 -107.83 301.81 -107.56 304.96 C-107.4 306.9 -107.4 306.9 -106.31 308.81 C-106.13 310.66 -105.99 312.52 -105.88 314.38 C-105.6 318.2 -105.17 321.74 -104.19 325.44 C-102.62 332.06 -103.08 338.24 -106.5 344.19 C-108.79 347.79 -111.55 349.82 -115.31 351.81 C-118.3 352.27 -121.18 352.2 -124.19 352.06 C-124.97 352.04 -125.75 352.03 -126.56 352.01 C-128.48 351.96 -130.4 351.89 -132.31 351.81 C-132.31 351.15 -132.31 350.49 -132.31 349.81 C-132.91 349.71 -133.5 349.61 -134.12 349.5 C-138.04 348.27 -140.11 345.16 -142.31 341.81 C-143.91 337.32 -144.38 333.29 -144.7 328.56 C-145.33 320.83 -146.55 313.22 -147.78 305.57 C-148.02 304.04 -148.27 302.5 -148.51 300.97 C-149.14 296.96 -149.78 292.95 -150.42 288.95 C-151.2 284.08 -151.97 279.21 -152.74 274.33 C-153.34 270.55 -153.94 266.76 -154.55 262.97 C-154.71 261.92 -154.71 261.92 -154.88 260.86 C-155.18 258.98 -155.48 257.11 -155.78 255.23 C-162.5 212.01 -151.87 165.34 -126.07 129.83 C-122.29 124.71 -118.35 119.73 -114.31 114.81 C-112.72 112.85 -111.12 110.89 -109.53 108.93 C-108.38 107.52 -107.24 106.11 -106.09 104.7 C-103.15 101.08 -100.22 97.46 -97.31 93.81 C-93.27 88.75 -89.18 83.72 -85.09 78.7 C-82.15 75.08 -79.22 71.46 -76.31 67.81 C-72.84 63.46 -69.33 59.13 -65.81 54.81 C-59.67 47.25 -53.55 39.68 -47.55 32 C-42.75 25.86 -37.88 19.78 -32.94 13.75 C-32.35 13.04 -31.77 12.32 -31.17 11.59 C-22.54 1.1 -13.7 -6.39 0 0 Z " fill="#000002" transform="translate(1089.3125,928.1875)"/>
<path d="M0 0 C0.33 0.66 0.66 1.32 1 2 C1.76 2.12 2.52 2.24 3.3 2.37 C10.27 4 14.86 12.53 18.54 18.3 C23.33 26.15 27.16 34.25 30 43 C30.21 43.64 30.42 44.28 30.64 44.94 C33.8 55.11 34.37 65.14 34.44 75.75 C34.45 76.95 34.46 78.14 34.47 79.37 C34.21 105.46 22.98 130.54 5.4 149.49 C3.44 151.61 1.54 153.78 -0.38 155.94 C-4.81 160.83 -9.33 165.65 -13.84 170.47 C-17.88 174.79 -21.87 179.15 -25.81 183.56 C-33.08 191.67 -40.51 199.62 -47.95 207.57 C-51.88 211.78 -55.75 216.04 -59.59 220.34 C-62.73 223.8 -65.93 227.21 -69.12 230.62 C-73.23 235 -77.28 239.4 -81.2 243.95 C-86.93 250.47 -92.91 256.79 -98.86 263.11 C-99.52 263.81 -100.18 264.51 -100.85 265.23 C-102.12 266.58 -103.39 267.92 -104.66 269.27 C-108.27 273.1 -111.78 277.01 -115.23 280.98 C-118.24 284.42 -121.33 287.78 -124.44 291.12 C-125.05 291.8 -125.67 292.48 -126.31 293.18 C-133.54 300.95 -139.95 306.43 -150.88 307.31 C-160.8 306.99 -168.26 301.94 -175 295 C-173.66 291.99 -172.2 290 -169.81 287.75 C-166.61 284.72 -163.76 281.45 -160.87 278.13 C-157.93 274.78 -154.87 271.55 -151.81 268.31 C-150.5 266.91 -149.18 265.51 -147.86 264.11 C-146.89 263.08 -146.89 263.08 -145.9 262.02 C-136.91 252.44 -136.91 252.44 -128.19 242.62 C-125.5 239.52 -122.66 236.64 -119.73 233.76 C-117.4 231.39 -115.25 228.88 -113.07 226.36 C-110.47 223.4 -107.8 220.51 -105.12 217.62 C-101.61 213.84 -98.12 210.04 -94.69 206.19 C-90.05 201 -85.27 195.94 -80.49 190.88 C-77.44 187.65 -74.44 184.39 -71.53 181.03 C-67.84 176.79 -64 172.7 -60.12 168.62 C-55.06 163.27 -50.03 157.88 -45.12 152.38 C-42.67 149.63 -40.18 146.9 -37.69 144.19 C-37.23 143.69 -36.77 143.19 -36.3 142.67 C-33.87 140.02 -31.42 137.38 -28.95 134.77 C-8.16 112.73 -0.41 92.27 -0.39 62.3 C-0.38 60.49 -0.36 58.68 -0.34 56.87 C-0.3 52.16 -0.28 47.46 -0.26 42.75 C-0.24 37.92 -0.2 33.1 -0.16 28.27 C-0.09 18.85 -0.03 9.42 0 0 Z " fill="#F9C8B5" transform="translate(1127,624)"/>
<path d="M0 0 C0.66 0.33 1.32 0.66 2 1 C2.01 2.44 2.01 2.44 2.01 3.92 C2.05 13.06 2.11 22.21 2.18 31.36 C2.22 36.06 2.26 40.76 2.27 45.46 C2.29 50.01 2.32 54.57 2.37 59.12 C2.38 60.84 2.39 62.56 2.39 64.28 C2.42 93.01 11.3 113.57 31.09 134.17 C32.15 135.23 33.23 136.27 34.31 137.31 C36.04 139.04 37.64 140.84 39.23 142.7 C42.88 146.9 46.67 150.96 50.5 155 C54.23 158.93 57.92 162.88 61.47 166.97 C65.19 171.26 69.08 175.38 73 179.5 C77.53 184.26 81.97 189.07 86.27 194.04 C89.19 197.35 92.22 200.54 95.25 203.75 C99.86 208.65 104.46 213.55 109 218.5 C110.21 219.81 110.21 219.81 111.44 221.16 C113.43 223.37 115.4 225.61 117.36 227.86 C120.9 231.91 124.55 235.84 128.25 239.75 C134.56 246.45 140.8 253.2 147 260 C148.81 261.98 150.62 263.96 152.44 265.94 C152.89 266.43 153.33 266.92 153.79 267.42 C156.77 270.66 159.75 273.89 162.74 277.11 C164.27 278.77 165.79 280.42 167.31 282.08 C168.9 283.8 170.5 285.52 172.12 287.2 C174.36 289.59 175.89 291.27 176.38 294.56 C173.2 300.19 167 303.56 161 305.53 C153.52 307.29 146.38 305.69 139.9 301.71 C133.8 297.31 128.68 291.98 123.79 286.3 C119.97 281.93 116 277.71 112 273.5 C107.48 268.74 103.05 263.94 98.75 258.98 C95.75 255.58 92.62 252.29 89.5 249 C85.77 245.06 82.07 241.11 78.52 237.02 C74.87 232.82 71.08 228.78 67.25 224.75 C59.6 216.65 51.95 208.55 44.64 200.14 C41.11 196.09 37.45 192.16 33.75 188.25 C27.44 181.55 21.2 174.8 15 168 C13.61 166.49 12.22 164.97 10.83 163.46 C9.91 162.45 8.98 161.44 8.06 160.42 C5.87 158.03 3.67 155.65 1.44 153.29 C-21.86 128.43 -31.83 100.92 -31.3 66.93 C-30.57 44.55 -21.6 20.58 -5.59 4.59 C-3.77 2.98 -1.95 1.45 0 0 Z " fill="#F9C8B5" transform="translate(150,625)"/>
<path d="M0 0 C5.43 5.97 7.22 10.36 7.03 18.42 C6.45 24.78 3.17 28 -1.5 31.9 C-5.89 34.97 -11.09 34.54 -16.21 34.1 C-17.94 33.66 -19.65 33.16 -21.34 32.6 C-29.12 30.05 -35.75 30.69 -43.21 34.1 C-51.35 39.26 -54.03 47.37 -56.09 56.48 C-58.35 69.34 -56.46 81.63 -49.53 92.85 C-44.38 99.96 -38.08 104.69 -30.53 109.04 C-23.86 113.04 -19.57 116.99 -17.54 124.65 C-16.7 130.21 -17.18 134.23 -20.21 139.1 C-24.87 143.93 -28.33 146.78 -35.15 147.54 C-49.95 147.35 -64.22 132.92 -74.12 123.24 C-89.09 107.36 -95.88 83.71 -95.53 62.29 C-94.31 41.23 -86.91 21.69 -71.47 6.95 C-54.48 -6.95 -18.85 -16.15 0 0 Z " fill="#000002" transform="translate(345.21484375,253.8984375)"/>
<path d="M0 0 C1.96 3.73 3.92 7.46 5.88 11.19 C6.43 12.24 6.99 13.3 7.56 14.38 C8.09 15.41 8.63 16.43 9.18 17.48 C9.67 18.42 10.16 19.36 10.67 20.32 C14.08 27.2 14.08 27.2 13.81 29.86 C12.7 32.78 11 34.37 8.79 36.57 C7.45 37.91 7.45 37.91 6.08 39.29 C5.09 40.26 4.11 41.23 3.12 42.21 C2.11 43.22 1.1 44.22 0.09 45.23 C-2.03 47.35 -4.16 49.46 -6.29 51.57 C-9 54.25 -11.7 56.94 -14.4 59.64 C-17 62.23 -19.59 64.81 -22.19 67.39 C-22.68 67.88 -23.16 68.36 -23.67 68.86 C-25.07 70.26 -26.48 71.65 -27.89 73.05 C-28.68 73.84 -29.48 74.63 -30.3 75.44 C-32.44 77.47 -34.61 79.41 -36.85 81.34 C-40.93 84.89 -44.76 88.65 -48.56 92.5 C-49.27 93.21 -49.98 93.92 -50.71 94.66 C-52.23 96.19 -53.75 97.72 -55.27 99.26 C-57.68 101.69 -60.09 104.11 -62.5 106.53 C-69.35 113.41 -76.19 120.3 -83.02 127.2 C-87.22 131.42 -91.41 135.65 -95.62 139.86 C-97.22 141.47 -98.81 143.08 -100.41 144.69 C-102.63 146.94 -104.85 149.18 -107.09 151.41 C-108.07 152.42 -108.07 152.42 -109.08 153.45 C-109.99 154.35 -109.99 154.35 -110.92 155.28 C-111.45 155.8 -111.97 156.33 -112.51 156.88 C-114 158 -114 158 -117 158 C-117 157.34 -117 156.68 -117 156 C-117.99 155.67 -118.98 155.34 -120 155 C-121.52 153.03 -122.89 151.08 -124.25 149 C-127.55 144.06 -130.99 139.41 -134.88 134.9 C-136 133 -136 133 -135.77 131.06 C-134.85 128.58 -133.91 127.78 -131.84 126.15 C-127.8 122.77 -124.06 119.17 -120.34 115.44 C-119.73 114.82 -119.11 114.21 -118.48 113.57 C-117.16 112.25 -115.85 110.94 -114.55 109.62 C-112.46 107.52 -110.38 105.43 -108.29 103.34 C-103.86 98.89 -99.43 94.45 -95 90 C-89.86 84.84 -84.73 79.68 -79.59 74.53 C-77.54 72.48 -75.5 70.43 -73.46 68.37 C-68.11 63 -62.78 57.7 -57 52.78 C-52.75 49 -48.82 44.87 -44.83 40.81 C-43.17 39.13 -41.5 37.44 -39.84 35.76 C-35.1 30.98 -30.37 26.2 -25.65 21.41 C-22.75 18.46 -19.84 15.52 -16.93 12.59 C-15.82 11.47 -14.72 10.35 -13.62 9.23 C-12.09 7.67 -10.55 6.12 -9.01 4.57 C-7.7 3.24 -7.7 3.24 -6.36 1.89 C-4 0 -4 0 0 0 Z " fill="#D4816C" transform="translate(970,633)"/>
<path d="M0 0 C1.61 0.56 1.61 0.56 3.26 1.12 C9.84 3.58 14.19 6.03 18 12 C18.62 12.95 19.24 13.9 19.88 14.88 C21.65 19.8 22.19 24.33 20.02 29.21 C17.21 33.86 14.31 37.85 9.38 40.31 C1.18 41.98 -5.42 39.74 -12.85 36.25 C-21.75 32.71 -30.55 32.67 -40.03 32.7 C-47.93 32.54 -54.67 30.86 -60.7 25.48 C-64.49 21.15 -64.37 16.1 -64.25 10.65 C-63.77 5.56 -61.88 2.9 -58.38 -0.69 C-43.38 -11.95 -16.11 -5.84 0 0 Z " fill="#000002" transform="translate(489,336)"/>
<path d="M0 0 C0 22.11 0 44.22 0 67 C-2.37 68.19 -3.81 68.13 -6.45 68.13 C-7.37 68.13 -8.29 68.14 -9.24 68.14 C-10.23 68.13 -11.23 68.13 -12.25 68.12 C-13.27 68.12 -14.28 68.12 -15.33 68.11 C-22.66 68.07 -29.99 67.91 -37.31 67.62 C-38.25 67.59 -39.2 67.56 -40.17 67.53 C-41.04 67.49 -41.91 67.45 -42.8 67.41 C-43.95 67.37 -43.95 67.37 -45.12 67.32 C-47 67 -47 67 -49 65 C-49.24 62.6 -49.24 62.6 -49.23 59.54 C-49.23 58.4 -49.23 57.26 -49.23 56.08 C-49.22 54.85 -49.21 53.61 -49.2 52.34 C-49.19 51.07 -49.19 49.81 -49.19 48.51 C-49.18 45.15 -49.16 41.8 -49.14 38.44 C-49.12 35.01 -49.11 31.59 -49.1 28.16 C-49.08 21.44 -49.04 14.72 -49 8 C-45.12 9.75 -45.12 9.75 -44 12 C-43.89 13.5 -43.83 14.99 -43.81 16.49 C-43.79 17.89 -43.79 17.89 -43.76 19.32 C-43.75 20.32 -43.73 21.33 -43.72 22.37 C-43.7 23.4 -43.68 24.44 -43.66 25.5 C-43.6 28.81 -43.55 32.13 -43.5 35.44 C-43.43 39.79 -43.36 44.14 -43.28 48.5 C-43.27 49.5 -43.25 50.51 -43.24 51.55 C-43.22 52.48 -43.21 53.41 -43.19 54.38 C-43.18 55.2 -43.16 56.02 -43.15 56.87 C-43.08 59.19 -43.08 59.19 -42 62 C-34.49 62.74 -27.04 63.11 -19.5 63.12 C-18.74 63.13 -17.97 63.13 -17.18 63.14 C-13.33 63.13 -9.74 62.94 -6 62 C-4.4 55.89 -3.71 50.25 -3.81 43.94 C-3.82 42.71 -3.82 42.71 -3.83 41.45 C-3.91 34.84 -4.31 28.27 -4.77 21.67 C-5.72 6.46 -5.72 6.46 -3 1 C-1 0 -1 0 0 0 Z " fill="#F6E7DE" transform="translate(664,966)"/>
<path d="M0 0 C23.68 -0.05 47.36 -0.08 71.03 -0.1 C82.03 -0.11 93.02 -0.13 104.01 -0.15 C113.59 -0.17 123.17 -0.18 132.75 -0.19 C137.83 -0.19 142.9 -0.2 147.98 -0.21 C152.75 -0.22 157.52 -0.23 162.3 -0.23 C164.05 -0.23 165.81 -0.23 167.56 -0.24 C169.95 -0.25 172.34 -0.25 174.73 -0.24 C175.43 -0.25 176.13 -0.25 176.85 -0.26 C180.47 -0.24 181.89 -0.07 185 2 C183.32 3.68 181.27 3.12 179.03 3.13 C177.95 3.12 177.95 3.12 176.86 3.12 C176.1 3.12 175.34 3.12 174.56 3.12 C172.01 3.12 169.46 3.12 166.9 3.11 C165.08 3.11 163.26 3.11 161.44 3.11 C156.47 3.11 151.51 3.11 146.54 3.1 C141.36 3.1 136.18 3.09 130.99 3.09 C121.17 3.09 111.35 3.08 101.53 3.07 C90.35 3.06 79.18 3.06 68 3.05 C45 3.04 22 3.02 -1 3 C-0.67 2.01 -0.34 1.02 0 0 Z " fill="#EDF4F4" transform="translate(761,1259)"/>
<path d="M0 0 C2.83 2.83 2.25 4.67 2.25 8.64 C2.26 9.33 2.26 10.02 2.26 10.74 C2.27 13.06 2.27 15.38 2.26 17.71 C2.26 19.37 2.27 21.03 2.27 22.7 C2.28 27.22 2.27 31.74 2.27 36.26 C2.26 40.99 2.27 45.71 2.27 50.44 C2.28 58.37 2.27 66.31 2.26 74.25 C2.25 83.43 2.25 92.62 2.26 101.8 C2.27 109.68 2.27 117.55 2.27 125.43 C2.27 130.13 2.27 134.84 2.27 139.55 C2.28 143.98 2.27 148.4 2.26 152.83 C2.26 154.46 2.26 156.08 2.27 157.71 C2.27 159.93 2.26 162.14 2.25 164.36 C2.25 165.6 2.25 166.84 2.25 168.12 C2 171 2 171 0 173 C-0.96 168.97 -1.13 165.21 -1.13 161.07 C-1.13 160.38 -1.13 159.69 -1.13 158.99 C-1.14 156.7 -1.13 154.41 -1.13 152.12 C-1.13 150.47 -1.13 148.83 -1.13 147.18 C-1.14 142.72 -1.14 138.26 -1.13 133.8 C-1.13 129.14 -1.13 124.48 -1.14 119.81 C-1.14 111.98 -1.14 104.16 -1.13 96.33 C-1.12 87.27 -1.13 78.2 -1.13 69.14 C-1.14 61.37 -1.14 53.59 -1.13 45.82 C-1.13 41.17 -1.13 36.53 -1.14 31.88 C-1.14 27.52 -1.14 23.15 -1.13 18.79 C-1.13 17.18 -1.13 15.58 -1.13 13.97 C-1.14 11.79 -1.13 9.61 -1.13 7.43 C-1.13 6.2 -1.13 4.98 -1.13 3.72 C-1 1 -1 1 0 0 Z " fill="#F6EAE2" transform="translate(86,377)"/>
<path d="M0 0 C2.11 3.16 2.25 3.89 2.25 7.5 C2.25 8.42 2.26 9.34 2.26 10.29 C2.25 11.3 2.25 12.3 2.24 13.34 C2.24 14.41 2.25 15.47 2.25 16.57 C2.25 20.09 2.24 23.62 2.23 27.14 C2.23 29.59 2.23 32.04 2.23 34.49 C2.23 39.62 2.22 44.76 2.21 49.89 C2.19 56.47 2.18 63.06 2.19 69.64 C2.19 74.69 2.18 79.75 2.17 84.81 C2.17 87.23 2.17 89.66 2.17 92.09 C2.16 95.48 2.16 98.87 2.15 102.27 C2.15 103.27 2.15 104.27 2.15 105.31 C2.13 109.98 1.97 114.4 1 119 C0.67 119 0.34 119 0 119 C-0.86 112.33 -1.14 105.82 -1.13 99.1 C-1.13 98.04 -1.13 96.99 -1.13 95.91 C-1.14 92.46 -1.14 89.01 -1.13 85.57 C-1.13 83.16 -1.13 80.76 -1.14 78.36 C-1.14 73.33 -1.14 68.31 -1.13 63.29 C-1.12 56.84 -1.13 50.39 -1.13 43.94 C-1.14 38.99 -1.14 34.03 -1.13 29.07 C-1.13 26.7 -1.13 24.32 -1.14 21.94 C-1.14 18.62 -1.13 15.31 -1.13 12 C-1.13 11.01 -1.13 10.02 -1.14 9 C-1.13 8.1 -1.13 7.21 -1.13 6.28 C-1.13 5.5 -1.13 4.71 -1.13 3.91 C-1 2 -1 2 0 0 Z " fill="#F6EAE2" transform="translate(86,641)"/>
<path d="M0 0 C2.09 3.14 2.25 3.82 2.23 7.38 C2.23 8.26 2.23 9.14 2.23 10.05 C2.22 11 2.21 11.94 2.2 12.92 C2.19 13.89 2.19 14.86 2.19 15.86 C2.18 18.97 2.15 22.08 2.12 25.19 C2.11 27.29 2.11 29.4 2.1 31.51 C2.08 36.67 2.04 41.84 2 47 C1.34 47 0.68 47 0 47 C-0.9 44.29 -1.13 42.73 -1.13 39.94 C-1.13 39.13 -1.14 38.32 -1.14 37.49 C-1.14 36.61 -1.13 35.74 -1.13 34.84 C-1.13 33.95 -1.13 33.05 -1.14 32.12 C-1.14 30.22 -1.13 28.32 -1.13 26.42 C-1.13 23.51 -1.13 20.6 -1.14 17.69 C-1.14 15.85 -1.13 14 -1.13 12.16 C-1.13 11.28 -1.14 10.41 -1.14 9.51 C-1.14 8.7 -1.13 7.89 -1.13 7.06 C-1.13 6.34 -1.13 5.63 -1.13 4.9 C-1 3 -1 3 0 0 Z " fill="#EDF3F3" transform="translate(66,573)"/>
<path d="M0 0 C2.93 4.4 2.54 8.63 2.75 13.81 C2.81 14.8 2.86 15.78 2.92 16.8 C3.15 21.98 3.14 26.15 1 31 C0.67 31 0.34 31 0 31 C-0.83 27.38 -1.13 24.04 -1.13 20.33 C-1.13 19.27 -1.14 18.22 -1.14 17.13 C-1.13 16.03 -1.13 14.94 -1.12 13.81 C-1.13 12.71 -1.13 11.6 -1.14 10.46 C-1.14 9.41 -1.13 8.36 -1.13 7.27 C-1.13 6.31 -1.13 5.34 -1.13 4.35 C-1 2 -1 2 0 0 Z " fill="#F6EAE2" transform="translate(893,910)"/>
<path d="M0 0 C0.83 0.01 1.67 0.01 2.52 0.02 C3.42 0.02 4.32 0.02 5.25 0.03 C6.67 0.04 6.67 0.04 8.11 0.05 C9.06 0.06 10.01 0.06 10.99 0.06 C13.34 0.08 15.7 0.09 18.05 0.11 C18.05 0.44 18.05 0.77 18.05 1.11 C10.13 1.61 10.13 1.61 2.05 2.11 C5.35 2.44 8.65 2.77 12.05 3.11 C12.05 3.44 12.05 3.77 12.05 4.11 C1.01 4.28 -9.93 3.77 -20.95 3.11 C-20.95 2.78 -20.95 2.45 -20.95 2.11 C-19.66 2.05 -18.37 1.99 -17.05 1.93 C-15.37 1.85 -13.69 1.76 -12.01 1.68 C-10.74 1.62 -10.74 1.62 -9.44 1.56 C-8.63 1.51 -7.82 1.47 -6.98 1.43 C-5.86 1.37 -5.86 1.37 -4.72 1.32 C-2.51 1.06 -2.28 0.13 0 0 Z " fill="#AF7263" transform="translate(794.949462890625,354.886474609375)"/>
<path d="M0 0 C1.31 -0.01 2.62 -0.03 3.98 -0.04 C7.38 0.19 7.38 0.19 10.38 2.19 C8.23 4.33 3.53 3.37 0.56 3.38 C-0.67 3.39 -0.67 3.39 -1.92 3.41 C-3.12 3.42 -3.12 3.42 -4.33 3.42 C-5.06 3.42 -5.79 3.43 -6.53 3.43 C-8.92 3.15 -10.55 2.37 -12.62 1.19 C-8.39 0.16 -4.35 0.02 0 0 Z " fill="#EFF1EF" transform="translate(935.625,1258.8125)"/>
<path d="M0 0 C1.68 -0 1.68 -0 3.4 -0.01 C6.27 0.11 8.84 0.47 11.62 1.12 C9.15 3.6 7.7 3.39 4.31 3.4 C3.63 3.39 2.95 3.38 2.25 3.38 C1.58 3.38 0.9 3.39 0.21 3.4 C-3.48 3.38 -6.24 3.15 -9.38 1.12 C-6.05 0.02 -3.5 -0.01 0 0 Z " fill="#F9C8B5" transform="translate(366.375,36.875)"/>
<path d="M0 0 C0.33 0 0.66 0 1 0 C1 5.61 1 11.22 1 17 C-1.55 13.17 -2.5 9.61 -1.61 4.99 C-1.13 3.31 -0.57 1.65 0 0 Z " fill="#F6EAE2" transform="translate(931,1151)"/>
<path d="M0 0 C2.48 3.72 2.57 7.68 2 12 C0.98 14.25 0.98 14.25 0 16 C-0.2 14.08 -0.38 12.17 -0.56 10.25 C-0.67 9.18 -0.77 8.12 -0.88 7.02 C-0.99 4.36 -0.82 2.5 0 0 Z " fill="#F6EAE2" transform="translate(348,1149)"/>
<path d="" fill="#F6EAE2" transform="translate(0,0)"/>
<path d="" fill="#F6EAE2" transform="translate(0,0)"/>
<path d="" fill="#F9C8B5" transform="translate(0,0)"/>
<path d="" fill="#806968" transform="translate(0,0)"/>
<path d="" fill="#806968" transform="translate(0,0)"/>
<path d="" fill="#FADDD0" transform="translate(0,0)"/>
<path d="" fill="#D4816C" transform="translate(0,0)"/>
</svg>
