<svg width="26" height="22" viewBox="0 0 26 22" fill="none" xmlns="http://www.w3.org/2000/svg">
<g id="Frame 18339">
<g id="Group 37062">
<path id="Vector" d="M11.2546 12.1891H10.2089V11.2958C10.2089 11.2169 10.1722 11.1411 10.1068 11.0853C10.0415 11.0294 9.95278 10.9981 9.86035 10.9981H8.46609C8.2736 10.9981 8.11752 11.1314 8.11752 11.2958V12.1891H7.07183C6.87934 12.1891 6.72327 12.3224 6.72327 12.4869V13.6779C6.72327 13.7568 6.75999 13.8326 6.82535 13.8884C6.8907 13.9443 6.9794 13.9756 7.07183 13.9756H8.11752V14.8689C8.11752 14.9479 8.15425 15.0236 8.2196 15.0795C8.28496 15.1353 8.37366 15.1667 8.46609 15.1667H9.86035C9.95278 15.1667 10.0415 15.1353 10.1068 15.0795C10.1722 15.0236 10.2089 14.9479 10.2089 14.8689V13.9756H11.2546C11.347 13.9756 11.4357 13.9443 11.5011 13.8884C11.5664 13.8326 11.6032 13.7568 11.6032 13.6779V12.4869C11.6032 12.4079 11.5664 12.3321 11.5011 12.2763C11.4357 12.2205 11.347 12.1891 11.2546 12.1891ZM10.906 13.3801H9.86035C9.66786 13.3801 9.51178 13.5134 9.51178 13.6779V14.5711H8.81465V13.6779C8.81465 13.5989 8.77793 13.5231 8.71257 13.4673C8.64722 13.4115 8.55852 13.3801 8.46609 13.3801H7.4204V12.7846H8.46609C8.55852 12.7846 8.64722 12.7532 8.71257 12.6974C8.77793 12.6416 8.81465 12.5658 8.81465 12.4869V11.5936H9.51178V12.4869C9.51178 12.5658 9.54851 12.6416 9.61386 12.6974C9.67922 12.7532 9.76792 12.7846 9.86035 12.7846H10.906V13.3801Z" fill="#151921"/>
<path id="Vector_2" d="M21.9746 14.3392C21.0848 13.5744 19.809 13.2363 18.5687 13.4366V12.4873C18.5679 11.9351 18.3107 11.4056 17.8536 11.0151C17.3964 10.6247 16.7767 10.4049 16.1302 10.4042V8.02358C16.1045 7.6087 15.9202 7.21252 15.6056 6.89569C15.291 6.57898 14.8633 6.35913 14.3884 6.26999V5.04776H14.7367C14.8291 5.04776 14.9178 5.01641 14.9831 4.96061C15.0484 4.90481 15.0851 4.82909 15.0851 4.75018V2.36952C15.0851 2.29061 15.0484 2.21488 14.9831 2.15909C14.9178 2.10329 14.8291 2.07194 14.7367 2.07194H3.58919C3.39682 2.07194 3.24083 2.20519 3.24083 2.36952V4.75018C3.24083 4.82909 3.27753 4.90481 3.34285 4.96061C3.40817 5.0164 3.49681 5.04776 3.58919 5.04776H3.93755V6.26999C3.46259 6.35913 3.03492 6.57899 2.72032 6.89569C2.40571 7.21254 2.22143 7.6087 2.19575 8.02358V18.439C2.15734 18.8428 2.3284 19.2406 2.66371 19.5271C2.99916 19.8135 3.46478 19.9597 3.93755 19.9269H14.3884C14.6794 19.9306 14.9679 19.8792 15.2329 19.7763C15.5178 19.8755 15.8226 19.9265 16.1302 19.9269C16.6232 19.9249 17.1037 19.7944 17.5076 19.5528C18.598 20.0363 19.8938 20.0431 20.9911 19.5712C22.0884 19.0993 22.8537 18.2061 23.0484 17.17C23.2433 16.1339 22.8438 15.0808 21.9746 14.3393V14.3392ZM21.2211 14.5621L18.5687 16.8279V14.0419C19.4995 13.861 20.476 14.0525 21.2211 14.562V14.5621ZM17.362 11.4369C17.6903 11.7141 17.8741 12.0929 17.872 12.4873V14.868H14.3884V12.4873C14.387 12.1346 14.5332 11.793 14.8004 11.5243C15.0677 11.2554 15.4386 11.077 15.8462 11.0212C15.9399 11.0063 16.035 10.999 16.1302 10.9994C16.593 10.9977 17.037 11.1554 17.3621 11.4369L17.362 11.4369ZM3.93759 2.66719H4.63432V3.85752C4.63432 4.02185 4.7903 4.1551 4.98268 4.1551C5.17505 4.1551 5.33104 4.02185 5.33104 3.85752V2.66719H6.02776V3.85752C6.02776 4.02185 6.18375 4.1551 6.37612 4.1551C6.5685 4.1551 6.72448 4.02185 6.72448 3.85752V2.66719H7.4212V3.85752C7.4212 4.02185 7.57719 4.1551 7.76957 4.1551C7.96194 4.1551 8.11793 4.02185 8.11793 3.85752V2.66719H8.81465V3.85752C8.81465 4.02185 8.97063 4.1551 9.16301 4.1551C9.35538 4.1551 9.51137 4.02185 9.51137 3.85752V2.66719H10.2081V3.85752C10.2081 4.02185 10.3641 4.1551 10.5565 4.1551C10.7488 4.1551 10.9048 4.02185 10.9048 3.85752V2.66719H11.6015V3.85752C11.6015 4.02185 11.7575 4.1551 11.9499 4.1551C12.1423 4.1551 12.2983 4.02185 12.2983 3.85752V2.66719H12.995V3.85752C12.995 4.02185 13.151 4.1551 13.3433 4.1551C13.5357 4.1551 13.6917 4.02185 13.6917 3.85752V2.66719H14.3884V4.45269H3.93759V2.66719ZM13.6917 5.04785V6.23818H4.63432V5.04785H13.6917ZM2.89251 8.02367C2.92392 7.71692 3.08084 7.42956 3.33559 7.21183C3.59048 6.99423 3.92688 6.86018 4.28595 6.83334H14.0401C14.3992 6.86018 14.7356 6.99422 14.9904 7.21183C15.2452 7.42957 15.4021 7.71694 15.4335 8.02367V9.214H2.89251V8.02367ZM2.89251 9.80916H15.4335V10.4936C14.9295 10.6198 14.487 10.8825 14.1729 11.2421C13.8587 11.6017 13.6898 12.0388 13.6917 12.4874V16.356H2.89251V9.80916ZM3.93759 19.3318C3.65082 19.363 3.3631 19.2792 3.15862 19.1045C2.95411 18.9298 2.85598 18.684 2.89253 18.4391V16.9511H13.6917V17.8439C13.695 18.4028 13.96 18.9372 14.4275 19.3282C14.4135 19.3282 14.4027 19.3318 14.3884 19.3318L3.93759 19.3318ZM15.3714 19.1809C15.3621 19.177 15.3526 19.1734 15.3425 19.1701V19.1702C15.0563 19.0452 14.8159 18.8554 14.6476 18.6214C14.4792 18.3875 14.3896 18.1185 14.3884 17.8439V15.4632H17.872V17.8439C17.8721 18.2824 17.6451 18.6986 17.2519 18.9807C16.9938 19.1644 16.6795 19.2809 16.346 19.3164C16.0128 19.3519 15.6744 19.3048 15.3714 19.1809L15.3714 19.1809ZM19.2654 19.3318C18.8493 19.3321 18.4371 19.2612 18.0535 19.1235C18.0552 19.1214 18.0566 19.1187 18.0588 19.1166C18.1308 19.0362 18.1958 18.9516 18.2535 18.8631C18.267 18.8422 18.2796 18.8214 18.2925 18.8003C18.3442 18.7162 18.3891 18.629 18.4269 18.5396C18.43 18.5324 18.4339 18.5259 18.4367 18.5188C18.4742 18.423 18.5036 18.3249 18.5246 18.2254C18.5299 18.2014 18.5344 18.1772 18.5386 18.1528H18.5384C18.5577 18.0506 18.5678 17.9474 18.5687 17.8439V17.6694L21.7138 14.9828V14.983C22.2082 15.5107 22.4506 16.1787 22.3921 16.8528C22.3338 17.5269 21.9789 18.1572 21.399 18.6171C20.8189 19.0769 20.0567 19.3322 19.2655 19.3318H19.2654Z" fill="#151921"/>
</g>
</g>
</svg>
