<svg width="26" height="22" viewBox="0 0 26 22" fill="none" xmlns="http://www.w3.org/2000/svg">
<g id="Frame 18339">
<g id="Icon">
<path id="Fill 1" fill-rule="evenodd" clip-rule="evenodd" d="M9.7096 15.632C9.58366 15.632 9.46529 15.5925 9.37723 15.5228C9.28822 15.4581 9.23614 15.3683 9.23614 15.2727C9.23614 15.2224 9.25602 15.1771 9.27307 15.1354C9.29958 15.0902 9.33367 15.0485 9.37723 15.0147C9.55809 14.8854 9.87246 14.8854 10.0505 15.0147C10.1348 15.0844 10.1831 15.1771 10.1831 15.2727C10.1831 15.3654 10.1348 15.4581 10.0505 15.5228C10.006 15.5587 9.95011 15.5875 9.8914 15.604C9.83175 15.6155 9.77683 15.632 9.7096 15.632ZM9.70972 14.1986C9.58378 14.1986 9.46541 14.159 9.37735 14.0893C9.28834 14.0247 9.23626 13.9348 9.23626 13.8392C9.23626 13.7889 9.25614 13.7437 9.27319 13.702C9.2997 13.6567 9.33379 13.6143 9.37735 13.5813C9.55821 13.4519 9.87259 13.4519 10.0506 13.5813C10.1349 13.651 10.1832 13.7437 10.1832 13.8392C10.1832 13.9319 10.1349 14.0247 10.0506 14.0893C10.0061 14.1253 9.95023 14.1533 9.89153 14.1705C9.83187 14.182 9.77695 14.1986 9.70972 14.1986ZM9.70973 12.765C9.58379 12.765 9.46543 12.7255 9.37736 12.6558C9.28835 12.5911 9.23627 12.5013 9.23627 12.4057C9.23627 12.3043 9.29593 12.2174 9.37736 12.1477C9.55822 12.0183 9.8726 12.0183 10.0506 12.1477C10.1349 12.2174 10.1832 12.3101 10.1832 12.4057C10.1832 12.4984 10.1349 12.5911 10.0506 12.6558C10.0061 12.6917 9.95025 12.7204 9.89154 12.737C9.83188 12.7485 9.77696 12.765 9.70973 12.765ZM9.70961 11.3321C9.58367 11.3321 9.4653 11.2925 9.37724 11.2228C9.33652 11.1891 9.29959 11.1524 9.27308 11.1078C9.2513 11.0654 9.23994 11.0202 9.23615 10.9727C9.23615 10.8714 9.29581 10.7845 9.37724 10.7147C9.55053 10.5854 9.87248 10.5854 10.0505 10.7147C10.0874 10.7507 10.1281 10.7931 10.1461 10.8355C10.1727 10.88 10.1831 10.9224 10.1831 10.9727C10.1831 11.0151 10.1727 11.0654 10.1575 11.1078C10.1281 11.1524 10.0912 11.1891 10.0505 11.2228C10.006 11.2588 9.95013 11.2875 9.89142 11.304C9.83176 11.3234 9.77684 11.3321 9.70961 11.3321ZM9.70954 9.89784C9.65083 9.89497 9.58739 9.88347 9.53247 9.86981C9.41789 9.83029 9.32509 9.76058 9.2768 9.67291C9.25597 9.63122 9.23987 9.58595 9.23608 9.53852C9.23608 9.43719 9.29574 9.35024 9.38096 9.28053C9.50217 9.1792 9.7209 9.15117 9.89135 9.20723C9.95763 9.2216 10.0059 9.25178 10.0504 9.28053C10.0911 9.31646 10.1281 9.35886 10.1461 9.40126C10.1754 9.44582 10.183 9.48822 10.183 9.53852C10.183 9.58092 10.1754 9.63122 10.1574 9.67291C10.1281 9.71818 10.0911 9.75483 10.0533 9.78861C10.0059 9.82454 9.95385 9.85257 9.89135 9.86981C9.83169 9.88131 9.77677 9.89784 9.70954 9.89784ZM16.3701 15.6278H11.6455C11.3838 15.6278 11.1731 15.4679 11.1731 15.2693C11.1731 15.0735 11.3838 14.9107 11.6455 14.9107H16.3701C16.6328 14.9107 16.8425 15.0735 16.8425 15.2693C16.8425 15.4679 16.6328 15.6278 16.3701 15.6278ZM16.3702 14.1944H11.6457C11.384 14.1944 11.1732 14.0345 11.1732 13.8358C11.1732 13.64 11.384 13.4773 11.6457 13.4773H16.3702C16.6329 13.4773 16.8427 13.64 16.8427 13.8358C16.8427 14.0345 16.6329 14.1944 16.3702 14.1944ZM16.3703 12.7611H11.6457C11.384 12.7611 11.1733 12.6012 11.1733 12.4025C11.1733 12.2067 11.384 12.044 11.6457 12.044H16.3703C16.633 12.044 16.8427 12.2067 16.8427 12.4025C16.8427 12.6012 16.633 12.7611 16.3703 12.7611ZM16.3706 11.3276H11.6461C11.3843 11.3276 11.1736 11.1677 11.1736 10.969C11.1736 10.7733 11.3843 10.6105 11.6461 10.6105H16.3706C16.6333 10.6105 16.8431 10.7733 16.8431 10.969C16.8431 11.1677 16.6333 11.3276 16.3706 11.3276ZM16.3705 9.89346H11.646C11.3842 9.89346 11.1735 9.73355 11.1735 9.5349C11.1735 9.33913 11.3842 9.17635 11.646 9.17635H16.3705C16.6332 9.17635 16.843 9.33913 16.843 9.5349C16.843 9.73355 16.6332 9.89346 16.3705 9.89346Z" fill="#151921"/>
<path id="Fill 3" fill-rule="evenodd" clip-rule="evenodd" d="M13.063 17.0607C13.1291 17.0607 13.1999 17.0721 13.2623 17.0944L18.7293 19.0094V2.78806H7.39677V19.0094L12.8637 17.0944C12.9261 17.0721 12.9931 17.0607 13.063 17.0607ZM19.203 19.9299C19.1331 19.9299 19.0661 19.9185 19.0038 19.8962L13.0638 17.8161L7.12393 19.8962C6.97659 19.9493 6.80658 19.9414 6.66963 19.874C6.53362 19.8095 6.45239 19.6948 6.45239 19.5715V2.42992C6.45239 2.23136 6.66301 2.07152 6.92464 2.07152H19.203C19.4647 2.07152 19.6753 2.23136 19.6753 2.42992V19.5715C19.6753 19.7701 19.4647 19.9299 19.203 19.9299Z" fill="#151921"/>
<path id="Fill 6" fill-rule="evenodd" clip-rule="evenodd" d="M13.0643 6.41693C13.138 6.41693 13.2155 6.43128 13.2817 6.45638L13.9725 6.73108L13.8392 6.15083C13.8137 6.0332 13.8657 5.91558 13.9763 5.83166L14.5339 5.42283L13.7618 5.33891C13.6105 5.3217 13.4782 5.24639 13.4073 5.14239L13.0643 4.61306L12.7212 5.13952C12.6503 5.24639 12.518 5.31883 12.3668 5.33891L11.5947 5.42283L12.1523 5.83166C12.2629 5.91558 12.3148 6.0332 12.2893 6.15083L12.1561 6.73108L12.8469 6.45638C12.9131 6.43128 12.9868 6.41693 13.0643 6.41693ZM14.5993 7.74451C14.5218 7.74451 14.4481 7.73088 14.382 7.70221L13.0642 7.17885L11.7464 7.70221C11.5887 7.76673 11.396 7.75598 11.2524 7.67711C11.105 7.5961 11.0351 7.45917 11.0644 7.32439L11.3147 6.2153L10.252 5.42883C10.1235 5.33347 10.0753 5.19081 10.1311 5.06176C10.1858 4.92984 10.3332 4.83449 10.5146 4.81514L11.9826 4.65311L12.6401 3.64152C12.7988 3.39848 13.3297 3.39848 13.4884 3.64152L14.1459 4.65311L15.6139 4.81514C15.7763 4.70043 16.0201 4.68107 16.2043 4.77284C16.3894 4.86532 16.4631 5.04455 16.3856 5.20156C16.3082 5.35857 16.0937 5.45105 15.8765 5.42883L14.8137 6.2153L15.0641 7.32439C15.0905 7.43121 15.0499 7.53731 14.9611 7.61833C14.8723 7.70006 14.7391 7.74451 14.5993 7.74451Z" fill="#151921"/>
</g>
</g>
</svg>
